M48
;DRILL file {KiCad (5.0.1)-4} date 21/12/2018 14:04:34
;FORMAT={-:-/ absolute / metric / decimal}
FMAT,2
METRIC,TZ
T1C0.400
T2C0.762
T3C0.800
T4C0.990
T5C1.000
T6C1.100
T7C1.200
T8C1.300
%
G90
G05
M71
T1
X188.722Y-81.28
X188.722Y-83.058
X188.722Y-84.836
X188.722Y-86.614
X190.5Y-81.28
X190.5Y-83.058
X190.5Y-84.836
X190.5Y-86.614
X192.405Y-76.073
X202.565Y-52.451
X204.47Y-41.91
X204.47Y-43.688
X204.47Y-45.466
X204.47Y-47.244
X206.248Y-41.91
X206.248Y-43.688
X206.248Y-45.466
X206.248Y-47.244
T2
X182.499Y-73.279
X184.499Y-73.279
X186.499Y-73.279
X188.499Y-73.279
X206.471Y-55.245
X208.471Y-55.245
X210.471Y-55.245
X212.471Y-55.245
X170.434Y-73.279
X172.434Y-73.279
X174.434Y-73.279
X176.434Y-73.279
X218.536Y-55.245
X220.536Y-55.245
X222.536Y-55.245
X224.536Y-55.245
T3
X217.678Y-94.234
X225.298Y-94.234
X193.294Y-58.166
X193.294Y-60.666
X205.74Y-82.296
X205.74Y-87.296
X185.674Y-42.418
X185.674Y-44.958
X209.296Y-83.566
X209.296Y-86.106
X206.756Y-68.072
X209.296Y-68.072
X189.23Y-49.022
X189.23Y-54.022
X169.926Y-60.96
X172.466Y-60.96
X222.504Y-67.564
X225.044Y-67.564
X234.442Y-94.742
X236.982Y-92.202
X239.522Y-94.742
X180.848Y-33.862
X180.848Y-38.862
X155.448Y-33.782
X157.988Y-36.322
X160.528Y-33.782
X185.674Y-60.452
X188.214Y-60.452
X189.23Y-41.228
X189.23Y-46.228
X209.169Y-73.279
X209.169Y-80.899
X178.054Y-53.848
X180.594Y-53.848
X177.038Y-59.436
X179.578Y-61.976
X182.118Y-59.436
X212.852Y-69.088
X215.392Y-66.548
X217.932Y-69.088
X185.801Y-47.625
X185.801Y-55.245
X214.122Y-89.662
X214.122Y-94.662
X189.738Y-34.29
X192.278Y-34.29
X194.818Y-34.29
X197.358Y-34.29
X199.898Y-34.29
X202.438Y-34.29
X204.978Y-34.29
X169.672Y-34.29
X177.292Y-34.29
X189.992Y-94.234
X192.532Y-94.234
X195.072Y-94.234
X197.612Y-94.234
X200.152Y-94.234
X202.692Y-94.234
X205.232Y-94.234
X201.676Y-67.858
X201.676Y-70.358
X214.376Y-74.676
X216.916Y-74.676
X164.338Y-28.702
X164.338Y-36.322
X175.26Y-42.418
X175.26Y-44.958
X175.26Y-47.498
X175.26Y-50.038
X182.88Y-42.418
X182.88Y-44.958
X182.88Y-47.498
X182.88Y-50.038
X212.09Y-78.486
X212.09Y-81.026
X212.09Y-83.566
X212.09Y-86.106
X219.71Y-78.486
X219.71Y-81.026
X219.71Y-83.566
X219.71Y-86.106
X230.632Y-92.202
X230.632Y-99.822
X205.74Y-74.502
X205.74Y-79.502
T4
X221.814Y-102.108
X226.314Y-102.108
X208.86Y-102.108
X213.36Y-102.108
X181.61Y-26.416
X186.11Y-26.416
X168.656Y-26.416
X173.156Y-26.416
X234.895Y-102.108
X239.395Y-102.108
X155.575Y-26.416
X160.075Y-26.416
T5
X223.854Y-75.438
X228.854Y-75.438
X169.164Y-39.624
X169.164Y-42.164
X171.704Y-39.624
X171.704Y-42.164
X223.266Y-86.36
X223.266Y-88.9
X225.806Y-86.36
X225.806Y-88.9
X157.52Y-74.676
X160.02Y-74.676
X234.95Y-53.848
X237.45Y-53.848
X193.675Y-39.624
X193.675Y-42.164
X196.215Y-39.624
X196.215Y-42.164
X198.755Y-39.624
X198.755Y-42.164
X201.295Y-39.624
X201.295Y-42.164
X223.139Y-39.624
X223.139Y-42.164
X225.679Y-39.624
X225.679Y-42.164
X166.116Y-53.086
X171.116Y-53.086
X169.291Y-86.36
X169.291Y-88.9
X171.831Y-86.36
X171.831Y-88.9
X193.675Y-86.36
X193.675Y-88.9
X196.215Y-86.36
X196.215Y-88.9
X198.755Y-86.36
X198.755Y-88.9
X201.295Y-86.36
X201.295Y-88.9
T6
X158.496Y-44.196
X161.036Y-44.196
X163.576Y-44.196
X213.106Y-44.196
X215.646Y-44.196
X218.186Y-44.196
X159.258Y-84.328
X161.798Y-84.328
X164.338Y-84.328
X176.784Y-84.328
X179.324Y-84.328
X181.864Y-84.328
X230.632Y-44.196
X233.172Y-44.196
X235.712Y-44.196
X231.394Y-84.328
X233.934Y-84.328
X236.474Y-84.328
T7
X155.194Y-40.132
X165.354Y-40.132
X229.616Y-88.392
X239.776Y-88.392
X235.514Y-72.644
X242.514Y-72.644
X152.456Y-55.88
X159.456Y-55.88
T8
X180.36Y-28.906
X187.37Y-28.906
X167.406Y-28.906
X174.416Y-28.906
X233.635Y-99.618
X240.645Y-99.618
X154.325Y-28.906
X161.335Y-28.906
X220.554Y-99.618
X227.564Y-99.618
X207.6Y-99.618
X214.61Y-99.618
T0
M30
