G04 #@! TF.GenerationSoftware,KiCad,Pcbnew,(5.0.1)-4*
G04 #@! TF.CreationDate,2018-12-21T14:04:29+09:00*
G04 #@! TF.ProjectId,Nixie_Module_PowerSupply_panelized,4E697869655F4D6F64756C655F506F77,rev?*
G04 #@! TF.SameCoordinates,Original*
G04 #@! TF.FileFunction,Copper,L2,Bot,Signal*
G04 #@! TF.FilePolarity,Positive*
%FSLAX46Y46*%
G04 Gerber Fmt 4.6, Leading zero omitted, Abs format (unit mm)*
G04 Created by KiCad (PCBNEW (5.0.1)-4) date 21/12/2018 14:04:29*
%MOMM*%
%LPD*%
G01*
G04 APERTURE LIST*
G04 #@! TA.AperFunction,ComponentPad*
%ADD10O,1.600000X1.600000*%
G04 #@! TD*
G04 #@! TA.AperFunction,ComponentPad*
%ADD11C,1.600000*%
G04 #@! TD*
G04 #@! TA.AperFunction,ComponentPad*
%ADD12C,1.524000*%
G04 #@! TD*
G04 #@! TA.AperFunction,ComponentPad*
%ADD13C,1.750000*%
G04 #@! TD*
G04 #@! TA.AperFunction,ComponentPad*
%ADD14R,1.750000X1.750000*%
G04 #@! TD*
G04 #@! TA.AperFunction,ComponentPad*
%ADD15R,1.905000X2.000000*%
G04 #@! TD*
G04 #@! TA.AperFunction,ComponentPad*
%ADD16O,1.905000X2.000000*%
G04 #@! TD*
G04 #@! TA.AperFunction,ComponentPad*
%ADD17O,1.700000X1.700000*%
G04 #@! TD*
G04 #@! TA.AperFunction,ComponentPad*
%ADD18R,1.700000X1.700000*%
G04 #@! TD*
G04 #@! TA.AperFunction,ComponentPad*
%ADD19R,1.600000X1.600000*%
G04 #@! TD*
G04 #@! TA.AperFunction,ComponentPad*
%ADD20C,2.100000*%
G04 #@! TD*
G04 #@! TA.AperFunction,ComponentPad*
%ADD21O,2.400000X2.400000*%
G04 #@! TD*
G04 #@! TA.AperFunction,ComponentPad*
%ADD22R,2.400000X2.400000*%
G04 #@! TD*
G04 #@! TA.AperFunction,ComponentPad*
%ADD23R,1.500000X1.500000*%
G04 #@! TD*
G04 #@! TA.AperFunction,ComponentPad*
%ADD24C,1.500000*%
G04 #@! TD*
G04 #@! TA.AperFunction,ComponentPad*
%ADD25C,2.400000*%
G04 #@! TD*
G04 #@! TA.AperFunction,ComponentPad*
%ADD26C,2.000000*%
G04 #@! TD*
G04 #@! TA.AperFunction,ComponentPad*
%ADD27R,2.000000X2.000000*%
G04 #@! TD*
G04 #@! TA.AperFunction,ViaPad*
%ADD28C,0.800000*%
G04 #@! TD*
G04 #@! TA.AperFunction,Conductor*
%ADD29C,2.000000*%
G04 #@! TD*
G04 #@! TA.AperFunction,Conductor*
%ADD30C,0.254000*%
G04 #@! TD*
G04 #@! TA.AperFunction,Conductor*
%ADD31C,1.270000*%
G04 #@! TD*
G04 #@! TA.AperFunction,Conductor*
%ADD32C,2.540000*%
G04 #@! TD*
G04 #@! TA.AperFunction,NonConductor*
%ADD33C,0.254000*%
G04 #@! TD*
G04 APERTURE END LIST*
D10*
G04 #@! TO.P,R7,2*
G04 #@! TO.N,N/C*
X188214000Y-60452000D03*
D11*
G04 #@! TO.P,R7,1*
X185674000Y-60452000D03*
G04 #@! TD*
D12*
G04 #@! TO.P,J4,4*
G04 #@! TO.N,N/C*
X206471000Y-55245000D03*
G04 #@! TO.P,J4,3*
X208471000Y-55245000D03*
G04 #@! TO.P,J4,2*
X210471000Y-55245000D03*
G04 #@! TO.P,J4,1*
X212471000Y-55245000D03*
G04 #@! TD*
D13*
G04 #@! TO.P,J6,2*
G04 #@! TO.N,N/C*
X237450000Y-53848000D03*
D14*
G04 #@! TO.P,J6,1*
X234950000Y-53848000D03*
G04 #@! TD*
D10*
G04 #@! TO.P,R3,2*
G04 #@! TO.N,N/C*
X169672000Y-34290000D03*
D11*
G04 #@! TO.P,R3,1*
X177292000Y-34290000D03*
G04 #@! TD*
D15*
G04 #@! TO.P,U2,1*
G04 #@! TO.N,N/C*
X218186000Y-44196000D03*
D16*
G04 #@! TO.P,U2,2*
X215646000Y-44196000D03*
G04 #@! TO.P,U2,3*
X213106000Y-44196000D03*
G04 #@! TD*
D17*
G04 #@! TO.P,J5,4*
G04 #@! TO.N,N/C*
X225679000Y-39624000D03*
G04 #@! TO.P,J5,3*
X223139000Y-39624000D03*
G04 #@! TO.P,J5,2*
X225679000Y-42164000D03*
D18*
G04 #@! TO.P,J5,1*
X223139000Y-42164000D03*
G04 #@! TD*
D17*
G04 #@! TO.P,J3,8*
G04 #@! TO.N,N/C*
X193675000Y-39624000D03*
G04 #@! TO.P,J3,7*
X193675000Y-42164000D03*
G04 #@! TO.P,J3,6*
X196215000Y-39624000D03*
G04 #@! TO.P,J3,5*
X196215000Y-42164000D03*
G04 #@! TO.P,J3,4*
X198755000Y-39624000D03*
G04 #@! TO.P,J3,3*
X198755000Y-42164000D03*
G04 #@! TO.P,J3,2*
X201295000Y-39624000D03*
D18*
G04 #@! TO.P,J3,1*
X201295000Y-42164000D03*
G04 #@! TD*
D12*
G04 #@! TO.P,R6,1*
G04 #@! TO.N,N/C*
X177038000Y-59436000D03*
G04 #@! TO.P,R6,3*
X182118000Y-59436000D03*
G04 #@! TO.P,R6,2*
X179578000Y-61976000D03*
G04 #@! TD*
D10*
G04 #@! TO.P,RN1,7*
G04 #@! TO.N,N/C*
X189738000Y-34290000D03*
G04 #@! TO.P,RN1,6*
X192278000Y-34290000D03*
G04 #@! TO.P,RN1,5*
X194818000Y-34290000D03*
G04 #@! TO.P,RN1,4*
X197358000Y-34290000D03*
G04 #@! TO.P,RN1,3*
X199898000Y-34290000D03*
G04 #@! TO.P,RN1,2*
X202438000Y-34290000D03*
D19*
G04 #@! TO.P,RN1,1*
X204978000Y-34290000D03*
G04 #@! TD*
D10*
G04 #@! TO.P,U3,8*
G04 #@! TO.N,N/C*
X182880000Y-42418000D03*
G04 #@! TO.P,U3,4*
X175260000Y-50038000D03*
G04 #@! TO.P,U3,7*
X182880000Y-44958000D03*
G04 #@! TO.P,U3,3*
X175260000Y-47498000D03*
G04 #@! TO.P,U3,6*
X182880000Y-47498000D03*
G04 #@! TO.P,U3,2*
X175260000Y-44958000D03*
G04 #@! TO.P,U3,5*
X182880000Y-50038000D03*
D19*
G04 #@! TO.P,U3,1*
X175260000Y-42418000D03*
G04 #@! TD*
D20*
G04 #@! TO.P,SW2,*
G04 #@! TO.N,*
X174416000Y-28906000D03*
D13*
G04 #@! TO.P,SW2,2*
G04 #@! TO.N,N/C*
X173156000Y-26416000D03*
G04 #@! TO.P,SW2,1*
X168656000Y-26416000D03*
D20*
G04 #@! TO.P,SW2,*
G04 #@! TO.N,*
X167406000Y-28906000D03*
G04 #@! TD*
G04 #@! TO.P,SW1,*
G04 #@! TO.N,*
X180360000Y-28906000D03*
D13*
G04 #@! TO.P,SW1,1*
G04 #@! TO.N,N/C*
X181610000Y-26416000D03*
G04 #@! TO.P,SW1,2*
X186110000Y-26416000D03*
D20*
G04 #@! TO.P,SW1,*
G04 #@! TO.N,*
X187370000Y-28906000D03*
G04 #@! TD*
D10*
G04 #@! TO.P,R1,2*
G04 #@! TO.N,N/C*
X185801000Y-47625000D03*
D11*
G04 #@! TO.P,R1,1*
X185801000Y-55245000D03*
G04 #@! TD*
D20*
G04 #@! TO.P,SW3,*
G04 #@! TO.N,*
X154325000Y-28906000D03*
D13*
G04 #@! TO.P,SW3,1*
G04 #@! TO.N,N/C*
X155575000Y-26416000D03*
G04 #@! TO.P,SW3,2*
X160075000Y-26416000D03*
D20*
G04 #@! TO.P,SW3,*
G04 #@! TO.N,*
X161335000Y-28906000D03*
G04 #@! TD*
D12*
G04 #@! TO.P,J1,4*
G04 #@! TO.N,N/C*
X218536000Y-55245000D03*
G04 #@! TO.P,J1,3*
X220536000Y-55245000D03*
G04 #@! TO.P,J1,2*
X222536000Y-55245000D03*
G04 #@! TO.P,J1,1*
X224536000Y-55245000D03*
G04 #@! TD*
D11*
G04 #@! TO.P,C1,2*
G04 #@! TO.N,N/C*
X193294000Y-60666000D03*
D19*
G04 #@! TO.P,C1,1*
X193294000Y-58166000D03*
G04 #@! TD*
D16*
G04 #@! TO.P,U1,3*
G04 #@! TO.N,N/C*
X230632000Y-44196000D03*
G04 #@! TO.P,U1,2*
X233172000Y-44196000D03*
D15*
G04 #@! TO.P,U1,1*
X235712000Y-44196000D03*
G04 #@! TD*
D16*
G04 #@! TO.P,Q2,3*
G04 #@! TO.N,N/C*
X158496000Y-44196000D03*
G04 #@! TO.P,Q2,2*
X161036000Y-44196000D03*
D15*
G04 #@! TO.P,Q2,1*
X163576000Y-44196000D03*
G04 #@! TD*
D11*
G04 #@! TO.P,R5,1*
G04 #@! TO.N,N/C*
X172466000Y-60960000D03*
D10*
G04 #@! TO.P,R5,2*
X169926000Y-60960000D03*
G04 #@! TD*
D21*
G04 #@! TO.P,D2,2*
G04 #@! TO.N,N/C*
X155194000Y-40132000D03*
D22*
G04 #@! TO.P,D2,1*
X165354000Y-40132000D03*
G04 #@! TD*
D11*
G04 #@! TO.P,C3,1*
G04 #@! TO.N,N/C*
X180848000Y-38862000D03*
G04 #@! TO.P,C3,2*
X180848000Y-33862000D03*
G04 #@! TD*
D17*
G04 #@! TO.P,J2,4*
G04 #@! TO.N,N/C*
X171704000Y-39624000D03*
G04 #@! TO.P,J2,3*
X169164000Y-39624000D03*
G04 #@! TO.P,J2,2*
X171704000Y-42164000D03*
D18*
G04 #@! TO.P,J2,1*
X169164000Y-42164000D03*
G04 #@! TD*
D10*
G04 #@! TO.P,D1,2*
G04 #@! TO.N,N/C*
X164338000Y-28702000D03*
D19*
G04 #@! TO.P,D1,1*
X164338000Y-36322000D03*
G04 #@! TD*
D10*
G04 #@! TO.P,R2,2*
G04 #@! TO.N,N/C*
X185674000Y-44958000D03*
D11*
G04 #@! TO.P,R2,1*
X185674000Y-42418000D03*
G04 #@! TD*
D23*
G04 #@! TO.P,Q1,1*
G04 #@! TO.N,N/C*
X160528000Y-33782000D03*
D24*
G04 #@! TO.P,Q1,3*
X155448000Y-33782000D03*
G04 #@! TO.P,Q1,2*
X157988000Y-36322000D03*
G04 #@! TD*
D25*
G04 #@! TO.P,L1,2*
G04 #@! TO.N,N/C*
X152456000Y-55880000D03*
G04 #@! TO.P,L1,1*
X159456000Y-55880000D03*
G04 #@! TD*
D26*
G04 #@! TO.P,C5,2*
G04 #@! TO.N,N/C*
X171116000Y-53086000D03*
D27*
G04 #@! TO.P,C5,1*
X166116000Y-53086000D03*
G04 #@! TD*
D11*
G04 #@! TO.P,R4,1*
G04 #@! TO.N,N/C*
X178054000Y-53848000D03*
D10*
G04 #@! TO.P,R4,2*
X180594000Y-53848000D03*
G04 #@! TD*
D11*
G04 #@! TO.P,C4,2*
G04 #@! TO.N,N/C*
X189230000Y-54022000D03*
G04 #@! TO.P,C4,1*
X189230000Y-49022000D03*
G04 #@! TD*
G04 #@! TO.P,C2,2*
G04 #@! TO.N,N/C*
X189230000Y-41228000D03*
G04 #@! TO.P,C2,1*
X189230000Y-46228000D03*
G04 #@! TD*
D15*
G04 #@! TO.P,U1,1*
G04 #@! TO.N,+12V*
X159258000Y-84328000D03*
D16*
G04 #@! TO.P,U1,2*
G04 #@! TO.N,GND*
X161798000Y-84328000D03*
G04 #@! TO.P,U1,3*
G04 #@! TO.N,+5V*
X164338000Y-84328000D03*
G04 #@! TD*
D25*
G04 #@! TO.P,L1,1*
G04 #@! TO.N,Net-(L1-Pad1)*
X235514000Y-72644000D03*
G04 #@! TO.P,L1,2*
G04 #@! TO.N,Net-(D2-Pad2)*
X242514000Y-72644000D03*
G04 #@! TD*
D18*
G04 #@! TO.P,J2,1*
G04 #@! TO.N,+HV*
X225806000Y-86360000D03*
D17*
G04 #@! TO.P,J2,2*
X223266000Y-86360000D03*
G04 #@! TO.P,J2,3*
G04 #@! TO.N,N/C*
X225806000Y-88900000D03*
G04 #@! TO.P,J2,4*
X223266000Y-88900000D03*
G04 #@! TD*
D19*
G04 #@! TO.P,C1,1*
G04 #@! TO.N,+12V*
X201676000Y-70358000D03*
D11*
G04 #@! TO.P,C1,2*
G04 #@! TO.N,GND*
X201676000Y-67858000D03*
G04 #@! TD*
G04 #@! TO.P,C2,1*
G04 #@! TO.N,+12V*
X205740000Y-82296000D03*
G04 #@! TO.P,C2,2*
G04 #@! TO.N,GND*
X205740000Y-87296000D03*
G04 #@! TD*
G04 #@! TO.P,C3,2*
G04 #@! TO.N,GND*
X214122000Y-94662000D03*
G04 #@! TO.P,C3,1*
G04 #@! TO.N,Net-(C3-Pad1)*
X214122000Y-89662000D03*
G04 #@! TD*
G04 #@! TO.P,C4,1*
G04 #@! TO.N,Net-(C4-Pad1)*
X205740000Y-79502000D03*
G04 #@! TO.P,C4,2*
G04 #@! TO.N,GND*
X205740000Y-74502000D03*
G04 #@! TD*
D27*
G04 #@! TO.P,C5,1*
G04 #@! TO.N,+HV*
X228854000Y-75438000D03*
D26*
G04 #@! TO.P,C5,2*
G04 #@! TO.N,GND*
X223854000Y-75438000D03*
G04 #@! TD*
D19*
G04 #@! TO.P,D1,1*
G04 #@! TO.N,Net-(D1-Pad1)*
X230632000Y-92202000D03*
D10*
G04 #@! TO.P,D1,2*
G04 #@! TO.N,Net-(D1-Pad2)*
X230632000Y-99822000D03*
G04 #@! TD*
D22*
G04 #@! TO.P,D2,1*
G04 #@! TO.N,+HV*
X229616000Y-88392000D03*
D21*
G04 #@! TO.P,D2,2*
G04 #@! TO.N,Net-(D2-Pad2)*
X239776000Y-88392000D03*
G04 #@! TD*
D24*
G04 #@! TO.P,Q1,2*
G04 #@! TO.N,GND*
X236982000Y-92202000D03*
G04 #@! TO.P,Q1,3*
G04 #@! TO.N,Net-(D1-Pad2)*
X239522000Y-94742000D03*
D23*
G04 #@! TO.P,Q1,1*
G04 #@! TO.N,Net-(D1-Pad1)*
X234442000Y-94742000D03*
G04 #@! TD*
D15*
G04 #@! TO.P,Q2,1*
G04 #@! TO.N,Net-(D1-Pad1)*
X231394000Y-84328000D03*
D16*
G04 #@! TO.P,Q2,2*
G04 #@! TO.N,Net-(D2-Pad2)*
X233934000Y-84328000D03*
G04 #@! TO.P,Q2,3*
G04 #@! TO.N,GND*
X236474000Y-84328000D03*
G04 #@! TD*
D11*
G04 #@! TO.P,R2,1*
G04 #@! TO.N,Net-(R2-Pad1)*
X209296000Y-86106000D03*
D10*
G04 #@! TO.P,R2,2*
G04 #@! TO.N,Net-(L1-Pad1)*
X209296000Y-83566000D03*
G04 #@! TD*
G04 #@! TO.P,R4,2*
G04 #@! TO.N,Net-(L1-Pad1)*
X214376000Y-74676000D03*
D11*
G04 #@! TO.P,R4,1*
G04 #@! TO.N,Net-(R4-Pad1)*
X216916000Y-74676000D03*
G04 #@! TD*
D10*
G04 #@! TO.P,R5,2*
G04 #@! TO.N,+HV*
X225044000Y-67564000D03*
D11*
G04 #@! TO.P,R5,1*
G04 #@! TO.N,Net-(R5-Pad1)*
X222504000Y-67564000D03*
G04 #@! TD*
G04 #@! TO.P,R7,1*
G04 #@! TO.N,Net-(R6-Pad3)*
X209296000Y-68072000D03*
D10*
G04 #@! TO.P,R7,2*
G04 #@! TO.N,GND*
X206756000Y-68072000D03*
G04 #@! TD*
D20*
G04 #@! TO.P,SW1,*
G04 #@! TO.N,*
X207600000Y-99618000D03*
D13*
G04 #@! TO.P,SW1,2*
G04 #@! TO.N,GND*
X208860000Y-102108000D03*
G04 #@! TO.P,SW1,1*
G04 #@! TO.N,/SW_MODE*
X213360000Y-102108000D03*
D20*
G04 #@! TO.P,SW1,*
G04 #@! TO.N,*
X214610000Y-99618000D03*
G04 #@! TD*
G04 #@! TO.P,SW2,*
G04 #@! TO.N,*
X227564000Y-99618000D03*
D13*
G04 #@! TO.P,SW2,1*
G04 #@! TO.N,/SW_UP*
X226314000Y-102108000D03*
G04 #@! TO.P,SW2,2*
G04 #@! TO.N,GND*
X221814000Y-102108000D03*
D20*
G04 #@! TO.P,SW2,*
G04 #@! TO.N,*
X220554000Y-99618000D03*
G04 #@! TD*
G04 #@! TO.P,SW3,*
G04 #@! TO.N,*
X233635000Y-99618000D03*
D13*
G04 #@! TO.P,SW3,2*
G04 #@! TO.N,GND*
X234895000Y-102108000D03*
G04 #@! TO.P,SW3,1*
G04 #@! TO.N,/SW_DOWN*
X239395000Y-102108000D03*
D20*
G04 #@! TO.P,SW3,*
G04 #@! TO.N,*
X240645000Y-99618000D03*
G04 #@! TD*
D19*
G04 #@! TO.P,U3,1*
G04 #@! TO.N,Net-(R4-Pad1)*
X219710000Y-86106000D03*
D10*
G04 #@! TO.P,U3,5*
G04 #@! TO.N,Net-(C4-Pad1)*
X212090000Y-78486000D03*
G04 #@! TO.P,U3,2*
G04 #@! TO.N,Net-(D1-Pad2)*
X219710000Y-83566000D03*
G04 #@! TO.P,U3,6*
G04 #@! TO.N,+12V*
X212090000Y-81026000D03*
G04 #@! TO.P,U3,3*
G04 #@! TO.N,Net-(C3-Pad1)*
X219710000Y-81026000D03*
G04 #@! TO.P,U3,7*
G04 #@! TO.N,Net-(L1-Pad1)*
X212090000Y-83566000D03*
G04 #@! TO.P,U3,4*
G04 #@! TO.N,GND*
X219710000Y-78486000D03*
G04 #@! TO.P,U3,8*
G04 #@! TO.N,Net-(R2-Pad1)*
X212090000Y-86106000D03*
G04 #@! TD*
D12*
G04 #@! TO.P,R6,2*
G04 #@! TO.N,Net-(C4-Pad1)*
X215392000Y-66548000D03*
G04 #@! TO.P,R6,3*
G04 #@! TO.N,Net-(R6-Pad3)*
X212852000Y-69088000D03*
G04 #@! TO.P,R6,1*
G04 #@! TO.N,Net-(R5-Pad1)*
X217932000Y-69088000D03*
G04 #@! TD*
D19*
G04 #@! TO.P,RN1,1*
G04 #@! TO.N,+3V3*
X189992000Y-94234000D03*
D10*
G04 #@! TO.P,RN1,2*
G04 #@! TO.N,/NIX_SDA*
X192532000Y-94234000D03*
G04 #@! TO.P,RN1,3*
G04 #@! TO.N,/NIX_SCL*
X195072000Y-94234000D03*
G04 #@! TO.P,RN1,4*
G04 #@! TO.N,/SW_DOWN*
X197612000Y-94234000D03*
G04 #@! TO.P,RN1,5*
G04 #@! TO.N,/SW_MODE*
X200152000Y-94234000D03*
G04 #@! TO.P,RN1,6*
G04 #@! TO.N,/SW_UP*
X202692000Y-94234000D03*
G04 #@! TO.P,RN1,7*
G04 #@! TO.N,N/C*
X205232000Y-94234000D03*
G04 #@! TD*
D18*
G04 #@! TO.P,J3,1*
G04 #@! TO.N,/GROVE_GPIO_1*
X193675000Y-86360000D03*
D17*
G04 #@! TO.P,J3,2*
G04 #@! TO.N,/SW_UP*
X193675000Y-88900000D03*
G04 #@! TO.P,J3,3*
G04 #@! TO.N,/NIX_SDA*
X196215000Y-86360000D03*
G04 #@! TO.P,J3,4*
G04 #@! TO.N,/NIX_SCL*
X196215000Y-88900000D03*
G04 #@! TO.P,J3,5*
G04 #@! TO.N,/SW_DOWN*
X198755000Y-86360000D03*
G04 #@! TO.P,J3,6*
G04 #@! TO.N,/SW_MODE*
X198755000Y-88900000D03*
G04 #@! TO.P,J3,7*
G04 #@! TO.N,GND*
X201295000Y-86360000D03*
G04 #@! TO.P,J3,8*
G04 #@! TO.N,/GROVE_GPIO_0*
X201295000Y-88900000D03*
G04 #@! TD*
D12*
G04 #@! TO.P,J4,1*
G04 #@! TO.N,/NIX_SCL*
X182499000Y-73279000D03*
G04 #@! TO.P,J4,2*
G04 #@! TO.N,/NIX_SDA*
X184499000Y-73279000D03*
G04 #@! TO.P,J4,3*
G04 #@! TO.N,+3V3*
X186499000Y-73279000D03*
G04 #@! TO.P,J4,4*
G04 #@! TO.N,GND*
X188499000Y-73279000D03*
G04 #@! TD*
D18*
G04 #@! TO.P,J5,1*
G04 #@! TO.N,GND*
X171831000Y-86360000D03*
D17*
G04 #@! TO.P,J5,2*
X169291000Y-86360000D03*
G04 #@! TO.P,J5,3*
G04 #@! TO.N,+3V3*
X171831000Y-88900000D03*
G04 #@! TO.P,J5,4*
G04 #@! TO.N,+5V*
X169291000Y-88900000D03*
G04 #@! TD*
D12*
G04 #@! TO.P,J1,1*
G04 #@! TO.N,/GROVE_GPIO_0*
X170434000Y-73279000D03*
G04 #@! TO.P,J1,2*
G04 #@! TO.N,/GROVE_GPIO_1*
X172434000Y-73279000D03*
G04 #@! TO.P,J1,3*
G04 #@! TO.N,+3V3*
X174434000Y-73279000D03*
G04 #@! TO.P,J1,4*
G04 #@! TO.N,GND*
X176434000Y-73279000D03*
G04 #@! TD*
D11*
G04 #@! TO.P,R3,1*
G04 #@! TO.N,GND*
X217678000Y-94234000D03*
D10*
G04 #@! TO.P,R3,2*
G04 #@! TO.N,Net-(D1-Pad2)*
X225298000Y-94234000D03*
G04 #@! TD*
D16*
G04 #@! TO.P,U2,3*
G04 #@! TO.N,+3V3*
X181864000Y-84328000D03*
G04 #@! TO.P,U2,2*
G04 #@! TO.N,GND*
X179324000Y-84328000D03*
D15*
G04 #@! TO.P,U2,1*
G04 #@! TO.N,+5V*
X176784000Y-84328000D03*
G04 #@! TD*
D14*
G04 #@! TO.P,J6,1*
G04 #@! TO.N,+12V*
X160020000Y-74676000D03*
D13*
G04 #@! TO.P,J6,2*
G04 #@! TO.N,GND*
X157520000Y-74676000D03*
G04 #@! TD*
D11*
G04 #@! TO.P,R1,1*
G04 #@! TO.N,Net-(L1-Pad1)*
X209169000Y-73279000D03*
D10*
G04 #@! TO.P,R1,2*
G04 #@! TO.N,+12V*
X209169000Y-80899000D03*
G04 #@! TD*
D28*
G04 #@! TO.N,*
X204470000Y-41910000D03*
X206248000Y-43688000D03*
X206248000Y-47244000D03*
X206248000Y-45466000D03*
X204470000Y-43688000D03*
X206248000Y-41910000D03*
X204470000Y-47244000D03*
X204470000Y-45466000D03*
X202565000Y-52451000D03*
G04 #@! TO.N,GND*
X188722000Y-81280000D03*
X188722000Y-83058000D03*
X188722000Y-84836000D03*
X188722000Y-86614000D03*
X190500000Y-81280000D03*
X190500000Y-83058000D03*
X190500000Y-84836000D03*
X190500000Y-86614000D03*
G04 #@! TO.N,/GROVE_GPIO_1*
X192405000Y-76073000D03*
G04 #@! TD*
D29*
G04 #@! TO.N,*
X189230000Y-46228000D02*
X190361370Y-46228000D01*
X196850000Y-51562000D02*
X194564000Y-53848000D01*
X194564000Y-53848000D02*
X193294000Y-55118000D01*
X190361370Y-46228000D02*
X190373000Y-46239630D01*
X190373000Y-46239630D02*
X190765630Y-46239630D01*
X196088000Y-51562000D02*
X196850000Y-51562000D01*
X187833000Y-46493630D02*
X187833000Y-46724370D01*
X185674000Y-47498000D02*
X185801000Y-47625000D01*
X186932370Y-47625000D02*
X185801000Y-47625000D01*
X187833000Y-46724370D02*
X186932370Y-47625000D01*
X188098630Y-46228000D02*
X187833000Y-46493630D01*
X189230000Y-46228000D02*
X188098630Y-46228000D01*
X182880000Y-47498000D02*
X185674000Y-47498000D01*
X190765630Y-46239630D02*
X196088000Y-51562000D01*
X234950000Y-49784000D02*
X198628000Y-49784000D01*
X198628000Y-49784000D02*
X196850000Y-51562000D01*
X234950000Y-49784000D02*
X234950000Y-47879000D01*
X235712000Y-47196000D02*
X235712000Y-44196000D01*
X235029000Y-47879000D02*
X235712000Y-47196000D01*
X234950000Y-47879000D02*
X235029000Y-47879000D01*
X234950000Y-53848000D02*
X234950000Y-49784000D01*
X193294000Y-55118000D02*
X193294000Y-58166000D01*
D30*
X235204000Y-58166000D02*
X237450000Y-55920000D01*
D31*
X189230000Y-59182000D02*
X189230000Y-54022000D01*
D30*
X206375000Y-54356000D02*
X206375000Y-55149000D01*
X206471000Y-55245000D02*
X200279000Y-55245000D01*
X194858000Y-60666000D02*
X193294000Y-60666000D01*
D31*
X188214000Y-60452000D02*
X189357000Y-59309000D01*
D30*
X217327630Y-52959000D02*
X207772000Y-52959000D01*
X218536000Y-55245000D02*
X218536000Y-54167370D01*
X220379370Y-58166000D02*
X235204000Y-58166000D01*
X200279000Y-55245000D02*
X194858000Y-60666000D01*
X237450000Y-55920000D02*
X237450000Y-53848000D01*
X218536000Y-54167370D02*
X217327630Y-52959000D01*
X193294000Y-60666000D02*
X188428000Y-60666000D01*
X218536000Y-55245000D02*
X218536000Y-56322630D01*
X206375000Y-55149000D02*
X206471000Y-55245000D01*
X188428000Y-60666000D02*
X188214000Y-60452000D01*
X218536000Y-56322630D02*
X220379370Y-58166000D01*
X207772000Y-52959000D02*
X206375000Y-54356000D01*
D31*
X189357000Y-59309000D02*
X189230000Y-59182000D01*
X176784000Y-47498000D02*
X180848000Y-43434000D01*
X180848000Y-43434000D02*
X180848000Y-38862000D01*
X175260000Y-47498000D02*
X176784000Y-47498000D01*
D29*
X189230000Y-49022000D02*
X187198000Y-51054000D01*
X187198000Y-51054000D02*
X183896000Y-51054000D01*
X183896000Y-51054000D02*
X182880000Y-50038000D01*
X166116000Y-40132000D02*
X168148000Y-42164000D01*
X155956000Y-54356000D02*
X155956000Y-57912000D01*
X166370000Y-53086000D02*
X166624000Y-52832000D01*
X158242000Y-52070000D02*
X155956000Y-54356000D01*
X165354000Y-40132000D02*
X166116000Y-40132000D01*
X166116000Y-53086000D02*
X166370000Y-53086000D01*
X155956000Y-57912000D02*
X159004000Y-60960000D01*
X159004000Y-60960000D02*
X169926000Y-60960000D01*
X168148000Y-42164000D02*
X169164000Y-42164000D01*
X171704000Y-42164000D02*
X169164000Y-42164000D01*
X169164000Y-46736000D02*
X169164000Y-42164000D01*
X166624000Y-49276000D02*
X169164000Y-46736000D01*
X166116000Y-53086000D02*
X163116000Y-53086000D01*
X166624000Y-52832000D02*
X166624000Y-49276000D01*
X163116000Y-53086000D02*
X162100000Y-52070000D01*
X162100000Y-52070000D02*
X158242000Y-52070000D01*
D31*
X163576000Y-43688000D02*
X162306000Y-42418000D01*
X162306000Y-37338000D02*
X162306000Y-37084000D01*
X162306000Y-36322000D02*
X160528000Y-34544000D01*
X162306000Y-37084000D02*
X163068000Y-36322000D01*
X163068000Y-36322000D02*
X162306000Y-36322000D01*
X164338000Y-36322000D02*
X163068000Y-36322000D01*
X162306000Y-37846000D02*
X162306000Y-37338000D01*
X162306000Y-42418000D02*
X162306000Y-37846000D01*
X160528000Y-34544000D02*
X160528000Y-33782000D01*
X162306000Y-37338000D02*
X162306000Y-36322000D01*
X163576000Y-44196000D02*
X163576000Y-43688000D01*
X155448000Y-32512000D02*
X155448000Y-33782000D01*
X156464000Y-31496000D02*
X155448000Y-32512000D01*
X163068000Y-31496000D02*
X156464000Y-31496000D01*
X165062001Y-33490001D02*
X163068000Y-31496000D01*
X177800000Y-43942000D02*
X176784000Y-44958000D01*
X176784000Y-44958000D02*
X175260000Y-44958000D01*
X164338000Y-28702000D02*
X164338000Y-30226000D01*
X168872001Y-33490001D02*
X165062001Y-33490001D01*
X169672000Y-34290000D02*
X168872001Y-33490001D01*
X177800000Y-39370000D02*
X177800000Y-43942000D01*
X169672000Y-34290000D02*
X172720000Y-34290000D01*
X172720000Y-34290000D02*
X177800000Y-39370000D01*
X164338000Y-30226000D02*
X163068000Y-31496000D01*
X155956000Y-46736000D02*
X157480000Y-48260000D01*
D29*
X161036000Y-44196000D02*
X161036000Y-47196000D01*
D31*
X155956000Y-40894000D02*
X155956000Y-46736000D01*
D29*
X157480000Y-48260000D02*
X152456000Y-53284000D01*
X161036000Y-47196000D02*
X159972000Y-48260000D01*
X152456000Y-53284000D02*
X152456000Y-55880000D01*
D31*
X155194000Y-40132000D02*
X155956000Y-40894000D01*
D29*
X159972000Y-48260000D02*
X157480000Y-48260000D01*
X214376000Y-40888000D02*
X214376000Y-41148000D01*
X214376000Y-41148000D02*
X213106000Y-42418000D01*
X204978000Y-34290000D02*
X207778000Y-34290000D01*
X213106000Y-39618000D02*
X214376000Y-40888000D01*
X219456000Y-39624000D02*
X218192000Y-40888000D01*
X213106000Y-42418000D02*
X213106000Y-44196000D01*
X207778000Y-34290000D02*
X213106000Y-39618000D01*
X218192000Y-40888000D02*
X214376000Y-40888000D01*
X213106000Y-42418000D02*
X213106000Y-39618000D01*
X223139000Y-39624000D02*
X219456000Y-39624000D01*
D30*
X202438000Y-34290000D02*
X202438000Y-36068000D01*
X198882000Y-42037000D02*
X198755000Y-42164000D01*
X198882000Y-41656000D02*
X198882000Y-42037000D01*
X200025000Y-38481000D02*
X200025000Y-40513000D01*
X200025000Y-40513000D02*
X198882000Y-41656000D01*
X202438000Y-36068000D02*
X200025000Y-38481000D01*
X199898000Y-34290000D02*
X199898000Y-37211000D01*
X198755000Y-38354000D02*
X198755000Y-39624000D01*
X199898000Y-37211000D02*
X198755000Y-38354000D01*
X192786000Y-30861000D02*
X194818000Y-32893000D01*
X194818000Y-32893000D02*
X194818000Y-34290000D01*
X196215000Y-38227000D02*
X196215000Y-39624000D01*
X195210630Y-35063630D02*
X195210630Y-37222630D01*
X181610000Y-26416000D02*
X186055000Y-30861000D01*
X186055000Y-30861000D02*
X192786000Y-30861000D01*
X194818000Y-34671000D02*
X195210630Y-35063630D01*
X195210630Y-37222630D02*
X196215000Y-38227000D01*
X194818000Y-34290000D02*
X194818000Y-34671000D01*
X192278000Y-32893000D02*
X192278000Y-34290000D01*
X173990000Y-31750000D02*
X191135000Y-31750000D01*
X168656000Y-26416000D02*
X173990000Y-31750000D01*
X191135000Y-31750000D02*
X192278000Y-32893000D01*
X196215000Y-41783000D02*
X196215000Y-42164000D01*
X157099000Y-24892000D02*
X192532000Y-24892000D01*
X192532000Y-24892000D02*
X197358000Y-29718000D01*
X197358000Y-34290000D02*
X197358000Y-35052000D01*
X197358000Y-35052000D02*
X197485000Y-35179000D01*
X197485000Y-35179000D02*
X197485000Y-40513000D01*
X155575000Y-26416000D02*
X157099000Y-24892000D01*
X197485000Y-40513000D02*
X196215000Y-41783000D01*
X197358000Y-29718000D02*
X197358000Y-34290000D01*
D29*
X219202000Y-46482000D02*
X218186000Y-45466000D01*
X230632000Y-41148000D02*
X230632000Y-44196000D01*
X225679000Y-39624000D02*
X229108000Y-39624000D01*
X230632000Y-44958000D02*
X229108000Y-46482000D01*
X218186000Y-45466000D02*
X218186000Y-44196000D01*
X230632000Y-44196000D02*
X230632000Y-44958000D01*
X225806000Y-46482000D02*
X219202000Y-46482000D01*
X229108000Y-46482000D02*
X225806000Y-46482000D01*
X229108000Y-39624000D02*
X230632000Y-41148000D01*
X180594000Y-54979370D02*
X178677370Y-56896000D01*
X180594000Y-53848000D02*
X180594000Y-54979370D01*
X176784000Y-56896000D02*
X161544000Y-56896000D01*
D32*
X181991000Y-55245000D02*
X180594000Y-53848000D01*
X185801000Y-55245000D02*
X181991000Y-55245000D01*
D29*
X160528000Y-55880000D02*
X159456000Y-55880000D01*
X161544000Y-56896000D02*
X160528000Y-55880000D01*
D31*
X182880000Y-44958000D02*
X185674000Y-44958000D01*
X180594000Y-53848000D02*
X180594000Y-46228000D01*
X180594000Y-46228000D02*
X181864000Y-44958000D01*
X181864000Y-44958000D02*
X182880000Y-44958000D01*
D29*
X178677370Y-56896000D02*
X176784000Y-56896000D01*
D31*
X182880000Y-42418000D02*
X185674000Y-42418000D01*
X173228000Y-51562000D02*
X175514000Y-53848000D01*
X175006000Y-42418000D02*
X173228000Y-44196000D01*
X175260000Y-42418000D02*
X175006000Y-42418000D01*
X173228000Y-44196000D02*
X173228000Y-51562000D01*
X175514000Y-53848000D02*
X178054000Y-53848000D01*
X172466000Y-60960000D02*
X175514000Y-60960000D01*
X175514000Y-60960000D02*
X177038000Y-59436000D01*
X182118000Y-59436000D02*
X182372000Y-59436000D01*
X182372000Y-59436000D02*
X183388000Y-60452000D01*
X183388000Y-60452000D02*
X185674000Y-60452000D01*
D30*
X222536000Y-55245000D02*
X219742000Y-52451000D01*
X219742000Y-52451000D02*
X203130685Y-52451000D01*
X203130685Y-52451000D02*
X202565000Y-52451000D01*
D29*
G04 #@! TO.N,+12V*
X159258000Y-81328000D02*
X159258000Y-84328000D01*
X159941000Y-80645000D02*
X159258000Y-81328000D01*
X160020000Y-80645000D02*
X159941000Y-80645000D01*
X160020000Y-78740000D02*
X160020000Y-80645000D01*
X160020000Y-74676000D02*
X160020000Y-78740000D01*
X201676000Y-73406000D02*
X201676000Y-70358000D01*
X160020000Y-78740000D02*
X196342000Y-78740000D01*
X196342000Y-78740000D02*
X198120000Y-76962000D01*
X200406000Y-74676000D02*
X201676000Y-73406000D01*
X198120000Y-76962000D02*
X200406000Y-74676000D01*
X204608630Y-82296000D02*
X204597000Y-82284370D01*
X205740000Y-82296000D02*
X204608630Y-82296000D01*
X204597000Y-82284370D02*
X204204370Y-82284370D01*
X198882000Y-76962000D02*
X198120000Y-76962000D01*
X204204370Y-82284370D02*
X198882000Y-76962000D01*
X206871370Y-82296000D02*
X207137000Y-82030370D01*
X205740000Y-82296000D02*
X206871370Y-82296000D01*
X208037630Y-80899000D02*
X209169000Y-80899000D01*
X207137000Y-81799630D02*
X208037630Y-80899000D01*
X207137000Y-82030370D02*
X207137000Y-81799630D01*
X209296000Y-81026000D02*
X209169000Y-80899000D01*
X212090000Y-81026000D02*
X209296000Y-81026000D01*
D30*
G04 #@! TO.N,GND*
X176434000Y-72201370D02*
X174590630Y-70358000D01*
X176434000Y-73279000D02*
X176434000Y-72201370D01*
X174590630Y-70358000D02*
X159766000Y-70358000D01*
X157520000Y-72604000D02*
X157520000Y-74676000D01*
X159766000Y-70358000D02*
X157520000Y-72604000D01*
X188595000Y-73375000D02*
X188499000Y-73279000D01*
X188595000Y-74168000D02*
X188595000Y-73375000D01*
X187198000Y-75565000D02*
X188595000Y-74168000D01*
X177642370Y-75565000D02*
X187198000Y-75565000D01*
X176434000Y-73279000D02*
X176434000Y-74356630D01*
X176434000Y-74356630D02*
X177642370Y-75565000D01*
X188499000Y-73279000D02*
X194691000Y-73279000D01*
X200112000Y-67858000D02*
X201676000Y-67858000D01*
X194691000Y-73279000D02*
X200112000Y-67858000D01*
X206542000Y-67858000D02*
X206756000Y-68072000D01*
X201676000Y-67858000D02*
X206542000Y-67858000D01*
D31*
X206756000Y-68072000D02*
X205613000Y-69215000D01*
X205740000Y-69342000D02*
X205740000Y-74502000D01*
X205613000Y-69215000D02*
X205740000Y-69342000D01*
G04 #@! TO.N,Net-(C3-Pad1)*
X214122000Y-85090000D02*
X214122000Y-89662000D01*
X219710000Y-81026000D02*
X218186000Y-81026000D01*
X218186000Y-81026000D02*
X214122000Y-85090000D01*
D29*
G04 #@! TO.N,Net-(C4-Pad1)*
X205740000Y-79502000D02*
X207772000Y-77470000D01*
X211074000Y-77470000D02*
X212090000Y-78486000D01*
X207772000Y-77470000D02*
X211074000Y-77470000D01*
G04 #@! TO.N,+HV*
X231854000Y-75438000D02*
X232870000Y-76454000D01*
X228854000Y-75438000D02*
X231854000Y-75438000D01*
X232870000Y-76454000D02*
X236728000Y-76454000D01*
X235966000Y-67564000D02*
X225044000Y-67564000D01*
X236728000Y-76454000D02*
X239014000Y-74168000D01*
X239014000Y-74168000D02*
X239014000Y-70612000D01*
X239014000Y-70612000D02*
X235966000Y-67564000D01*
X226822000Y-86360000D02*
X225806000Y-86360000D01*
X229616000Y-88392000D02*
X228854000Y-88392000D01*
X228854000Y-88392000D02*
X226822000Y-86360000D01*
X228854000Y-75438000D02*
X228600000Y-75438000D01*
X225806000Y-81788000D02*
X225806000Y-86360000D01*
X228346000Y-79248000D02*
X225806000Y-81788000D01*
X228346000Y-75692000D02*
X228346000Y-79248000D01*
X228600000Y-75438000D02*
X228346000Y-75692000D01*
X223266000Y-86360000D02*
X225806000Y-86360000D01*
D31*
G04 #@! TO.N,Net-(D1-Pad1)*
X234442000Y-93980000D02*
X234442000Y-94742000D01*
X232664000Y-92202000D02*
X234442000Y-93980000D01*
X232664000Y-91440000D02*
X231902000Y-92202000D01*
X232664000Y-91186000D02*
X232664000Y-91440000D01*
X231902000Y-92202000D02*
X232664000Y-92202000D01*
X230632000Y-92202000D02*
X231902000Y-92202000D01*
X232664000Y-91186000D02*
X232664000Y-92202000D01*
X232664000Y-90678000D02*
X232664000Y-91186000D01*
X232664000Y-86106000D02*
X232664000Y-90678000D01*
X231394000Y-84328000D02*
X231394000Y-84836000D01*
X231394000Y-84836000D02*
X232664000Y-86106000D01*
G04 #@! TO.N,Net-(D1-Pad2)*
X239522000Y-96012000D02*
X239522000Y-94742000D01*
X238506000Y-97028000D02*
X239522000Y-96012000D01*
X231902000Y-97028000D02*
X238506000Y-97028000D01*
X230632000Y-99822000D02*
X230632000Y-98298000D01*
X230632000Y-98298000D02*
X231902000Y-97028000D01*
X229907999Y-95033999D02*
X231902000Y-97028000D01*
X226097999Y-95033999D02*
X229907999Y-95033999D01*
X225298000Y-94234000D02*
X226097999Y-95033999D01*
X218186000Y-83566000D02*
X219710000Y-83566000D01*
X217170000Y-84582000D02*
X218186000Y-83566000D01*
X217170000Y-89154000D02*
X217170000Y-84582000D01*
X225298000Y-94234000D02*
X222250000Y-94234000D01*
X222250000Y-94234000D02*
X217170000Y-89154000D01*
D29*
G04 #@! TO.N,Net-(D2-Pad2)*
X242514000Y-75240000D02*
X242514000Y-72644000D01*
X237490000Y-80264000D02*
X242514000Y-75240000D01*
X234998000Y-80264000D02*
X237490000Y-80264000D01*
X233934000Y-84328000D02*
X233934000Y-81328000D01*
X233934000Y-81328000D02*
X234998000Y-80264000D01*
D31*
X239014000Y-81788000D02*
X237490000Y-80264000D01*
X239776000Y-88392000D02*
X239014000Y-87630000D01*
X239014000Y-87630000D02*
X239014000Y-81788000D01*
D29*
G04 #@! TO.N,+3V3*
X180594000Y-87376000D02*
X181864000Y-86106000D01*
X181864000Y-86106000D02*
X181864000Y-84328000D01*
X180594000Y-87636000D02*
X180594000Y-87376000D01*
X189992000Y-94234000D02*
X187192000Y-94234000D01*
X181864000Y-86106000D02*
X181864000Y-88906000D01*
X187192000Y-94234000D02*
X181864000Y-88906000D01*
X181864000Y-88906000D02*
X180594000Y-87636000D01*
X176778000Y-87636000D02*
X180594000Y-87636000D01*
X171831000Y-88900000D02*
X175514000Y-88900000D01*
X175514000Y-88900000D02*
X176778000Y-87636000D01*
D30*
G04 #@! TO.N,/NIX_SDA*
X196088000Y-86487000D02*
X196215000Y-86360000D01*
X196088000Y-86868000D02*
X196088000Y-86487000D01*
X194945000Y-88011000D02*
X196088000Y-86868000D01*
X194945000Y-90043000D02*
X194945000Y-88011000D01*
X192532000Y-94234000D02*
X192532000Y-92456000D01*
X192532000Y-92456000D02*
X194945000Y-90043000D01*
G04 #@! TO.N,/NIX_SCL*
X196215000Y-90170000D02*
X196215000Y-88900000D01*
X195072000Y-94234000D02*
X195072000Y-91313000D01*
X195072000Y-91313000D02*
X196215000Y-90170000D01*
G04 #@! TO.N,/SW_MODE*
X198755000Y-90297000D02*
X198755000Y-88900000D01*
X199759370Y-91301370D02*
X198755000Y-90297000D01*
X199759370Y-93460370D02*
X199759370Y-91301370D01*
X200152000Y-94234000D02*
X200152000Y-93853000D01*
X200152000Y-93853000D02*
X199759370Y-93460370D01*
X200152000Y-95631000D02*
X200152000Y-94234000D01*
X202184000Y-97663000D02*
X200152000Y-95631000D01*
X213360000Y-102108000D02*
X208915000Y-97663000D01*
X208915000Y-97663000D02*
X202184000Y-97663000D01*
G04 #@! TO.N,/SW_UP*
X202692000Y-95631000D02*
X202692000Y-94234000D01*
X203835000Y-96774000D02*
X202692000Y-95631000D01*
X226314000Y-102108000D02*
X220980000Y-96774000D01*
X220980000Y-96774000D02*
X203835000Y-96774000D01*
G04 #@! TO.N,/SW_DOWN*
X197612000Y-98806000D02*
X197612000Y-94234000D01*
X202438000Y-103632000D02*
X197612000Y-98806000D01*
X239395000Y-102108000D02*
X237871000Y-103632000D01*
X237871000Y-103632000D02*
X202438000Y-103632000D01*
X198755000Y-86741000D02*
X198755000Y-86360000D01*
X197485000Y-88011000D02*
X198755000Y-86741000D01*
X197485000Y-93345000D02*
X197485000Y-88011000D01*
X197612000Y-94234000D02*
X197612000Y-93472000D01*
X197612000Y-93472000D02*
X197485000Y-93345000D01*
D29*
G04 #@! TO.N,+5V*
X164338000Y-84328000D02*
X164338000Y-83566000D01*
X164338000Y-83566000D02*
X165862000Y-82042000D01*
X176784000Y-83058000D02*
X176784000Y-84328000D01*
X175768000Y-82042000D02*
X176784000Y-83058000D01*
X165862000Y-82042000D02*
X169164000Y-82042000D01*
X169164000Y-82042000D02*
X175768000Y-82042000D01*
X164338000Y-87376000D02*
X164338000Y-84328000D01*
X169291000Y-88900000D02*
X165862000Y-88900000D01*
X165862000Y-88900000D02*
X164338000Y-87376000D01*
G04 #@! TO.N,Net-(L1-Pad1)*
X234442000Y-72644000D02*
X235514000Y-72644000D01*
X233426000Y-71628000D02*
X234442000Y-72644000D01*
D31*
X212090000Y-83566000D02*
X209296000Y-83566000D01*
X213106000Y-83566000D02*
X212090000Y-83566000D01*
X214376000Y-74676000D02*
X214376000Y-82296000D01*
X214376000Y-82296000D02*
X213106000Y-83566000D01*
D29*
X216292630Y-71628000D02*
X218186000Y-71628000D01*
X214376000Y-73544630D02*
X216292630Y-71628000D01*
X214376000Y-74676000D02*
X214376000Y-73544630D01*
X218186000Y-71628000D02*
X233426000Y-71628000D01*
D32*
X212979000Y-73279000D02*
X214376000Y-74676000D01*
X209169000Y-73279000D02*
X212979000Y-73279000D01*
D31*
G04 #@! TO.N,Net-(R2-Pad1)*
X212090000Y-86106000D02*
X209296000Y-86106000D01*
G04 #@! TO.N,Net-(R4-Pad1)*
X219456000Y-74676000D02*
X216916000Y-74676000D01*
X221742000Y-76962000D02*
X219456000Y-74676000D01*
X221742000Y-84328000D02*
X221742000Y-76962000D01*
X219710000Y-86106000D02*
X219964000Y-86106000D01*
X219964000Y-86106000D02*
X221742000Y-84328000D01*
G04 #@! TO.N,Net-(R5-Pad1)*
X219456000Y-67564000D02*
X217932000Y-69088000D01*
X222504000Y-67564000D02*
X219456000Y-67564000D01*
G04 #@! TO.N,Net-(R6-Pad3)*
X211582000Y-68072000D02*
X209296000Y-68072000D01*
X212852000Y-69088000D02*
X212598000Y-69088000D01*
X212598000Y-69088000D02*
X211582000Y-68072000D01*
D30*
G04 #@! TO.N,/GROVE_GPIO_1*
X191839315Y-76073000D02*
X192405000Y-76073000D01*
X172434000Y-73279000D02*
X175228000Y-76073000D01*
X175228000Y-76073000D02*
X191839315Y-76073000D01*
G04 #@! TD*
G04 #@! TO.N,GND*
G36*
X214299239Y-65817840D02*
X214103000Y-66291602D01*
X214103000Y-66804398D01*
X214299239Y-67278160D01*
X214661840Y-67640761D01*
X215135602Y-67837000D01*
X215648398Y-67837000D01*
X216122160Y-67640761D01*
X216484761Y-67278160D01*
X216681000Y-66804398D01*
X216681000Y-66291602D01*
X216484761Y-65817840D01*
X216297521Y-65630600D01*
X219837000Y-65630600D01*
X219837000Y-66402000D01*
X219570441Y-66402000D01*
X219455999Y-66379236D01*
X219068423Y-66456330D01*
X219002610Y-66469421D01*
X218618245Y-66726245D01*
X218553417Y-66823267D01*
X217508447Y-67868238D01*
X217201840Y-67995239D01*
X216839239Y-68357840D01*
X216643000Y-68831602D01*
X216643000Y-69344398D01*
X216839239Y-69818160D01*
X217122079Y-70101000D01*
X216443018Y-70101000D01*
X216292629Y-70071086D01*
X216142240Y-70101000D01*
X216142237Y-70101000D01*
X215696824Y-70189598D01*
X215191725Y-70527095D01*
X215106534Y-70654592D01*
X213976711Y-71784416D01*
X213680154Y-71586263D01*
X213155988Y-71482000D01*
X213155987Y-71482000D01*
X212979000Y-71446795D01*
X212802013Y-71482000D01*
X208992012Y-71482000D01*
X208467846Y-71586263D01*
X207873435Y-71983435D01*
X207476263Y-72577846D01*
X207336795Y-73279000D01*
X207476263Y-73980154D01*
X207873435Y-74574565D01*
X208467846Y-74971737D01*
X208992012Y-75076000D01*
X212234659Y-75076000D01*
X213214000Y-76055342D01*
X213214000Y-77450496D01*
X212260097Y-76496594D01*
X212174905Y-76369095D01*
X211669806Y-76031598D01*
X211224393Y-75943000D01*
X211224389Y-75943000D01*
X211074000Y-75913086D01*
X210923611Y-75943000D01*
X207922389Y-75943000D01*
X207772000Y-75913086D01*
X207621611Y-75943000D01*
X207621607Y-75943000D01*
X207176194Y-76031598D01*
X206671095Y-76369095D01*
X206585904Y-76496592D01*
X204553905Y-78528592D01*
X204301598Y-78906195D01*
X204183086Y-79502000D01*
X204301598Y-80097805D01*
X204551874Y-80472369D01*
X200660503Y-76581000D01*
X201592095Y-75649409D01*
X201592097Y-75649406D01*
X201731758Y-75509745D01*
X204911861Y-75509745D01*
X204985995Y-75755864D01*
X205523223Y-75948965D01*
X206093454Y-75921778D01*
X206494005Y-75755864D01*
X206568139Y-75509745D01*
X205740000Y-74681605D01*
X204911861Y-75509745D01*
X201731758Y-75509745D01*
X202649408Y-74592096D01*
X202776905Y-74506905D01*
X202925028Y-74285223D01*
X204293035Y-74285223D01*
X204320222Y-74855454D01*
X204486136Y-75256005D01*
X204732255Y-75330139D01*
X205560395Y-74502000D01*
X205919605Y-74502000D01*
X206747745Y-75330139D01*
X206993864Y-75256005D01*
X207186965Y-74718777D01*
X207159778Y-74148546D01*
X206993864Y-73747995D01*
X206747745Y-73673861D01*
X205919605Y-74502000D01*
X205560395Y-74502000D01*
X204732255Y-73673861D01*
X204486136Y-73747995D01*
X204293035Y-74285223D01*
X202925028Y-74285223D01*
X203114402Y-74001806D01*
X203203000Y-73556393D01*
X203203000Y-73556390D01*
X203215359Y-73494255D01*
X204911861Y-73494255D01*
X205740000Y-74322395D01*
X206568139Y-73494255D01*
X206494005Y-73248136D01*
X205956777Y-73055035D01*
X205386546Y-73082222D01*
X204985995Y-73248136D01*
X204911861Y-73494255D01*
X203215359Y-73494255D01*
X203232914Y-73406001D01*
X203203000Y-73255612D01*
X203203000Y-70207607D01*
X203114402Y-69762194D01*
X203013324Y-69610920D01*
X203013324Y-69558000D01*
X202972423Y-69352375D01*
X202855945Y-69178055D01*
X202681625Y-69061577D01*
X202476000Y-69020676D01*
X202457472Y-69020676D01*
X202504139Y-68865745D01*
X201676000Y-68037605D01*
X200847861Y-68865745D01*
X200894528Y-69020676D01*
X200876000Y-69020676D01*
X200670375Y-69061577D01*
X200496055Y-69178055D01*
X200379577Y-69352375D01*
X200338676Y-69558000D01*
X200338676Y-69610922D01*
X200237599Y-69762194D01*
X200149001Y-70207607D01*
X200149000Y-72773496D01*
X199432594Y-73489903D01*
X199432591Y-73489905D01*
X197146595Y-75775902D01*
X197019095Y-75861095D01*
X196933904Y-75988592D01*
X195709497Y-77213000D01*
X161547000Y-77213000D01*
X161547000Y-74525607D01*
X161458402Y-74080194D01*
X161432324Y-74041166D01*
X161432324Y-73801000D01*
X161391423Y-73595375D01*
X161274945Y-73421055D01*
X161100625Y-73304577D01*
X160895000Y-73263676D01*
X160654833Y-73263676D01*
X160615805Y-73237598D01*
X160020000Y-73119085D01*
X159424194Y-73237598D01*
X159385166Y-73263676D01*
X159145000Y-73263676D01*
X158939375Y-73304577D01*
X158765055Y-73421055D01*
X158648577Y-73595375D01*
X158607676Y-73801000D01*
X158607676Y-73801953D01*
X158582060Y-73793545D01*
X157699605Y-74676000D01*
X157713748Y-74690143D01*
X157534143Y-74869748D01*
X157520000Y-74855605D01*
X156637545Y-75738060D01*
X156720884Y-75991953D01*
X157285306Y-76197590D01*
X157885458Y-76171579D01*
X158319116Y-75991953D01*
X158402454Y-75738062D01*
X158493000Y-75828608D01*
X158493001Y-78589602D01*
X158463085Y-78740000D01*
X158493000Y-78890393D01*
X158493001Y-79933496D01*
X158284594Y-80141903D01*
X158157095Y-80227095D01*
X157819598Y-80732195D01*
X157731000Y-81177608D01*
X157731000Y-81177611D01*
X157701086Y-81328000D01*
X157731000Y-81478390D01*
X157731001Y-84478393D01*
X157768176Y-84665285D01*
X157768176Y-85328000D01*
X157809077Y-85533625D01*
X157925555Y-85707945D01*
X158099875Y-85824423D01*
X158305500Y-85865324D01*
X159159509Y-85865324D01*
X159258000Y-85884915D01*
X159356491Y-85865324D01*
X160210500Y-85865324D01*
X160416125Y-85824423D01*
X160590445Y-85707945D01*
X160706923Y-85533625D01*
X160715079Y-85492620D01*
X160931076Y-85703973D01*
X161425020Y-85918563D01*
X161671000Y-85798594D01*
X161671000Y-84455000D01*
X161651000Y-84455000D01*
X161651000Y-84201000D01*
X161671000Y-84201000D01*
X161671000Y-82857406D01*
X161425020Y-82737437D01*
X160931076Y-82952027D01*
X160785000Y-83094962D01*
X160785000Y-81970350D01*
X161120905Y-81745905D01*
X161458402Y-81240806D01*
X161576915Y-80645000D01*
X161547000Y-80494607D01*
X161547000Y-80267000D01*
X196191611Y-80267000D01*
X196342000Y-80296914D01*
X196492389Y-80267000D01*
X196492393Y-80267000D01*
X196937806Y-80178402D01*
X197442905Y-79840905D01*
X197528098Y-79713406D01*
X198501000Y-78740503D01*
X203018276Y-83257781D01*
X203103465Y-83385275D01*
X203230959Y-83470464D01*
X203230961Y-83470466D01*
X203548812Y-83682847D01*
X203608564Y-83722772D01*
X204053977Y-83811370D01*
X204053981Y-83811370D01*
X204204370Y-83841284D01*
X204354759Y-83811370D01*
X204399769Y-83811370D01*
X204458237Y-83823000D01*
X204458240Y-83823000D01*
X204608629Y-83852914D01*
X204759018Y-83823000D01*
X206720981Y-83823000D01*
X206871370Y-83852914D01*
X207021759Y-83823000D01*
X207021763Y-83823000D01*
X207467176Y-83734402D01*
X207972275Y-83396905D01*
X207978488Y-83387607D01*
X207943003Y-83566000D01*
X208045994Y-84083770D01*
X208339287Y-84522713D01*
X208778230Y-84816006D01*
X208889344Y-84838108D01*
X208544315Y-84981024D01*
X208171024Y-85354315D01*
X207969000Y-85842043D01*
X207969000Y-86369957D01*
X208171024Y-86857685D01*
X208544315Y-87230976D01*
X209032043Y-87433000D01*
X209559957Y-87433000D01*
X209958301Y-87268000D01*
X211440520Y-87268000D01*
X211572230Y-87356006D01*
X211959304Y-87433000D01*
X212220696Y-87433000D01*
X212607770Y-87356006D01*
X212960000Y-87120653D01*
X212960001Y-88999697D01*
X212795000Y-89398043D01*
X212795000Y-89925957D01*
X212997024Y-90413685D01*
X213370315Y-90786976D01*
X213858043Y-90989000D01*
X214385957Y-90989000D01*
X214873685Y-90786976D01*
X215246976Y-90413685D01*
X215449000Y-89925957D01*
X215449000Y-89398043D01*
X215284000Y-88999699D01*
X215284000Y-85571315D01*
X216008001Y-84847314D01*
X216008000Y-89039558D01*
X215985236Y-89154000D01*
X216064791Y-89553947D01*
X216075421Y-89607389D01*
X216332245Y-89991755D01*
X216429270Y-90056585D01*
X221347417Y-94974733D01*
X221412245Y-95071755D01*
X221796610Y-95328579D01*
X222250000Y-95418764D01*
X222364442Y-95396000D01*
X224648520Y-95396000D01*
X224780230Y-95484006D01*
X224935594Y-95514910D01*
X225195416Y-95774732D01*
X225260244Y-95871754D01*
X225574568Y-96081778D01*
X225644609Y-96128578D01*
X226097998Y-96218763D01*
X226212440Y-96195999D01*
X229426684Y-96195999D01*
X230258685Y-97028000D01*
X229891267Y-97395418D01*
X229794246Y-97460245D01*
X229658770Y-97663000D01*
X229537421Y-97844611D01*
X229447236Y-98298000D01*
X229470000Y-98412442D01*
X229470000Y-99172520D01*
X229381994Y-99304230D01*
X229279003Y-99822000D01*
X229381994Y-100339770D01*
X229675287Y-100778713D01*
X230114230Y-101072006D01*
X230501304Y-101149000D01*
X230762696Y-101149000D01*
X231149770Y-101072006D01*
X231588713Y-100778713D01*
X231882006Y-100339770D01*
X231984997Y-99822000D01*
X231882006Y-99304230D01*
X231794000Y-99172520D01*
X231794000Y-98779315D01*
X232383316Y-98190000D01*
X232961597Y-98190000D01*
X232741701Y-98281084D01*
X232298084Y-98724701D01*
X232058000Y-99304315D01*
X232058000Y-99931685D01*
X232298084Y-100511299D01*
X232741701Y-100954916D01*
X233321315Y-101195000D01*
X233802392Y-101195000D01*
X233832938Y-101225546D01*
X233579047Y-101308884D01*
X233373410Y-101873306D01*
X233399421Y-102473458D01*
X233579047Y-102907116D01*
X233794996Y-102978000D01*
X227426727Y-102978000D01*
X227502558Y-102902169D01*
X227716000Y-102386875D01*
X227716000Y-101829125D01*
X227502558Y-101313831D01*
X227383727Y-101195000D01*
X227877685Y-101195000D01*
X228457299Y-100954916D01*
X228900916Y-100511299D01*
X229141000Y-99931685D01*
X229141000Y-99304315D01*
X228900916Y-98724701D01*
X228457299Y-98281084D01*
X227877685Y-98041000D01*
X227250315Y-98041000D01*
X226670701Y-98281084D01*
X226227084Y-98724701D01*
X225987000Y-99304315D01*
X225987000Y-99931685D01*
X226227084Y-100511299D01*
X226421785Y-100706000D01*
X226035125Y-100706000D01*
X225894956Y-100764060D01*
X221487993Y-96357098D01*
X221451507Y-96302493D01*
X221235178Y-96157946D01*
X221044410Y-96120000D01*
X221044406Y-96120000D01*
X220980000Y-96107189D01*
X220915594Y-96120000D01*
X204105896Y-96120000D01*
X203655641Y-95669745D01*
X213293861Y-95669745D01*
X213367995Y-95915864D01*
X213905223Y-96108965D01*
X214475454Y-96081778D01*
X214876005Y-95915864D01*
X214950139Y-95669745D01*
X214122000Y-94841605D01*
X213293861Y-95669745D01*
X203655641Y-95669745D01*
X203365707Y-95379812D01*
X203648713Y-95190713D01*
X203942006Y-94751770D01*
X203962000Y-94651254D01*
X203981994Y-94751770D01*
X204275287Y-95190713D01*
X204714230Y-95484006D01*
X205101304Y-95561000D01*
X205362696Y-95561000D01*
X205749770Y-95484006D01*
X206188713Y-95190713D01*
X206482006Y-94751770D01*
X206542982Y-94445223D01*
X212675035Y-94445223D01*
X212702222Y-95015454D01*
X212868136Y-95416005D01*
X213114255Y-95490139D01*
X213942395Y-94662000D01*
X214301605Y-94662000D01*
X215129745Y-95490139D01*
X215375864Y-95416005D01*
X215438499Y-95241745D01*
X216849861Y-95241745D01*
X216923995Y-95487864D01*
X217461223Y-95680965D01*
X218031454Y-95653778D01*
X218432005Y-95487864D01*
X218506139Y-95241745D01*
X217678000Y-94413605D01*
X216849861Y-95241745D01*
X215438499Y-95241745D01*
X215568965Y-94878777D01*
X215541778Y-94308546D01*
X215421108Y-94017223D01*
X216231035Y-94017223D01*
X216258222Y-94587454D01*
X216424136Y-94988005D01*
X216670255Y-95062139D01*
X217498395Y-94234000D01*
X217857605Y-94234000D01*
X218685745Y-95062139D01*
X218931864Y-94988005D01*
X219124965Y-94450777D01*
X219097778Y-93880546D01*
X218931864Y-93479995D01*
X218685745Y-93405861D01*
X217857605Y-94234000D01*
X217498395Y-94234000D01*
X216670255Y-93405861D01*
X216424136Y-93479995D01*
X216231035Y-94017223D01*
X215421108Y-94017223D01*
X215375864Y-93907995D01*
X215129745Y-93833861D01*
X214301605Y-94662000D01*
X213942395Y-94662000D01*
X213114255Y-93833861D01*
X212868136Y-93907995D01*
X212675035Y-94445223D01*
X206542982Y-94445223D01*
X206584997Y-94234000D01*
X206482006Y-93716230D01*
X206440596Y-93654255D01*
X213293861Y-93654255D01*
X214122000Y-94482395D01*
X214950139Y-93654255D01*
X214876005Y-93408136D01*
X214369993Y-93226255D01*
X216849861Y-93226255D01*
X217678000Y-94054395D01*
X218506139Y-93226255D01*
X218432005Y-92980136D01*
X217894777Y-92787035D01*
X217324546Y-92814222D01*
X216923995Y-92980136D01*
X216849861Y-93226255D01*
X214369993Y-93226255D01*
X214338777Y-93215035D01*
X213768546Y-93242222D01*
X213367995Y-93408136D01*
X213293861Y-93654255D01*
X206440596Y-93654255D01*
X206188713Y-93277287D01*
X205749770Y-92983994D01*
X205362696Y-92907000D01*
X205101304Y-92907000D01*
X204714230Y-92983994D01*
X204275287Y-93277287D01*
X203981994Y-93716230D01*
X203962000Y-93816746D01*
X203942006Y-93716230D01*
X203648713Y-93277287D01*
X203209770Y-92983994D01*
X202822696Y-92907000D01*
X202561304Y-92907000D01*
X202174230Y-92983994D01*
X201735287Y-93277287D01*
X201441994Y-93716230D01*
X201422000Y-93816746D01*
X201402006Y-93716230D01*
X201108713Y-93277287D01*
X200669770Y-92983994D01*
X200413370Y-92932993D01*
X200413370Y-91365777D01*
X200426181Y-91301370D01*
X200413370Y-91236963D01*
X200413370Y-91236960D01*
X200375424Y-91046192D01*
X200230877Y-90829863D01*
X200176272Y-90793377D01*
X199464756Y-90081861D01*
X199747762Y-89892762D01*
X200025000Y-89477846D01*
X200302238Y-89892762D01*
X200757721Y-90197106D01*
X201159377Y-90277000D01*
X201430623Y-90277000D01*
X201832279Y-90197106D01*
X202287762Y-89892762D01*
X202592106Y-89437279D01*
X202698977Y-88900000D01*
X202592106Y-88362721D01*
X202552700Y-88303745D01*
X204911861Y-88303745D01*
X204985995Y-88549864D01*
X205523223Y-88742965D01*
X206093454Y-88715778D01*
X206494005Y-88549864D01*
X206568139Y-88303745D01*
X205740000Y-87475605D01*
X204911861Y-88303745D01*
X202552700Y-88303745D01*
X202287762Y-87907238D01*
X201946720Y-87679361D01*
X202061924Y-87631645D01*
X202490183Y-87241358D01*
X202566325Y-87079223D01*
X204293035Y-87079223D01*
X204320222Y-87649454D01*
X204486136Y-88050005D01*
X204732255Y-88124139D01*
X205560395Y-87296000D01*
X205919605Y-87296000D01*
X206747745Y-88124139D01*
X206993864Y-88050005D01*
X207186965Y-87512777D01*
X207159778Y-86942546D01*
X206993864Y-86541995D01*
X206747745Y-86467861D01*
X205919605Y-87296000D01*
X205560395Y-87296000D01*
X204732255Y-86467861D01*
X204486136Y-86541995D01*
X204293035Y-87079223D01*
X202566325Y-87079223D01*
X202736486Y-86716892D01*
X202615819Y-86487000D01*
X201422000Y-86487000D01*
X201422000Y-86507000D01*
X201168000Y-86507000D01*
X201168000Y-86487000D01*
X201148000Y-86487000D01*
X201148000Y-86288255D01*
X204911861Y-86288255D01*
X205740000Y-87116395D01*
X206568139Y-86288255D01*
X206494005Y-86042136D01*
X205956777Y-85849035D01*
X205386546Y-85876222D01*
X204985995Y-86042136D01*
X204911861Y-86288255D01*
X201148000Y-86288255D01*
X201148000Y-86233000D01*
X201168000Y-86233000D01*
X201168000Y-85039845D01*
X201422000Y-85039845D01*
X201422000Y-86233000D01*
X202615819Y-86233000D01*
X202736486Y-86003108D01*
X202490183Y-85478642D01*
X202061924Y-85088355D01*
X201651890Y-84918524D01*
X201422000Y-85039845D01*
X201168000Y-85039845D01*
X200938110Y-84918524D01*
X200528076Y-85088355D01*
X200099817Y-85478642D01*
X199985231Y-85722636D01*
X199747762Y-85367238D01*
X199292279Y-85062894D01*
X198890623Y-84983000D01*
X198619377Y-84983000D01*
X198217721Y-85062894D01*
X197762238Y-85367238D01*
X197485000Y-85782154D01*
X197207762Y-85367238D01*
X196752279Y-85062894D01*
X196350623Y-84983000D01*
X196079377Y-84983000D01*
X195677721Y-85062894D01*
X195222238Y-85367238D01*
X195062324Y-85606566D01*
X195062324Y-85510000D01*
X195021423Y-85304375D01*
X194904945Y-85130055D01*
X194730625Y-85013577D01*
X194525000Y-84972676D01*
X192825000Y-84972676D01*
X192619375Y-85013577D01*
X192445055Y-85130055D01*
X192328577Y-85304375D01*
X192287676Y-85510000D01*
X192287676Y-87210000D01*
X192328577Y-87415625D01*
X192445055Y-87589945D01*
X192619375Y-87706423D01*
X192825000Y-87747324D01*
X192921566Y-87747324D01*
X192682238Y-87907238D01*
X192377894Y-88362721D01*
X192271023Y-88900000D01*
X192377894Y-89437279D01*
X192682238Y-89892762D01*
X193137721Y-90197106D01*
X193539377Y-90277000D01*
X193786104Y-90277000D01*
X192115096Y-91948009D01*
X192060494Y-91984493D01*
X192024010Y-92039095D01*
X192024008Y-92039097D01*
X191915946Y-92200823D01*
X191865189Y-92456000D01*
X191878001Y-92520411D01*
X191878001Y-93075020D01*
X191575287Y-93277287D01*
X191382269Y-93566158D01*
X191329324Y-93486920D01*
X191329324Y-93434000D01*
X191288423Y-93228375D01*
X191171945Y-93054055D01*
X190997625Y-92937577D01*
X190792000Y-92896676D01*
X190739080Y-92896676D01*
X190587806Y-92795598D01*
X190142393Y-92707000D01*
X187824505Y-92707000D01*
X183391000Y-88273497D01*
X183391000Y-86256390D01*
X183420914Y-86106001D01*
X183391000Y-85955612D01*
X183391000Y-84177607D01*
X183302402Y-83732194D01*
X182964905Y-83227095D01*
X182459806Y-82889598D01*
X181864000Y-82771085D01*
X181268195Y-82889598D01*
X180763096Y-83227095D01*
X180642804Y-83407124D01*
X180633318Y-83384909D01*
X180190924Y-82952027D01*
X179696980Y-82737437D01*
X179451000Y-82857406D01*
X179451000Y-84201000D01*
X179471000Y-84201000D01*
X179471000Y-84455000D01*
X179451000Y-84455000D01*
X179451000Y-85798594D01*
X179696980Y-85918563D01*
X180041690Y-85768806D01*
X179701497Y-86109000D01*
X176928389Y-86109000D01*
X176778000Y-86079086D01*
X176627611Y-86109000D01*
X176627607Y-86109000D01*
X176182194Y-86197598D01*
X175804591Y-86449904D01*
X175804589Y-86449906D01*
X175677095Y-86535095D01*
X175591906Y-86662590D01*
X174881496Y-87373000D01*
X173300802Y-87373000D01*
X173316000Y-87336310D01*
X173316000Y-86645750D01*
X173157250Y-86487000D01*
X171958000Y-86487000D01*
X171958000Y-86507000D01*
X171704000Y-86507000D01*
X171704000Y-86487000D01*
X169418000Y-86487000D01*
X169418000Y-86507000D01*
X169164000Y-86507000D01*
X169164000Y-86487000D01*
X167970845Y-86487000D01*
X167849524Y-86716890D01*
X168019355Y-87126924D01*
X168243612Y-87373000D01*
X166494504Y-87373000D01*
X165865000Y-86743497D01*
X165865000Y-86003110D01*
X167849524Y-86003110D01*
X167970845Y-86233000D01*
X169164000Y-86233000D01*
X169164000Y-85039181D01*
X169418000Y-85039181D01*
X169418000Y-86233000D01*
X171704000Y-86233000D01*
X171704000Y-85033750D01*
X171958000Y-85033750D01*
X171958000Y-86233000D01*
X173157250Y-86233000D01*
X173316000Y-86074250D01*
X173316000Y-85383690D01*
X173219327Y-85150301D01*
X173040698Y-84971673D01*
X172807309Y-84875000D01*
X172116750Y-84875000D01*
X171958000Y-85033750D01*
X171704000Y-85033750D01*
X171545250Y-84875000D01*
X170854691Y-84875000D01*
X170621302Y-84971673D01*
X170442673Y-85150301D01*
X170354070Y-85364208D01*
X170172358Y-85164817D01*
X169647892Y-84918514D01*
X169418000Y-85039181D01*
X169164000Y-85039181D01*
X168934108Y-84918514D01*
X168409642Y-85164817D01*
X168019355Y-85593076D01*
X167849524Y-86003110D01*
X165865000Y-86003110D01*
X165865000Y-84198503D01*
X166494504Y-83569000D01*
X175135497Y-83569000D01*
X175257000Y-83690504D01*
X175257000Y-84478393D01*
X175294176Y-84665290D01*
X175294176Y-85328000D01*
X175335077Y-85533625D01*
X175451555Y-85707945D01*
X175625875Y-85824423D01*
X175831500Y-85865324D01*
X176685509Y-85865324D01*
X176784000Y-85884915D01*
X176882491Y-85865324D01*
X177736500Y-85865324D01*
X177942125Y-85824423D01*
X178116445Y-85707945D01*
X178232923Y-85533625D01*
X178241079Y-85492620D01*
X178457076Y-85703973D01*
X178951020Y-85918563D01*
X179197000Y-85798594D01*
X179197000Y-84455000D01*
X179177000Y-84455000D01*
X179177000Y-84201000D01*
X179197000Y-84201000D01*
X179197000Y-82857406D01*
X178951020Y-82737437D01*
X178457076Y-82952027D01*
X178339014Y-83067550D01*
X178340914Y-83058000D01*
X178311000Y-82907611D01*
X178311000Y-82907607D01*
X178222402Y-82462194D01*
X177884905Y-81957095D01*
X177757408Y-81871904D01*
X176954097Y-81068594D01*
X176868905Y-80941095D01*
X176363806Y-80603598D01*
X175918393Y-80515000D01*
X175918389Y-80515000D01*
X175768000Y-80485086D01*
X175617611Y-80515000D01*
X166012387Y-80515000D01*
X165861999Y-80485086D01*
X165711611Y-80515000D01*
X165711607Y-80515000D01*
X165266194Y-80603598D01*
X164761095Y-80941095D01*
X164675904Y-81068592D01*
X163364594Y-82379903D01*
X163237095Y-82465095D01*
X162899598Y-82970194D01*
X162864389Y-83147203D01*
X162664924Y-82952027D01*
X162170980Y-82737437D01*
X161925000Y-82857406D01*
X161925000Y-84201000D01*
X161945000Y-84201000D01*
X161945000Y-84455000D01*
X161925000Y-84455000D01*
X161925000Y-85798594D01*
X162170980Y-85918563D01*
X162664924Y-85703973D01*
X162811001Y-85561037D01*
X162811000Y-87225610D01*
X162781086Y-87376000D01*
X162811000Y-87526389D01*
X162811000Y-87526392D01*
X162899598Y-87971805D01*
X163237095Y-88476905D01*
X163364594Y-88562098D01*
X164675904Y-89873408D01*
X164761095Y-90000905D01*
X165266194Y-90338402D01*
X165711607Y-90427000D01*
X165711611Y-90427000D01*
X165861999Y-90456914D01*
X166012387Y-90427000D01*
X169441393Y-90427000D01*
X169886806Y-90338402D01*
X170391905Y-90000905D01*
X170561000Y-89747837D01*
X170730095Y-90000905D01*
X171235194Y-90338402D01*
X171680607Y-90427000D01*
X175363611Y-90427000D01*
X175514000Y-90456914D01*
X175664389Y-90427000D01*
X175664393Y-90427000D01*
X176109806Y-90338402D01*
X176614905Y-90000905D01*
X176700097Y-89873406D01*
X177410504Y-89163000D01*
X179961497Y-89163000D01*
X180677907Y-89879411D01*
X180763096Y-90006905D01*
X180890590Y-90092094D01*
X180890591Y-90092095D01*
X180890594Y-90092097D01*
X186005906Y-95207411D01*
X186091095Y-95334905D01*
X186218589Y-95420094D01*
X186218591Y-95420096D01*
X186568321Y-95653778D01*
X186596194Y-95672402D01*
X187041607Y-95761000D01*
X187041611Y-95761000D01*
X187192000Y-95790914D01*
X187342389Y-95761000D01*
X190142393Y-95761000D01*
X190587806Y-95672402D01*
X190739080Y-95571324D01*
X190792000Y-95571324D01*
X190997625Y-95530423D01*
X191171945Y-95413945D01*
X191288423Y-95239625D01*
X191329324Y-95034000D01*
X191329324Y-94981080D01*
X191382269Y-94901842D01*
X191575287Y-95190713D01*
X192014230Y-95484006D01*
X192401304Y-95561000D01*
X192662696Y-95561000D01*
X193049770Y-95484006D01*
X193488713Y-95190713D01*
X193782006Y-94751770D01*
X193802000Y-94651254D01*
X193821994Y-94751770D01*
X194115287Y-95190713D01*
X194554230Y-95484006D01*
X194941304Y-95561000D01*
X195202696Y-95561000D01*
X195589770Y-95484006D01*
X196028713Y-95190713D01*
X196322006Y-94751770D01*
X196342000Y-94651254D01*
X196361994Y-94751770D01*
X196655287Y-95190713D01*
X196958001Y-95392980D01*
X196958000Y-98741594D01*
X196945189Y-98806000D01*
X196958000Y-98870406D01*
X196958000Y-98870409D01*
X196995946Y-99061177D01*
X197140493Y-99277507D01*
X197195098Y-99313993D01*
X201930007Y-104048902D01*
X201966493Y-104103507D01*
X202182822Y-104248054D01*
X202373590Y-104286000D01*
X202373593Y-104286000D01*
X202438000Y-104298811D01*
X202502407Y-104286000D01*
X237806594Y-104286000D01*
X237871000Y-104298811D01*
X237935406Y-104286000D01*
X237935410Y-104286000D01*
X238126178Y-104248054D01*
X238342507Y-104103507D01*
X238378993Y-104048902D01*
X238975956Y-103451940D01*
X239116125Y-103510000D01*
X239673875Y-103510000D01*
X240189169Y-103296558D01*
X240583558Y-102902169D01*
X240797000Y-102386875D01*
X240797000Y-101829125D01*
X240583558Y-101313831D01*
X240464727Y-101195000D01*
X240958685Y-101195000D01*
X241538299Y-100954916D01*
X241981916Y-100511299D01*
X242222000Y-99931685D01*
X242222000Y-99304315D01*
X241981916Y-98724701D01*
X241538299Y-98281084D01*
X240958685Y-98041000D01*
X240331315Y-98041000D01*
X239751701Y-98281084D01*
X239308084Y-98724701D01*
X239068000Y-99304315D01*
X239068000Y-99931685D01*
X239308084Y-100511299D01*
X239502785Y-100706000D01*
X239116125Y-100706000D01*
X238600831Y-100919442D01*
X238206442Y-101313831D01*
X237993000Y-101829125D01*
X237993000Y-102386875D01*
X238051060Y-102527044D01*
X237600105Y-102978000D01*
X235995004Y-102978000D01*
X236210953Y-102907116D01*
X236416590Y-102342694D01*
X236390579Y-101742542D01*
X236210953Y-101308884D01*
X235957060Y-101225545D01*
X235074605Y-102108000D01*
X235088748Y-102122143D01*
X234909143Y-102301748D01*
X234895000Y-102287605D01*
X234880858Y-102301748D01*
X234701253Y-102122143D01*
X234715395Y-102108000D01*
X234701253Y-102093858D01*
X234880858Y-101914253D01*
X234895000Y-101928395D01*
X235777455Y-101045940D01*
X235694116Y-100792047D01*
X235129694Y-100586410D01*
X234886254Y-100596961D01*
X234971916Y-100511299D01*
X235212000Y-99931685D01*
X235212000Y-99304315D01*
X234971916Y-98724701D01*
X234528299Y-98281084D01*
X234308403Y-98190000D01*
X238391558Y-98190000D01*
X238506000Y-98212764D01*
X238620442Y-98190000D01*
X238959390Y-98122579D01*
X239343755Y-97865755D01*
X239408584Y-97768731D01*
X240262733Y-96914582D01*
X240359755Y-96849755D01*
X240616579Y-96465390D01*
X240652010Y-96287265D01*
X240706764Y-96012000D01*
X240684000Y-95897558D01*
X240684000Y-95273645D01*
X240799000Y-94996011D01*
X240799000Y-94487989D01*
X240604588Y-94018638D01*
X240245362Y-93659412D01*
X239776011Y-93465000D01*
X239267989Y-93465000D01*
X238798638Y-93659412D01*
X238439412Y-94018638D01*
X238245000Y-94487989D01*
X238245000Y-94996011D01*
X238360000Y-95273645D01*
X238360000Y-95530684D01*
X238024685Y-95866000D01*
X235575917Y-95866000D01*
X235688423Y-95697625D01*
X235729324Y-95492000D01*
X235729324Y-93992000D01*
X235688423Y-93786375D01*
X235571945Y-93612055D01*
X235550759Y-93597899D01*
X235536579Y-93526610D01*
X235300651Y-93173517D01*
X236190088Y-93173517D01*
X236258077Y-93414460D01*
X236777171Y-93599201D01*
X237327448Y-93571230D01*
X237705923Y-93414460D01*
X237773912Y-93173517D01*
X236982000Y-92381605D01*
X236190088Y-93173517D01*
X235300651Y-93173517D01*
X235279755Y-93142245D01*
X235182734Y-93077418D01*
X234102487Y-91997171D01*
X235584799Y-91997171D01*
X235612770Y-92547448D01*
X235769540Y-92925923D01*
X236010483Y-92993912D01*
X236802395Y-92202000D01*
X237161605Y-92202000D01*
X237953517Y-92993912D01*
X238194460Y-92925923D01*
X238379201Y-92406829D01*
X238351230Y-91856552D01*
X238194460Y-91478077D01*
X237953517Y-91410088D01*
X237161605Y-92202000D01*
X236802395Y-92202000D01*
X236010483Y-91410088D01*
X235769540Y-91478077D01*
X235584799Y-91997171D01*
X234102487Y-91997171D01*
X233826000Y-91720685D01*
X233826000Y-91554441D01*
X233848764Y-91440000D01*
X233826000Y-91325558D01*
X233826000Y-91059000D01*
X236238477Y-91059000D01*
X236190088Y-91230483D01*
X236982000Y-92022395D01*
X237773912Y-91230483D01*
X237725523Y-91059000D01*
X245874101Y-91059000D01*
X245874101Y-102958922D01*
X245812773Y-103387160D01*
X245652399Y-103739885D01*
X245399470Y-104033422D01*
X245074326Y-104244170D01*
X244682325Y-104361404D01*
X244477834Y-104376600D01*
X150545771Y-104376600D01*
X150117540Y-104315273D01*
X149764815Y-104154899D01*
X149471278Y-103901970D01*
X149260530Y-103576826D01*
X149143296Y-103184825D01*
X149128100Y-102980334D01*
X149128100Y-100988000D01*
X159476391Y-100988000D01*
X159653113Y-101876441D01*
X160156375Y-102629625D01*
X160909559Y-103132887D01*
X161573736Y-103265000D01*
X162022264Y-103265000D01*
X162686441Y-103132887D01*
X163439625Y-102629625D01*
X163942887Y-101876441D01*
X164119609Y-100988000D01*
X177002391Y-100988000D01*
X177179113Y-101876441D01*
X177682375Y-102629625D01*
X178435559Y-103132887D01*
X179099736Y-103265000D01*
X179548264Y-103265000D01*
X180212441Y-103132887D01*
X180965625Y-102629625D01*
X181468887Y-101876441D01*
X181645609Y-100988000D01*
X181468887Y-100099559D01*
X180965625Y-99346375D01*
X180212441Y-98843113D01*
X179548264Y-98711000D01*
X179099736Y-98711000D01*
X178435559Y-98843113D01*
X177682375Y-99346375D01*
X177179113Y-100099559D01*
X177002391Y-100988000D01*
X164119609Y-100988000D01*
X163942887Y-100099559D01*
X163439625Y-99346375D01*
X162686441Y-98843113D01*
X162022264Y-98711000D01*
X161573736Y-98711000D01*
X160909559Y-98843113D01*
X160156375Y-99346375D01*
X159653113Y-100099559D01*
X159476391Y-100988000D01*
X149128100Y-100988000D01*
X149128100Y-85003600D01*
X149254100Y-85003600D01*
X149364076Y-85697961D01*
X149683239Y-86324353D01*
X150180347Y-86821461D01*
X150806739Y-87140624D01*
X151501100Y-87250600D01*
X152195461Y-87140624D01*
X152821853Y-86821461D01*
X153318961Y-86324353D01*
X153638124Y-85697961D01*
X153748100Y-85003600D01*
X153638124Y-84309239D01*
X153318961Y-83682847D01*
X152821853Y-83185739D01*
X152195461Y-82866576D01*
X151501100Y-82756600D01*
X150806739Y-82866576D01*
X150180347Y-83185739D01*
X149683239Y-83682847D01*
X149364076Y-84309239D01*
X149254100Y-85003600D01*
X149128100Y-85003600D01*
X149128100Y-74441306D01*
X155998410Y-74441306D01*
X156024421Y-75041458D01*
X156204047Y-75475116D01*
X156457940Y-75558455D01*
X157340395Y-74676000D01*
X156457940Y-73793545D01*
X156204047Y-73876884D01*
X155998410Y-74441306D01*
X149128100Y-74441306D01*
X149128100Y-73613940D01*
X156637545Y-73613940D01*
X157520000Y-74496395D01*
X158402455Y-73613940D01*
X158319116Y-73360047D01*
X157754694Y-73154410D01*
X157154542Y-73180421D01*
X156720884Y-73360047D01*
X156637545Y-73613940D01*
X149128100Y-73613940D01*
X149128100Y-73022602D01*
X169145000Y-73022602D01*
X169145000Y-73535398D01*
X169341239Y-74009160D01*
X169703840Y-74371761D01*
X170177602Y-74568000D01*
X170690398Y-74568000D01*
X171164160Y-74371761D01*
X171434000Y-74101921D01*
X171703840Y-74371761D01*
X172177602Y-74568000D01*
X172690398Y-74568000D01*
X172766558Y-74536453D01*
X174720007Y-76489902D01*
X174756493Y-76544507D01*
X174972822Y-76689054D01*
X175163590Y-76727000D01*
X175163593Y-76727000D01*
X175228000Y-76739811D01*
X175292407Y-76727000D01*
X191748024Y-76727000D01*
X191879897Y-76858873D01*
X192220608Y-77000000D01*
X192589392Y-77000000D01*
X192930103Y-76858873D01*
X193190873Y-76598103D01*
X193332000Y-76257392D01*
X193332000Y-75888608D01*
X193190873Y-75547897D01*
X192930103Y-75287127D01*
X192589392Y-75146000D01*
X192220608Y-75146000D01*
X191879897Y-75287127D01*
X191748024Y-75419000D01*
X175498895Y-75419000D01*
X174647895Y-74568000D01*
X174690398Y-74568000D01*
X175164160Y-74371761D01*
X175276708Y-74259213D01*
X175633392Y-74259213D01*
X175702857Y-74501397D01*
X176226302Y-74688144D01*
X176781368Y-74660362D01*
X177165143Y-74501397D01*
X177234608Y-74259213D01*
X176434000Y-73458605D01*
X175633392Y-74259213D01*
X175276708Y-74259213D01*
X175526761Y-74009160D01*
X175528547Y-74004848D01*
X176254395Y-73279000D01*
X176613605Y-73279000D01*
X177414213Y-74079608D01*
X177656397Y-74010143D01*
X177843144Y-73486698D01*
X177819916Y-73022602D01*
X181210000Y-73022602D01*
X181210000Y-73535398D01*
X181406239Y-74009160D01*
X181768840Y-74371761D01*
X182242602Y-74568000D01*
X182755398Y-74568000D01*
X183229160Y-74371761D01*
X183499000Y-74101921D01*
X183768840Y-74371761D01*
X184242602Y-74568000D01*
X184755398Y-74568000D01*
X185229160Y-74371761D01*
X185499000Y-74101921D01*
X185768840Y-74371761D01*
X186242602Y-74568000D01*
X186755398Y-74568000D01*
X187229160Y-74371761D01*
X187341708Y-74259213D01*
X187698392Y-74259213D01*
X187767857Y-74501397D01*
X188291302Y-74688144D01*
X188846368Y-74660362D01*
X189230143Y-74501397D01*
X189299608Y-74259213D01*
X188499000Y-73458605D01*
X187698392Y-74259213D01*
X187341708Y-74259213D01*
X187591761Y-74009160D01*
X187593547Y-74004848D01*
X188319395Y-73279000D01*
X188678605Y-73279000D01*
X189479213Y-74079608D01*
X189721397Y-74010143D01*
X189908144Y-73486698D01*
X189880362Y-72931632D01*
X189721397Y-72547857D01*
X189479213Y-72478392D01*
X188678605Y-73279000D01*
X188319395Y-73279000D01*
X187593547Y-72553152D01*
X187591761Y-72548840D01*
X187341708Y-72298787D01*
X187698392Y-72298787D01*
X188499000Y-73099395D01*
X189299608Y-72298787D01*
X189230143Y-72056603D01*
X188706698Y-71869856D01*
X188151632Y-71897638D01*
X187767857Y-72056603D01*
X187698392Y-72298787D01*
X187341708Y-72298787D01*
X187229160Y-72186239D01*
X186755398Y-71990000D01*
X186242602Y-71990000D01*
X185768840Y-72186239D01*
X185499000Y-72456079D01*
X185229160Y-72186239D01*
X184755398Y-71990000D01*
X184242602Y-71990000D01*
X183768840Y-72186239D01*
X183499000Y-72456079D01*
X183229160Y-72186239D01*
X182755398Y-71990000D01*
X182242602Y-71990000D01*
X181768840Y-72186239D01*
X181406239Y-72548840D01*
X181210000Y-73022602D01*
X177819916Y-73022602D01*
X177815362Y-72931632D01*
X177656397Y-72547857D01*
X177414213Y-72478392D01*
X176613605Y-73279000D01*
X176254395Y-73279000D01*
X175528547Y-72553152D01*
X175526761Y-72548840D01*
X175276708Y-72298787D01*
X175633392Y-72298787D01*
X176434000Y-73099395D01*
X177234608Y-72298787D01*
X177165143Y-72056603D01*
X176641698Y-71869856D01*
X176086632Y-71897638D01*
X175702857Y-72056603D01*
X175633392Y-72298787D01*
X175276708Y-72298787D01*
X175164160Y-72186239D01*
X174690398Y-71990000D01*
X174177602Y-71990000D01*
X173703840Y-72186239D01*
X173434000Y-72456079D01*
X173164160Y-72186239D01*
X172690398Y-71990000D01*
X172177602Y-71990000D01*
X171703840Y-72186239D01*
X171434000Y-72456079D01*
X171164160Y-72186239D01*
X170690398Y-71990000D01*
X170177602Y-71990000D01*
X169703840Y-72186239D01*
X169341239Y-72548840D01*
X169145000Y-73022602D01*
X149128100Y-73022602D01*
X149128100Y-67641223D01*
X200229035Y-67641223D01*
X200256222Y-68211454D01*
X200422136Y-68612005D01*
X200668255Y-68686139D01*
X201496395Y-67858000D01*
X201855605Y-67858000D01*
X202683745Y-68686139D01*
X202929864Y-68612005D01*
X202998504Y-68421039D01*
X205364096Y-68421039D01*
X205524959Y-68809423D01*
X205900866Y-69224389D01*
X206406959Y-69463914D01*
X206629000Y-69342629D01*
X206629000Y-68199000D01*
X205486085Y-68199000D01*
X205364096Y-68421039D01*
X202998504Y-68421039D01*
X203122965Y-68074777D01*
X203106192Y-67722961D01*
X205364096Y-67722961D01*
X205486085Y-67945000D01*
X206629000Y-67945000D01*
X206629000Y-66801371D01*
X206883000Y-66801371D01*
X206883000Y-67945000D01*
X206903000Y-67945000D01*
X206903000Y-68199000D01*
X206883000Y-68199000D01*
X206883000Y-69342629D01*
X207105041Y-69463914D01*
X207611134Y-69224389D01*
X207987041Y-68809423D01*
X208076076Y-68594460D01*
X208171024Y-68823685D01*
X208544315Y-69196976D01*
X209032043Y-69399000D01*
X209559957Y-69399000D01*
X209958301Y-69234000D01*
X211100685Y-69234000D01*
X211695417Y-69828733D01*
X211760245Y-69925755D01*
X212081468Y-70140389D01*
X212121840Y-70180761D01*
X212595602Y-70377000D01*
X213108398Y-70377000D01*
X213582160Y-70180761D01*
X213944761Y-69818160D01*
X214141000Y-69344398D01*
X214141000Y-68831602D01*
X213944761Y-68357840D01*
X213582160Y-67995239D01*
X213108398Y-67799000D01*
X212952316Y-67799000D01*
X212484584Y-67331269D01*
X212419755Y-67234245D01*
X212035390Y-66977421D01*
X211696442Y-66910000D01*
X211582000Y-66887236D01*
X211467558Y-66910000D01*
X209958301Y-66910000D01*
X209559957Y-66745000D01*
X209032043Y-66745000D01*
X208544315Y-66947024D01*
X208171024Y-67320315D01*
X208076076Y-67549540D01*
X207987041Y-67334577D01*
X207611134Y-66919611D01*
X207105041Y-66680086D01*
X206883000Y-66801371D01*
X206629000Y-66801371D01*
X206406959Y-66680086D01*
X205900866Y-66919611D01*
X205524959Y-67334577D01*
X205364096Y-67722961D01*
X203106192Y-67722961D01*
X203095778Y-67504546D01*
X202929864Y-67103995D01*
X202683745Y-67029861D01*
X201855605Y-67858000D01*
X201496395Y-67858000D01*
X200668255Y-67029861D01*
X200422136Y-67103995D01*
X200229035Y-67641223D01*
X149128100Y-67641223D01*
X149128100Y-67048271D01*
X149156458Y-66850255D01*
X200847861Y-66850255D01*
X201676000Y-67678395D01*
X202504139Y-66850255D01*
X202430005Y-66604136D01*
X201892777Y-66411035D01*
X201322546Y-66438222D01*
X200921995Y-66604136D01*
X200847861Y-66850255D01*
X149156458Y-66850255D01*
X149189428Y-66620038D01*
X149349801Y-66267315D01*
X149602730Y-65973778D01*
X149927875Y-65763029D01*
X150319875Y-65645796D01*
X150524365Y-65630600D01*
X214486479Y-65630600D01*
X214299239Y-65817840D01*
X214299239Y-65817840D01*
G37*
X214299239Y-65817840D02*
X214103000Y-66291602D01*
X214103000Y-66804398D01*
X214299239Y-67278160D01*
X214661840Y-67640761D01*
X215135602Y-67837000D01*
X215648398Y-67837000D01*
X216122160Y-67640761D01*
X216484761Y-67278160D01*
X216681000Y-66804398D01*
X216681000Y-66291602D01*
X216484761Y-65817840D01*
X216297521Y-65630600D01*
X219837000Y-65630600D01*
X219837000Y-66402000D01*
X219570441Y-66402000D01*
X219455999Y-66379236D01*
X219068423Y-66456330D01*
X219002610Y-66469421D01*
X218618245Y-66726245D01*
X218553417Y-66823267D01*
X217508447Y-67868238D01*
X217201840Y-67995239D01*
X216839239Y-68357840D01*
X216643000Y-68831602D01*
X216643000Y-69344398D01*
X216839239Y-69818160D01*
X217122079Y-70101000D01*
X216443018Y-70101000D01*
X216292629Y-70071086D01*
X216142240Y-70101000D01*
X216142237Y-70101000D01*
X215696824Y-70189598D01*
X215191725Y-70527095D01*
X215106534Y-70654592D01*
X213976711Y-71784416D01*
X213680154Y-71586263D01*
X213155988Y-71482000D01*
X213155987Y-71482000D01*
X212979000Y-71446795D01*
X212802013Y-71482000D01*
X208992012Y-71482000D01*
X208467846Y-71586263D01*
X207873435Y-71983435D01*
X207476263Y-72577846D01*
X207336795Y-73279000D01*
X207476263Y-73980154D01*
X207873435Y-74574565D01*
X208467846Y-74971737D01*
X208992012Y-75076000D01*
X212234659Y-75076000D01*
X213214000Y-76055342D01*
X213214000Y-77450496D01*
X212260097Y-76496594D01*
X212174905Y-76369095D01*
X211669806Y-76031598D01*
X211224393Y-75943000D01*
X211224389Y-75943000D01*
X211074000Y-75913086D01*
X210923611Y-75943000D01*
X207922389Y-75943000D01*
X207772000Y-75913086D01*
X207621611Y-75943000D01*
X207621607Y-75943000D01*
X207176194Y-76031598D01*
X206671095Y-76369095D01*
X206585904Y-76496592D01*
X204553905Y-78528592D01*
X204301598Y-78906195D01*
X204183086Y-79502000D01*
X204301598Y-80097805D01*
X204551874Y-80472369D01*
X200660503Y-76581000D01*
X201592095Y-75649409D01*
X201592097Y-75649406D01*
X201731758Y-75509745D01*
X204911861Y-75509745D01*
X204985995Y-75755864D01*
X205523223Y-75948965D01*
X206093454Y-75921778D01*
X206494005Y-75755864D01*
X206568139Y-75509745D01*
X205740000Y-74681605D01*
X204911861Y-75509745D01*
X201731758Y-75509745D01*
X202649408Y-74592096D01*
X202776905Y-74506905D01*
X202925028Y-74285223D01*
X204293035Y-74285223D01*
X204320222Y-74855454D01*
X204486136Y-75256005D01*
X204732255Y-75330139D01*
X205560395Y-74502000D01*
X205919605Y-74502000D01*
X206747745Y-75330139D01*
X206993864Y-75256005D01*
X207186965Y-74718777D01*
X207159778Y-74148546D01*
X206993864Y-73747995D01*
X206747745Y-73673861D01*
X205919605Y-74502000D01*
X205560395Y-74502000D01*
X204732255Y-73673861D01*
X204486136Y-73747995D01*
X204293035Y-74285223D01*
X202925028Y-74285223D01*
X203114402Y-74001806D01*
X203203000Y-73556393D01*
X203203000Y-73556390D01*
X203215359Y-73494255D01*
X204911861Y-73494255D01*
X205740000Y-74322395D01*
X206568139Y-73494255D01*
X206494005Y-73248136D01*
X205956777Y-73055035D01*
X205386546Y-73082222D01*
X204985995Y-73248136D01*
X204911861Y-73494255D01*
X203215359Y-73494255D01*
X203232914Y-73406001D01*
X203203000Y-73255612D01*
X203203000Y-70207607D01*
X203114402Y-69762194D01*
X203013324Y-69610920D01*
X203013324Y-69558000D01*
X202972423Y-69352375D01*
X202855945Y-69178055D01*
X202681625Y-69061577D01*
X202476000Y-69020676D01*
X202457472Y-69020676D01*
X202504139Y-68865745D01*
X201676000Y-68037605D01*
X200847861Y-68865745D01*
X200894528Y-69020676D01*
X200876000Y-69020676D01*
X200670375Y-69061577D01*
X200496055Y-69178055D01*
X200379577Y-69352375D01*
X200338676Y-69558000D01*
X200338676Y-69610922D01*
X200237599Y-69762194D01*
X200149001Y-70207607D01*
X200149000Y-72773496D01*
X199432594Y-73489903D01*
X199432591Y-73489905D01*
X197146595Y-75775902D01*
X197019095Y-75861095D01*
X196933904Y-75988592D01*
X195709497Y-77213000D01*
X161547000Y-77213000D01*
X161547000Y-74525607D01*
X161458402Y-74080194D01*
X161432324Y-74041166D01*
X161432324Y-73801000D01*
X161391423Y-73595375D01*
X161274945Y-73421055D01*
X161100625Y-73304577D01*
X160895000Y-73263676D01*
X160654833Y-73263676D01*
X160615805Y-73237598D01*
X160020000Y-73119085D01*
X159424194Y-73237598D01*
X159385166Y-73263676D01*
X159145000Y-73263676D01*
X158939375Y-73304577D01*
X158765055Y-73421055D01*
X158648577Y-73595375D01*
X158607676Y-73801000D01*
X158607676Y-73801953D01*
X158582060Y-73793545D01*
X157699605Y-74676000D01*
X157713748Y-74690143D01*
X157534143Y-74869748D01*
X157520000Y-74855605D01*
X156637545Y-75738060D01*
X156720884Y-75991953D01*
X157285306Y-76197590D01*
X157885458Y-76171579D01*
X158319116Y-75991953D01*
X158402454Y-75738062D01*
X158493000Y-75828608D01*
X158493001Y-78589602D01*
X158463085Y-78740000D01*
X158493000Y-78890393D01*
X158493001Y-79933496D01*
X158284594Y-80141903D01*
X158157095Y-80227095D01*
X157819598Y-80732195D01*
X157731000Y-81177608D01*
X157731000Y-81177611D01*
X157701086Y-81328000D01*
X157731000Y-81478390D01*
X157731001Y-84478393D01*
X157768176Y-84665285D01*
X157768176Y-85328000D01*
X157809077Y-85533625D01*
X157925555Y-85707945D01*
X158099875Y-85824423D01*
X158305500Y-85865324D01*
X159159509Y-85865324D01*
X159258000Y-85884915D01*
X159356491Y-85865324D01*
X160210500Y-85865324D01*
X160416125Y-85824423D01*
X160590445Y-85707945D01*
X160706923Y-85533625D01*
X160715079Y-85492620D01*
X160931076Y-85703973D01*
X161425020Y-85918563D01*
X161671000Y-85798594D01*
X161671000Y-84455000D01*
X161651000Y-84455000D01*
X161651000Y-84201000D01*
X161671000Y-84201000D01*
X161671000Y-82857406D01*
X161425020Y-82737437D01*
X160931076Y-82952027D01*
X160785000Y-83094962D01*
X160785000Y-81970350D01*
X161120905Y-81745905D01*
X161458402Y-81240806D01*
X161576915Y-80645000D01*
X161547000Y-80494607D01*
X161547000Y-80267000D01*
X196191611Y-80267000D01*
X196342000Y-80296914D01*
X196492389Y-80267000D01*
X196492393Y-80267000D01*
X196937806Y-80178402D01*
X197442905Y-79840905D01*
X197528098Y-79713406D01*
X198501000Y-78740503D01*
X203018276Y-83257781D01*
X203103465Y-83385275D01*
X203230959Y-83470464D01*
X203230961Y-83470466D01*
X203548812Y-83682847D01*
X203608564Y-83722772D01*
X204053977Y-83811370D01*
X204053981Y-83811370D01*
X204204370Y-83841284D01*
X204354759Y-83811370D01*
X204399769Y-83811370D01*
X204458237Y-83823000D01*
X204458240Y-83823000D01*
X204608629Y-83852914D01*
X204759018Y-83823000D01*
X206720981Y-83823000D01*
X206871370Y-83852914D01*
X207021759Y-83823000D01*
X207021763Y-83823000D01*
X207467176Y-83734402D01*
X207972275Y-83396905D01*
X207978488Y-83387607D01*
X207943003Y-83566000D01*
X208045994Y-84083770D01*
X208339287Y-84522713D01*
X208778230Y-84816006D01*
X208889344Y-84838108D01*
X208544315Y-84981024D01*
X208171024Y-85354315D01*
X207969000Y-85842043D01*
X207969000Y-86369957D01*
X208171024Y-86857685D01*
X208544315Y-87230976D01*
X209032043Y-87433000D01*
X209559957Y-87433000D01*
X209958301Y-87268000D01*
X211440520Y-87268000D01*
X211572230Y-87356006D01*
X211959304Y-87433000D01*
X212220696Y-87433000D01*
X212607770Y-87356006D01*
X212960000Y-87120653D01*
X212960001Y-88999697D01*
X212795000Y-89398043D01*
X212795000Y-89925957D01*
X212997024Y-90413685D01*
X213370315Y-90786976D01*
X213858043Y-90989000D01*
X214385957Y-90989000D01*
X214873685Y-90786976D01*
X215246976Y-90413685D01*
X215449000Y-89925957D01*
X215449000Y-89398043D01*
X215284000Y-88999699D01*
X215284000Y-85571315D01*
X216008001Y-84847314D01*
X216008000Y-89039558D01*
X215985236Y-89154000D01*
X216064791Y-89553947D01*
X216075421Y-89607389D01*
X216332245Y-89991755D01*
X216429270Y-90056585D01*
X221347417Y-94974733D01*
X221412245Y-95071755D01*
X221796610Y-95328579D01*
X222250000Y-95418764D01*
X222364442Y-95396000D01*
X224648520Y-95396000D01*
X224780230Y-95484006D01*
X224935594Y-95514910D01*
X225195416Y-95774732D01*
X225260244Y-95871754D01*
X225574568Y-96081778D01*
X225644609Y-96128578D01*
X226097998Y-96218763D01*
X226212440Y-96195999D01*
X229426684Y-96195999D01*
X230258685Y-97028000D01*
X229891267Y-97395418D01*
X229794246Y-97460245D01*
X229658770Y-97663000D01*
X229537421Y-97844611D01*
X229447236Y-98298000D01*
X229470000Y-98412442D01*
X229470000Y-99172520D01*
X229381994Y-99304230D01*
X229279003Y-99822000D01*
X229381994Y-100339770D01*
X229675287Y-100778713D01*
X230114230Y-101072006D01*
X230501304Y-101149000D01*
X230762696Y-101149000D01*
X231149770Y-101072006D01*
X231588713Y-100778713D01*
X231882006Y-100339770D01*
X231984997Y-99822000D01*
X231882006Y-99304230D01*
X231794000Y-99172520D01*
X231794000Y-98779315D01*
X232383316Y-98190000D01*
X232961597Y-98190000D01*
X232741701Y-98281084D01*
X232298084Y-98724701D01*
X232058000Y-99304315D01*
X232058000Y-99931685D01*
X232298084Y-100511299D01*
X232741701Y-100954916D01*
X233321315Y-101195000D01*
X233802392Y-101195000D01*
X233832938Y-101225546D01*
X233579047Y-101308884D01*
X233373410Y-101873306D01*
X233399421Y-102473458D01*
X233579047Y-102907116D01*
X233794996Y-102978000D01*
X227426727Y-102978000D01*
X227502558Y-102902169D01*
X227716000Y-102386875D01*
X227716000Y-101829125D01*
X227502558Y-101313831D01*
X227383727Y-101195000D01*
X227877685Y-101195000D01*
X228457299Y-100954916D01*
X228900916Y-100511299D01*
X229141000Y-99931685D01*
X229141000Y-99304315D01*
X228900916Y-98724701D01*
X228457299Y-98281084D01*
X227877685Y-98041000D01*
X227250315Y-98041000D01*
X226670701Y-98281084D01*
X226227084Y-98724701D01*
X225987000Y-99304315D01*
X225987000Y-99931685D01*
X226227084Y-100511299D01*
X226421785Y-100706000D01*
X226035125Y-100706000D01*
X225894956Y-100764060D01*
X221487993Y-96357098D01*
X221451507Y-96302493D01*
X221235178Y-96157946D01*
X221044410Y-96120000D01*
X221044406Y-96120000D01*
X220980000Y-96107189D01*
X220915594Y-96120000D01*
X204105896Y-96120000D01*
X203655641Y-95669745D01*
X213293861Y-95669745D01*
X213367995Y-95915864D01*
X213905223Y-96108965D01*
X214475454Y-96081778D01*
X214876005Y-95915864D01*
X214950139Y-95669745D01*
X214122000Y-94841605D01*
X213293861Y-95669745D01*
X203655641Y-95669745D01*
X203365707Y-95379812D01*
X203648713Y-95190713D01*
X203942006Y-94751770D01*
X203962000Y-94651254D01*
X203981994Y-94751770D01*
X204275287Y-95190713D01*
X204714230Y-95484006D01*
X205101304Y-95561000D01*
X205362696Y-95561000D01*
X205749770Y-95484006D01*
X206188713Y-95190713D01*
X206482006Y-94751770D01*
X206542982Y-94445223D01*
X212675035Y-94445223D01*
X212702222Y-95015454D01*
X212868136Y-95416005D01*
X213114255Y-95490139D01*
X213942395Y-94662000D01*
X214301605Y-94662000D01*
X215129745Y-95490139D01*
X215375864Y-95416005D01*
X215438499Y-95241745D01*
X216849861Y-95241745D01*
X216923995Y-95487864D01*
X217461223Y-95680965D01*
X218031454Y-95653778D01*
X218432005Y-95487864D01*
X218506139Y-95241745D01*
X217678000Y-94413605D01*
X216849861Y-95241745D01*
X215438499Y-95241745D01*
X215568965Y-94878777D01*
X215541778Y-94308546D01*
X215421108Y-94017223D01*
X216231035Y-94017223D01*
X216258222Y-94587454D01*
X216424136Y-94988005D01*
X216670255Y-95062139D01*
X217498395Y-94234000D01*
X217857605Y-94234000D01*
X218685745Y-95062139D01*
X218931864Y-94988005D01*
X219124965Y-94450777D01*
X219097778Y-93880546D01*
X218931864Y-93479995D01*
X218685745Y-93405861D01*
X217857605Y-94234000D01*
X217498395Y-94234000D01*
X216670255Y-93405861D01*
X216424136Y-93479995D01*
X216231035Y-94017223D01*
X215421108Y-94017223D01*
X215375864Y-93907995D01*
X215129745Y-93833861D01*
X214301605Y-94662000D01*
X213942395Y-94662000D01*
X213114255Y-93833861D01*
X212868136Y-93907995D01*
X212675035Y-94445223D01*
X206542982Y-94445223D01*
X206584997Y-94234000D01*
X206482006Y-93716230D01*
X206440596Y-93654255D01*
X213293861Y-93654255D01*
X214122000Y-94482395D01*
X214950139Y-93654255D01*
X214876005Y-93408136D01*
X214369993Y-93226255D01*
X216849861Y-93226255D01*
X217678000Y-94054395D01*
X218506139Y-93226255D01*
X218432005Y-92980136D01*
X217894777Y-92787035D01*
X217324546Y-92814222D01*
X216923995Y-92980136D01*
X216849861Y-93226255D01*
X214369993Y-93226255D01*
X214338777Y-93215035D01*
X213768546Y-93242222D01*
X213367995Y-93408136D01*
X213293861Y-93654255D01*
X206440596Y-93654255D01*
X206188713Y-93277287D01*
X205749770Y-92983994D01*
X205362696Y-92907000D01*
X205101304Y-92907000D01*
X204714230Y-92983994D01*
X204275287Y-93277287D01*
X203981994Y-93716230D01*
X203962000Y-93816746D01*
X203942006Y-93716230D01*
X203648713Y-93277287D01*
X203209770Y-92983994D01*
X202822696Y-92907000D01*
X202561304Y-92907000D01*
X202174230Y-92983994D01*
X201735287Y-93277287D01*
X201441994Y-93716230D01*
X201422000Y-93816746D01*
X201402006Y-93716230D01*
X201108713Y-93277287D01*
X200669770Y-92983994D01*
X200413370Y-92932993D01*
X200413370Y-91365777D01*
X200426181Y-91301370D01*
X200413370Y-91236963D01*
X200413370Y-91236960D01*
X200375424Y-91046192D01*
X200230877Y-90829863D01*
X200176272Y-90793377D01*
X199464756Y-90081861D01*
X199747762Y-89892762D01*
X200025000Y-89477846D01*
X200302238Y-89892762D01*
X200757721Y-90197106D01*
X201159377Y-90277000D01*
X201430623Y-90277000D01*
X201832279Y-90197106D01*
X202287762Y-89892762D01*
X202592106Y-89437279D01*
X202698977Y-88900000D01*
X202592106Y-88362721D01*
X202552700Y-88303745D01*
X204911861Y-88303745D01*
X204985995Y-88549864D01*
X205523223Y-88742965D01*
X206093454Y-88715778D01*
X206494005Y-88549864D01*
X206568139Y-88303745D01*
X205740000Y-87475605D01*
X204911861Y-88303745D01*
X202552700Y-88303745D01*
X202287762Y-87907238D01*
X201946720Y-87679361D01*
X202061924Y-87631645D01*
X202490183Y-87241358D01*
X202566325Y-87079223D01*
X204293035Y-87079223D01*
X204320222Y-87649454D01*
X204486136Y-88050005D01*
X204732255Y-88124139D01*
X205560395Y-87296000D01*
X205919605Y-87296000D01*
X206747745Y-88124139D01*
X206993864Y-88050005D01*
X207186965Y-87512777D01*
X207159778Y-86942546D01*
X206993864Y-86541995D01*
X206747745Y-86467861D01*
X205919605Y-87296000D01*
X205560395Y-87296000D01*
X204732255Y-86467861D01*
X204486136Y-86541995D01*
X204293035Y-87079223D01*
X202566325Y-87079223D01*
X202736486Y-86716892D01*
X202615819Y-86487000D01*
X201422000Y-86487000D01*
X201422000Y-86507000D01*
X201168000Y-86507000D01*
X201168000Y-86487000D01*
X201148000Y-86487000D01*
X201148000Y-86288255D01*
X204911861Y-86288255D01*
X205740000Y-87116395D01*
X206568139Y-86288255D01*
X206494005Y-86042136D01*
X205956777Y-85849035D01*
X205386546Y-85876222D01*
X204985995Y-86042136D01*
X204911861Y-86288255D01*
X201148000Y-86288255D01*
X201148000Y-86233000D01*
X201168000Y-86233000D01*
X201168000Y-85039845D01*
X201422000Y-85039845D01*
X201422000Y-86233000D01*
X202615819Y-86233000D01*
X202736486Y-86003108D01*
X202490183Y-85478642D01*
X202061924Y-85088355D01*
X201651890Y-84918524D01*
X201422000Y-85039845D01*
X201168000Y-85039845D01*
X200938110Y-84918524D01*
X200528076Y-85088355D01*
X200099817Y-85478642D01*
X199985231Y-85722636D01*
X199747762Y-85367238D01*
X199292279Y-85062894D01*
X198890623Y-84983000D01*
X198619377Y-84983000D01*
X198217721Y-85062894D01*
X197762238Y-85367238D01*
X197485000Y-85782154D01*
X197207762Y-85367238D01*
X196752279Y-85062894D01*
X196350623Y-84983000D01*
X196079377Y-84983000D01*
X195677721Y-85062894D01*
X195222238Y-85367238D01*
X195062324Y-85606566D01*
X195062324Y-85510000D01*
X195021423Y-85304375D01*
X194904945Y-85130055D01*
X194730625Y-85013577D01*
X194525000Y-84972676D01*
X192825000Y-84972676D01*
X192619375Y-85013577D01*
X192445055Y-85130055D01*
X192328577Y-85304375D01*
X192287676Y-85510000D01*
X192287676Y-87210000D01*
X192328577Y-87415625D01*
X192445055Y-87589945D01*
X192619375Y-87706423D01*
X192825000Y-87747324D01*
X192921566Y-87747324D01*
X192682238Y-87907238D01*
X192377894Y-88362721D01*
X192271023Y-88900000D01*
X192377894Y-89437279D01*
X192682238Y-89892762D01*
X193137721Y-90197106D01*
X193539377Y-90277000D01*
X193786104Y-90277000D01*
X192115096Y-91948009D01*
X192060494Y-91984493D01*
X192024010Y-92039095D01*
X192024008Y-92039097D01*
X191915946Y-92200823D01*
X191865189Y-92456000D01*
X191878001Y-92520411D01*
X191878001Y-93075020D01*
X191575287Y-93277287D01*
X191382269Y-93566158D01*
X191329324Y-93486920D01*
X191329324Y-93434000D01*
X191288423Y-93228375D01*
X191171945Y-93054055D01*
X190997625Y-92937577D01*
X190792000Y-92896676D01*
X190739080Y-92896676D01*
X190587806Y-92795598D01*
X190142393Y-92707000D01*
X187824505Y-92707000D01*
X183391000Y-88273497D01*
X183391000Y-86256390D01*
X183420914Y-86106001D01*
X183391000Y-85955612D01*
X183391000Y-84177607D01*
X183302402Y-83732194D01*
X182964905Y-83227095D01*
X182459806Y-82889598D01*
X181864000Y-82771085D01*
X181268195Y-82889598D01*
X180763096Y-83227095D01*
X180642804Y-83407124D01*
X180633318Y-83384909D01*
X180190924Y-82952027D01*
X179696980Y-82737437D01*
X179451000Y-82857406D01*
X179451000Y-84201000D01*
X179471000Y-84201000D01*
X179471000Y-84455000D01*
X179451000Y-84455000D01*
X179451000Y-85798594D01*
X179696980Y-85918563D01*
X180041690Y-85768806D01*
X179701497Y-86109000D01*
X176928389Y-86109000D01*
X176778000Y-86079086D01*
X176627611Y-86109000D01*
X176627607Y-86109000D01*
X176182194Y-86197598D01*
X175804591Y-86449904D01*
X175804589Y-86449906D01*
X175677095Y-86535095D01*
X175591906Y-86662590D01*
X174881496Y-87373000D01*
X173300802Y-87373000D01*
X173316000Y-87336310D01*
X173316000Y-86645750D01*
X173157250Y-86487000D01*
X171958000Y-86487000D01*
X171958000Y-86507000D01*
X171704000Y-86507000D01*
X171704000Y-86487000D01*
X169418000Y-86487000D01*
X169418000Y-86507000D01*
X169164000Y-86507000D01*
X169164000Y-86487000D01*
X167970845Y-86487000D01*
X167849524Y-86716890D01*
X168019355Y-87126924D01*
X168243612Y-87373000D01*
X166494504Y-87373000D01*
X165865000Y-86743497D01*
X165865000Y-86003110D01*
X167849524Y-86003110D01*
X167970845Y-86233000D01*
X169164000Y-86233000D01*
X169164000Y-85039181D01*
X169418000Y-85039181D01*
X169418000Y-86233000D01*
X171704000Y-86233000D01*
X171704000Y-85033750D01*
X171958000Y-85033750D01*
X171958000Y-86233000D01*
X173157250Y-86233000D01*
X173316000Y-86074250D01*
X173316000Y-85383690D01*
X173219327Y-85150301D01*
X173040698Y-84971673D01*
X172807309Y-84875000D01*
X172116750Y-84875000D01*
X171958000Y-85033750D01*
X171704000Y-85033750D01*
X171545250Y-84875000D01*
X170854691Y-84875000D01*
X170621302Y-84971673D01*
X170442673Y-85150301D01*
X170354070Y-85364208D01*
X170172358Y-85164817D01*
X169647892Y-84918514D01*
X169418000Y-85039181D01*
X169164000Y-85039181D01*
X168934108Y-84918514D01*
X168409642Y-85164817D01*
X168019355Y-85593076D01*
X167849524Y-86003110D01*
X165865000Y-86003110D01*
X165865000Y-84198503D01*
X166494504Y-83569000D01*
X175135497Y-83569000D01*
X175257000Y-83690504D01*
X175257000Y-84478393D01*
X175294176Y-84665290D01*
X175294176Y-85328000D01*
X175335077Y-85533625D01*
X175451555Y-85707945D01*
X175625875Y-85824423D01*
X175831500Y-85865324D01*
X176685509Y-85865324D01*
X176784000Y-85884915D01*
X176882491Y-85865324D01*
X177736500Y-85865324D01*
X177942125Y-85824423D01*
X178116445Y-85707945D01*
X178232923Y-85533625D01*
X178241079Y-85492620D01*
X178457076Y-85703973D01*
X178951020Y-85918563D01*
X179197000Y-85798594D01*
X179197000Y-84455000D01*
X179177000Y-84455000D01*
X179177000Y-84201000D01*
X179197000Y-84201000D01*
X179197000Y-82857406D01*
X178951020Y-82737437D01*
X178457076Y-82952027D01*
X178339014Y-83067550D01*
X178340914Y-83058000D01*
X178311000Y-82907611D01*
X178311000Y-82907607D01*
X178222402Y-82462194D01*
X177884905Y-81957095D01*
X177757408Y-81871904D01*
X176954097Y-81068594D01*
X176868905Y-80941095D01*
X176363806Y-80603598D01*
X175918393Y-80515000D01*
X175918389Y-80515000D01*
X175768000Y-80485086D01*
X175617611Y-80515000D01*
X166012387Y-80515000D01*
X165861999Y-80485086D01*
X165711611Y-80515000D01*
X165711607Y-80515000D01*
X165266194Y-80603598D01*
X164761095Y-80941095D01*
X164675904Y-81068592D01*
X163364594Y-82379903D01*
X163237095Y-82465095D01*
X162899598Y-82970194D01*
X162864389Y-83147203D01*
X162664924Y-82952027D01*
X162170980Y-82737437D01*
X161925000Y-82857406D01*
X161925000Y-84201000D01*
X161945000Y-84201000D01*
X161945000Y-84455000D01*
X161925000Y-84455000D01*
X161925000Y-85798594D01*
X162170980Y-85918563D01*
X162664924Y-85703973D01*
X162811001Y-85561037D01*
X162811000Y-87225610D01*
X162781086Y-87376000D01*
X162811000Y-87526389D01*
X162811000Y-87526392D01*
X162899598Y-87971805D01*
X163237095Y-88476905D01*
X163364594Y-88562098D01*
X164675904Y-89873408D01*
X164761095Y-90000905D01*
X165266194Y-90338402D01*
X165711607Y-90427000D01*
X165711611Y-90427000D01*
X165861999Y-90456914D01*
X166012387Y-90427000D01*
X169441393Y-90427000D01*
X169886806Y-90338402D01*
X170391905Y-90000905D01*
X170561000Y-89747837D01*
X170730095Y-90000905D01*
X171235194Y-90338402D01*
X171680607Y-90427000D01*
X175363611Y-90427000D01*
X175514000Y-90456914D01*
X175664389Y-90427000D01*
X175664393Y-90427000D01*
X176109806Y-90338402D01*
X176614905Y-90000905D01*
X176700097Y-89873406D01*
X177410504Y-89163000D01*
X179961497Y-89163000D01*
X180677907Y-89879411D01*
X180763096Y-90006905D01*
X180890590Y-90092094D01*
X180890591Y-90092095D01*
X180890594Y-90092097D01*
X186005906Y-95207411D01*
X186091095Y-95334905D01*
X186218589Y-95420094D01*
X186218591Y-95420096D01*
X186568321Y-95653778D01*
X186596194Y-95672402D01*
X187041607Y-95761000D01*
X187041611Y-95761000D01*
X187192000Y-95790914D01*
X187342389Y-95761000D01*
X190142393Y-95761000D01*
X190587806Y-95672402D01*
X190739080Y-95571324D01*
X190792000Y-95571324D01*
X190997625Y-95530423D01*
X191171945Y-95413945D01*
X191288423Y-95239625D01*
X191329324Y-95034000D01*
X191329324Y-94981080D01*
X191382269Y-94901842D01*
X191575287Y-95190713D01*
X192014230Y-95484006D01*
X192401304Y-95561000D01*
X192662696Y-95561000D01*
X193049770Y-95484006D01*
X193488713Y-95190713D01*
X193782006Y-94751770D01*
X193802000Y-94651254D01*
X193821994Y-94751770D01*
X194115287Y-95190713D01*
X194554230Y-95484006D01*
X194941304Y-95561000D01*
X195202696Y-95561000D01*
X195589770Y-95484006D01*
X196028713Y-95190713D01*
X196322006Y-94751770D01*
X196342000Y-94651254D01*
X196361994Y-94751770D01*
X196655287Y-95190713D01*
X196958001Y-95392980D01*
X196958000Y-98741594D01*
X196945189Y-98806000D01*
X196958000Y-98870406D01*
X196958000Y-98870409D01*
X196995946Y-99061177D01*
X197140493Y-99277507D01*
X197195098Y-99313993D01*
X201930007Y-104048902D01*
X201966493Y-104103507D01*
X202182822Y-104248054D01*
X202373590Y-104286000D01*
X202373593Y-104286000D01*
X202438000Y-104298811D01*
X202502407Y-104286000D01*
X237806594Y-104286000D01*
X237871000Y-104298811D01*
X237935406Y-104286000D01*
X237935410Y-104286000D01*
X238126178Y-104248054D01*
X238342507Y-104103507D01*
X238378993Y-104048902D01*
X238975956Y-103451940D01*
X239116125Y-103510000D01*
X239673875Y-103510000D01*
X240189169Y-103296558D01*
X240583558Y-102902169D01*
X240797000Y-102386875D01*
X240797000Y-101829125D01*
X240583558Y-101313831D01*
X240464727Y-101195000D01*
X240958685Y-101195000D01*
X241538299Y-100954916D01*
X241981916Y-100511299D01*
X242222000Y-99931685D01*
X242222000Y-99304315D01*
X241981916Y-98724701D01*
X241538299Y-98281084D01*
X240958685Y-98041000D01*
X240331315Y-98041000D01*
X239751701Y-98281084D01*
X239308084Y-98724701D01*
X239068000Y-99304315D01*
X239068000Y-99931685D01*
X239308084Y-100511299D01*
X239502785Y-100706000D01*
X239116125Y-100706000D01*
X238600831Y-100919442D01*
X238206442Y-101313831D01*
X237993000Y-101829125D01*
X237993000Y-102386875D01*
X238051060Y-102527044D01*
X237600105Y-102978000D01*
X235995004Y-102978000D01*
X236210953Y-102907116D01*
X236416590Y-102342694D01*
X236390579Y-101742542D01*
X236210953Y-101308884D01*
X235957060Y-101225545D01*
X235074605Y-102108000D01*
X235088748Y-102122143D01*
X234909143Y-102301748D01*
X234895000Y-102287605D01*
X234880858Y-102301748D01*
X234701253Y-102122143D01*
X234715395Y-102108000D01*
X234701253Y-102093858D01*
X234880858Y-101914253D01*
X234895000Y-101928395D01*
X235777455Y-101045940D01*
X235694116Y-100792047D01*
X235129694Y-100586410D01*
X234886254Y-100596961D01*
X234971916Y-100511299D01*
X235212000Y-99931685D01*
X235212000Y-99304315D01*
X234971916Y-98724701D01*
X234528299Y-98281084D01*
X234308403Y-98190000D01*
X238391558Y-98190000D01*
X238506000Y-98212764D01*
X238620442Y-98190000D01*
X238959390Y-98122579D01*
X239343755Y-97865755D01*
X239408584Y-97768731D01*
X240262733Y-96914582D01*
X240359755Y-96849755D01*
X240616579Y-96465390D01*
X240652010Y-96287265D01*
X240706764Y-96012000D01*
X240684000Y-95897558D01*
X240684000Y-95273645D01*
X240799000Y-94996011D01*
X240799000Y-94487989D01*
X240604588Y-94018638D01*
X240245362Y-93659412D01*
X239776011Y-93465000D01*
X239267989Y-93465000D01*
X238798638Y-93659412D01*
X238439412Y-94018638D01*
X238245000Y-94487989D01*
X238245000Y-94996011D01*
X238360000Y-95273645D01*
X238360000Y-95530684D01*
X238024685Y-95866000D01*
X235575917Y-95866000D01*
X235688423Y-95697625D01*
X235729324Y-95492000D01*
X235729324Y-93992000D01*
X235688423Y-93786375D01*
X235571945Y-93612055D01*
X235550759Y-93597899D01*
X235536579Y-93526610D01*
X235300651Y-93173517D01*
X236190088Y-93173517D01*
X236258077Y-93414460D01*
X236777171Y-93599201D01*
X237327448Y-93571230D01*
X237705923Y-93414460D01*
X237773912Y-93173517D01*
X236982000Y-92381605D01*
X236190088Y-93173517D01*
X235300651Y-93173517D01*
X235279755Y-93142245D01*
X235182734Y-93077418D01*
X234102487Y-91997171D01*
X235584799Y-91997171D01*
X235612770Y-92547448D01*
X235769540Y-92925923D01*
X236010483Y-92993912D01*
X236802395Y-92202000D01*
X237161605Y-92202000D01*
X237953517Y-92993912D01*
X238194460Y-92925923D01*
X238379201Y-92406829D01*
X238351230Y-91856552D01*
X238194460Y-91478077D01*
X237953517Y-91410088D01*
X237161605Y-92202000D01*
X236802395Y-92202000D01*
X236010483Y-91410088D01*
X235769540Y-91478077D01*
X235584799Y-91997171D01*
X234102487Y-91997171D01*
X233826000Y-91720685D01*
X233826000Y-91554441D01*
X233848764Y-91440000D01*
X233826000Y-91325558D01*
X233826000Y-91059000D01*
X236238477Y-91059000D01*
X236190088Y-91230483D01*
X236982000Y-92022395D01*
X237773912Y-91230483D01*
X237725523Y-91059000D01*
X245874101Y-91059000D01*
X245874101Y-102958922D01*
X245812773Y-103387160D01*
X245652399Y-103739885D01*
X245399470Y-104033422D01*
X245074326Y-104244170D01*
X244682325Y-104361404D01*
X244477834Y-104376600D01*
X150545771Y-104376600D01*
X150117540Y-104315273D01*
X149764815Y-104154899D01*
X149471278Y-103901970D01*
X149260530Y-103576826D01*
X149143296Y-103184825D01*
X149128100Y-102980334D01*
X149128100Y-100988000D01*
X159476391Y-100988000D01*
X159653113Y-101876441D01*
X160156375Y-102629625D01*
X160909559Y-103132887D01*
X161573736Y-103265000D01*
X162022264Y-103265000D01*
X162686441Y-103132887D01*
X163439625Y-102629625D01*
X163942887Y-101876441D01*
X164119609Y-100988000D01*
X177002391Y-100988000D01*
X177179113Y-101876441D01*
X177682375Y-102629625D01*
X178435559Y-103132887D01*
X179099736Y-103265000D01*
X179548264Y-103265000D01*
X180212441Y-103132887D01*
X180965625Y-102629625D01*
X181468887Y-101876441D01*
X181645609Y-100988000D01*
X181468887Y-100099559D01*
X180965625Y-99346375D01*
X180212441Y-98843113D01*
X179548264Y-98711000D01*
X179099736Y-98711000D01*
X178435559Y-98843113D01*
X177682375Y-99346375D01*
X177179113Y-100099559D01*
X177002391Y-100988000D01*
X164119609Y-100988000D01*
X163942887Y-100099559D01*
X163439625Y-99346375D01*
X162686441Y-98843113D01*
X162022264Y-98711000D01*
X161573736Y-98711000D01*
X160909559Y-98843113D01*
X160156375Y-99346375D01*
X159653113Y-100099559D01*
X159476391Y-100988000D01*
X149128100Y-100988000D01*
X149128100Y-85003600D01*
X149254100Y-85003600D01*
X149364076Y-85697961D01*
X149683239Y-86324353D01*
X150180347Y-86821461D01*
X150806739Y-87140624D01*
X151501100Y-87250600D01*
X152195461Y-87140624D01*
X152821853Y-86821461D01*
X153318961Y-86324353D01*
X153638124Y-85697961D01*
X153748100Y-85003600D01*
X153638124Y-84309239D01*
X153318961Y-83682847D01*
X152821853Y-83185739D01*
X152195461Y-82866576D01*
X151501100Y-82756600D01*
X150806739Y-82866576D01*
X150180347Y-83185739D01*
X149683239Y-83682847D01*
X149364076Y-84309239D01*
X149254100Y-85003600D01*
X149128100Y-85003600D01*
X149128100Y-74441306D01*
X155998410Y-74441306D01*
X156024421Y-75041458D01*
X156204047Y-75475116D01*
X156457940Y-75558455D01*
X157340395Y-74676000D01*
X156457940Y-73793545D01*
X156204047Y-73876884D01*
X155998410Y-74441306D01*
X149128100Y-74441306D01*
X149128100Y-73613940D01*
X156637545Y-73613940D01*
X157520000Y-74496395D01*
X158402455Y-73613940D01*
X158319116Y-73360047D01*
X157754694Y-73154410D01*
X157154542Y-73180421D01*
X156720884Y-73360047D01*
X156637545Y-73613940D01*
X149128100Y-73613940D01*
X149128100Y-73022602D01*
X169145000Y-73022602D01*
X169145000Y-73535398D01*
X169341239Y-74009160D01*
X169703840Y-74371761D01*
X170177602Y-74568000D01*
X170690398Y-74568000D01*
X171164160Y-74371761D01*
X171434000Y-74101921D01*
X171703840Y-74371761D01*
X172177602Y-74568000D01*
X172690398Y-74568000D01*
X172766558Y-74536453D01*
X174720007Y-76489902D01*
X174756493Y-76544507D01*
X174972822Y-76689054D01*
X175163590Y-76727000D01*
X175163593Y-76727000D01*
X175228000Y-76739811D01*
X175292407Y-76727000D01*
X191748024Y-76727000D01*
X191879897Y-76858873D01*
X192220608Y-77000000D01*
X192589392Y-77000000D01*
X192930103Y-76858873D01*
X193190873Y-76598103D01*
X193332000Y-76257392D01*
X193332000Y-75888608D01*
X193190873Y-75547897D01*
X192930103Y-75287127D01*
X192589392Y-75146000D01*
X192220608Y-75146000D01*
X191879897Y-75287127D01*
X191748024Y-75419000D01*
X175498895Y-75419000D01*
X174647895Y-74568000D01*
X174690398Y-74568000D01*
X175164160Y-74371761D01*
X175276708Y-74259213D01*
X175633392Y-74259213D01*
X175702857Y-74501397D01*
X176226302Y-74688144D01*
X176781368Y-74660362D01*
X177165143Y-74501397D01*
X177234608Y-74259213D01*
X176434000Y-73458605D01*
X175633392Y-74259213D01*
X175276708Y-74259213D01*
X175526761Y-74009160D01*
X175528547Y-74004848D01*
X176254395Y-73279000D01*
X176613605Y-73279000D01*
X177414213Y-74079608D01*
X177656397Y-74010143D01*
X177843144Y-73486698D01*
X177819916Y-73022602D01*
X181210000Y-73022602D01*
X181210000Y-73535398D01*
X181406239Y-74009160D01*
X181768840Y-74371761D01*
X182242602Y-74568000D01*
X182755398Y-74568000D01*
X183229160Y-74371761D01*
X183499000Y-74101921D01*
X183768840Y-74371761D01*
X184242602Y-74568000D01*
X184755398Y-74568000D01*
X185229160Y-74371761D01*
X185499000Y-74101921D01*
X185768840Y-74371761D01*
X186242602Y-74568000D01*
X186755398Y-74568000D01*
X187229160Y-74371761D01*
X187341708Y-74259213D01*
X187698392Y-74259213D01*
X187767857Y-74501397D01*
X188291302Y-74688144D01*
X188846368Y-74660362D01*
X189230143Y-74501397D01*
X189299608Y-74259213D01*
X188499000Y-73458605D01*
X187698392Y-74259213D01*
X187341708Y-74259213D01*
X187591761Y-74009160D01*
X187593547Y-74004848D01*
X188319395Y-73279000D01*
X188678605Y-73279000D01*
X189479213Y-74079608D01*
X189721397Y-74010143D01*
X189908144Y-73486698D01*
X189880362Y-72931632D01*
X189721397Y-72547857D01*
X189479213Y-72478392D01*
X188678605Y-73279000D01*
X188319395Y-73279000D01*
X187593547Y-72553152D01*
X187591761Y-72548840D01*
X187341708Y-72298787D01*
X187698392Y-72298787D01*
X188499000Y-73099395D01*
X189299608Y-72298787D01*
X189230143Y-72056603D01*
X188706698Y-71869856D01*
X188151632Y-71897638D01*
X187767857Y-72056603D01*
X187698392Y-72298787D01*
X187341708Y-72298787D01*
X187229160Y-72186239D01*
X186755398Y-71990000D01*
X186242602Y-71990000D01*
X185768840Y-72186239D01*
X185499000Y-72456079D01*
X185229160Y-72186239D01*
X184755398Y-71990000D01*
X184242602Y-71990000D01*
X183768840Y-72186239D01*
X183499000Y-72456079D01*
X183229160Y-72186239D01*
X182755398Y-71990000D01*
X182242602Y-71990000D01*
X181768840Y-72186239D01*
X181406239Y-72548840D01*
X181210000Y-73022602D01*
X177819916Y-73022602D01*
X177815362Y-72931632D01*
X177656397Y-72547857D01*
X177414213Y-72478392D01*
X176613605Y-73279000D01*
X176254395Y-73279000D01*
X175528547Y-72553152D01*
X175526761Y-72548840D01*
X175276708Y-72298787D01*
X175633392Y-72298787D01*
X176434000Y-73099395D01*
X177234608Y-72298787D01*
X177165143Y-72056603D01*
X176641698Y-71869856D01*
X176086632Y-71897638D01*
X175702857Y-72056603D01*
X175633392Y-72298787D01*
X175276708Y-72298787D01*
X175164160Y-72186239D01*
X174690398Y-71990000D01*
X174177602Y-71990000D01*
X173703840Y-72186239D01*
X173434000Y-72456079D01*
X173164160Y-72186239D01*
X172690398Y-71990000D01*
X172177602Y-71990000D01*
X171703840Y-72186239D01*
X171434000Y-72456079D01*
X171164160Y-72186239D01*
X170690398Y-71990000D01*
X170177602Y-71990000D01*
X169703840Y-72186239D01*
X169341239Y-72548840D01*
X169145000Y-73022602D01*
X149128100Y-73022602D01*
X149128100Y-67641223D01*
X200229035Y-67641223D01*
X200256222Y-68211454D01*
X200422136Y-68612005D01*
X200668255Y-68686139D01*
X201496395Y-67858000D01*
X201855605Y-67858000D01*
X202683745Y-68686139D01*
X202929864Y-68612005D01*
X202998504Y-68421039D01*
X205364096Y-68421039D01*
X205524959Y-68809423D01*
X205900866Y-69224389D01*
X206406959Y-69463914D01*
X206629000Y-69342629D01*
X206629000Y-68199000D01*
X205486085Y-68199000D01*
X205364096Y-68421039D01*
X202998504Y-68421039D01*
X203122965Y-68074777D01*
X203106192Y-67722961D01*
X205364096Y-67722961D01*
X205486085Y-67945000D01*
X206629000Y-67945000D01*
X206629000Y-66801371D01*
X206883000Y-66801371D01*
X206883000Y-67945000D01*
X206903000Y-67945000D01*
X206903000Y-68199000D01*
X206883000Y-68199000D01*
X206883000Y-69342629D01*
X207105041Y-69463914D01*
X207611134Y-69224389D01*
X207987041Y-68809423D01*
X208076076Y-68594460D01*
X208171024Y-68823685D01*
X208544315Y-69196976D01*
X209032043Y-69399000D01*
X209559957Y-69399000D01*
X209958301Y-69234000D01*
X211100685Y-69234000D01*
X211695417Y-69828733D01*
X211760245Y-69925755D01*
X212081468Y-70140389D01*
X212121840Y-70180761D01*
X212595602Y-70377000D01*
X213108398Y-70377000D01*
X213582160Y-70180761D01*
X213944761Y-69818160D01*
X214141000Y-69344398D01*
X214141000Y-68831602D01*
X213944761Y-68357840D01*
X213582160Y-67995239D01*
X213108398Y-67799000D01*
X212952316Y-67799000D01*
X212484584Y-67331269D01*
X212419755Y-67234245D01*
X212035390Y-66977421D01*
X211696442Y-66910000D01*
X211582000Y-66887236D01*
X211467558Y-66910000D01*
X209958301Y-66910000D01*
X209559957Y-66745000D01*
X209032043Y-66745000D01*
X208544315Y-66947024D01*
X208171024Y-67320315D01*
X208076076Y-67549540D01*
X207987041Y-67334577D01*
X207611134Y-66919611D01*
X207105041Y-66680086D01*
X206883000Y-66801371D01*
X206629000Y-66801371D01*
X206406959Y-66680086D01*
X205900866Y-66919611D01*
X205524959Y-67334577D01*
X205364096Y-67722961D01*
X203106192Y-67722961D01*
X203095778Y-67504546D01*
X202929864Y-67103995D01*
X202683745Y-67029861D01*
X201855605Y-67858000D01*
X201496395Y-67858000D01*
X200668255Y-67029861D01*
X200422136Y-67103995D01*
X200229035Y-67641223D01*
X149128100Y-67641223D01*
X149128100Y-67048271D01*
X149156458Y-66850255D01*
X200847861Y-66850255D01*
X201676000Y-67678395D01*
X202504139Y-66850255D01*
X202430005Y-66604136D01*
X201892777Y-66411035D01*
X201322546Y-66438222D01*
X200921995Y-66604136D01*
X200847861Y-66850255D01*
X149156458Y-66850255D01*
X149189428Y-66620038D01*
X149349801Y-66267315D01*
X149602730Y-65973778D01*
X149927875Y-65763029D01*
X150319875Y-65645796D01*
X150524365Y-65630600D01*
X214486479Y-65630600D01*
X214299239Y-65817840D01*
G36*
X224970060Y-101688956D02*
X224912000Y-101829125D01*
X224912000Y-102386875D01*
X225125442Y-102902169D01*
X225201273Y-102978000D01*
X222914004Y-102978000D01*
X223129953Y-102907116D01*
X223335590Y-102342694D01*
X223309579Y-101742542D01*
X223129953Y-101308884D01*
X222876060Y-101225545D01*
X221993605Y-102108000D01*
X222007748Y-102122143D01*
X221828143Y-102301748D01*
X221814000Y-102287605D01*
X221799858Y-102301748D01*
X221620253Y-102122143D01*
X221634395Y-102108000D01*
X221620253Y-102093858D01*
X221799858Y-101914253D01*
X221814000Y-101928395D01*
X222696455Y-101045940D01*
X222613116Y-100792047D01*
X222048694Y-100586410D01*
X221805254Y-100596961D01*
X221890916Y-100511299D01*
X222131000Y-99931685D01*
X222131000Y-99304315D01*
X221890916Y-98724701D01*
X221447299Y-98281084D01*
X220867685Y-98041000D01*
X220240315Y-98041000D01*
X219660701Y-98281084D01*
X219217084Y-98724701D01*
X218977000Y-99304315D01*
X218977000Y-99931685D01*
X219217084Y-100511299D01*
X219660701Y-100954916D01*
X220240315Y-101195000D01*
X220721392Y-101195000D01*
X220751938Y-101225546D01*
X220498047Y-101308884D01*
X220292410Y-101873306D01*
X220318421Y-102473458D01*
X220498047Y-102907116D01*
X220713996Y-102978000D01*
X214472727Y-102978000D01*
X214548558Y-102902169D01*
X214762000Y-102386875D01*
X214762000Y-101829125D01*
X214548558Y-101313831D01*
X214429727Y-101195000D01*
X214923685Y-101195000D01*
X215503299Y-100954916D01*
X215946916Y-100511299D01*
X216187000Y-99931685D01*
X216187000Y-99304315D01*
X215946916Y-98724701D01*
X215503299Y-98281084D01*
X214923685Y-98041000D01*
X214296315Y-98041000D01*
X213716701Y-98281084D01*
X213273084Y-98724701D01*
X213033000Y-99304315D01*
X213033000Y-99931685D01*
X213273084Y-100511299D01*
X213467785Y-100706000D01*
X213081125Y-100706000D01*
X212940956Y-100764060D01*
X209604895Y-97428000D01*
X220709105Y-97428000D01*
X224970060Y-101688956D01*
X224970060Y-101688956D01*
G37*
X224970060Y-101688956D02*
X224912000Y-101829125D01*
X224912000Y-102386875D01*
X225125442Y-102902169D01*
X225201273Y-102978000D01*
X222914004Y-102978000D01*
X223129953Y-102907116D01*
X223335590Y-102342694D01*
X223309579Y-101742542D01*
X223129953Y-101308884D01*
X222876060Y-101225545D01*
X221993605Y-102108000D01*
X222007748Y-102122143D01*
X221828143Y-102301748D01*
X221814000Y-102287605D01*
X221799858Y-102301748D01*
X221620253Y-102122143D01*
X221634395Y-102108000D01*
X221620253Y-102093858D01*
X221799858Y-101914253D01*
X221814000Y-101928395D01*
X222696455Y-101045940D01*
X222613116Y-100792047D01*
X222048694Y-100586410D01*
X221805254Y-100596961D01*
X221890916Y-100511299D01*
X222131000Y-99931685D01*
X222131000Y-99304315D01*
X221890916Y-98724701D01*
X221447299Y-98281084D01*
X220867685Y-98041000D01*
X220240315Y-98041000D01*
X219660701Y-98281084D01*
X219217084Y-98724701D01*
X218977000Y-99304315D01*
X218977000Y-99931685D01*
X219217084Y-100511299D01*
X219660701Y-100954916D01*
X220240315Y-101195000D01*
X220721392Y-101195000D01*
X220751938Y-101225546D01*
X220498047Y-101308884D01*
X220292410Y-101873306D01*
X220318421Y-102473458D01*
X220498047Y-102907116D01*
X220713996Y-102978000D01*
X214472727Y-102978000D01*
X214548558Y-102902169D01*
X214762000Y-102386875D01*
X214762000Y-101829125D01*
X214548558Y-101313831D01*
X214429727Y-101195000D01*
X214923685Y-101195000D01*
X215503299Y-100954916D01*
X215946916Y-100511299D01*
X216187000Y-99931685D01*
X216187000Y-99304315D01*
X215946916Y-98724701D01*
X215503299Y-98281084D01*
X214923685Y-98041000D01*
X214296315Y-98041000D01*
X213716701Y-98281084D01*
X213273084Y-98724701D01*
X213033000Y-99304315D01*
X213033000Y-99931685D01*
X213273084Y-100511299D01*
X213467785Y-100706000D01*
X213081125Y-100706000D01*
X212940956Y-100764060D01*
X209604895Y-97428000D01*
X220709105Y-97428000D01*
X224970060Y-101688956D01*
G36*
X212016060Y-101688956D02*
X211958000Y-101829125D01*
X211958000Y-102386875D01*
X212171442Y-102902169D01*
X212247273Y-102978000D01*
X209960004Y-102978000D01*
X210175953Y-102907116D01*
X210381590Y-102342694D01*
X210355579Y-101742542D01*
X210175953Y-101308884D01*
X209922060Y-101225545D01*
X209039605Y-102108000D01*
X209053748Y-102122143D01*
X208874143Y-102301748D01*
X208860000Y-102287605D01*
X208845858Y-102301748D01*
X208666253Y-102122143D01*
X208680395Y-102108000D01*
X208666253Y-102093858D01*
X208845858Y-101914253D01*
X208860000Y-101928395D01*
X209742455Y-101045940D01*
X209659116Y-100792047D01*
X209094694Y-100586410D01*
X208851254Y-100596961D01*
X208936916Y-100511299D01*
X209177000Y-99931685D01*
X209177000Y-99304315D01*
X208936916Y-98724701D01*
X208529215Y-98317000D01*
X208644105Y-98317000D01*
X212016060Y-101688956D01*
X212016060Y-101688956D01*
G37*
X212016060Y-101688956D02*
X211958000Y-101829125D01*
X211958000Y-102386875D01*
X212171442Y-102902169D01*
X212247273Y-102978000D01*
X209960004Y-102978000D01*
X210175953Y-102907116D01*
X210381590Y-102342694D01*
X210355579Y-101742542D01*
X210175953Y-101308884D01*
X209922060Y-101225545D01*
X209039605Y-102108000D01*
X209053748Y-102122143D01*
X208874143Y-102301748D01*
X208860000Y-102287605D01*
X208845858Y-102301748D01*
X208666253Y-102122143D01*
X208680395Y-102108000D01*
X208666253Y-102093858D01*
X208845858Y-101914253D01*
X208860000Y-101928395D01*
X209742455Y-101045940D01*
X209659116Y-100792047D01*
X209094694Y-100586410D01*
X208851254Y-100596961D01*
X208936916Y-100511299D01*
X209177000Y-99931685D01*
X209177000Y-99304315D01*
X208936916Y-98724701D01*
X208529215Y-98317000D01*
X208644105Y-98317000D01*
X212016060Y-101688956D01*
G36*
X216164315Y-75800976D02*
X216652043Y-76003000D01*
X217179957Y-76003000D01*
X217578301Y-75838000D01*
X218974685Y-75838000D01*
X220385078Y-77248394D01*
X220059041Y-77094086D01*
X219837000Y-77215371D01*
X219837000Y-78359000D01*
X219857000Y-78359000D01*
X219857000Y-78613000D01*
X219837000Y-78613000D01*
X219837000Y-78633000D01*
X219583000Y-78633000D01*
X219583000Y-78613000D01*
X218440085Y-78613000D01*
X218318096Y-78835039D01*
X218478959Y-79223423D01*
X218854866Y-79638389D01*
X219172901Y-79788909D01*
X219060520Y-79864000D01*
X218300442Y-79864000D01*
X218186000Y-79841236D01*
X217942868Y-79889598D01*
X217732610Y-79931421D01*
X217348245Y-80188245D01*
X217283417Y-80285267D01*
X215538000Y-82030684D01*
X215538000Y-78136961D01*
X218318096Y-78136961D01*
X218440085Y-78359000D01*
X219583000Y-78359000D01*
X219583000Y-77215371D01*
X219360959Y-77094086D01*
X218854866Y-77333611D01*
X218478959Y-77748577D01*
X218318096Y-78136961D01*
X215538000Y-78136961D01*
X215538000Y-76060809D01*
X215671564Y-75971564D01*
X215937260Y-75573921D01*
X216164315Y-75800976D01*
X216164315Y-75800976D01*
G37*
X216164315Y-75800976D02*
X216652043Y-76003000D01*
X217179957Y-76003000D01*
X217578301Y-75838000D01*
X218974685Y-75838000D01*
X220385078Y-77248394D01*
X220059041Y-77094086D01*
X219837000Y-77215371D01*
X219837000Y-78359000D01*
X219857000Y-78359000D01*
X219857000Y-78613000D01*
X219837000Y-78613000D01*
X219837000Y-78633000D01*
X219583000Y-78633000D01*
X219583000Y-78613000D01*
X218440085Y-78613000D01*
X218318096Y-78835039D01*
X218478959Y-79223423D01*
X218854866Y-79638389D01*
X219172901Y-79788909D01*
X219060520Y-79864000D01*
X218300442Y-79864000D01*
X218186000Y-79841236D01*
X217942868Y-79889598D01*
X217732610Y-79931421D01*
X217348245Y-80188245D01*
X217283417Y-80285267D01*
X215538000Y-82030684D01*
X215538000Y-78136961D01*
X218318096Y-78136961D01*
X218440085Y-78359000D01*
X219583000Y-78359000D01*
X219583000Y-77215371D01*
X219360959Y-77094086D01*
X218854866Y-77333611D01*
X218478959Y-77748577D01*
X218318096Y-78136961D01*
X215538000Y-78136961D01*
X215538000Y-76060809D01*
X215671564Y-75971564D01*
X215937260Y-75573921D01*
X216164315Y-75800976D01*
G36*
X222922197Y-73241803D02*
X222963399Y-73269333D01*
X223012000Y-73279000D01*
X224483394Y-73279000D01*
X225425000Y-74220606D01*
X225425000Y-74929763D01*
X225273387Y-74563736D01*
X225006532Y-74465073D01*
X224033605Y-75438000D01*
X225006532Y-76410927D01*
X225273387Y-76312264D01*
X225425000Y-75904168D01*
X225425000Y-76401394D01*
X222904000Y-78922394D01*
X222904000Y-77076441D01*
X222926764Y-76961999D01*
X222857553Y-76614055D01*
X222881074Y-76590534D01*
X222979736Y-76857387D01*
X223589461Y-77083908D01*
X224239460Y-77059856D01*
X224728264Y-76857387D01*
X224826927Y-76590532D01*
X223854000Y-75617605D01*
X223839858Y-75631748D01*
X223660253Y-75452143D01*
X223674395Y-75438000D01*
X222701468Y-74465073D01*
X222434613Y-74563736D01*
X222208092Y-75173461D01*
X222231582Y-75808266D01*
X220708784Y-74285468D01*
X222881073Y-74285468D01*
X223854000Y-75258395D01*
X224826927Y-74285468D01*
X224728264Y-74018613D01*
X224118539Y-73792092D01*
X223468540Y-73816144D01*
X222979736Y-74018613D01*
X222881073Y-74285468D01*
X220708784Y-74285468D01*
X220358585Y-73935270D01*
X220293755Y-73838245D01*
X219909390Y-73581421D01*
X219570442Y-73514000D01*
X219456000Y-73491236D01*
X219341558Y-73514000D01*
X217578301Y-73514000D01*
X217179957Y-73349000D01*
X216731134Y-73349000D01*
X216925134Y-73155000D01*
X222835394Y-73155000D01*
X222922197Y-73241803D01*
X222922197Y-73241803D01*
G37*
X222922197Y-73241803D02*
X222963399Y-73269333D01*
X223012000Y-73279000D01*
X224483394Y-73279000D01*
X225425000Y-74220606D01*
X225425000Y-74929763D01*
X225273387Y-74563736D01*
X225006532Y-74465073D01*
X224033605Y-75438000D01*
X225006532Y-76410927D01*
X225273387Y-76312264D01*
X225425000Y-75904168D01*
X225425000Y-76401394D01*
X222904000Y-78922394D01*
X222904000Y-77076441D01*
X222926764Y-76961999D01*
X222857553Y-76614055D01*
X222881074Y-76590534D01*
X222979736Y-76857387D01*
X223589461Y-77083908D01*
X224239460Y-77059856D01*
X224728264Y-76857387D01*
X224826927Y-76590532D01*
X223854000Y-75617605D01*
X223839858Y-75631748D01*
X223660253Y-75452143D01*
X223674395Y-75438000D01*
X222701468Y-74465073D01*
X222434613Y-74563736D01*
X222208092Y-75173461D01*
X222231582Y-75808266D01*
X220708784Y-74285468D01*
X222881073Y-74285468D01*
X223854000Y-75258395D01*
X224826927Y-74285468D01*
X224728264Y-74018613D01*
X224118539Y-73792092D01*
X223468540Y-73816144D01*
X222979736Y-74018613D01*
X222881073Y-74285468D01*
X220708784Y-74285468D01*
X220358585Y-73935270D01*
X220293755Y-73838245D01*
X219909390Y-73581421D01*
X219570442Y-73514000D01*
X219456000Y-73491236D01*
X219341558Y-73514000D01*
X217578301Y-73514000D01*
X217179957Y-73349000D01*
X216731134Y-73349000D01*
X216925134Y-73155000D01*
X222835394Y-73155000D01*
X222922197Y-73241803D01*
D33*
G36*
X180670761Y-62706160D02*
X180867000Y-62232398D01*
X180867000Y-61719602D01*
X180670761Y-61245840D01*
X180308160Y-60883239D01*
X179834398Y-60687000D01*
X179321602Y-60687000D01*
X178847840Y-60883239D01*
X178485239Y-61245840D01*
X178289000Y-61719602D01*
X178289000Y-62232398D01*
X178485239Y-62706160D01*
X178672479Y-62893400D01*
X175133000Y-62893400D01*
X175133000Y-62122000D01*
X175399559Y-62122000D01*
X175514001Y-62144764D01*
X175901577Y-62067670D01*
X175967390Y-62054579D01*
X176351755Y-61797755D01*
X176416583Y-61700733D01*
X177461553Y-60655762D01*
X177768160Y-60528761D01*
X178130761Y-60166160D01*
X178327000Y-59692398D01*
X178327000Y-59179602D01*
X178130761Y-58705840D01*
X177847921Y-58423000D01*
X178526982Y-58423000D01*
X178677371Y-58452914D01*
X178827760Y-58423000D01*
X178827763Y-58423000D01*
X179273176Y-58334402D01*
X179778275Y-57996905D01*
X179863466Y-57869408D01*
X180993289Y-56739584D01*
X181289846Y-56937737D01*
X181814012Y-57042000D01*
X181814013Y-57042000D01*
X181991000Y-57077205D01*
X182167987Y-57042000D01*
X185977988Y-57042000D01*
X186502154Y-56937737D01*
X187096565Y-56540565D01*
X187493737Y-55946154D01*
X187633205Y-55245000D01*
X187493737Y-54543846D01*
X187096565Y-53949435D01*
X186502154Y-53552263D01*
X185977988Y-53448000D01*
X182735341Y-53448000D01*
X181756000Y-52468658D01*
X181756000Y-51073504D01*
X182709903Y-52027406D01*
X182795095Y-52154905D01*
X183300194Y-52492402D01*
X183745607Y-52581000D01*
X183745611Y-52581000D01*
X183896000Y-52610914D01*
X184046389Y-52581000D01*
X187047611Y-52581000D01*
X187198000Y-52610914D01*
X187348389Y-52581000D01*
X187348393Y-52581000D01*
X187793806Y-52492402D01*
X188298905Y-52154905D01*
X188384096Y-52027408D01*
X190416095Y-49995408D01*
X190668402Y-49617805D01*
X190786914Y-49022000D01*
X190668402Y-48426195D01*
X190418126Y-48051631D01*
X194309497Y-51943000D01*
X193377905Y-52874591D01*
X193377903Y-52874594D01*
X193238242Y-53014255D01*
X190058139Y-53014255D01*
X189984005Y-52768136D01*
X189446777Y-52575035D01*
X188876546Y-52602222D01*
X188475995Y-52768136D01*
X188401861Y-53014255D01*
X189230000Y-53842395D01*
X190058139Y-53014255D01*
X193238242Y-53014255D01*
X192320592Y-53931904D01*
X192193095Y-54017095D01*
X192044972Y-54238777D01*
X190676965Y-54238777D01*
X190649778Y-53668546D01*
X190483864Y-53267995D01*
X190237745Y-53193861D01*
X189409605Y-54022000D01*
X189050395Y-54022000D01*
X188222255Y-53193861D01*
X187976136Y-53267995D01*
X187783035Y-53805223D01*
X187810222Y-54375454D01*
X187976136Y-54776005D01*
X188222255Y-54850139D01*
X189050395Y-54022000D01*
X189409605Y-54022000D01*
X190237745Y-54850139D01*
X190483864Y-54776005D01*
X190676965Y-54238777D01*
X192044972Y-54238777D01*
X191855598Y-54522194D01*
X191767000Y-54967607D01*
X191767000Y-54967610D01*
X191754641Y-55029745D01*
X190058139Y-55029745D01*
X189230000Y-54201605D01*
X188401861Y-55029745D01*
X188475995Y-55275864D01*
X189013223Y-55468965D01*
X189583454Y-55441778D01*
X189984005Y-55275864D01*
X190058139Y-55029745D01*
X191754641Y-55029745D01*
X191737086Y-55117999D01*
X191767000Y-55268388D01*
X191767000Y-58316393D01*
X191855598Y-58761806D01*
X191956676Y-58913080D01*
X191956676Y-58966000D01*
X191997577Y-59171625D01*
X192114055Y-59345945D01*
X192288375Y-59462423D01*
X192494000Y-59503324D01*
X192512528Y-59503324D01*
X192465861Y-59658255D01*
X193294000Y-60486395D01*
X194122139Y-59658255D01*
X194075472Y-59503324D01*
X194094000Y-59503324D01*
X194299625Y-59462423D01*
X194473945Y-59345945D01*
X194590423Y-59171625D01*
X194631324Y-58966000D01*
X194631324Y-58913078D01*
X194732401Y-58761806D01*
X194820999Y-58316393D01*
X194821000Y-55750504D01*
X195537406Y-55034097D01*
X195537409Y-55034095D01*
X197823405Y-52748098D01*
X197950905Y-52662905D01*
X198036096Y-52535408D01*
X199260503Y-51311000D01*
X233423000Y-51311000D01*
X233423000Y-53998393D01*
X233511598Y-54443806D01*
X233537676Y-54482834D01*
X233537676Y-54723000D01*
X233578577Y-54928625D01*
X233695055Y-55102945D01*
X233869375Y-55219423D01*
X234075000Y-55260324D01*
X234315167Y-55260324D01*
X234354195Y-55286402D01*
X234950000Y-55404915D01*
X235545806Y-55286402D01*
X235584834Y-55260324D01*
X235825000Y-55260324D01*
X236030625Y-55219423D01*
X236204945Y-55102945D01*
X236321423Y-54928625D01*
X236362324Y-54723000D01*
X236362324Y-54722047D01*
X236387940Y-54730455D01*
X237270395Y-53848000D01*
X237256252Y-53833857D01*
X237435857Y-53654252D01*
X237450000Y-53668395D01*
X238332455Y-52785940D01*
X238249116Y-52532047D01*
X237684694Y-52326410D01*
X237084542Y-52352421D01*
X236650884Y-52532047D01*
X236567546Y-52785938D01*
X236477000Y-52695392D01*
X236476999Y-49934398D01*
X236506915Y-49784000D01*
X236477000Y-49633607D01*
X236476999Y-48590504D01*
X236685406Y-48382097D01*
X236812905Y-48296905D01*
X237150402Y-47791805D01*
X237239000Y-47346392D01*
X237239000Y-47346389D01*
X237268914Y-47196000D01*
X237239000Y-47045610D01*
X237238999Y-44045607D01*
X237201824Y-43858715D01*
X237201824Y-43196000D01*
X237160923Y-42990375D01*
X237044445Y-42816055D01*
X236870125Y-42699577D01*
X236664500Y-42658676D01*
X235810491Y-42658676D01*
X235712000Y-42639085D01*
X235613509Y-42658676D01*
X234759500Y-42658676D01*
X234553875Y-42699577D01*
X234379555Y-42816055D01*
X234263077Y-42990375D01*
X234254921Y-43031380D01*
X234038924Y-42820027D01*
X233544980Y-42605437D01*
X233299000Y-42725406D01*
X233299000Y-44069000D01*
X233319000Y-44069000D01*
X233319000Y-44323000D01*
X233299000Y-44323000D01*
X233299000Y-45666594D01*
X233544980Y-45786563D01*
X234038924Y-45571973D01*
X234185000Y-45429038D01*
X234185000Y-46553650D01*
X233849095Y-46778095D01*
X233511598Y-47283194D01*
X233393085Y-47879000D01*
X233423000Y-48029393D01*
X233423000Y-48257000D01*
X198778389Y-48257000D01*
X198628000Y-48227086D01*
X198477611Y-48257000D01*
X198477607Y-48257000D01*
X198032194Y-48345598D01*
X197527095Y-48683095D01*
X197441902Y-48810594D01*
X196469000Y-49783497D01*
X191951724Y-45266219D01*
X191866535Y-45138725D01*
X191739041Y-45053536D01*
X191739039Y-45053534D01*
X191421188Y-44841153D01*
X191361436Y-44801228D01*
X190916023Y-44712630D01*
X190916019Y-44712630D01*
X190765630Y-44682716D01*
X190615241Y-44712630D01*
X190570231Y-44712630D01*
X190511763Y-44701000D01*
X190511760Y-44701000D01*
X190361371Y-44671086D01*
X190210982Y-44701000D01*
X188249019Y-44701000D01*
X188098630Y-44671086D01*
X187948241Y-44701000D01*
X187948237Y-44701000D01*
X187502824Y-44789598D01*
X186997725Y-45127095D01*
X186991512Y-45136393D01*
X187026997Y-44958000D01*
X186924006Y-44440230D01*
X186630713Y-44001287D01*
X186191770Y-43707994D01*
X186080656Y-43685892D01*
X186425685Y-43542976D01*
X186798976Y-43169685D01*
X187001000Y-42681957D01*
X187001000Y-42154043D01*
X186798976Y-41666315D01*
X186425685Y-41293024D01*
X185937957Y-41091000D01*
X185410043Y-41091000D01*
X185011699Y-41256000D01*
X183529480Y-41256000D01*
X183397770Y-41167994D01*
X183010696Y-41091000D01*
X182749304Y-41091000D01*
X182362230Y-41167994D01*
X182010000Y-41403347D01*
X182009999Y-39524303D01*
X182175000Y-39125957D01*
X182175000Y-38598043D01*
X181972976Y-38110315D01*
X181599685Y-37737024D01*
X181111957Y-37535000D01*
X180584043Y-37535000D01*
X180096315Y-37737024D01*
X179723024Y-38110315D01*
X179521000Y-38598043D01*
X179521000Y-39125957D01*
X179686000Y-39524301D01*
X179686000Y-42952685D01*
X178961999Y-43676686D01*
X178962000Y-39484442D01*
X178984764Y-39370000D01*
X178905209Y-38970053D01*
X178894579Y-38916611D01*
X178637755Y-38532245D01*
X178540730Y-38467415D01*
X173622583Y-33549267D01*
X173557755Y-33452245D01*
X173173390Y-33195421D01*
X172720000Y-33105236D01*
X172605558Y-33128000D01*
X170321480Y-33128000D01*
X170189770Y-33039994D01*
X170034406Y-33009090D01*
X169774584Y-32749268D01*
X169709756Y-32652246D01*
X169395432Y-32442222D01*
X169325391Y-32395422D01*
X168872002Y-32305237D01*
X168757560Y-32328001D01*
X165543316Y-32328001D01*
X164711315Y-31496000D01*
X165078733Y-31128582D01*
X165175754Y-31063755D01*
X165311230Y-30861000D01*
X165432579Y-30679389D01*
X165522764Y-30226000D01*
X165500000Y-30111558D01*
X165500000Y-29351480D01*
X165588006Y-29219770D01*
X165690997Y-28702000D01*
X165588006Y-28184230D01*
X165294713Y-27745287D01*
X164855770Y-27451994D01*
X164468696Y-27375000D01*
X164207304Y-27375000D01*
X163820230Y-27451994D01*
X163381287Y-27745287D01*
X163087994Y-28184230D01*
X162985003Y-28702000D01*
X163087994Y-29219770D01*
X163176000Y-29351480D01*
X163176000Y-29744685D01*
X162586684Y-30334000D01*
X162008403Y-30334000D01*
X162228299Y-30242916D01*
X162671916Y-29799299D01*
X162912000Y-29219685D01*
X162912000Y-28592315D01*
X162671916Y-28012701D01*
X162228299Y-27569084D01*
X161648685Y-27329000D01*
X161167608Y-27329000D01*
X161137062Y-27298454D01*
X161390953Y-27215116D01*
X161596590Y-26650694D01*
X161570579Y-26050542D01*
X161390953Y-25616884D01*
X161175004Y-25546000D01*
X167543273Y-25546000D01*
X167467442Y-25621831D01*
X167254000Y-26137125D01*
X167254000Y-26694875D01*
X167467442Y-27210169D01*
X167586273Y-27329000D01*
X167092315Y-27329000D01*
X166512701Y-27569084D01*
X166069084Y-28012701D01*
X165829000Y-28592315D01*
X165829000Y-29219685D01*
X166069084Y-29799299D01*
X166512701Y-30242916D01*
X167092315Y-30483000D01*
X167719685Y-30483000D01*
X168299299Y-30242916D01*
X168742916Y-29799299D01*
X168983000Y-29219685D01*
X168983000Y-28592315D01*
X168742916Y-28012701D01*
X168548215Y-27818000D01*
X168934875Y-27818000D01*
X169075044Y-27759940D01*
X173482007Y-32166902D01*
X173518493Y-32221507D01*
X173734822Y-32366054D01*
X173925590Y-32404000D01*
X173925594Y-32404000D01*
X173990000Y-32416811D01*
X174054406Y-32404000D01*
X190864104Y-32404000D01*
X191314359Y-32854255D01*
X181676139Y-32854255D01*
X181602005Y-32608136D01*
X181064777Y-32415035D01*
X180494546Y-32442222D01*
X180093995Y-32608136D01*
X180019861Y-32854255D01*
X180848000Y-33682395D01*
X181676139Y-32854255D01*
X191314359Y-32854255D01*
X191604293Y-33144188D01*
X191321287Y-33333287D01*
X191027994Y-33772230D01*
X191008000Y-33872746D01*
X190988006Y-33772230D01*
X190694713Y-33333287D01*
X190255770Y-33039994D01*
X189868696Y-32963000D01*
X189607304Y-32963000D01*
X189220230Y-33039994D01*
X188781287Y-33333287D01*
X188487994Y-33772230D01*
X188427018Y-34078777D01*
X182294965Y-34078777D01*
X182267778Y-33508546D01*
X182101864Y-33107995D01*
X181855745Y-33033861D01*
X181027605Y-33862000D01*
X180668395Y-33862000D01*
X179840255Y-33033861D01*
X179594136Y-33107995D01*
X179531501Y-33282255D01*
X178120139Y-33282255D01*
X178046005Y-33036136D01*
X177508777Y-32843035D01*
X176938546Y-32870222D01*
X176537995Y-33036136D01*
X176463861Y-33282255D01*
X177292000Y-34110395D01*
X178120139Y-33282255D01*
X179531501Y-33282255D01*
X179401035Y-33645223D01*
X179428222Y-34215454D01*
X179548892Y-34506777D01*
X178738965Y-34506777D01*
X178711778Y-33936546D01*
X178545864Y-33535995D01*
X178299745Y-33461861D01*
X177471605Y-34290000D01*
X177112395Y-34290000D01*
X176284255Y-33461861D01*
X176038136Y-33535995D01*
X175845035Y-34073223D01*
X175872222Y-34643454D01*
X176038136Y-35044005D01*
X176284255Y-35118139D01*
X177112395Y-34290000D01*
X177471605Y-34290000D01*
X178299745Y-35118139D01*
X178545864Y-35044005D01*
X178738965Y-34506777D01*
X179548892Y-34506777D01*
X179594136Y-34616005D01*
X179840255Y-34690139D01*
X180668395Y-33862000D01*
X181027605Y-33862000D01*
X181855745Y-34690139D01*
X182101864Y-34616005D01*
X182294965Y-34078777D01*
X188427018Y-34078777D01*
X188385003Y-34290000D01*
X188487994Y-34807770D01*
X188529404Y-34869745D01*
X181676139Y-34869745D01*
X180848000Y-34041605D01*
X180019861Y-34869745D01*
X180093995Y-35115864D01*
X180600007Y-35297745D01*
X178120139Y-35297745D01*
X177292000Y-34469605D01*
X176463861Y-35297745D01*
X176537995Y-35543864D01*
X177075223Y-35736965D01*
X177645454Y-35709778D01*
X178046005Y-35543864D01*
X178120139Y-35297745D01*
X180600007Y-35297745D01*
X180631223Y-35308965D01*
X181201454Y-35281778D01*
X181602005Y-35115864D01*
X181676139Y-34869745D01*
X188529404Y-34869745D01*
X188781287Y-35246713D01*
X189220230Y-35540006D01*
X189607304Y-35617000D01*
X189868696Y-35617000D01*
X190255770Y-35540006D01*
X190694713Y-35246713D01*
X190988006Y-34807770D01*
X191008000Y-34707254D01*
X191027994Y-34807770D01*
X191321287Y-35246713D01*
X191760230Y-35540006D01*
X192147304Y-35617000D01*
X192408696Y-35617000D01*
X192795770Y-35540006D01*
X193234713Y-35246713D01*
X193528006Y-34807770D01*
X193548000Y-34707254D01*
X193567994Y-34807770D01*
X193861287Y-35246713D01*
X194300230Y-35540006D01*
X194556630Y-35591007D01*
X194556630Y-37158223D01*
X194543819Y-37222630D01*
X194556630Y-37287037D01*
X194556630Y-37287040D01*
X194594576Y-37477808D01*
X194739123Y-37694137D01*
X194793728Y-37730623D01*
X195505244Y-38442139D01*
X195222238Y-38631238D01*
X194945000Y-39046154D01*
X194667762Y-38631238D01*
X194212279Y-38326894D01*
X193810623Y-38247000D01*
X193539377Y-38247000D01*
X193137721Y-38326894D01*
X192682238Y-38631238D01*
X192377894Y-39086721D01*
X192271023Y-39624000D01*
X192377894Y-40161279D01*
X192417300Y-40220255D01*
X190058139Y-40220255D01*
X189984005Y-39974136D01*
X189446777Y-39781035D01*
X188876546Y-39808222D01*
X188475995Y-39974136D01*
X188401861Y-40220255D01*
X189230000Y-41048395D01*
X190058139Y-40220255D01*
X192417300Y-40220255D01*
X192682238Y-40616762D01*
X193023280Y-40844639D01*
X192908076Y-40892355D01*
X192479817Y-41282642D01*
X192403675Y-41444777D01*
X190676965Y-41444777D01*
X190649778Y-40874546D01*
X190483864Y-40473995D01*
X190237745Y-40399861D01*
X189409605Y-41228000D01*
X189050395Y-41228000D01*
X188222255Y-40399861D01*
X187976136Y-40473995D01*
X187783035Y-41011223D01*
X187810222Y-41581454D01*
X187976136Y-41982005D01*
X188222255Y-42056139D01*
X189050395Y-41228000D01*
X189409605Y-41228000D01*
X190237745Y-42056139D01*
X190483864Y-41982005D01*
X190676965Y-41444777D01*
X192403675Y-41444777D01*
X192233514Y-41807108D01*
X192354181Y-42037000D01*
X193548000Y-42037000D01*
X193548000Y-42017000D01*
X193802000Y-42017000D01*
X193802000Y-42037000D01*
X193822000Y-42037000D01*
X193822000Y-42235745D01*
X190058139Y-42235745D01*
X189230000Y-41407605D01*
X188401861Y-42235745D01*
X188475995Y-42481864D01*
X189013223Y-42674965D01*
X189583454Y-42647778D01*
X189984005Y-42481864D01*
X190058139Y-42235745D01*
X193822000Y-42235745D01*
X193822000Y-42291000D01*
X193802000Y-42291000D01*
X193802000Y-43484155D01*
X193548000Y-43484155D01*
X193548000Y-42291000D01*
X192354181Y-42291000D01*
X192233514Y-42520892D01*
X192479817Y-43045358D01*
X192908076Y-43435645D01*
X193318110Y-43605476D01*
X193548000Y-43484155D01*
X193802000Y-43484155D01*
X194031890Y-43605476D01*
X194441924Y-43435645D01*
X194870183Y-43045358D01*
X194984769Y-42801364D01*
X195222238Y-43156762D01*
X195677721Y-43461106D01*
X196079377Y-43541000D01*
X196350623Y-43541000D01*
X196752279Y-43461106D01*
X197207762Y-43156762D01*
X197485000Y-42741846D01*
X197762238Y-43156762D01*
X198217721Y-43461106D01*
X198619377Y-43541000D01*
X198890623Y-43541000D01*
X199292279Y-43461106D01*
X199747762Y-43156762D01*
X199907676Y-42917434D01*
X199907676Y-43014000D01*
X199948577Y-43219625D01*
X200065055Y-43393945D01*
X200239375Y-43510423D01*
X200445000Y-43551324D01*
X202145000Y-43551324D01*
X202350625Y-43510423D01*
X202524945Y-43393945D01*
X202641423Y-43219625D01*
X202682324Y-43014000D01*
X202682324Y-41314000D01*
X202641423Y-41108375D01*
X202524945Y-40934055D01*
X202350625Y-40817577D01*
X202145000Y-40776676D01*
X202048434Y-40776676D01*
X202287762Y-40616762D01*
X202592106Y-40161279D01*
X202698977Y-39624000D01*
X202592106Y-39086721D01*
X202287762Y-38631238D01*
X201832279Y-38326894D01*
X201430623Y-38247000D01*
X201183896Y-38247000D01*
X202854904Y-36575991D01*
X202909506Y-36539507D01*
X202945990Y-36484905D01*
X202945992Y-36484903D01*
X203054054Y-36323177D01*
X203104811Y-36068000D01*
X203091999Y-36003589D01*
X203091999Y-35448980D01*
X203394713Y-35246713D01*
X203587731Y-34957842D01*
X203640676Y-35037080D01*
X203640676Y-35090000D01*
X203681577Y-35295625D01*
X203798055Y-35469945D01*
X203972375Y-35586423D01*
X204178000Y-35627324D01*
X204230920Y-35627324D01*
X204382194Y-35728402D01*
X204827607Y-35817000D01*
X207145495Y-35817000D01*
X211579000Y-40250503D01*
X211579000Y-42267610D01*
X211549086Y-42417999D01*
X211579000Y-42568388D01*
X211579000Y-44346393D01*
X211667598Y-44791806D01*
X212005095Y-45296905D01*
X212510194Y-45634402D01*
X213106000Y-45752915D01*
X213701805Y-45634402D01*
X214206904Y-45296905D01*
X214327196Y-45116876D01*
X214336682Y-45139091D01*
X214779076Y-45571973D01*
X215273020Y-45786563D01*
X215519000Y-45666594D01*
X215519000Y-44323000D01*
X215499000Y-44323000D01*
X215499000Y-44069000D01*
X215519000Y-44069000D01*
X215519000Y-42725406D01*
X215273020Y-42605437D01*
X214928310Y-42755194D01*
X215268503Y-42415000D01*
X218041611Y-42415000D01*
X218192000Y-42444914D01*
X218342389Y-42415000D01*
X218342393Y-42415000D01*
X218787806Y-42326402D01*
X219165409Y-42074096D01*
X219165411Y-42074094D01*
X219292905Y-41988905D01*
X219378094Y-41861410D01*
X220088504Y-41151000D01*
X221669198Y-41151000D01*
X221654000Y-41187690D01*
X221654000Y-41878250D01*
X221812750Y-42037000D01*
X223012000Y-42037000D01*
X223012000Y-42017000D01*
X223266000Y-42017000D01*
X223266000Y-42037000D01*
X225552000Y-42037000D01*
X225552000Y-42017000D01*
X225806000Y-42017000D01*
X225806000Y-42037000D01*
X226999155Y-42037000D01*
X227120476Y-41807110D01*
X226950645Y-41397076D01*
X226726388Y-41151000D01*
X228475496Y-41151000D01*
X229105000Y-41780503D01*
X229105000Y-42520890D01*
X227120476Y-42520890D01*
X226999155Y-42291000D01*
X225806000Y-42291000D01*
X225806000Y-43484819D01*
X225552000Y-43484819D01*
X225552000Y-42291000D01*
X223266000Y-42291000D01*
X223266000Y-43490250D01*
X223012000Y-43490250D01*
X223012000Y-42291000D01*
X221812750Y-42291000D01*
X221654000Y-42449750D01*
X221654000Y-43140310D01*
X221750673Y-43373699D01*
X221929302Y-43552327D01*
X222162691Y-43649000D01*
X222853250Y-43649000D01*
X223012000Y-43490250D01*
X223266000Y-43490250D01*
X223424750Y-43649000D01*
X224115309Y-43649000D01*
X224348698Y-43552327D01*
X224527327Y-43373699D01*
X224615930Y-43159792D01*
X224797642Y-43359183D01*
X225322108Y-43605486D01*
X225552000Y-43484819D01*
X225806000Y-43484819D01*
X226035892Y-43605486D01*
X226560358Y-43359183D01*
X226950645Y-42930924D01*
X227120476Y-42520890D01*
X229105000Y-42520890D01*
X229105000Y-44325497D01*
X228475496Y-44955000D01*
X219834503Y-44955000D01*
X219713000Y-44833496D01*
X219713000Y-44045607D01*
X219675824Y-43858710D01*
X219675824Y-43196000D01*
X219634923Y-42990375D01*
X219518445Y-42816055D01*
X219344125Y-42699577D01*
X219138500Y-42658676D01*
X218284491Y-42658676D01*
X218186000Y-42639085D01*
X218087509Y-42658676D01*
X217233500Y-42658676D01*
X217027875Y-42699577D01*
X216853555Y-42816055D01*
X216737077Y-42990375D01*
X216728921Y-43031380D01*
X216512924Y-42820027D01*
X216018980Y-42605437D01*
X215773000Y-42725406D01*
X215773000Y-44069000D01*
X215793000Y-44069000D01*
X215793000Y-44323000D01*
X215773000Y-44323000D01*
X215773000Y-45666594D01*
X216018980Y-45786563D01*
X216512924Y-45571973D01*
X216630986Y-45456450D01*
X216629086Y-45466000D01*
X216659000Y-45616389D01*
X216659000Y-45616393D01*
X216747598Y-46061806D01*
X217085095Y-46566905D01*
X217212592Y-46652096D01*
X218015903Y-47455406D01*
X218101095Y-47582905D01*
X218606194Y-47920402D01*
X219051607Y-48009000D01*
X219051611Y-48009000D01*
X219202000Y-48038914D01*
X219352389Y-48009000D01*
X228957613Y-48009000D01*
X229108001Y-48038914D01*
X229258389Y-48009000D01*
X229258393Y-48009000D01*
X229703806Y-47920402D01*
X230208905Y-47582905D01*
X230294096Y-47455408D01*
X231605406Y-46144097D01*
X231732905Y-46058905D01*
X232070402Y-45553806D01*
X232105611Y-45376797D01*
X232305076Y-45571973D01*
X232799020Y-45786563D01*
X233045000Y-45666594D01*
X233045000Y-44323000D01*
X233025000Y-44323000D01*
X233025000Y-44069000D01*
X233045000Y-44069000D01*
X233045000Y-42725406D01*
X232799020Y-42605437D01*
X232305076Y-42820027D01*
X232158999Y-42962963D01*
X232159000Y-41298390D01*
X232188914Y-41148000D01*
X232159000Y-40997611D01*
X232159000Y-40997608D01*
X232070402Y-40552195D01*
X231732905Y-40047095D01*
X231605406Y-39961902D01*
X230294096Y-38650592D01*
X230208905Y-38523095D01*
X229703806Y-38185598D01*
X229258393Y-38097000D01*
X229258389Y-38097000D01*
X229108001Y-38067086D01*
X228957613Y-38097000D01*
X225528607Y-38097000D01*
X225083194Y-38185598D01*
X224578095Y-38523095D01*
X224409000Y-38776163D01*
X224239905Y-38523095D01*
X223734806Y-38185598D01*
X223289393Y-38097000D01*
X219606389Y-38097000D01*
X219456000Y-38067086D01*
X219305611Y-38097000D01*
X219305607Y-38097000D01*
X218860194Y-38185598D01*
X218355095Y-38523095D01*
X218269903Y-38650594D01*
X217559496Y-39361000D01*
X215008503Y-39361000D01*
X214292093Y-38644589D01*
X214206904Y-38517095D01*
X214079410Y-38431906D01*
X214079409Y-38431905D01*
X214079406Y-38431903D01*
X208964094Y-33316589D01*
X208878905Y-33189095D01*
X208751411Y-33103906D01*
X208751409Y-33103904D01*
X208401679Y-32870222D01*
X208373806Y-32851598D01*
X207928393Y-32763000D01*
X207928389Y-32763000D01*
X207778000Y-32733086D01*
X207627611Y-32763000D01*
X204827607Y-32763000D01*
X204382194Y-32851598D01*
X204230920Y-32952676D01*
X204178000Y-32952676D01*
X203972375Y-32993577D01*
X203798055Y-33110055D01*
X203681577Y-33284375D01*
X203640676Y-33490000D01*
X203640676Y-33542920D01*
X203587731Y-33622158D01*
X203394713Y-33333287D01*
X202955770Y-33039994D01*
X202568696Y-32963000D01*
X202307304Y-32963000D01*
X201920230Y-33039994D01*
X201481287Y-33333287D01*
X201187994Y-33772230D01*
X201168000Y-33872746D01*
X201148006Y-33772230D01*
X200854713Y-33333287D01*
X200415770Y-33039994D01*
X200028696Y-32963000D01*
X199767304Y-32963000D01*
X199380230Y-33039994D01*
X198941287Y-33333287D01*
X198647994Y-33772230D01*
X198628000Y-33872746D01*
X198608006Y-33772230D01*
X198314713Y-33333287D01*
X198011999Y-33131020D01*
X198012000Y-29782406D01*
X198024811Y-29718000D01*
X198012000Y-29653594D01*
X198012000Y-29653591D01*
X197974054Y-29462823D01*
X197829507Y-29246493D01*
X197774902Y-29210007D01*
X193039993Y-24475098D01*
X193003507Y-24420493D01*
X192787178Y-24275946D01*
X192596410Y-24238000D01*
X192596407Y-24238000D01*
X192532000Y-24225189D01*
X192467593Y-24238000D01*
X157163406Y-24238000D01*
X157099000Y-24225189D01*
X157034594Y-24238000D01*
X157034590Y-24238000D01*
X156843822Y-24275946D01*
X156627493Y-24420493D01*
X156591007Y-24475098D01*
X155994044Y-25072060D01*
X155853875Y-25014000D01*
X155296125Y-25014000D01*
X154780831Y-25227442D01*
X154386442Y-25621831D01*
X154173000Y-26137125D01*
X154173000Y-26694875D01*
X154386442Y-27210169D01*
X154505273Y-27329000D01*
X154011315Y-27329000D01*
X153431701Y-27569084D01*
X152988084Y-28012701D01*
X152748000Y-28592315D01*
X152748000Y-29219685D01*
X152988084Y-29799299D01*
X153431701Y-30242916D01*
X154011315Y-30483000D01*
X154638685Y-30483000D01*
X155218299Y-30242916D01*
X155661916Y-29799299D01*
X155902000Y-29219685D01*
X155902000Y-28592315D01*
X155661916Y-28012701D01*
X155467215Y-27818000D01*
X155853875Y-27818000D01*
X156369169Y-27604558D01*
X156763558Y-27210169D01*
X156977000Y-26694875D01*
X156977000Y-26137125D01*
X156918940Y-25996956D01*
X157369895Y-25546000D01*
X158974996Y-25546000D01*
X158759047Y-25616884D01*
X158553410Y-26181306D01*
X158579421Y-26781458D01*
X158759047Y-27215116D01*
X159012940Y-27298455D01*
X159895395Y-26416000D01*
X159881252Y-26401857D01*
X160060857Y-26222252D01*
X160075000Y-26236395D01*
X160089142Y-26222252D01*
X160268747Y-26401857D01*
X160254605Y-26416000D01*
X160268747Y-26430142D01*
X160089142Y-26609747D01*
X160075000Y-26595605D01*
X159192545Y-27478060D01*
X159275884Y-27731953D01*
X159840306Y-27937590D01*
X160083746Y-27927039D01*
X159998084Y-28012701D01*
X159758000Y-28592315D01*
X159758000Y-29219685D01*
X159998084Y-29799299D01*
X160441701Y-30242916D01*
X160661597Y-30334000D01*
X156578442Y-30334000D01*
X156464000Y-30311236D01*
X156349558Y-30334000D01*
X156010610Y-30401421D01*
X155626245Y-30658245D01*
X155561416Y-30755269D01*
X154707267Y-31609418D01*
X154610245Y-31674245D01*
X154353421Y-32058610D01*
X154317990Y-32236735D01*
X154263236Y-32512000D01*
X154286000Y-32626442D01*
X154286000Y-33250355D01*
X154171000Y-33527989D01*
X154171000Y-34036011D01*
X154365412Y-34505362D01*
X154724638Y-34864588D01*
X155193989Y-35059000D01*
X155702011Y-35059000D01*
X156171362Y-34864588D01*
X156530588Y-34505362D01*
X156725000Y-34036011D01*
X156725000Y-33527989D01*
X156610000Y-33250355D01*
X156610000Y-32993316D01*
X156945315Y-32658000D01*
X159394083Y-32658000D01*
X159281577Y-32826375D01*
X159240676Y-33032000D01*
X159240676Y-34532000D01*
X159281577Y-34737625D01*
X159398055Y-34911945D01*
X159419241Y-34926101D01*
X159433421Y-34997390D01*
X159669349Y-35350483D01*
X158779912Y-35350483D01*
X158711923Y-35109540D01*
X158192829Y-34924799D01*
X157642552Y-34952770D01*
X157264077Y-35109540D01*
X157196088Y-35350483D01*
X157988000Y-36142395D01*
X158779912Y-35350483D01*
X159669349Y-35350483D01*
X159690245Y-35381755D01*
X159787266Y-35446582D01*
X160867513Y-36526829D01*
X159385201Y-36526829D01*
X159357230Y-35976552D01*
X159200460Y-35598077D01*
X158959517Y-35530088D01*
X158167605Y-36322000D01*
X157808395Y-36322000D01*
X157016483Y-35530088D01*
X156775540Y-35598077D01*
X156590799Y-36117171D01*
X156618770Y-36667448D01*
X156775540Y-37045923D01*
X157016483Y-37113912D01*
X157808395Y-36322000D01*
X158167605Y-36322000D01*
X158959517Y-37113912D01*
X159200460Y-37045923D01*
X159385201Y-36526829D01*
X160867513Y-36526829D01*
X161144000Y-36803315D01*
X161144000Y-36969559D01*
X161121236Y-37084000D01*
X161144000Y-37198442D01*
X161144000Y-37465000D01*
X158731523Y-37465000D01*
X158779912Y-37293517D01*
X157988000Y-36501605D01*
X157196088Y-37293517D01*
X157244477Y-37465000D01*
X149095899Y-37465000D01*
X149095899Y-25565078D01*
X149157227Y-25136840D01*
X149317601Y-24784115D01*
X149570530Y-24490578D01*
X149895674Y-24279830D01*
X150287675Y-24162596D01*
X150492166Y-24147400D01*
X244424229Y-24147400D01*
X244852460Y-24208727D01*
X245205185Y-24369101D01*
X245498722Y-24622030D01*
X245709470Y-24947174D01*
X245826704Y-25339175D01*
X245841900Y-25543666D01*
X245841900Y-27536000D01*
X235493609Y-27536000D01*
X235316887Y-26647559D01*
X234813625Y-25894375D01*
X234060441Y-25391113D01*
X233396264Y-25259000D01*
X232947736Y-25259000D01*
X232283559Y-25391113D01*
X231530375Y-25894375D01*
X231027113Y-26647559D01*
X230850391Y-27536000D01*
X217967609Y-27536000D01*
X217790887Y-26647559D01*
X217287625Y-25894375D01*
X216534441Y-25391113D01*
X215870264Y-25259000D01*
X215421736Y-25259000D01*
X214757559Y-25391113D01*
X214004375Y-25894375D01*
X213501113Y-26647559D01*
X213324391Y-27536000D01*
X213501113Y-28424441D01*
X214004375Y-29177625D01*
X214757559Y-29680887D01*
X215421736Y-29813000D01*
X215870264Y-29813000D01*
X216534441Y-29680887D01*
X217287625Y-29177625D01*
X217790887Y-28424441D01*
X217967609Y-27536000D01*
X230850391Y-27536000D01*
X231027113Y-28424441D01*
X231530375Y-29177625D01*
X232283559Y-29680887D01*
X232947736Y-29813000D01*
X233396264Y-29813000D01*
X234060441Y-29680887D01*
X234813625Y-29177625D01*
X235316887Y-28424441D01*
X235493609Y-27536000D01*
X245841900Y-27536000D01*
X245841900Y-43520400D01*
X245715900Y-43520400D01*
X245605924Y-42826039D01*
X245286761Y-42199647D01*
X244789653Y-41702539D01*
X244163261Y-41383376D01*
X243468900Y-41273400D01*
X242774539Y-41383376D01*
X242148147Y-41702539D01*
X241651039Y-42199647D01*
X241331876Y-42826039D01*
X241221900Y-43520400D01*
X241331876Y-44214761D01*
X241651039Y-44841153D01*
X242148147Y-45338261D01*
X242774539Y-45657424D01*
X243468900Y-45767400D01*
X244163261Y-45657424D01*
X244789653Y-45338261D01*
X245286761Y-44841153D01*
X245605924Y-44214761D01*
X245715900Y-43520400D01*
X245841900Y-43520400D01*
X245841900Y-54082694D01*
X238971590Y-54082694D01*
X238945579Y-53482542D01*
X238765953Y-53048884D01*
X238512060Y-52965545D01*
X237629605Y-53848000D01*
X238512060Y-54730455D01*
X238765953Y-54647116D01*
X238971590Y-54082694D01*
X245841900Y-54082694D01*
X245841900Y-54910060D01*
X238332455Y-54910060D01*
X237450000Y-54027605D01*
X236567545Y-54910060D01*
X236650884Y-55163953D01*
X237215306Y-55369590D01*
X237815458Y-55343579D01*
X238249116Y-55163953D01*
X238332455Y-54910060D01*
X245841900Y-54910060D01*
X245841900Y-55501398D01*
X225825000Y-55501398D01*
X225825000Y-54988602D01*
X225628761Y-54514840D01*
X225266160Y-54152239D01*
X224792398Y-53956000D01*
X224279602Y-53956000D01*
X223805840Y-54152239D01*
X223536000Y-54422079D01*
X223266160Y-54152239D01*
X222792398Y-53956000D01*
X222279602Y-53956000D01*
X222203442Y-53987547D01*
X220249993Y-52034098D01*
X220213507Y-51979493D01*
X219997178Y-51834946D01*
X219806410Y-51797000D01*
X219806407Y-51797000D01*
X219742000Y-51784189D01*
X219677593Y-51797000D01*
X203221976Y-51797000D01*
X203090103Y-51665127D01*
X202749392Y-51524000D01*
X202380608Y-51524000D01*
X202039897Y-51665127D01*
X201779127Y-51925897D01*
X201638000Y-52266608D01*
X201638000Y-52635392D01*
X201779127Y-52976103D01*
X202039897Y-53236873D01*
X202380608Y-53378000D01*
X202749392Y-53378000D01*
X203090103Y-53236873D01*
X203221976Y-53105000D01*
X219471105Y-53105000D01*
X220322105Y-53956000D01*
X220279602Y-53956000D01*
X219805840Y-54152239D01*
X219693292Y-54264787D01*
X219336608Y-54264787D01*
X219267143Y-54022603D01*
X218743698Y-53835856D01*
X218188632Y-53863638D01*
X217804857Y-54022603D01*
X217735392Y-54264787D01*
X218536000Y-55065395D01*
X219336608Y-54264787D01*
X219693292Y-54264787D01*
X219443239Y-54514840D01*
X219441453Y-54519152D01*
X218715605Y-55245000D01*
X218356395Y-55245000D01*
X217555787Y-54444392D01*
X217313603Y-54513857D01*
X217126856Y-55037302D01*
X217150084Y-55501398D01*
X213760000Y-55501398D01*
X213760000Y-54988602D01*
X213563761Y-54514840D01*
X213201160Y-54152239D01*
X212727398Y-53956000D01*
X212214602Y-53956000D01*
X211740840Y-54152239D01*
X211471000Y-54422079D01*
X211201160Y-54152239D01*
X210727398Y-53956000D01*
X210214602Y-53956000D01*
X209740840Y-54152239D01*
X209471000Y-54422079D01*
X209201160Y-54152239D01*
X208727398Y-53956000D01*
X208214602Y-53956000D01*
X207740840Y-54152239D01*
X207628292Y-54264787D01*
X207271608Y-54264787D01*
X207202143Y-54022603D01*
X206678698Y-53835856D01*
X206123632Y-53863638D01*
X205739857Y-54022603D01*
X205670392Y-54264787D01*
X206471000Y-55065395D01*
X207271608Y-54264787D01*
X207628292Y-54264787D01*
X207378239Y-54514840D01*
X207376453Y-54519152D01*
X206650605Y-55245000D01*
X206291395Y-55245000D01*
X205490787Y-54444392D01*
X205248603Y-54513857D01*
X205061856Y-55037302D01*
X205089638Y-55592368D01*
X205248603Y-55976143D01*
X205490787Y-56045608D01*
X206291395Y-55245000D01*
X206650605Y-55245000D01*
X207376453Y-55970848D01*
X207378239Y-55975160D01*
X207628292Y-56225213D01*
X207271608Y-56225213D01*
X206471000Y-55424605D01*
X205670392Y-56225213D01*
X205739857Y-56467397D01*
X206263302Y-56654144D01*
X206818368Y-56626362D01*
X207202143Y-56467397D01*
X207271608Y-56225213D01*
X207628292Y-56225213D01*
X207740840Y-56337761D01*
X208214602Y-56534000D01*
X208727398Y-56534000D01*
X209201160Y-56337761D01*
X209471000Y-56067921D01*
X209740840Y-56337761D01*
X210214602Y-56534000D01*
X210727398Y-56534000D01*
X211201160Y-56337761D01*
X211471000Y-56067921D01*
X211740840Y-56337761D01*
X212214602Y-56534000D01*
X212727398Y-56534000D01*
X213201160Y-56337761D01*
X213563761Y-55975160D01*
X213760000Y-55501398D01*
X217150084Y-55501398D01*
X217154638Y-55592368D01*
X217313603Y-55976143D01*
X217555787Y-56045608D01*
X218356395Y-55245000D01*
X218715605Y-55245000D01*
X219441453Y-55970848D01*
X219443239Y-55975160D01*
X219693292Y-56225213D01*
X219336608Y-56225213D01*
X218536000Y-55424605D01*
X217735392Y-56225213D01*
X217804857Y-56467397D01*
X218328302Y-56654144D01*
X218883368Y-56626362D01*
X219267143Y-56467397D01*
X219336608Y-56225213D01*
X219693292Y-56225213D01*
X219805840Y-56337761D01*
X220279602Y-56534000D01*
X220792398Y-56534000D01*
X221266160Y-56337761D01*
X221536000Y-56067921D01*
X221805840Y-56337761D01*
X222279602Y-56534000D01*
X222792398Y-56534000D01*
X223266160Y-56337761D01*
X223536000Y-56067921D01*
X223805840Y-56337761D01*
X224279602Y-56534000D01*
X224792398Y-56534000D01*
X225266160Y-56337761D01*
X225628761Y-55975160D01*
X225825000Y-55501398D01*
X245841900Y-55501398D01*
X245841900Y-60882777D01*
X194740965Y-60882777D01*
X194713778Y-60312546D01*
X194547864Y-59911995D01*
X194301745Y-59837861D01*
X193473605Y-60666000D01*
X193114395Y-60666000D01*
X192286255Y-59837861D01*
X192040136Y-59911995D01*
X191971496Y-60102961D01*
X189605904Y-60102961D01*
X189445041Y-59714577D01*
X189069134Y-59299611D01*
X188563041Y-59060086D01*
X188341000Y-59181371D01*
X188341000Y-60325000D01*
X189483915Y-60325000D01*
X189605904Y-60102961D01*
X191971496Y-60102961D01*
X191847035Y-60449223D01*
X191863808Y-60801039D01*
X189605904Y-60801039D01*
X189483915Y-60579000D01*
X188341000Y-60579000D01*
X188341000Y-61722629D01*
X188087000Y-61722629D01*
X188087000Y-60579000D01*
X188067000Y-60579000D01*
X188067000Y-60325000D01*
X188087000Y-60325000D01*
X188087000Y-59181371D01*
X187864959Y-59060086D01*
X187358866Y-59299611D01*
X186982959Y-59714577D01*
X186893924Y-59929540D01*
X186798976Y-59700315D01*
X186425685Y-59327024D01*
X185937957Y-59125000D01*
X185410043Y-59125000D01*
X185011699Y-59290000D01*
X183869315Y-59290000D01*
X183274583Y-58695267D01*
X183209755Y-58598245D01*
X182888532Y-58383611D01*
X182848160Y-58343239D01*
X182374398Y-58147000D01*
X181861602Y-58147000D01*
X181387840Y-58343239D01*
X181025239Y-58705840D01*
X180829000Y-59179602D01*
X180829000Y-59692398D01*
X181025239Y-60166160D01*
X181387840Y-60528761D01*
X181861602Y-60725000D01*
X182017684Y-60725000D01*
X182485416Y-61192731D01*
X182550245Y-61289755D01*
X182934610Y-61546579D01*
X183273558Y-61614000D01*
X183388000Y-61636764D01*
X183502442Y-61614000D01*
X185011699Y-61614000D01*
X185410043Y-61779000D01*
X185937957Y-61779000D01*
X186425685Y-61576976D01*
X186798976Y-61203685D01*
X186893924Y-60974460D01*
X186982959Y-61189423D01*
X187358866Y-61604389D01*
X187864959Y-61843914D01*
X188087000Y-61722629D01*
X188341000Y-61722629D01*
X188563041Y-61843914D01*
X189069134Y-61604389D01*
X189445041Y-61189423D01*
X189605904Y-60801039D01*
X191863808Y-60801039D01*
X191874222Y-61019454D01*
X192040136Y-61420005D01*
X192286255Y-61494139D01*
X193114395Y-60666000D01*
X193473605Y-60666000D01*
X194301745Y-61494139D01*
X194547864Y-61420005D01*
X194740965Y-60882777D01*
X245841900Y-60882777D01*
X245841900Y-61475729D01*
X245813542Y-61673745D01*
X194122139Y-61673745D01*
X193294000Y-60845605D01*
X192465861Y-61673745D01*
X192539995Y-61919864D01*
X193077223Y-62112965D01*
X193647454Y-62085778D01*
X194048005Y-61919864D01*
X194122139Y-61673745D01*
X245813542Y-61673745D01*
X245780572Y-61903962D01*
X245620199Y-62256685D01*
X245367270Y-62550222D01*
X245042125Y-62760971D01*
X244650125Y-62878204D01*
X244445635Y-62893400D01*
X180483521Y-62893400D01*
X180670761Y-62706160D01*
X180670761Y-62706160D01*
G37*
X180670761Y-62706160D02*
X180867000Y-62232398D01*
X180867000Y-61719602D01*
X180670761Y-61245840D01*
X180308160Y-60883239D01*
X179834398Y-60687000D01*
X179321602Y-60687000D01*
X178847840Y-60883239D01*
X178485239Y-61245840D01*
X178289000Y-61719602D01*
X178289000Y-62232398D01*
X178485239Y-62706160D01*
X178672479Y-62893400D01*
X175133000Y-62893400D01*
X175133000Y-62122000D01*
X175399559Y-62122000D01*
X175514001Y-62144764D01*
X175901577Y-62067670D01*
X175967390Y-62054579D01*
X176351755Y-61797755D01*
X176416583Y-61700733D01*
X177461553Y-60655762D01*
X177768160Y-60528761D01*
X178130761Y-60166160D01*
X178327000Y-59692398D01*
X178327000Y-59179602D01*
X178130761Y-58705840D01*
X177847921Y-58423000D01*
X178526982Y-58423000D01*
X178677371Y-58452914D01*
X178827760Y-58423000D01*
X178827763Y-58423000D01*
X179273176Y-58334402D01*
X179778275Y-57996905D01*
X179863466Y-57869408D01*
X180993289Y-56739584D01*
X181289846Y-56937737D01*
X181814012Y-57042000D01*
X181814013Y-57042000D01*
X181991000Y-57077205D01*
X182167987Y-57042000D01*
X185977988Y-57042000D01*
X186502154Y-56937737D01*
X187096565Y-56540565D01*
X187493737Y-55946154D01*
X187633205Y-55245000D01*
X187493737Y-54543846D01*
X187096565Y-53949435D01*
X186502154Y-53552263D01*
X185977988Y-53448000D01*
X182735341Y-53448000D01*
X181756000Y-52468658D01*
X181756000Y-51073504D01*
X182709903Y-52027406D01*
X182795095Y-52154905D01*
X183300194Y-52492402D01*
X183745607Y-52581000D01*
X183745611Y-52581000D01*
X183896000Y-52610914D01*
X184046389Y-52581000D01*
X187047611Y-52581000D01*
X187198000Y-52610914D01*
X187348389Y-52581000D01*
X187348393Y-52581000D01*
X187793806Y-52492402D01*
X188298905Y-52154905D01*
X188384096Y-52027408D01*
X190416095Y-49995408D01*
X190668402Y-49617805D01*
X190786914Y-49022000D01*
X190668402Y-48426195D01*
X190418126Y-48051631D01*
X194309497Y-51943000D01*
X193377905Y-52874591D01*
X193377903Y-52874594D01*
X193238242Y-53014255D01*
X190058139Y-53014255D01*
X189984005Y-52768136D01*
X189446777Y-52575035D01*
X188876546Y-52602222D01*
X188475995Y-52768136D01*
X188401861Y-53014255D01*
X189230000Y-53842395D01*
X190058139Y-53014255D01*
X193238242Y-53014255D01*
X192320592Y-53931904D01*
X192193095Y-54017095D01*
X192044972Y-54238777D01*
X190676965Y-54238777D01*
X190649778Y-53668546D01*
X190483864Y-53267995D01*
X190237745Y-53193861D01*
X189409605Y-54022000D01*
X189050395Y-54022000D01*
X188222255Y-53193861D01*
X187976136Y-53267995D01*
X187783035Y-53805223D01*
X187810222Y-54375454D01*
X187976136Y-54776005D01*
X188222255Y-54850139D01*
X189050395Y-54022000D01*
X189409605Y-54022000D01*
X190237745Y-54850139D01*
X190483864Y-54776005D01*
X190676965Y-54238777D01*
X192044972Y-54238777D01*
X191855598Y-54522194D01*
X191767000Y-54967607D01*
X191767000Y-54967610D01*
X191754641Y-55029745D01*
X190058139Y-55029745D01*
X189230000Y-54201605D01*
X188401861Y-55029745D01*
X188475995Y-55275864D01*
X189013223Y-55468965D01*
X189583454Y-55441778D01*
X189984005Y-55275864D01*
X190058139Y-55029745D01*
X191754641Y-55029745D01*
X191737086Y-55117999D01*
X191767000Y-55268388D01*
X191767000Y-58316393D01*
X191855598Y-58761806D01*
X191956676Y-58913080D01*
X191956676Y-58966000D01*
X191997577Y-59171625D01*
X192114055Y-59345945D01*
X192288375Y-59462423D01*
X192494000Y-59503324D01*
X192512528Y-59503324D01*
X192465861Y-59658255D01*
X193294000Y-60486395D01*
X194122139Y-59658255D01*
X194075472Y-59503324D01*
X194094000Y-59503324D01*
X194299625Y-59462423D01*
X194473945Y-59345945D01*
X194590423Y-59171625D01*
X194631324Y-58966000D01*
X194631324Y-58913078D01*
X194732401Y-58761806D01*
X194820999Y-58316393D01*
X194821000Y-55750504D01*
X195537406Y-55034097D01*
X195537409Y-55034095D01*
X197823405Y-52748098D01*
X197950905Y-52662905D01*
X198036096Y-52535408D01*
X199260503Y-51311000D01*
X233423000Y-51311000D01*
X233423000Y-53998393D01*
X233511598Y-54443806D01*
X233537676Y-54482834D01*
X233537676Y-54723000D01*
X233578577Y-54928625D01*
X233695055Y-55102945D01*
X233869375Y-55219423D01*
X234075000Y-55260324D01*
X234315167Y-55260324D01*
X234354195Y-55286402D01*
X234950000Y-55404915D01*
X235545806Y-55286402D01*
X235584834Y-55260324D01*
X235825000Y-55260324D01*
X236030625Y-55219423D01*
X236204945Y-55102945D01*
X236321423Y-54928625D01*
X236362324Y-54723000D01*
X236362324Y-54722047D01*
X236387940Y-54730455D01*
X237270395Y-53848000D01*
X237256252Y-53833857D01*
X237435857Y-53654252D01*
X237450000Y-53668395D01*
X238332455Y-52785940D01*
X238249116Y-52532047D01*
X237684694Y-52326410D01*
X237084542Y-52352421D01*
X236650884Y-52532047D01*
X236567546Y-52785938D01*
X236477000Y-52695392D01*
X236476999Y-49934398D01*
X236506915Y-49784000D01*
X236477000Y-49633607D01*
X236476999Y-48590504D01*
X236685406Y-48382097D01*
X236812905Y-48296905D01*
X237150402Y-47791805D01*
X237239000Y-47346392D01*
X237239000Y-47346389D01*
X237268914Y-47196000D01*
X237239000Y-47045610D01*
X237238999Y-44045607D01*
X237201824Y-43858715D01*
X237201824Y-43196000D01*
X237160923Y-42990375D01*
X237044445Y-42816055D01*
X236870125Y-42699577D01*
X236664500Y-42658676D01*
X235810491Y-42658676D01*
X235712000Y-42639085D01*
X235613509Y-42658676D01*
X234759500Y-42658676D01*
X234553875Y-42699577D01*
X234379555Y-42816055D01*
X234263077Y-42990375D01*
X234254921Y-43031380D01*
X234038924Y-42820027D01*
X233544980Y-42605437D01*
X233299000Y-42725406D01*
X233299000Y-44069000D01*
X233319000Y-44069000D01*
X233319000Y-44323000D01*
X233299000Y-44323000D01*
X233299000Y-45666594D01*
X233544980Y-45786563D01*
X234038924Y-45571973D01*
X234185000Y-45429038D01*
X234185000Y-46553650D01*
X233849095Y-46778095D01*
X233511598Y-47283194D01*
X233393085Y-47879000D01*
X233423000Y-48029393D01*
X233423000Y-48257000D01*
X198778389Y-48257000D01*
X198628000Y-48227086D01*
X198477611Y-48257000D01*
X198477607Y-48257000D01*
X198032194Y-48345598D01*
X197527095Y-48683095D01*
X197441902Y-48810594D01*
X196469000Y-49783497D01*
X191951724Y-45266219D01*
X191866535Y-45138725D01*
X191739041Y-45053536D01*
X191739039Y-45053534D01*
X191421188Y-44841153D01*
X191361436Y-44801228D01*
X190916023Y-44712630D01*
X190916019Y-44712630D01*
X190765630Y-44682716D01*
X190615241Y-44712630D01*
X190570231Y-44712630D01*
X190511763Y-44701000D01*
X190511760Y-44701000D01*
X190361371Y-44671086D01*
X190210982Y-44701000D01*
X188249019Y-44701000D01*
X188098630Y-44671086D01*
X187948241Y-44701000D01*
X187948237Y-44701000D01*
X187502824Y-44789598D01*
X186997725Y-45127095D01*
X186991512Y-45136393D01*
X187026997Y-44958000D01*
X186924006Y-44440230D01*
X186630713Y-44001287D01*
X186191770Y-43707994D01*
X186080656Y-43685892D01*
X186425685Y-43542976D01*
X186798976Y-43169685D01*
X187001000Y-42681957D01*
X187001000Y-42154043D01*
X186798976Y-41666315D01*
X186425685Y-41293024D01*
X185937957Y-41091000D01*
X185410043Y-41091000D01*
X185011699Y-41256000D01*
X183529480Y-41256000D01*
X183397770Y-41167994D01*
X183010696Y-41091000D01*
X182749304Y-41091000D01*
X182362230Y-41167994D01*
X182010000Y-41403347D01*
X182009999Y-39524303D01*
X182175000Y-39125957D01*
X182175000Y-38598043D01*
X181972976Y-38110315D01*
X181599685Y-37737024D01*
X181111957Y-37535000D01*
X180584043Y-37535000D01*
X180096315Y-37737024D01*
X179723024Y-38110315D01*
X179521000Y-38598043D01*
X179521000Y-39125957D01*
X179686000Y-39524301D01*
X179686000Y-42952685D01*
X178961999Y-43676686D01*
X178962000Y-39484442D01*
X178984764Y-39370000D01*
X178905209Y-38970053D01*
X178894579Y-38916611D01*
X178637755Y-38532245D01*
X178540730Y-38467415D01*
X173622583Y-33549267D01*
X173557755Y-33452245D01*
X173173390Y-33195421D01*
X172720000Y-33105236D01*
X172605558Y-33128000D01*
X170321480Y-33128000D01*
X170189770Y-33039994D01*
X170034406Y-33009090D01*
X169774584Y-32749268D01*
X169709756Y-32652246D01*
X169395432Y-32442222D01*
X169325391Y-32395422D01*
X168872002Y-32305237D01*
X168757560Y-32328001D01*
X165543316Y-32328001D01*
X164711315Y-31496000D01*
X165078733Y-31128582D01*
X165175754Y-31063755D01*
X165311230Y-30861000D01*
X165432579Y-30679389D01*
X165522764Y-30226000D01*
X165500000Y-30111558D01*
X165500000Y-29351480D01*
X165588006Y-29219770D01*
X165690997Y-28702000D01*
X165588006Y-28184230D01*
X165294713Y-27745287D01*
X164855770Y-27451994D01*
X164468696Y-27375000D01*
X164207304Y-27375000D01*
X163820230Y-27451994D01*
X163381287Y-27745287D01*
X163087994Y-28184230D01*
X162985003Y-28702000D01*
X163087994Y-29219770D01*
X163176000Y-29351480D01*
X163176000Y-29744685D01*
X162586684Y-30334000D01*
X162008403Y-30334000D01*
X162228299Y-30242916D01*
X162671916Y-29799299D01*
X162912000Y-29219685D01*
X162912000Y-28592315D01*
X162671916Y-28012701D01*
X162228299Y-27569084D01*
X161648685Y-27329000D01*
X161167608Y-27329000D01*
X161137062Y-27298454D01*
X161390953Y-27215116D01*
X161596590Y-26650694D01*
X161570579Y-26050542D01*
X161390953Y-25616884D01*
X161175004Y-25546000D01*
X167543273Y-25546000D01*
X167467442Y-25621831D01*
X167254000Y-26137125D01*
X167254000Y-26694875D01*
X167467442Y-27210169D01*
X167586273Y-27329000D01*
X167092315Y-27329000D01*
X166512701Y-27569084D01*
X166069084Y-28012701D01*
X165829000Y-28592315D01*
X165829000Y-29219685D01*
X166069084Y-29799299D01*
X166512701Y-30242916D01*
X167092315Y-30483000D01*
X167719685Y-30483000D01*
X168299299Y-30242916D01*
X168742916Y-29799299D01*
X168983000Y-29219685D01*
X168983000Y-28592315D01*
X168742916Y-28012701D01*
X168548215Y-27818000D01*
X168934875Y-27818000D01*
X169075044Y-27759940D01*
X173482007Y-32166902D01*
X173518493Y-32221507D01*
X173734822Y-32366054D01*
X173925590Y-32404000D01*
X173925594Y-32404000D01*
X173990000Y-32416811D01*
X174054406Y-32404000D01*
X190864104Y-32404000D01*
X191314359Y-32854255D01*
X181676139Y-32854255D01*
X181602005Y-32608136D01*
X181064777Y-32415035D01*
X180494546Y-32442222D01*
X180093995Y-32608136D01*
X180019861Y-32854255D01*
X180848000Y-33682395D01*
X181676139Y-32854255D01*
X191314359Y-32854255D01*
X191604293Y-33144188D01*
X191321287Y-33333287D01*
X191027994Y-33772230D01*
X191008000Y-33872746D01*
X190988006Y-33772230D01*
X190694713Y-33333287D01*
X190255770Y-33039994D01*
X189868696Y-32963000D01*
X189607304Y-32963000D01*
X189220230Y-33039994D01*
X188781287Y-33333287D01*
X188487994Y-33772230D01*
X188427018Y-34078777D01*
X182294965Y-34078777D01*
X182267778Y-33508546D01*
X182101864Y-33107995D01*
X181855745Y-33033861D01*
X181027605Y-33862000D01*
X180668395Y-33862000D01*
X179840255Y-33033861D01*
X179594136Y-33107995D01*
X179531501Y-33282255D01*
X178120139Y-33282255D01*
X178046005Y-33036136D01*
X177508777Y-32843035D01*
X176938546Y-32870222D01*
X176537995Y-33036136D01*
X176463861Y-33282255D01*
X177292000Y-34110395D01*
X178120139Y-33282255D01*
X179531501Y-33282255D01*
X179401035Y-33645223D01*
X179428222Y-34215454D01*
X179548892Y-34506777D01*
X178738965Y-34506777D01*
X178711778Y-33936546D01*
X178545864Y-33535995D01*
X178299745Y-33461861D01*
X177471605Y-34290000D01*
X177112395Y-34290000D01*
X176284255Y-33461861D01*
X176038136Y-33535995D01*
X175845035Y-34073223D01*
X175872222Y-34643454D01*
X176038136Y-35044005D01*
X176284255Y-35118139D01*
X177112395Y-34290000D01*
X177471605Y-34290000D01*
X178299745Y-35118139D01*
X178545864Y-35044005D01*
X178738965Y-34506777D01*
X179548892Y-34506777D01*
X179594136Y-34616005D01*
X179840255Y-34690139D01*
X180668395Y-33862000D01*
X181027605Y-33862000D01*
X181855745Y-34690139D01*
X182101864Y-34616005D01*
X182294965Y-34078777D01*
X188427018Y-34078777D01*
X188385003Y-34290000D01*
X188487994Y-34807770D01*
X188529404Y-34869745D01*
X181676139Y-34869745D01*
X180848000Y-34041605D01*
X180019861Y-34869745D01*
X180093995Y-35115864D01*
X180600007Y-35297745D01*
X178120139Y-35297745D01*
X177292000Y-34469605D01*
X176463861Y-35297745D01*
X176537995Y-35543864D01*
X177075223Y-35736965D01*
X177645454Y-35709778D01*
X178046005Y-35543864D01*
X178120139Y-35297745D01*
X180600007Y-35297745D01*
X180631223Y-35308965D01*
X181201454Y-35281778D01*
X181602005Y-35115864D01*
X181676139Y-34869745D01*
X188529404Y-34869745D01*
X188781287Y-35246713D01*
X189220230Y-35540006D01*
X189607304Y-35617000D01*
X189868696Y-35617000D01*
X190255770Y-35540006D01*
X190694713Y-35246713D01*
X190988006Y-34807770D01*
X191008000Y-34707254D01*
X191027994Y-34807770D01*
X191321287Y-35246713D01*
X191760230Y-35540006D01*
X192147304Y-35617000D01*
X192408696Y-35617000D01*
X192795770Y-35540006D01*
X193234713Y-35246713D01*
X193528006Y-34807770D01*
X193548000Y-34707254D01*
X193567994Y-34807770D01*
X193861287Y-35246713D01*
X194300230Y-35540006D01*
X194556630Y-35591007D01*
X194556630Y-37158223D01*
X194543819Y-37222630D01*
X194556630Y-37287037D01*
X194556630Y-37287040D01*
X194594576Y-37477808D01*
X194739123Y-37694137D01*
X194793728Y-37730623D01*
X195505244Y-38442139D01*
X195222238Y-38631238D01*
X194945000Y-39046154D01*
X194667762Y-38631238D01*
X194212279Y-38326894D01*
X193810623Y-38247000D01*
X193539377Y-38247000D01*
X193137721Y-38326894D01*
X192682238Y-38631238D01*
X192377894Y-39086721D01*
X192271023Y-39624000D01*
X192377894Y-40161279D01*
X192417300Y-40220255D01*
X190058139Y-40220255D01*
X189984005Y-39974136D01*
X189446777Y-39781035D01*
X188876546Y-39808222D01*
X188475995Y-39974136D01*
X188401861Y-40220255D01*
X189230000Y-41048395D01*
X190058139Y-40220255D01*
X192417300Y-40220255D01*
X192682238Y-40616762D01*
X193023280Y-40844639D01*
X192908076Y-40892355D01*
X192479817Y-41282642D01*
X192403675Y-41444777D01*
X190676965Y-41444777D01*
X190649778Y-40874546D01*
X190483864Y-40473995D01*
X190237745Y-40399861D01*
X189409605Y-41228000D01*
X189050395Y-41228000D01*
X188222255Y-40399861D01*
X187976136Y-40473995D01*
X187783035Y-41011223D01*
X187810222Y-41581454D01*
X187976136Y-41982005D01*
X188222255Y-42056139D01*
X189050395Y-41228000D01*
X189409605Y-41228000D01*
X190237745Y-42056139D01*
X190483864Y-41982005D01*
X190676965Y-41444777D01*
X192403675Y-41444777D01*
X192233514Y-41807108D01*
X192354181Y-42037000D01*
X193548000Y-42037000D01*
X193548000Y-42017000D01*
X193802000Y-42017000D01*
X193802000Y-42037000D01*
X193822000Y-42037000D01*
X193822000Y-42235745D01*
X190058139Y-42235745D01*
X189230000Y-41407605D01*
X188401861Y-42235745D01*
X188475995Y-42481864D01*
X189013223Y-42674965D01*
X189583454Y-42647778D01*
X189984005Y-42481864D01*
X190058139Y-42235745D01*
X193822000Y-42235745D01*
X193822000Y-42291000D01*
X193802000Y-42291000D01*
X193802000Y-43484155D01*
X193548000Y-43484155D01*
X193548000Y-42291000D01*
X192354181Y-42291000D01*
X192233514Y-42520892D01*
X192479817Y-43045358D01*
X192908076Y-43435645D01*
X193318110Y-43605476D01*
X193548000Y-43484155D01*
X193802000Y-43484155D01*
X194031890Y-43605476D01*
X194441924Y-43435645D01*
X194870183Y-43045358D01*
X194984769Y-42801364D01*
X195222238Y-43156762D01*
X195677721Y-43461106D01*
X196079377Y-43541000D01*
X196350623Y-43541000D01*
X196752279Y-43461106D01*
X197207762Y-43156762D01*
X197485000Y-42741846D01*
X197762238Y-43156762D01*
X198217721Y-43461106D01*
X198619377Y-43541000D01*
X198890623Y-43541000D01*
X199292279Y-43461106D01*
X199747762Y-43156762D01*
X199907676Y-42917434D01*
X199907676Y-43014000D01*
X199948577Y-43219625D01*
X200065055Y-43393945D01*
X200239375Y-43510423D01*
X200445000Y-43551324D01*
X202145000Y-43551324D01*
X202350625Y-43510423D01*
X202524945Y-43393945D01*
X202641423Y-43219625D01*
X202682324Y-43014000D01*
X202682324Y-41314000D01*
X202641423Y-41108375D01*
X202524945Y-40934055D01*
X202350625Y-40817577D01*
X202145000Y-40776676D01*
X202048434Y-40776676D01*
X202287762Y-40616762D01*
X202592106Y-40161279D01*
X202698977Y-39624000D01*
X202592106Y-39086721D01*
X202287762Y-38631238D01*
X201832279Y-38326894D01*
X201430623Y-38247000D01*
X201183896Y-38247000D01*
X202854904Y-36575991D01*
X202909506Y-36539507D01*
X202945990Y-36484905D01*
X202945992Y-36484903D01*
X203054054Y-36323177D01*
X203104811Y-36068000D01*
X203091999Y-36003589D01*
X203091999Y-35448980D01*
X203394713Y-35246713D01*
X203587731Y-34957842D01*
X203640676Y-35037080D01*
X203640676Y-35090000D01*
X203681577Y-35295625D01*
X203798055Y-35469945D01*
X203972375Y-35586423D01*
X204178000Y-35627324D01*
X204230920Y-35627324D01*
X204382194Y-35728402D01*
X204827607Y-35817000D01*
X207145495Y-35817000D01*
X211579000Y-40250503D01*
X211579000Y-42267610D01*
X211549086Y-42417999D01*
X211579000Y-42568388D01*
X211579000Y-44346393D01*
X211667598Y-44791806D01*
X212005095Y-45296905D01*
X212510194Y-45634402D01*
X213106000Y-45752915D01*
X213701805Y-45634402D01*
X214206904Y-45296905D01*
X214327196Y-45116876D01*
X214336682Y-45139091D01*
X214779076Y-45571973D01*
X215273020Y-45786563D01*
X215519000Y-45666594D01*
X215519000Y-44323000D01*
X215499000Y-44323000D01*
X215499000Y-44069000D01*
X215519000Y-44069000D01*
X215519000Y-42725406D01*
X215273020Y-42605437D01*
X214928310Y-42755194D01*
X215268503Y-42415000D01*
X218041611Y-42415000D01*
X218192000Y-42444914D01*
X218342389Y-42415000D01*
X218342393Y-42415000D01*
X218787806Y-42326402D01*
X219165409Y-42074096D01*
X219165411Y-42074094D01*
X219292905Y-41988905D01*
X219378094Y-41861410D01*
X220088504Y-41151000D01*
X221669198Y-41151000D01*
X221654000Y-41187690D01*
X221654000Y-41878250D01*
X221812750Y-42037000D01*
X223012000Y-42037000D01*
X223012000Y-42017000D01*
X223266000Y-42017000D01*
X223266000Y-42037000D01*
X225552000Y-42037000D01*
X225552000Y-42017000D01*
X225806000Y-42017000D01*
X225806000Y-42037000D01*
X226999155Y-42037000D01*
X227120476Y-41807110D01*
X226950645Y-41397076D01*
X226726388Y-41151000D01*
X228475496Y-41151000D01*
X229105000Y-41780503D01*
X229105000Y-42520890D01*
X227120476Y-42520890D01*
X226999155Y-42291000D01*
X225806000Y-42291000D01*
X225806000Y-43484819D01*
X225552000Y-43484819D01*
X225552000Y-42291000D01*
X223266000Y-42291000D01*
X223266000Y-43490250D01*
X223012000Y-43490250D01*
X223012000Y-42291000D01*
X221812750Y-42291000D01*
X221654000Y-42449750D01*
X221654000Y-43140310D01*
X221750673Y-43373699D01*
X221929302Y-43552327D01*
X222162691Y-43649000D01*
X222853250Y-43649000D01*
X223012000Y-43490250D01*
X223266000Y-43490250D01*
X223424750Y-43649000D01*
X224115309Y-43649000D01*
X224348698Y-43552327D01*
X224527327Y-43373699D01*
X224615930Y-43159792D01*
X224797642Y-43359183D01*
X225322108Y-43605486D01*
X225552000Y-43484819D01*
X225806000Y-43484819D01*
X226035892Y-43605486D01*
X226560358Y-43359183D01*
X226950645Y-42930924D01*
X227120476Y-42520890D01*
X229105000Y-42520890D01*
X229105000Y-44325497D01*
X228475496Y-44955000D01*
X219834503Y-44955000D01*
X219713000Y-44833496D01*
X219713000Y-44045607D01*
X219675824Y-43858710D01*
X219675824Y-43196000D01*
X219634923Y-42990375D01*
X219518445Y-42816055D01*
X219344125Y-42699577D01*
X219138500Y-42658676D01*
X218284491Y-42658676D01*
X218186000Y-42639085D01*
X218087509Y-42658676D01*
X217233500Y-42658676D01*
X217027875Y-42699577D01*
X216853555Y-42816055D01*
X216737077Y-42990375D01*
X216728921Y-43031380D01*
X216512924Y-42820027D01*
X216018980Y-42605437D01*
X215773000Y-42725406D01*
X215773000Y-44069000D01*
X215793000Y-44069000D01*
X215793000Y-44323000D01*
X215773000Y-44323000D01*
X215773000Y-45666594D01*
X216018980Y-45786563D01*
X216512924Y-45571973D01*
X216630986Y-45456450D01*
X216629086Y-45466000D01*
X216659000Y-45616389D01*
X216659000Y-45616393D01*
X216747598Y-46061806D01*
X217085095Y-46566905D01*
X217212592Y-46652096D01*
X218015903Y-47455406D01*
X218101095Y-47582905D01*
X218606194Y-47920402D01*
X219051607Y-48009000D01*
X219051611Y-48009000D01*
X219202000Y-48038914D01*
X219352389Y-48009000D01*
X228957613Y-48009000D01*
X229108001Y-48038914D01*
X229258389Y-48009000D01*
X229258393Y-48009000D01*
X229703806Y-47920402D01*
X230208905Y-47582905D01*
X230294096Y-47455408D01*
X231605406Y-46144097D01*
X231732905Y-46058905D01*
X232070402Y-45553806D01*
X232105611Y-45376797D01*
X232305076Y-45571973D01*
X232799020Y-45786563D01*
X233045000Y-45666594D01*
X233045000Y-44323000D01*
X233025000Y-44323000D01*
X233025000Y-44069000D01*
X233045000Y-44069000D01*
X233045000Y-42725406D01*
X232799020Y-42605437D01*
X232305076Y-42820027D01*
X232158999Y-42962963D01*
X232159000Y-41298390D01*
X232188914Y-41148000D01*
X232159000Y-40997611D01*
X232159000Y-40997608D01*
X232070402Y-40552195D01*
X231732905Y-40047095D01*
X231605406Y-39961902D01*
X230294096Y-38650592D01*
X230208905Y-38523095D01*
X229703806Y-38185598D01*
X229258393Y-38097000D01*
X229258389Y-38097000D01*
X229108001Y-38067086D01*
X228957613Y-38097000D01*
X225528607Y-38097000D01*
X225083194Y-38185598D01*
X224578095Y-38523095D01*
X224409000Y-38776163D01*
X224239905Y-38523095D01*
X223734806Y-38185598D01*
X223289393Y-38097000D01*
X219606389Y-38097000D01*
X219456000Y-38067086D01*
X219305611Y-38097000D01*
X219305607Y-38097000D01*
X218860194Y-38185598D01*
X218355095Y-38523095D01*
X218269903Y-38650594D01*
X217559496Y-39361000D01*
X215008503Y-39361000D01*
X214292093Y-38644589D01*
X214206904Y-38517095D01*
X214079410Y-38431906D01*
X214079409Y-38431905D01*
X214079406Y-38431903D01*
X208964094Y-33316589D01*
X208878905Y-33189095D01*
X208751411Y-33103906D01*
X208751409Y-33103904D01*
X208401679Y-32870222D01*
X208373806Y-32851598D01*
X207928393Y-32763000D01*
X207928389Y-32763000D01*
X207778000Y-32733086D01*
X207627611Y-32763000D01*
X204827607Y-32763000D01*
X204382194Y-32851598D01*
X204230920Y-32952676D01*
X204178000Y-32952676D01*
X203972375Y-32993577D01*
X203798055Y-33110055D01*
X203681577Y-33284375D01*
X203640676Y-33490000D01*
X203640676Y-33542920D01*
X203587731Y-33622158D01*
X203394713Y-33333287D01*
X202955770Y-33039994D01*
X202568696Y-32963000D01*
X202307304Y-32963000D01*
X201920230Y-33039994D01*
X201481287Y-33333287D01*
X201187994Y-33772230D01*
X201168000Y-33872746D01*
X201148006Y-33772230D01*
X200854713Y-33333287D01*
X200415770Y-33039994D01*
X200028696Y-32963000D01*
X199767304Y-32963000D01*
X199380230Y-33039994D01*
X198941287Y-33333287D01*
X198647994Y-33772230D01*
X198628000Y-33872746D01*
X198608006Y-33772230D01*
X198314713Y-33333287D01*
X198011999Y-33131020D01*
X198012000Y-29782406D01*
X198024811Y-29718000D01*
X198012000Y-29653594D01*
X198012000Y-29653591D01*
X197974054Y-29462823D01*
X197829507Y-29246493D01*
X197774902Y-29210007D01*
X193039993Y-24475098D01*
X193003507Y-24420493D01*
X192787178Y-24275946D01*
X192596410Y-24238000D01*
X192596407Y-24238000D01*
X192532000Y-24225189D01*
X192467593Y-24238000D01*
X157163406Y-24238000D01*
X157099000Y-24225189D01*
X157034594Y-24238000D01*
X157034590Y-24238000D01*
X156843822Y-24275946D01*
X156627493Y-24420493D01*
X156591007Y-24475098D01*
X155994044Y-25072060D01*
X155853875Y-25014000D01*
X155296125Y-25014000D01*
X154780831Y-25227442D01*
X154386442Y-25621831D01*
X154173000Y-26137125D01*
X154173000Y-26694875D01*
X154386442Y-27210169D01*
X154505273Y-27329000D01*
X154011315Y-27329000D01*
X153431701Y-27569084D01*
X152988084Y-28012701D01*
X152748000Y-28592315D01*
X152748000Y-29219685D01*
X152988084Y-29799299D01*
X153431701Y-30242916D01*
X154011315Y-30483000D01*
X154638685Y-30483000D01*
X155218299Y-30242916D01*
X155661916Y-29799299D01*
X155902000Y-29219685D01*
X155902000Y-28592315D01*
X155661916Y-28012701D01*
X155467215Y-27818000D01*
X155853875Y-27818000D01*
X156369169Y-27604558D01*
X156763558Y-27210169D01*
X156977000Y-26694875D01*
X156977000Y-26137125D01*
X156918940Y-25996956D01*
X157369895Y-25546000D01*
X158974996Y-25546000D01*
X158759047Y-25616884D01*
X158553410Y-26181306D01*
X158579421Y-26781458D01*
X158759047Y-27215116D01*
X159012940Y-27298455D01*
X159895395Y-26416000D01*
X159881252Y-26401857D01*
X160060857Y-26222252D01*
X160075000Y-26236395D01*
X160089142Y-26222252D01*
X160268747Y-26401857D01*
X160254605Y-26416000D01*
X160268747Y-26430142D01*
X160089142Y-26609747D01*
X160075000Y-26595605D01*
X159192545Y-27478060D01*
X159275884Y-27731953D01*
X159840306Y-27937590D01*
X160083746Y-27927039D01*
X159998084Y-28012701D01*
X159758000Y-28592315D01*
X159758000Y-29219685D01*
X159998084Y-29799299D01*
X160441701Y-30242916D01*
X160661597Y-30334000D01*
X156578442Y-30334000D01*
X156464000Y-30311236D01*
X156349558Y-30334000D01*
X156010610Y-30401421D01*
X155626245Y-30658245D01*
X155561416Y-30755269D01*
X154707267Y-31609418D01*
X154610245Y-31674245D01*
X154353421Y-32058610D01*
X154317990Y-32236735D01*
X154263236Y-32512000D01*
X154286000Y-32626442D01*
X154286000Y-33250355D01*
X154171000Y-33527989D01*
X154171000Y-34036011D01*
X154365412Y-34505362D01*
X154724638Y-34864588D01*
X155193989Y-35059000D01*
X155702011Y-35059000D01*
X156171362Y-34864588D01*
X156530588Y-34505362D01*
X156725000Y-34036011D01*
X156725000Y-33527989D01*
X156610000Y-33250355D01*
X156610000Y-32993316D01*
X156945315Y-32658000D01*
X159394083Y-32658000D01*
X159281577Y-32826375D01*
X159240676Y-33032000D01*
X159240676Y-34532000D01*
X159281577Y-34737625D01*
X159398055Y-34911945D01*
X159419241Y-34926101D01*
X159433421Y-34997390D01*
X159669349Y-35350483D01*
X158779912Y-35350483D01*
X158711923Y-35109540D01*
X158192829Y-34924799D01*
X157642552Y-34952770D01*
X157264077Y-35109540D01*
X157196088Y-35350483D01*
X157988000Y-36142395D01*
X158779912Y-35350483D01*
X159669349Y-35350483D01*
X159690245Y-35381755D01*
X159787266Y-35446582D01*
X160867513Y-36526829D01*
X159385201Y-36526829D01*
X159357230Y-35976552D01*
X159200460Y-35598077D01*
X158959517Y-35530088D01*
X158167605Y-36322000D01*
X157808395Y-36322000D01*
X157016483Y-35530088D01*
X156775540Y-35598077D01*
X156590799Y-36117171D01*
X156618770Y-36667448D01*
X156775540Y-37045923D01*
X157016483Y-37113912D01*
X157808395Y-36322000D01*
X158167605Y-36322000D01*
X158959517Y-37113912D01*
X159200460Y-37045923D01*
X159385201Y-36526829D01*
X160867513Y-36526829D01*
X161144000Y-36803315D01*
X161144000Y-36969559D01*
X161121236Y-37084000D01*
X161144000Y-37198442D01*
X161144000Y-37465000D01*
X158731523Y-37465000D01*
X158779912Y-37293517D01*
X157988000Y-36501605D01*
X157196088Y-37293517D01*
X157244477Y-37465000D01*
X149095899Y-37465000D01*
X149095899Y-25565078D01*
X149157227Y-25136840D01*
X149317601Y-24784115D01*
X149570530Y-24490578D01*
X149895674Y-24279830D01*
X150287675Y-24162596D01*
X150492166Y-24147400D01*
X244424229Y-24147400D01*
X244852460Y-24208727D01*
X245205185Y-24369101D01*
X245498722Y-24622030D01*
X245709470Y-24947174D01*
X245826704Y-25339175D01*
X245841900Y-25543666D01*
X245841900Y-27536000D01*
X235493609Y-27536000D01*
X235316887Y-26647559D01*
X234813625Y-25894375D01*
X234060441Y-25391113D01*
X233396264Y-25259000D01*
X232947736Y-25259000D01*
X232283559Y-25391113D01*
X231530375Y-25894375D01*
X231027113Y-26647559D01*
X230850391Y-27536000D01*
X217967609Y-27536000D01*
X217790887Y-26647559D01*
X217287625Y-25894375D01*
X216534441Y-25391113D01*
X215870264Y-25259000D01*
X215421736Y-25259000D01*
X214757559Y-25391113D01*
X214004375Y-25894375D01*
X213501113Y-26647559D01*
X213324391Y-27536000D01*
X213501113Y-28424441D01*
X214004375Y-29177625D01*
X214757559Y-29680887D01*
X215421736Y-29813000D01*
X215870264Y-29813000D01*
X216534441Y-29680887D01*
X217287625Y-29177625D01*
X217790887Y-28424441D01*
X217967609Y-27536000D01*
X230850391Y-27536000D01*
X231027113Y-28424441D01*
X231530375Y-29177625D01*
X232283559Y-29680887D01*
X232947736Y-29813000D01*
X233396264Y-29813000D01*
X234060441Y-29680887D01*
X234813625Y-29177625D01*
X235316887Y-28424441D01*
X235493609Y-27536000D01*
X245841900Y-27536000D01*
X245841900Y-43520400D01*
X245715900Y-43520400D01*
X245605924Y-42826039D01*
X245286761Y-42199647D01*
X244789653Y-41702539D01*
X244163261Y-41383376D01*
X243468900Y-41273400D01*
X242774539Y-41383376D01*
X242148147Y-41702539D01*
X241651039Y-42199647D01*
X241331876Y-42826039D01*
X241221900Y-43520400D01*
X241331876Y-44214761D01*
X241651039Y-44841153D01*
X242148147Y-45338261D01*
X242774539Y-45657424D01*
X243468900Y-45767400D01*
X244163261Y-45657424D01*
X244789653Y-45338261D01*
X245286761Y-44841153D01*
X245605924Y-44214761D01*
X245715900Y-43520400D01*
X245841900Y-43520400D01*
X245841900Y-54082694D01*
X238971590Y-54082694D01*
X238945579Y-53482542D01*
X238765953Y-53048884D01*
X238512060Y-52965545D01*
X237629605Y-53848000D01*
X238512060Y-54730455D01*
X238765953Y-54647116D01*
X238971590Y-54082694D01*
X245841900Y-54082694D01*
X245841900Y-54910060D01*
X238332455Y-54910060D01*
X237450000Y-54027605D01*
X236567545Y-54910060D01*
X236650884Y-55163953D01*
X237215306Y-55369590D01*
X237815458Y-55343579D01*
X238249116Y-55163953D01*
X238332455Y-54910060D01*
X245841900Y-54910060D01*
X245841900Y-55501398D01*
X225825000Y-55501398D01*
X225825000Y-54988602D01*
X225628761Y-54514840D01*
X225266160Y-54152239D01*
X224792398Y-53956000D01*
X224279602Y-53956000D01*
X223805840Y-54152239D01*
X223536000Y-54422079D01*
X223266160Y-54152239D01*
X222792398Y-53956000D01*
X222279602Y-53956000D01*
X222203442Y-53987547D01*
X220249993Y-52034098D01*
X220213507Y-51979493D01*
X219997178Y-51834946D01*
X219806410Y-51797000D01*
X219806407Y-51797000D01*
X219742000Y-51784189D01*
X219677593Y-51797000D01*
X203221976Y-51797000D01*
X203090103Y-51665127D01*
X202749392Y-51524000D01*
X202380608Y-51524000D01*
X202039897Y-51665127D01*
X201779127Y-51925897D01*
X201638000Y-52266608D01*
X201638000Y-52635392D01*
X201779127Y-52976103D01*
X202039897Y-53236873D01*
X202380608Y-53378000D01*
X202749392Y-53378000D01*
X203090103Y-53236873D01*
X203221976Y-53105000D01*
X219471105Y-53105000D01*
X220322105Y-53956000D01*
X220279602Y-53956000D01*
X219805840Y-54152239D01*
X219693292Y-54264787D01*
X219336608Y-54264787D01*
X219267143Y-54022603D01*
X218743698Y-53835856D01*
X218188632Y-53863638D01*
X217804857Y-54022603D01*
X217735392Y-54264787D01*
X218536000Y-55065395D01*
X219336608Y-54264787D01*
X219693292Y-54264787D01*
X219443239Y-54514840D01*
X219441453Y-54519152D01*
X218715605Y-55245000D01*
X218356395Y-55245000D01*
X217555787Y-54444392D01*
X217313603Y-54513857D01*
X217126856Y-55037302D01*
X217150084Y-55501398D01*
X213760000Y-55501398D01*
X213760000Y-54988602D01*
X213563761Y-54514840D01*
X213201160Y-54152239D01*
X212727398Y-53956000D01*
X212214602Y-53956000D01*
X211740840Y-54152239D01*
X211471000Y-54422079D01*
X211201160Y-54152239D01*
X210727398Y-53956000D01*
X210214602Y-53956000D01*
X209740840Y-54152239D01*
X209471000Y-54422079D01*
X209201160Y-54152239D01*
X208727398Y-53956000D01*
X208214602Y-53956000D01*
X207740840Y-54152239D01*
X207628292Y-54264787D01*
X207271608Y-54264787D01*
X207202143Y-54022603D01*
X206678698Y-53835856D01*
X206123632Y-53863638D01*
X205739857Y-54022603D01*
X205670392Y-54264787D01*
X206471000Y-55065395D01*
X207271608Y-54264787D01*
X207628292Y-54264787D01*
X207378239Y-54514840D01*
X207376453Y-54519152D01*
X206650605Y-55245000D01*
X206291395Y-55245000D01*
X205490787Y-54444392D01*
X205248603Y-54513857D01*
X205061856Y-55037302D01*
X205089638Y-55592368D01*
X205248603Y-55976143D01*
X205490787Y-56045608D01*
X206291395Y-55245000D01*
X206650605Y-55245000D01*
X207376453Y-55970848D01*
X207378239Y-55975160D01*
X207628292Y-56225213D01*
X207271608Y-56225213D01*
X206471000Y-55424605D01*
X205670392Y-56225213D01*
X205739857Y-56467397D01*
X206263302Y-56654144D01*
X206818368Y-56626362D01*
X207202143Y-56467397D01*
X207271608Y-56225213D01*
X207628292Y-56225213D01*
X207740840Y-56337761D01*
X208214602Y-56534000D01*
X208727398Y-56534000D01*
X209201160Y-56337761D01*
X209471000Y-56067921D01*
X209740840Y-56337761D01*
X210214602Y-56534000D01*
X210727398Y-56534000D01*
X211201160Y-56337761D01*
X211471000Y-56067921D01*
X211740840Y-56337761D01*
X212214602Y-56534000D01*
X212727398Y-56534000D01*
X213201160Y-56337761D01*
X213563761Y-55975160D01*
X213760000Y-55501398D01*
X217150084Y-55501398D01*
X217154638Y-55592368D01*
X217313603Y-55976143D01*
X217555787Y-56045608D01*
X218356395Y-55245000D01*
X218715605Y-55245000D01*
X219441453Y-55970848D01*
X219443239Y-55975160D01*
X219693292Y-56225213D01*
X219336608Y-56225213D01*
X218536000Y-55424605D01*
X217735392Y-56225213D01*
X217804857Y-56467397D01*
X218328302Y-56654144D01*
X218883368Y-56626362D01*
X219267143Y-56467397D01*
X219336608Y-56225213D01*
X219693292Y-56225213D01*
X219805840Y-56337761D01*
X220279602Y-56534000D01*
X220792398Y-56534000D01*
X221266160Y-56337761D01*
X221536000Y-56067921D01*
X221805840Y-56337761D01*
X222279602Y-56534000D01*
X222792398Y-56534000D01*
X223266160Y-56337761D01*
X223536000Y-56067921D01*
X223805840Y-56337761D01*
X224279602Y-56534000D01*
X224792398Y-56534000D01*
X225266160Y-56337761D01*
X225628761Y-55975160D01*
X225825000Y-55501398D01*
X245841900Y-55501398D01*
X245841900Y-60882777D01*
X194740965Y-60882777D01*
X194713778Y-60312546D01*
X194547864Y-59911995D01*
X194301745Y-59837861D01*
X193473605Y-60666000D01*
X193114395Y-60666000D01*
X192286255Y-59837861D01*
X192040136Y-59911995D01*
X191971496Y-60102961D01*
X189605904Y-60102961D01*
X189445041Y-59714577D01*
X189069134Y-59299611D01*
X188563041Y-59060086D01*
X188341000Y-59181371D01*
X188341000Y-60325000D01*
X189483915Y-60325000D01*
X189605904Y-60102961D01*
X191971496Y-60102961D01*
X191847035Y-60449223D01*
X191863808Y-60801039D01*
X189605904Y-60801039D01*
X189483915Y-60579000D01*
X188341000Y-60579000D01*
X188341000Y-61722629D01*
X188087000Y-61722629D01*
X188087000Y-60579000D01*
X188067000Y-60579000D01*
X188067000Y-60325000D01*
X188087000Y-60325000D01*
X188087000Y-59181371D01*
X187864959Y-59060086D01*
X187358866Y-59299611D01*
X186982959Y-59714577D01*
X186893924Y-59929540D01*
X186798976Y-59700315D01*
X186425685Y-59327024D01*
X185937957Y-59125000D01*
X185410043Y-59125000D01*
X185011699Y-59290000D01*
X183869315Y-59290000D01*
X183274583Y-58695267D01*
X183209755Y-58598245D01*
X182888532Y-58383611D01*
X182848160Y-58343239D01*
X182374398Y-58147000D01*
X181861602Y-58147000D01*
X181387840Y-58343239D01*
X181025239Y-58705840D01*
X180829000Y-59179602D01*
X180829000Y-59692398D01*
X181025239Y-60166160D01*
X181387840Y-60528761D01*
X181861602Y-60725000D01*
X182017684Y-60725000D01*
X182485416Y-61192731D01*
X182550245Y-61289755D01*
X182934610Y-61546579D01*
X183273558Y-61614000D01*
X183388000Y-61636764D01*
X183502442Y-61614000D01*
X185011699Y-61614000D01*
X185410043Y-61779000D01*
X185937957Y-61779000D01*
X186425685Y-61576976D01*
X186798976Y-61203685D01*
X186893924Y-60974460D01*
X186982959Y-61189423D01*
X187358866Y-61604389D01*
X187864959Y-61843914D01*
X188087000Y-61722629D01*
X188341000Y-61722629D01*
X188563041Y-61843914D01*
X189069134Y-61604389D01*
X189445041Y-61189423D01*
X189605904Y-60801039D01*
X191863808Y-60801039D01*
X191874222Y-61019454D01*
X192040136Y-61420005D01*
X192286255Y-61494139D01*
X193114395Y-60666000D01*
X193473605Y-60666000D01*
X194301745Y-61494139D01*
X194547864Y-61420005D01*
X194740965Y-60882777D01*
X245841900Y-60882777D01*
X245841900Y-61475729D01*
X245813542Y-61673745D01*
X194122139Y-61673745D01*
X193294000Y-60845605D01*
X192465861Y-61673745D01*
X192539995Y-61919864D01*
X193077223Y-62112965D01*
X193647454Y-62085778D01*
X194048005Y-61919864D01*
X194122139Y-61673745D01*
X245813542Y-61673745D01*
X245780572Y-61903962D01*
X245620199Y-62256685D01*
X245367270Y-62550222D01*
X245042125Y-62760971D01*
X244650125Y-62878204D01*
X244445635Y-62893400D01*
X180483521Y-62893400D01*
X180670761Y-62706160D01*
G36*
X169999940Y-26835044D02*
X170058000Y-26694875D01*
X170058000Y-26137125D01*
X169844558Y-25621831D01*
X169768727Y-25546000D01*
X172055996Y-25546000D01*
X171840047Y-25616884D01*
X171634410Y-26181306D01*
X171660421Y-26781458D01*
X171840047Y-27215116D01*
X172093940Y-27298455D01*
X172976395Y-26416000D01*
X172962252Y-26401857D01*
X173141857Y-26222252D01*
X173156000Y-26236395D01*
X173170142Y-26222252D01*
X173349747Y-26401857D01*
X173335605Y-26416000D01*
X173349747Y-26430142D01*
X173170142Y-26609747D01*
X173156000Y-26595605D01*
X172273545Y-27478060D01*
X172356884Y-27731953D01*
X172921306Y-27937590D01*
X173164746Y-27927039D01*
X173079084Y-28012701D01*
X172839000Y-28592315D01*
X172839000Y-29219685D01*
X173079084Y-29799299D01*
X173522701Y-30242916D01*
X174102315Y-30483000D01*
X174729685Y-30483000D01*
X175309299Y-30242916D01*
X175752916Y-29799299D01*
X175993000Y-29219685D01*
X175993000Y-28592315D01*
X175752916Y-28012701D01*
X175309299Y-27569084D01*
X174729685Y-27329000D01*
X174248608Y-27329000D01*
X174218062Y-27298454D01*
X174471953Y-27215116D01*
X174677590Y-26650694D01*
X174651579Y-26050542D01*
X174471953Y-25616884D01*
X174256004Y-25546000D01*
X180497273Y-25546000D01*
X180421442Y-25621831D01*
X180208000Y-26137125D01*
X180208000Y-26694875D01*
X180421442Y-27210169D01*
X180540273Y-27329000D01*
X180046315Y-27329000D01*
X179466701Y-27569084D01*
X179023084Y-28012701D01*
X178783000Y-28592315D01*
X178783000Y-29219685D01*
X179023084Y-29799299D01*
X179466701Y-30242916D01*
X180046315Y-30483000D01*
X180673685Y-30483000D01*
X181253299Y-30242916D01*
X181696916Y-29799299D01*
X181937000Y-29219685D01*
X181937000Y-28592315D01*
X181696916Y-28012701D01*
X181502215Y-27818000D01*
X181888875Y-27818000D01*
X182029044Y-27759940D01*
X185365105Y-31096000D01*
X174260895Y-31096000D01*
X169999940Y-26835044D01*
X169999940Y-26835044D01*
G37*
X169999940Y-26835044D02*
X170058000Y-26694875D01*
X170058000Y-26137125D01*
X169844558Y-25621831D01*
X169768727Y-25546000D01*
X172055996Y-25546000D01*
X171840047Y-25616884D01*
X171634410Y-26181306D01*
X171660421Y-26781458D01*
X171840047Y-27215116D01*
X172093940Y-27298455D01*
X172976395Y-26416000D01*
X172962252Y-26401857D01*
X173141857Y-26222252D01*
X173156000Y-26236395D01*
X173170142Y-26222252D01*
X173349747Y-26401857D01*
X173335605Y-26416000D01*
X173349747Y-26430142D01*
X173170142Y-26609747D01*
X173156000Y-26595605D01*
X172273545Y-27478060D01*
X172356884Y-27731953D01*
X172921306Y-27937590D01*
X173164746Y-27927039D01*
X173079084Y-28012701D01*
X172839000Y-28592315D01*
X172839000Y-29219685D01*
X173079084Y-29799299D01*
X173522701Y-30242916D01*
X174102315Y-30483000D01*
X174729685Y-30483000D01*
X175309299Y-30242916D01*
X175752916Y-29799299D01*
X175993000Y-29219685D01*
X175993000Y-28592315D01*
X175752916Y-28012701D01*
X175309299Y-27569084D01*
X174729685Y-27329000D01*
X174248608Y-27329000D01*
X174218062Y-27298454D01*
X174471953Y-27215116D01*
X174677590Y-26650694D01*
X174651579Y-26050542D01*
X174471953Y-25616884D01*
X174256004Y-25546000D01*
X180497273Y-25546000D01*
X180421442Y-25621831D01*
X180208000Y-26137125D01*
X180208000Y-26694875D01*
X180421442Y-27210169D01*
X180540273Y-27329000D01*
X180046315Y-27329000D01*
X179466701Y-27569084D01*
X179023084Y-28012701D01*
X178783000Y-28592315D01*
X178783000Y-29219685D01*
X179023084Y-29799299D01*
X179466701Y-30242916D01*
X180046315Y-30483000D01*
X180673685Y-30483000D01*
X181253299Y-30242916D01*
X181696916Y-29799299D01*
X181937000Y-29219685D01*
X181937000Y-28592315D01*
X181696916Y-28012701D01*
X181502215Y-27818000D01*
X181888875Y-27818000D01*
X182029044Y-27759940D01*
X185365105Y-31096000D01*
X174260895Y-31096000D01*
X169999940Y-26835044D01*
G36*
X182953940Y-26835044D02*
X183012000Y-26694875D01*
X183012000Y-26137125D01*
X182798558Y-25621831D01*
X182722727Y-25546000D01*
X185009996Y-25546000D01*
X184794047Y-25616884D01*
X184588410Y-26181306D01*
X184614421Y-26781458D01*
X184794047Y-27215116D01*
X185047940Y-27298455D01*
X185930395Y-26416000D01*
X185916252Y-26401857D01*
X186095857Y-26222252D01*
X186110000Y-26236395D01*
X186124142Y-26222252D01*
X186303747Y-26401857D01*
X186289605Y-26416000D01*
X186303747Y-26430142D01*
X186124142Y-26609747D01*
X186110000Y-26595605D01*
X185227545Y-27478060D01*
X185310884Y-27731953D01*
X185875306Y-27937590D01*
X186118746Y-27927039D01*
X186033084Y-28012701D01*
X185793000Y-28592315D01*
X185793000Y-29219685D01*
X186033084Y-29799299D01*
X186440785Y-30207000D01*
X186325895Y-30207000D01*
X182953940Y-26835044D01*
X182953940Y-26835044D01*
G37*
X182953940Y-26835044D02*
X183012000Y-26694875D01*
X183012000Y-26137125D01*
X182798558Y-25621831D01*
X182722727Y-25546000D01*
X185009996Y-25546000D01*
X184794047Y-25616884D01*
X184588410Y-26181306D01*
X184614421Y-26781458D01*
X184794047Y-27215116D01*
X185047940Y-27298455D01*
X185930395Y-26416000D01*
X185916252Y-26401857D01*
X186095857Y-26222252D01*
X186110000Y-26236395D01*
X186124142Y-26222252D01*
X186303747Y-26401857D01*
X186289605Y-26416000D01*
X186303747Y-26430142D01*
X186124142Y-26609747D01*
X186110000Y-26595605D01*
X185227545Y-27478060D01*
X185310884Y-27731953D01*
X185875306Y-27937590D01*
X186118746Y-27927039D01*
X186033084Y-28012701D01*
X185793000Y-28592315D01*
X185793000Y-29219685D01*
X186033084Y-29799299D01*
X186440785Y-30207000D01*
X186325895Y-30207000D01*
X182953940Y-26835044D01*
G36*
X178805685Y-52723024D02*
X178317957Y-52521000D01*
X177790043Y-52521000D01*
X177391699Y-52686000D01*
X175995315Y-52686000D01*
X174584922Y-51275606D01*
X174910959Y-51429914D01*
X175133000Y-51308629D01*
X175133000Y-50165000D01*
X175113000Y-50165000D01*
X175113000Y-49911000D01*
X175133000Y-49911000D01*
X175133000Y-49891000D01*
X175387000Y-49891000D01*
X175387000Y-49911000D01*
X176529915Y-49911000D01*
X176651904Y-49688961D01*
X176491041Y-49300577D01*
X176115134Y-48885611D01*
X175797099Y-48735091D01*
X175909480Y-48660000D01*
X176669558Y-48660000D01*
X176784000Y-48682764D01*
X177027132Y-48634402D01*
X177237390Y-48592579D01*
X177621755Y-48335755D01*
X177686583Y-48238733D01*
X179432000Y-46493316D01*
X179432000Y-50387039D01*
X176651904Y-50387039D01*
X176529915Y-50165000D01*
X175387000Y-50165000D01*
X175387000Y-51308629D01*
X175609041Y-51429914D01*
X176115134Y-51190389D01*
X176491041Y-50775423D01*
X176651904Y-50387039D01*
X179432000Y-50387039D01*
X179432000Y-52463191D01*
X179298436Y-52552436D01*
X179032740Y-52950079D01*
X178805685Y-52723024D01*
X178805685Y-52723024D01*
G37*
X178805685Y-52723024D02*
X178317957Y-52521000D01*
X177790043Y-52521000D01*
X177391699Y-52686000D01*
X175995315Y-52686000D01*
X174584922Y-51275606D01*
X174910959Y-51429914D01*
X175133000Y-51308629D01*
X175133000Y-50165000D01*
X175113000Y-50165000D01*
X175113000Y-49911000D01*
X175133000Y-49911000D01*
X175133000Y-49891000D01*
X175387000Y-49891000D01*
X175387000Y-49911000D01*
X176529915Y-49911000D01*
X176651904Y-49688961D01*
X176491041Y-49300577D01*
X176115134Y-48885611D01*
X175797099Y-48735091D01*
X175909480Y-48660000D01*
X176669558Y-48660000D01*
X176784000Y-48682764D01*
X177027132Y-48634402D01*
X177237390Y-48592579D01*
X177621755Y-48335755D01*
X177686583Y-48238733D01*
X179432000Y-46493316D01*
X179432000Y-50387039D01*
X176651904Y-50387039D01*
X176529915Y-50165000D01*
X175387000Y-50165000D01*
X175387000Y-51308629D01*
X175609041Y-51429914D01*
X176115134Y-51190389D01*
X176491041Y-50775423D01*
X176651904Y-50387039D01*
X179432000Y-50387039D01*
X179432000Y-52463191D01*
X179298436Y-52552436D01*
X179032740Y-52950079D01*
X178805685Y-52723024D01*
G36*
X172047803Y-55282197D02*
X172006601Y-55254667D01*
X171958000Y-55245000D01*
X170486606Y-55245000D01*
X169545000Y-54303394D01*
X169545000Y-53594237D01*
X169696613Y-53960264D01*
X169963468Y-54058927D01*
X170936395Y-53086000D01*
X169963468Y-52113073D01*
X169696613Y-52211736D01*
X169545000Y-52619832D01*
X169545000Y-52122606D01*
X172066000Y-49601606D01*
X172066000Y-51447559D01*
X172043236Y-51562001D01*
X172112447Y-51909945D01*
X172088926Y-51933466D01*
X171990264Y-51666613D01*
X171380539Y-51440092D01*
X170730540Y-51464144D01*
X170241736Y-51666613D01*
X170143073Y-51933468D01*
X171116000Y-52906395D01*
X171130142Y-52892252D01*
X171309747Y-53071857D01*
X171295605Y-53086000D01*
X172268532Y-54058927D01*
X172535387Y-53960264D01*
X172761908Y-53350539D01*
X172738418Y-52715734D01*
X174261216Y-54238532D01*
X172088927Y-54238532D01*
X171116000Y-53265605D01*
X170143073Y-54238532D01*
X170241736Y-54505387D01*
X170851461Y-54731908D01*
X171501460Y-54707856D01*
X171990264Y-54505387D01*
X172088927Y-54238532D01*
X174261216Y-54238532D01*
X174611415Y-54588730D01*
X174676245Y-54685755D01*
X175060610Y-54942579D01*
X175399558Y-55010000D01*
X175514000Y-55032764D01*
X175628442Y-55010000D01*
X177391699Y-55010000D01*
X177790043Y-55175000D01*
X178238866Y-55175000D01*
X178044866Y-55369000D01*
X172134606Y-55369000D01*
X172047803Y-55282197D01*
X172047803Y-55282197D01*
G37*
X172047803Y-55282197D02*
X172006601Y-55254667D01*
X171958000Y-55245000D01*
X170486606Y-55245000D01*
X169545000Y-54303394D01*
X169545000Y-53594237D01*
X169696613Y-53960264D01*
X169963468Y-54058927D01*
X170936395Y-53086000D01*
X169963468Y-52113073D01*
X169696613Y-52211736D01*
X169545000Y-52619832D01*
X169545000Y-52122606D01*
X172066000Y-49601606D01*
X172066000Y-51447559D01*
X172043236Y-51562001D01*
X172112447Y-51909945D01*
X172088926Y-51933466D01*
X171990264Y-51666613D01*
X171380539Y-51440092D01*
X170730540Y-51464144D01*
X170241736Y-51666613D01*
X170143073Y-51933468D01*
X171116000Y-52906395D01*
X171130142Y-52892252D01*
X171309747Y-53071857D01*
X171295605Y-53086000D01*
X172268532Y-54058927D01*
X172535387Y-53960264D01*
X172761908Y-53350539D01*
X172738418Y-52715734D01*
X174261216Y-54238532D01*
X172088927Y-54238532D01*
X171116000Y-53265605D01*
X170143073Y-54238532D01*
X170241736Y-54505387D01*
X170851461Y-54731908D01*
X171501460Y-54707856D01*
X171990264Y-54505387D01*
X172088927Y-54238532D01*
X174261216Y-54238532D01*
X174611415Y-54588730D01*
X174676245Y-54685755D01*
X175060610Y-54942579D01*
X175399558Y-55010000D01*
X175514000Y-55032764D01*
X175628442Y-55010000D01*
X177391699Y-55010000D01*
X177790043Y-55175000D01*
X178238866Y-55175000D01*
X178044866Y-55369000D01*
X172134606Y-55369000D01*
X172047803Y-55282197D01*
G04 #@! TD*
M02*
