G04 #@! TF.GenerationSoftware,KiCad,Pcbnew,(5.0.1)-4*
G04 #@! TF.CreationDate,2018-12-21T14:04:30+09:00*
G04 #@! TF.ProjectId,Nixie_Module_PowerSupply_panelized,4E697869655F4D6F64756C655F506F77,rev?*
G04 #@! TF.SameCoordinates,Original*
G04 #@! TF.FileFunction,Profile,NP*
%FSLAX46Y46*%
G04 Gerber Fmt 4.6, Leading zero omitted, Abs format (unit mm)*
G04 Created by KiCad (PCBNEW (5.0.1)-4) date 21/12/2018 14:04:30*
%MOMM*%
%LPD*%
G01*
G04 APERTURE LIST*
%ADD10C,0.150000*%
%ADD11C,0.200000*%
G04 APERTURE END LIST*
D10*
X250952000Y-64262000D02*
X136144000Y-64262000D01*
D11*
X150468900Y-63520400D02*
G75*
G02X148468900Y-61520400I0J2000000D01*
G01*
X150468900Y-23520400D02*
X244468900Y-23520400D01*
X245068900Y-43520400D02*
G75*
G03X245068900Y-43520400I-1600000J0D01*
G01*
X244468900Y-63520400D02*
X150468900Y-63520400D01*
X153068900Y-43520400D02*
G75*
G03X153068900Y-43520400I-1600000J0D01*
G01*
X148468900Y-25520400D02*
G75*
G02X150468900Y-23520400I2000000J0D01*
G01*
X244468900Y-23520400D02*
G75*
G02X246468900Y-25520400I0J-2000000D01*
G01*
X246468900Y-61520400D02*
G75*
G02X244468900Y-63520400I-2000000J0D01*
G01*
X246468900Y-25520400D02*
X246468900Y-61520400D01*
X148468900Y-61520400D02*
X148468900Y-25520400D01*
X245101100Y-85003600D02*
G75*
G03X245101100Y-85003600I-1600000J0D01*
G01*
X153101100Y-85003600D02*
G75*
G03X153101100Y-85003600I-1600000J0D01*
G01*
X150501100Y-105003600D02*
G75*
G02X148501100Y-103003600I0J2000000D01*
G01*
X150501100Y-65003600D02*
X244501100Y-65003600D01*
X246501100Y-67003600D02*
X246501100Y-103003600D01*
X148501100Y-103003600D02*
X148501100Y-67003600D01*
X244501100Y-105003600D02*
X150501100Y-105003600D01*
X246501100Y-103003600D02*
G75*
G02X244501100Y-105003600I-2000000J0D01*
G01*
X244501100Y-65003600D02*
G75*
G02X246501100Y-67003600I0J-2000000D01*
G01*
X148501100Y-67003600D02*
G75*
G02X150501100Y-65003600I2000000J0D01*
G01*
M02*
