G04 #@! TF.GenerationSoftware,KiCad,Pcbnew,(5.0.1)-4*
G04 #@! TF.CreationDate,2018-12-21T14:04:29+09:00*
G04 #@! TF.ProjectId,Nixie_Module_PowerSupply_panelized,4E697869655F4D6F64756C655F506F77,rev?*
G04 #@! TF.SameCoordinates,Original*
G04 #@! TF.FileFunction,Legend,Top*
G04 #@! TF.FilePolarity,Positive*
%FSLAX46Y46*%
G04 Gerber Fmt 4.6, Leading zero omitted, Abs format (unit mm)*
G04 Created by KiCad (PCBNEW (5.0.1)-4) date 21/12/2018 14:04:29*
%MOMM*%
%LPD*%
G01*
G04 APERTURE LIST*
%ADD10C,0.120000*%
%ADD11C,0.150000*%
%ADD12C,0.300000*%
%ADD13C,0.010000*%
%ADD14O,2.000000X2.000000*%
%ADD15C,2.000000*%
%ADD16C,1.924000*%
%ADD17C,2.150000*%
%ADD18R,2.150000X2.150000*%
%ADD19O,3.900000X3.900000*%
%ADD20R,2.305000X2.400000*%
%ADD21O,2.305000X2.400000*%
%ADD22O,2.100000X2.100000*%
%ADD23R,2.100000X2.100000*%
%ADD24R,2.000000X2.000000*%
%ADD25C,2.500000*%
%ADD26O,2.800000X2.800000*%
%ADD27R,2.800000X2.800000*%
%ADD28R,1.900000X1.900000*%
%ADD29C,1.900000*%
%ADD30C,2.800000*%
%ADD31C,2.400000*%
%ADD32R,2.400000X2.400000*%
G04 APERTURE END LIST*
D10*
G04 #@! TO.C,R7*
X186984000Y-60452000D02*
X187114000Y-60452000D01*
X186984000Y-60452000D02*
G75*
G03X186984000Y-60452000I-1310000J0D01*
G01*
D11*
G04 #@! TO.C,J4*
X214471000Y-53645000D02*
X204471000Y-53645000D01*
X204471000Y-53645000D02*
X204471000Y-63445000D01*
X204471000Y-63445000D02*
X214471000Y-63445000D01*
X214471000Y-63445000D02*
X214471000Y-53645000D01*
X214471000Y-56945000D02*
X204471000Y-56945000D01*
D10*
G04 #@! TO.C,J6*
X235250000Y-51748000D02*
X234950000Y-52348000D01*
X234650000Y-51748000D02*
X235250000Y-51748000D01*
X234950000Y-52348000D02*
X234650000Y-51748000D01*
X238850000Y-55898000D02*
X236200000Y-55898000D01*
X238850000Y-51398000D02*
X238850000Y-55898000D01*
X240050000Y-51398000D02*
X238850000Y-51398000D01*
X240050000Y-63198000D02*
X240050000Y-51398000D01*
X236200000Y-63198000D02*
X240050000Y-63198000D01*
X233550000Y-55898000D02*
X236200000Y-55898000D01*
X233550000Y-51398000D02*
X233550000Y-55898000D01*
X232350000Y-51398000D02*
X233550000Y-51398000D01*
X232350000Y-63198000D02*
X232350000Y-51398000D01*
X236200000Y-63198000D02*
X232350000Y-63198000D01*
G04 #@! TO.C,R3*
X170272000Y-32980000D02*
X170272000Y-33310000D01*
X176692000Y-32980000D02*
X170272000Y-32980000D01*
X176692000Y-33310000D02*
X176692000Y-32980000D01*
X170272000Y-35600000D02*
X170272000Y-35270000D01*
X176692000Y-35600000D02*
X170272000Y-35600000D01*
X176692000Y-35270000D02*
X176692000Y-35600000D01*
G04 #@! TO.C,U2*
X220766000Y-40506000D02*
X210526000Y-40506000D01*
X220766000Y-31016000D02*
X210526000Y-31016000D01*
X220766000Y-40506000D02*
X220766000Y-31016000D01*
X210526000Y-40506000D02*
X210526000Y-31016000D01*
X220766000Y-24616000D02*
X219566000Y-24616000D01*
X218367000Y-24616000D02*
X217166000Y-24616000D01*
X215966000Y-24616000D02*
X214766000Y-24616000D01*
X213566000Y-24616000D02*
X212366000Y-24616000D01*
X211166000Y-24616000D02*
X210526000Y-24616000D01*
X220766000Y-30776000D02*
X220766000Y-29576000D01*
X220766000Y-28376000D02*
X220766000Y-27176000D01*
X220766000Y-25976000D02*
X220766000Y-24776000D01*
X210526000Y-30776000D02*
X210526000Y-29576000D01*
X210526000Y-28376000D02*
X210526000Y-27176000D01*
X210526000Y-25976000D02*
X210526000Y-24776000D01*
X218186000Y-43046000D02*
X218186000Y-40506000D01*
X215646000Y-43046000D02*
X215646000Y-40506000D01*
X213106000Y-43046000D02*
X213106000Y-40506000D01*
G04 #@! TO.C,J5*
X223139000Y-43494000D02*
X221809000Y-43494000D01*
X221809000Y-43494000D02*
X221809000Y-42164000D01*
X224409000Y-43494000D02*
X224409000Y-40894000D01*
X224409000Y-40894000D02*
X221809000Y-40894000D01*
X221809000Y-40894000D02*
X221809000Y-38294000D01*
X227009000Y-38294000D02*
X221809000Y-38294000D01*
X227009000Y-43494000D02*
X227009000Y-38294000D01*
X227009000Y-43494000D02*
X224409000Y-43494000D01*
G04 #@! TO.C,J3*
X202625000Y-42164000D02*
X202625000Y-43494000D01*
X202625000Y-43494000D02*
X201295000Y-43494000D01*
X202625000Y-40894000D02*
X200025000Y-40894000D01*
X200025000Y-40894000D02*
X200025000Y-43494000D01*
X200025000Y-43494000D02*
X192345000Y-43494000D01*
X192345000Y-38294000D02*
X192345000Y-43494000D01*
X202625000Y-38294000D02*
X192345000Y-38294000D01*
X202625000Y-38294000D02*
X202625000Y-40894000D01*
D11*
G04 #@! TO.C,R6*
X176278000Y-62936000D02*
X176278000Y-55936000D01*
X182878000Y-62936000D02*
X176278000Y-62936000D01*
X182878000Y-55936000D02*
X182878000Y-62936000D01*
X176278000Y-55936000D02*
X182878000Y-55936000D01*
D10*
G04 #@! TO.C,RN1*
X203708000Y-35690000D02*
X203708000Y-32890000D01*
X188298000Y-35690000D02*
X206418000Y-35690000D01*
X188298000Y-32890000D02*
X188298000Y-35690000D01*
X206418000Y-32890000D02*
X188298000Y-32890000D01*
X206418000Y-35690000D02*
X206418000Y-32890000D01*
G04 #@! TO.C,U3*
X181720000Y-41088000D02*
X180070000Y-41088000D01*
X181720000Y-51368000D02*
X181720000Y-41088000D01*
X176420000Y-51368000D02*
X181720000Y-51368000D01*
X176420000Y-41088000D02*
X176420000Y-51368000D01*
X178070000Y-41088000D02*
X176420000Y-41088000D01*
X180070000Y-41088000D02*
G75*
G02X178070000Y-41088000I-1000000J0D01*
G01*
G04 #@! TO.C,SW2*
X167566000Y-27386000D02*
X167566000Y-27616000D01*
X167046000Y-23716000D02*
X174766000Y-23716000D01*
X174766000Y-23716000D02*
X174766000Y-27616000D01*
X167046000Y-30726000D02*
X167566000Y-30726000D01*
X167046000Y-23716000D02*
X167046000Y-27616000D01*
X174246000Y-27386000D02*
X174246000Y-27616000D01*
X167566000Y-30216000D02*
X167566000Y-30726000D01*
X167046000Y-30216000D02*
X167046000Y-30726000D01*
X173706000Y-27386000D02*
X174246000Y-27386000D01*
X174246000Y-30216000D02*
X174246000Y-30726000D01*
X174246000Y-30726000D02*
X174766000Y-30726000D01*
X174766000Y-30216000D02*
X174766000Y-30726000D01*
X167566000Y-27386000D02*
X168106000Y-27386000D01*
X169206000Y-27386000D02*
X172606000Y-27386000D01*
G04 #@! TO.C,SW1*
X182160000Y-27386000D02*
X185560000Y-27386000D01*
X180520000Y-27386000D02*
X181060000Y-27386000D01*
X187720000Y-30216000D02*
X187720000Y-30726000D01*
X187200000Y-30726000D02*
X187720000Y-30726000D01*
X187200000Y-30216000D02*
X187200000Y-30726000D01*
X186660000Y-27386000D02*
X187200000Y-27386000D01*
X180000000Y-30216000D02*
X180000000Y-30726000D01*
X180520000Y-30216000D02*
X180520000Y-30726000D01*
X187200000Y-27386000D02*
X187200000Y-27616000D01*
X180000000Y-23716000D02*
X180000000Y-27616000D01*
X180000000Y-30726000D02*
X180520000Y-30726000D01*
X187720000Y-23716000D02*
X187720000Y-27616000D01*
X180000000Y-23716000D02*
X187720000Y-23716000D01*
X180520000Y-27386000D02*
X180520000Y-27616000D01*
G04 #@! TO.C,R1*
X187111000Y-48225000D02*
X186781000Y-48225000D01*
X187111000Y-54645000D02*
X187111000Y-48225000D01*
X186781000Y-54645000D02*
X187111000Y-54645000D01*
X184491000Y-48225000D02*
X184821000Y-48225000D01*
X184491000Y-54645000D02*
X184491000Y-48225000D01*
X184821000Y-54645000D02*
X184491000Y-54645000D01*
G04 #@! TO.C,SW3*
X156125000Y-27386000D02*
X159525000Y-27386000D01*
X154485000Y-27386000D02*
X155025000Y-27386000D01*
X161685000Y-30216000D02*
X161685000Y-30726000D01*
X161165000Y-30726000D02*
X161685000Y-30726000D01*
X161165000Y-30216000D02*
X161165000Y-30726000D01*
X160625000Y-27386000D02*
X161165000Y-27386000D01*
X153965000Y-30216000D02*
X153965000Y-30726000D01*
X154485000Y-30216000D02*
X154485000Y-30726000D01*
X161165000Y-27386000D02*
X161165000Y-27616000D01*
X153965000Y-23716000D02*
X153965000Y-27616000D01*
X153965000Y-30726000D02*
X154485000Y-30726000D01*
X161685000Y-23716000D02*
X161685000Y-27616000D01*
X153965000Y-23716000D02*
X161685000Y-23716000D01*
X154485000Y-27386000D02*
X154485000Y-27616000D01*
D11*
G04 #@! TO.C,J1*
X226536000Y-53645000D02*
X216536000Y-53645000D01*
X216536000Y-53645000D02*
X216536000Y-63445000D01*
X216536000Y-63445000D02*
X226536000Y-63445000D01*
X226536000Y-63445000D02*
X226536000Y-53645000D01*
X226536000Y-56945000D02*
X216536000Y-56945000D01*
D10*
G04 #@! TO.C,C1*
X193944000Y-56566000D02*
X192644000Y-56566000D01*
X193294000Y-55966000D02*
X193294000Y-57166000D01*
X193762000Y-62617000D02*
X192826000Y-62617000D01*
X193970000Y-62577000D02*
X192618000Y-62577000D01*
X194128000Y-62537000D02*
X192460000Y-62537000D01*
X194260000Y-62497000D02*
X192328000Y-62497000D01*
X194375000Y-62457000D02*
X192213000Y-62457000D01*
X194478000Y-62417000D02*
X192110000Y-62417000D01*
X194572000Y-62377000D02*
X192016000Y-62377000D01*
X194658000Y-62337000D02*
X191930000Y-62337000D01*
X194739000Y-62297000D02*
X191849000Y-62297000D01*
X194814000Y-62257000D02*
X191774000Y-62257000D01*
X194885000Y-62217000D02*
X191703000Y-62217000D01*
X194952000Y-62177000D02*
X191636000Y-62177000D01*
X195015000Y-62137000D02*
X191573000Y-62137000D01*
X195075000Y-62097000D02*
X191513000Y-62097000D01*
X195133000Y-62057000D02*
X191455000Y-62057000D01*
X195188000Y-62017000D02*
X191400000Y-62017000D01*
X195240000Y-61977000D02*
X191348000Y-61977000D01*
X195291000Y-61937000D02*
X191297000Y-61937000D01*
X195339000Y-61897000D02*
X191249000Y-61897000D01*
X195386000Y-61857000D02*
X191202000Y-61857000D01*
X195431000Y-61817000D02*
X191157000Y-61817000D01*
X195474000Y-61777000D02*
X191114000Y-61777000D01*
X195516000Y-61737000D02*
X191072000Y-61737000D01*
X195556000Y-61697000D02*
X191032000Y-61697000D01*
X195595000Y-61657000D02*
X190993000Y-61657000D01*
X192314000Y-61617000D02*
X190955000Y-61617000D01*
X195633000Y-61617000D02*
X194274000Y-61617000D01*
X192314000Y-61577000D02*
X190919000Y-61577000D01*
X195669000Y-61577000D02*
X194274000Y-61577000D01*
X192314000Y-61537000D02*
X190883000Y-61537000D01*
X195705000Y-61537000D02*
X194274000Y-61537000D01*
X192314000Y-61497000D02*
X190849000Y-61497000D01*
X195739000Y-61497000D02*
X194274000Y-61497000D01*
X192314000Y-61457000D02*
X190816000Y-61457000D01*
X195772000Y-61457000D02*
X194274000Y-61457000D01*
X192314000Y-61417000D02*
X190784000Y-61417000D01*
X195804000Y-61417000D02*
X194274000Y-61417000D01*
X192314000Y-61377000D02*
X190754000Y-61377000D01*
X195834000Y-61377000D02*
X194274000Y-61377000D01*
X192314000Y-61337000D02*
X190724000Y-61337000D01*
X195864000Y-61337000D02*
X194274000Y-61337000D01*
X192314000Y-61297000D02*
X190695000Y-61297000D01*
X195893000Y-61297000D02*
X194274000Y-61297000D01*
X192314000Y-61257000D02*
X190667000Y-61257000D01*
X195921000Y-61257000D02*
X194274000Y-61257000D01*
X192314000Y-61217000D02*
X190640000Y-61217000D01*
X195948000Y-61217000D02*
X194274000Y-61217000D01*
X192314000Y-61177000D02*
X190613000Y-61177000D01*
X195975000Y-61177000D02*
X194274000Y-61177000D01*
X192314000Y-61137000D02*
X190588000Y-61137000D01*
X196000000Y-61137000D02*
X194274000Y-61137000D01*
X192314000Y-61097000D02*
X190563000Y-61097000D01*
X196025000Y-61097000D02*
X194274000Y-61097000D01*
X192314000Y-61057000D02*
X190539000Y-61057000D01*
X196049000Y-61057000D02*
X194274000Y-61057000D01*
X192314000Y-61017000D02*
X190516000Y-61017000D01*
X196072000Y-61017000D02*
X194274000Y-61017000D01*
X192314000Y-60977000D02*
X190494000Y-60977000D01*
X196094000Y-60977000D02*
X194274000Y-60977000D01*
X192314000Y-60937000D02*
X190472000Y-60937000D01*
X196116000Y-60937000D02*
X194274000Y-60937000D01*
X192314000Y-60897000D02*
X190451000Y-60897000D01*
X196137000Y-60897000D02*
X194274000Y-60897000D01*
X192314000Y-60857000D02*
X190431000Y-60857000D01*
X196157000Y-60857000D02*
X194274000Y-60857000D01*
X192314000Y-60817000D02*
X190412000Y-60817000D01*
X196176000Y-60817000D02*
X194274000Y-60817000D01*
X192314000Y-60777000D02*
X190393000Y-60777000D01*
X196195000Y-60777000D02*
X194274000Y-60777000D01*
X192314000Y-60737000D02*
X190375000Y-60737000D01*
X196213000Y-60737000D02*
X194274000Y-60737000D01*
X192314000Y-60697000D02*
X190357000Y-60697000D01*
X196231000Y-60697000D02*
X194274000Y-60697000D01*
X192314000Y-60657000D02*
X190340000Y-60657000D01*
X196248000Y-60657000D02*
X194274000Y-60657000D01*
X192314000Y-60617000D02*
X190324000Y-60617000D01*
X196264000Y-60617000D02*
X194274000Y-60617000D01*
X192314000Y-60577000D02*
X190308000Y-60577000D01*
X196280000Y-60577000D02*
X194274000Y-60577000D01*
X192314000Y-60537000D02*
X190293000Y-60537000D01*
X196295000Y-60537000D02*
X194274000Y-60537000D01*
X192314000Y-60497000D02*
X190279000Y-60497000D01*
X196309000Y-60497000D02*
X194274000Y-60497000D01*
X192314000Y-60457000D02*
X190265000Y-60457000D01*
X196323000Y-60457000D02*
X194274000Y-60457000D01*
X192314000Y-60417000D02*
X190252000Y-60417000D01*
X196336000Y-60417000D02*
X194274000Y-60417000D01*
X192314000Y-60377000D02*
X190239000Y-60377000D01*
X196349000Y-60377000D02*
X194274000Y-60377000D01*
X192314000Y-60337000D02*
X190227000Y-60337000D01*
X196361000Y-60337000D02*
X194274000Y-60337000D01*
X192314000Y-60297000D02*
X190215000Y-60297000D01*
X196373000Y-60297000D02*
X194274000Y-60297000D01*
X192314000Y-60257000D02*
X190204000Y-60257000D01*
X196384000Y-60257000D02*
X194274000Y-60257000D01*
X192314000Y-60217000D02*
X190194000Y-60217000D01*
X196394000Y-60217000D02*
X194274000Y-60217000D01*
X192314000Y-60177000D02*
X190184000Y-60177000D01*
X196404000Y-60177000D02*
X194274000Y-60177000D01*
X192314000Y-60137000D02*
X190175000Y-60137000D01*
X196413000Y-60137000D02*
X194274000Y-60137000D01*
X192314000Y-60096000D02*
X190166000Y-60096000D01*
X196422000Y-60096000D02*
X194274000Y-60096000D01*
X192314000Y-60056000D02*
X190157000Y-60056000D01*
X196431000Y-60056000D02*
X194274000Y-60056000D01*
X192314000Y-60016000D02*
X190150000Y-60016000D01*
X196438000Y-60016000D02*
X194274000Y-60016000D01*
X192314000Y-59976000D02*
X190142000Y-59976000D01*
X196446000Y-59976000D02*
X194274000Y-59976000D01*
X192314000Y-59936000D02*
X190136000Y-59936000D01*
X196452000Y-59936000D02*
X194274000Y-59936000D01*
X192314000Y-59896000D02*
X190129000Y-59896000D01*
X196459000Y-59896000D02*
X194274000Y-59896000D01*
X192314000Y-59856000D02*
X190124000Y-59856000D01*
X196464000Y-59856000D02*
X194274000Y-59856000D01*
X192314000Y-59816000D02*
X190118000Y-59816000D01*
X196470000Y-59816000D02*
X194274000Y-59816000D01*
X192314000Y-59776000D02*
X190114000Y-59776000D01*
X196474000Y-59776000D02*
X194274000Y-59776000D01*
X192314000Y-59736000D02*
X190109000Y-59736000D01*
X196479000Y-59736000D02*
X194274000Y-59736000D01*
X192314000Y-59696000D02*
X190106000Y-59696000D01*
X196482000Y-59696000D02*
X194274000Y-59696000D01*
X196486000Y-59656000D02*
X190102000Y-59656000D01*
X196488000Y-59616000D02*
X190100000Y-59616000D01*
X196491000Y-59576000D02*
X190097000Y-59576000D01*
X196492000Y-59536000D02*
X190096000Y-59536000D01*
X196494000Y-59496000D02*
X190094000Y-59496000D01*
X196494000Y-59456000D02*
X190094000Y-59456000D01*
X196494000Y-59416000D02*
X190094000Y-59416000D01*
X192114864Y-62433820D02*
G75*
G03X194474000Y-62433482I1179136J3017820D01*
G01*
X192114864Y-62433820D02*
G75*
G02X192114000Y-56398518I1179136J3017820D01*
G01*
X194473136Y-62433820D02*
G75*
G03X194474000Y-56398518I-1179136J3017820D01*
G01*
G04 #@! TO.C,U1*
X230632000Y-43046000D02*
X230632000Y-40506000D01*
X233172000Y-43046000D02*
X233172000Y-40506000D01*
X235712000Y-43046000D02*
X235712000Y-40506000D01*
X228052000Y-25976000D02*
X228052000Y-24776000D01*
X228052000Y-28376000D02*
X228052000Y-27176000D01*
X228052000Y-30776000D02*
X228052000Y-29576000D01*
X238292000Y-25976000D02*
X238292000Y-24776000D01*
X238292000Y-28376000D02*
X238292000Y-27176000D01*
X238292000Y-30776000D02*
X238292000Y-29576000D01*
X228692000Y-24616000D02*
X228052000Y-24616000D01*
X231092000Y-24616000D02*
X229892000Y-24616000D01*
X233492000Y-24616000D02*
X232292000Y-24616000D01*
X235893000Y-24616000D02*
X234692000Y-24616000D01*
X238292000Y-24616000D02*
X237092000Y-24616000D01*
X228052000Y-40506000D02*
X228052000Y-31016000D01*
X238292000Y-40506000D02*
X238292000Y-31016000D01*
X238292000Y-31016000D02*
X228052000Y-31016000D01*
X238292000Y-40506000D02*
X228052000Y-40506000D01*
G04 #@! TO.C,Q2*
X159185000Y-47466000D02*
X159185000Y-45956000D01*
X162886000Y-47466000D02*
X162886000Y-45956000D01*
X166156000Y-45956000D02*
X155916000Y-45956000D01*
X155916000Y-47466000D02*
X155916000Y-42825000D01*
X166156000Y-47466000D02*
X166156000Y-42825000D01*
X166156000Y-42825000D02*
X155916000Y-42825000D01*
X166156000Y-47466000D02*
X155916000Y-47466000D01*
G04 #@! TO.C,R5*
X173776000Y-60960000D02*
G75*
G03X173776000Y-60960000I-1310000J0D01*
G01*
X171156000Y-60960000D02*
X171026000Y-60960000D01*
G04 #@! TO.C,D2*
X163054000Y-42052000D02*
X163054000Y-38212000D01*
X162814000Y-42052000D02*
X162814000Y-38212000D01*
X162934000Y-42052000D02*
X162934000Y-38212000D01*
X156354000Y-38212000D02*
X156354000Y-38692000D01*
X164194000Y-38212000D02*
X156354000Y-38212000D01*
X164194000Y-38692000D02*
X164194000Y-38212000D01*
X156354000Y-42052000D02*
X156354000Y-41572000D01*
X164194000Y-42052000D02*
X156354000Y-42052000D01*
X164194000Y-41572000D02*
X164194000Y-42052000D01*
G04 #@! TO.C,C3*
X179538000Y-38922000D02*
X179538000Y-33802000D01*
X182158000Y-38922000D02*
X182158000Y-33802000D01*
X179538000Y-38922000D02*
X179852000Y-38922000D01*
X181844000Y-38922000D02*
X182158000Y-38922000D01*
X179538000Y-33802000D02*
X179852000Y-33802000D01*
X181844000Y-33802000D02*
X182158000Y-33802000D01*
G04 #@! TO.C,J2*
X169164000Y-43494000D02*
X167834000Y-43494000D01*
X167834000Y-43494000D02*
X167834000Y-42164000D01*
X170434000Y-43494000D02*
X170434000Y-40894000D01*
X170434000Y-40894000D02*
X167834000Y-40894000D01*
X167834000Y-40894000D02*
X167834000Y-38294000D01*
X173034000Y-38294000D02*
X167834000Y-38294000D01*
X173034000Y-43494000D02*
X173034000Y-38294000D01*
X173034000Y-43494000D02*
X170434000Y-43494000D01*
G04 #@! TO.C,D1*
X163218000Y-34032000D02*
X165458000Y-34032000D01*
X163218000Y-33792000D02*
X165458000Y-33792000D01*
X163218000Y-33912000D02*
X165458000Y-33912000D01*
X164338000Y-29742000D02*
X164338000Y-30392000D01*
X164338000Y-35282000D02*
X164338000Y-34632000D01*
X163218000Y-30392000D02*
X163218000Y-34632000D01*
X165458000Y-30392000D02*
X163218000Y-30392000D01*
X165458000Y-34632000D02*
X165458000Y-30392000D01*
X163218000Y-34632000D02*
X165458000Y-34632000D01*
G04 #@! TO.C,R2*
X185674000Y-43728000D02*
X185674000Y-43858000D01*
X186984000Y-42418000D02*
G75*
G03X186984000Y-42418000I-1310000J0D01*
G01*
G04 #@! TO.C,Q1*
X155663816Y-32659205D02*
G75*
G02X156188000Y-31932000I2324184J-1122795D01*
G01*
X155632543Y-34880371D02*
G75*
G03X156878000Y-36132000I2355457J1098371D01*
G01*
X160355199Y-34885842D02*
G75*
G02X159128000Y-36132000I-2367199J1103842D01*
G01*
X160312184Y-32659205D02*
G75*
G03X159788000Y-31932000I-2324184J-1122795D01*
G01*
X159788000Y-31932000D02*
X156188000Y-31932000D01*
G04 #@! TO.C,L1*
X163146000Y-55880000D02*
G75*
G03X163146000Y-55880000I-7190000J0D01*
G01*
G04 #@! TO.C,C5*
X164166000Y-52336000D02*
X164166000Y-53836000D01*
X163416000Y-53086000D02*
X164916000Y-53086000D01*
X173697000Y-52807000D02*
X173697000Y-53365000D01*
X173657000Y-52414000D02*
X173657000Y-53758000D01*
X173617000Y-52173000D02*
X173617000Y-53999000D01*
X173577000Y-51982000D02*
X173577000Y-54190000D01*
X173537000Y-51821000D02*
X173537000Y-54351000D01*
X173497000Y-51679000D02*
X173497000Y-54493000D01*
X173457000Y-51550000D02*
X173457000Y-54622000D01*
X173417000Y-51432000D02*
X173417000Y-54740000D01*
X173377000Y-51323000D02*
X173377000Y-54849000D01*
X173337000Y-51220000D02*
X173337000Y-54952000D01*
X173297000Y-51124000D02*
X173297000Y-55048000D01*
X173257000Y-51033000D02*
X173257000Y-55139000D01*
X173217000Y-50946000D02*
X173217000Y-55226000D01*
X173177000Y-50864000D02*
X173177000Y-55308000D01*
X173137000Y-50785000D02*
X173137000Y-55387000D01*
X173097000Y-50709000D02*
X173097000Y-55463000D01*
X173057000Y-50637000D02*
X173057000Y-55535000D01*
X173017000Y-50567000D02*
X173017000Y-55605000D01*
X172977000Y-50499000D02*
X172977000Y-55673000D01*
X172937000Y-50434000D02*
X172937000Y-55738000D01*
X172897000Y-50371000D02*
X172897000Y-55801000D01*
X172857000Y-50309000D02*
X172857000Y-55863000D01*
X172817000Y-50250000D02*
X172817000Y-55922000D01*
X172777000Y-50192000D02*
X172777000Y-55980000D01*
X172737000Y-50137000D02*
X172737000Y-56035000D01*
X172697000Y-50082000D02*
X172697000Y-56090000D01*
X172657000Y-50029000D02*
X172657000Y-56143000D01*
X172617000Y-49978000D02*
X172617000Y-56194000D01*
X172577000Y-49928000D02*
X172577000Y-56244000D01*
X172537000Y-49879000D02*
X172537000Y-56293000D01*
X172497000Y-49831000D02*
X172497000Y-56341000D01*
X172457000Y-49784000D02*
X172457000Y-56388000D01*
X172417000Y-49739000D02*
X172417000Y-56433000D01*
X172377000Y-49695000D02*
X172377000Y-56477000D01*
X172337000Y-49651000D02*
X172337000Y-56521000D01*
X172297000Y-49609000D02*
X172297000Y-56563000D01*
X172257000Y-54267000D02*
X172257000Y-56604000D01*
X172257000Y-49568000D02*
X172257000Y-51905000D01*
X172217000Y-54267000D02*
X172217000Y-56645000D01*
X172217000Y-49527000D02*
X172217000Y-51905000D01*
X172177000Y-54267000D02*
X172177000Y-56684000D01*
X172177000Y-49488000D02*
X172177000Y-51905000D01*
X172137000Y-54267000D02*
X172137000Y-56723000D01*
X172137000Y-49449000D02*
X172137000Y-51905000D01*
X172097000Y-54267000D02*
X172097000Y-56761000D01*
X172097000Y-49411000D02*
X172097000Y-51905000D01*
X172057000Y-54267000D02*
X172057000Y-56798000D01*
X172057000Y-49374000D02*
X172057000Y-51905000D01*
X172017000Y-54267000D02*
X172017000Y-56834000D01*
X172017000Y-49338000D02*
X172017000Y-51905000D01*
X171977000Y-54267000D02*
X171977000Y-56870000D01*
X171977000Y-49302000D02*
X171977000Y-51905000D01*
X171937000Y-54267000D02*
X171937000Y-56905000D01*
X171937000Y-49267000D02*
X171937000Y-51905000D01*
X171897000Y-54267000D02*
X171897000Y-56939000D01*
X171897000Y-49233000D02*
X171897000Y-51905000D01*
X171857000Y-54267000D02*
X171857000Y-56972000D01*
X171857000Y-49200000D02*
X171857000Y-51905000D01*
X171817000Y-54267000D02*
X171817000Y-57005000D01*
X171817000Y-49167000D02*
X171817000Y-51905000D01*
X171777000Y-54267000D02*
X171777000Y-57037000D01*
X171777000Y-49135000D02*
X171777000Y-51905000D01*
X171737000Y-54267000D02*
X171737000Y-57068000D01*
X171737000Y-49104000D02*
X171737000Y-51905000D01*
X171697000Y-54267000D02*
X171697000Y-57099000D01*
X171697000Y-49073000D02*
X171697000Y-51905000D01*
X171657000Y-54267000D02*
X171657000Y-57129000D01*
X171657000Y-49043000D02*
X171657000Y-51905000D01*
X171617000Y-54267000D02*
X171617000Y-57158000D01*
X171617000Y-49014000D02*
X171617000Y-51905000D01*
X171577000Y-54267000D02*
X171577000Y-57187000D01*
X171577000Y-48985000D02*
X171577000Y-51905000D01*
X171537000Y-54267000D02*
X171537000Y-57216000D01*
X171537000Y-48956000D02*
X171537000Y-51905000D01*
X171497000Y-54267000D02*
X171497000Y-57243000D01*
X171497000Y-48929000D02*
X171497000Y-51905000D01*
X171457000Y-54267000D02*
X171457000Y-57271000D01*
X171457000Y-48901000D02*
X171457000Y-51905000D01*
X171417000Y-54267000D02*
X171417000Y-57297000D01*
X171417000Y-48875000D02*
X171417000Y-51905000D01*
X171377000Y-54267000D02*
X171377000Y-57323000D01*
X171377000Y-48849000D02*
X171377000Y-51905000D01*
X171337000Y-54267000D02*
X171337000Y-57349000D01*
X171337000Y-48823000D02*
X171337000Y-51905000D01*
X171297000Y-54267000D02*
X171297000Y-57374000D01*
X171297000Y-48798000D02*
X171297000Y-51905000D01*
X171257000Y-54267000D02*
X171257000Y-57398000D01*
X171257000Y-48774000D02*
X171257000Y-51905000D01*
X171217000Y-54267000D02*
X171217000Y-57422000D01*
X171217000Y-48750000D02*
X171217000Y-51905000D01*
X171177000Y-54267000D02*
X171177000Y-57446000D01*
X171177000Y-48726000D02*
X171177000Y-51905000D01*
X171137000Y-54267000D02*
X171137000Y-57469000D01*
X171137000Y-48703000D02*
X171137000Y-51905000D01*
X171097000Y-54267000D02*
X171097000Y-57491000D01*
X171097000Y-48681000D02*
X171097000Y-51905000D01*
X171057000Y-54267000D02*
X171057000Y-57514000D01*
X171057000Y-48658000D02*
X171057000Y-51905000D01*
X171017000Y-54267000D02*
X171017000Y-57535000D01*
X171017000Y-48637000D02*
X171017000Y-51905000D01*
X170977000Y-54267000D02*
X170977000Y-57556000D01*
X170977000Y-48616000D02*
X170977000Y-51905000D01*
X170937000Y-54267000D02*
X170937000Y-57577000D01*
X170937000Y-48595000D02*
X170937000Y-51905000D01*
X170897000Y-54267000D02*
X170897000Y-57597000D01*
X170897000Y-48575000D02*
X170897000Y-51905000D01*
X170857000Y-54267000D02*
X170857000Y-57617000D01*
X170857000Y-48555000D02*
X170857000Y-51905000D01*
X170817000Y-54267000D02*
X170817000Y-57636000D01*
X170817000Y-48536000D02*
X170817000Y-51905000D01*
X170777000Y-54267000D02*
X170777000Y-57655000D01*
X170777000Y-48517000D02*
X170777000Y-51905000D01*
X170737000Y-54267000D02*
X170737000Y-57674000D01*
X170737000Y-48498000D02*
X170737000Y-51905000D01*
X170697000Y-54267000D02*
X170697000Y-57692000D01*
X170697000Y-48480000D02*
X170697000Y-51905000D01*
X170657000Y-54267000D02*
X170657000Y-57710000D01*
X170657000Y-48462000D02*
X170657000Y-51905000D01*
X170617000Y-54267000D02*
X170617000Y-57727000D01*
X170617000Y-48445000D02*
X170617000Y-51905000D01*
X170577000Y-54267000D02*
X170577000Y-57744000D01*
X170577000Y-48428000D02*
X170577000Y-51905000D01*
X170537000Y-54267000D02*
X170537000Y-57760000D01*
X170537000Y-48412000D02*
X170537000Y-51905000D01*
X170497000Y-54267000D02*
X170497000Y-57777000D01*
X170497000Y-48395000D02*
X170497000Y-51905000D01*
X170457000Y-54267000D02*
X170457000Y-57792000D01*
X170457000Y-48380000D02*
X170457000Y-51905000D01*
X170417000Y-54267000D02*
X170417000Y-57808000D01*
X170417000Y-48364000D02*
X170417000Y-51905000D01*
X170377000Y-54267000D02*
X170377000Y-57823000D01*
X170377000Y-48349000D02*
X170377000Y-51905000D01*
X170337000Y-54267000D02*
X170337000Y-57837000D01*
X170337000Y-48335000D02*
X170337000Y-51905000D01*
X170297000Y-54267000D02*
X170297000Y-57851000D01*
X170297000Y-48321000D02*
X170297000Y-51905000D01*
X170257000Y-54267000D02*
X170257000Y-57865000D01*
X170257000Y-48307000D02*
X170257000Y-51905000D01*
X170217000Y-54267000D02*
X170217000Y-57878000D01*
X170217000Y-48294000D02*
X170217000Y-51905000D01*
X170177000Y-54267000D02*
X170177000Y-57892000D01*
X170177000Y-48280000D02*
X170177000Y-51905000D01*
X170137000Y-54267000D02*
X170137000Y-57904000D01*
X170137000Y-48268000D02*
X170137000Y-51905000D01*
X170097000Y-54267000D02*
X170097000Y-57917000D01*
X170097000Y-48255000D02*
X170097000Y-51905000D01*
X170057000Y-54267000D02*
X170057000Y-57929000D01*
X170057000Y-48243000D02*
X170057000Y-51905000D01*
X170017000Y-54267000D02*
X170017000Y-57940000D01*
X170017000Y-48232000D02*
X170017000Y-51905000D01*
X169977000Y-54267000D02*
X169977000Y-57951000D01*
X169977000Y-48221000D02*
X169977000Y-51905000D01*
X169937000Y-54267000D02*
X169937000Y-57962000D01*
X169937000Y-48210000D02*
X169937000Y-51905000D01*
X169897000Y-48199000D02*
X169897000Y-57973000D01*
X169857000Y-48189000D02*
X169857000Y-57983000D01*
X169817000Y-48179000D02*
X169817000Y-57993000D01*
X169777000Y-48169000D02*
X169777000Y-58003000D01*
X169737000Y-48160000D02*
X169737000Y-58012000D01*
X169697000Y-48151000D02*
X169697000Y-58021000D01*
X169657000Y-48143000D02*
X169657000Y-58029000D01*
X169617000Y-48135000D02*
X169617000Y-58037000D01*
X169577000Y-48127000D02*
X169577000Y-58045000D01*
X169537000Y-48119000D02*
X169537000Y-58053000D01*
X169497000Y-48112000D02*
X169497000Y-58060000D01*
X169457000Y-48105000D02*
X169457000Y-58067000D01*
X169417000Y-48099000D02*
X169417000Y-58073000D01*
X169377000Y-48093000D02*
X169377000Y-58079000D01*
X169337000Y-48087000D02*
X169337000Y-58085000D01*
X169296000Y-48081000D02*
X169296000Y-58091000D01*
X169256000Y-48076000D02*
X169256000Y-58096000D01*
X169216000Y-48071000D02*
X169216000Y-58101000D01*
X169176000Y-48066000D02*
X169176000Y-58106000D01*
X169136000Y-48062000D02*
X169136000Y-58110000D01*
X169096000Y-48058000D02*
X169096000Y-58114000D01*
X169056000Y-48055000D02*
X169056000Y-58117000D01*
X169016000Y-48051000D02*
X169016000Y-58121000D01*
X168976000Y-48048000D02*
X168976000Y-58124000D01*
X168936000Y-48046000D02*
X168936000Y-58126000D01*
X168896000Y-48043000D02*
X168896000Y-58129000D01*
X168856000Y-48041000D02*
X168856000Y-58131000D01*
X168816000Y-48039000D02*
X168816000Y-58133000D01*
X168776000Y-48038000D02*
X168776000Y-58134000D01*
X168736000Y-48037000D02*
X168736000Y-58135000D01*
X168696000Y-48036000D02*
X168696000Y-58136000D01*
X168656000Y-48036000D02*
X168656000Y-58136000D01*
X168616000Y-48036000D02*
X168616000Y-58136000D01*
X173514437Y-54469264D02*
G75*
G03X173515357Y-51706000I-4898437J1383264D01*
G01*
X173514437Y-54469264D02*
G75*
G02X163716643Y-54466000I-4898437J1383264D01*
G01*
X173514437Y-51702736D02*
G75*
G03X163716643Y-51706000I-4898437J-1383264D01*
G01*
G04 #@! TO.C,R4*
X179364000Y-53848000D02*
G75*
G03X179364000Y-53848000I-1310000J0D01*
G01*
X179364000Y-53848000D02*
X179494000Y-53848000D01*
G04 #@! TO.C,C4*
X188234000Y-54082000D02*
X187920000Y-54082000D01*
X190540000Y-54082000D02*
X190226000Y-54082000D01*
X188234000Y-48962000D02*
X187920000Y-48962000D01*
X190540000Y-48962000D02*
X190226000Y-48962000D01*
X187920000Y-48962000D02*
X187920000Y-54082000D01*
X190540000Y-48962000D02*
X190540000Y-54082000D01*
G04 #@! TO.C,C2*
X190226000Y-41168000D02*
X190540000Y-41168000D01*
X187920000Y-41168000D02*
X188234000Y-41168000D01*
X190226000Y-46288000D02*
X190540000Y-46288000D01*
X187920000Y-46288000D02*
X188234000Y-46288000D01*
X190540000Y-46288000D02*
X190540000Y-41168000D01*
X187920000Y-46288000D02*
X187920000Y-41168000D01*
G04 #@! TO.C,U1*
X156678000Y-88018000D02*
X166918000Y-88018000D01*
X156678000Y-97508000D02*
X166918000Y-97508000D01*
X156678000Y-88018000D02*
X156678000Y-97508000D01*
X166918000Y-88018000D02*
X166918000Y-97508000D01*
X156678000Y-103908000D02*
X157878000Y-103908000D01*
X159077000Y-103908000D02*
X160278000Y-103908000D01*
X161478000Y-103908000D02*
X162678000Y-103908000D01*
X163878000Y-103908000D02*
X165078000Y-103908000D01*
X166278000Y-103908000D02*
X166918000Y-103908000D01*
X156678000Y-97748000D02*
X156678000Y-98948000D01*
X156678000Y-100148000D02*
X156678000Y-101348000D01*
X156678000Y-102548000D02*
X156678000Y-103748000D01*
X166918000Y-97748000D02*
X166918000Y-98948000D01*
X166918000Y-100148000D02*
X166918000Y-101348000D01*
X166918000Y-102548000D02*
X166918000Y-103748000D01*
X159258000Y-85478000D02*
X159258000Y-88018000D01*
X161798000Y-85478000D02*
X161798000Y-88018000D01*
X164338000Y-85478000D02*
X164338000Y-88018000D01*
G04 #@! TO.C,L1*
X246204000Y-72644000D02*
G75*
G03X246204000Y-72644000I-7190000J0D01*
G01*
G04 #@! TO.C,J2*
X221936000Y-85030000D02*
X224536000Y-85030000D01*
X221936000Y-85030000D02*
X221936000Y-90230000D01*
X221936000Y-90230000D02*
X227136000Y-90230000D01*
X227136000Y-87630000D02*
X227136000Y-90230000D01*
X224536000Y-87630000D02*
X227136000Y-87630000D01*
X224536000Y-85030000D02*
X224536000Y-87630000D01*
X227136000Y-85030000D02*
X227136000Y-86360000D01*
X225806000Y-85030000D02*
X227136000Y-85030000D01*
G04 #@! TO.C,C1*
X200496864Y-66090180D02*
G75*
G03X200496000Y-72125482I1179136J-3017820D01*
G01*
X202855136Y-66090180D02*
G75*
G02X202856000Y-72125482I-1179136J-3017820D01*
G01*
X202855136Y-66090180D02*
G75*
G03X200496000Y-66090518I-1179136J-3017820D01*
G01*
X198476000Y-69108000D02*
X204876000Y-69108000D01*
X198476000Y-69068000D02*
X204876000Y-69068000D01*
X198476000Y-69028000D02*
X204876000Y-69028000D01*
X198478000Y-68988000D02*
X204874000Y-68988000D01*
X198479000Y-68948000D02*
X204873000Y-68948000D01*
X198482000Y-68908000D02*
X204870000Y-68908000D01*
X198484000Y-68868000D02*
X204868000Y-68868000D01*
X198488000Y-68828000D02*
X200696000Y-68828000D01*
X202656000Y-68828000D02*
X204864000Y-68828000D01*
X198491000Y-68788000D02*
X200696000Y-68788000D01*
X202656000Y-68788000D02*
X204861000Y-68788000D01*
X198496000Y-68748000D02*
X200696000Y-68748000D01*
X202656000Y-68748000D02*
X204856000Y-68748000D01*
X198500000Y-68708000D02*
X200696000Y-68708000D01*
X202656000Y-68708000D02*
X204852000Y-68708000D01*
X198506000Y-68668000D02*
X200696000Y-68668000D01*
X202656000Y-68668000D02*
X204846000Y-68668000D01*
X198511000Y-68628000D02*
X200696000Y-68628000D01*
X202656000Y-68628000D02*
X204841000Y-68628000D01*
X198518000Y-68588000D02*
X200696000Y-68588000D01*
X202656000Y-68588000D02*
X204834000Y-68588000D01*
X198524000Y-68548000D02*
X200696000Y-68548000D01*
X202656000Y-68548000D02*
X204828000Y-68548000D01*
X198532000Y-68508000D02*
X200696000Y-68508000D01*
X202656000Y-68508000D02*
X204820000Y-68508000D01*
X198539000Y-68468000D02*
X200696000Y-68468000D01*
X202656000Y-68468000D02*
X204813000Y-68468000D01*
X198548000Y-68428000D02*
X200696000Y-68428000D01*
X202656000Y-68428000D02*
X204804000Y-68428000D01*
X198557000Y-68387000D02*
X200696000Y-68387000D01*
X202656000Y-68387000D02*
X204795000Y-68387000D01*
X198566000Y-68347000D02*
X200696000Y-68347000D01*
X202656000Y-68347000D02*
X204786000Y-68347000D01*
X198576000Y-68307000D02*
X200696000Y-68307000D01*
X202656000Y-68307000D02*
X204776000Y-68307000D01*
X198586000Y-68267000D02*
X200696000Y-68267000D01*
X202656000Y-68267000D02*
X204766000Y-68267000D01*
X198597000Y-68227000D02*
X200696000Y-68227000D01*
X202656000Y-68227000D02*
X204755000Y-68227000D01*
X198609000Y-68187000D02*
X200696000Y-68187000D01*
X202656000Y-68187000D02*
X204743000Y-68187000D01*
X198621000Y-68147000D02*
X200696000Y-68147000D01*
X202656000Y-68147000D02*
X204731000Y-68147000D01*
X198634000Y-68107000D02*
X200696000Y-68107000D01*
X202656000Y-68107000D02*
X204718000Y-68107000D01*
X198647000Y-68067000D02*
X200696000Y-68067000D01*
X202656000Y-68067000D02*
X204705000Y-68067000D01*
X198661000Y-68027000D02*
X200696000Y-68027000D01*
X202656000Y-68027000D02*
X204691000Y-68027000D01*
X198675000Y-67987000D02*
X200696000Y-67987000D01*
X202656000Y-67987000D02*
X204677000Y-67987000D01*
X198690000Y-67947000D02*
X200696000Y-67947000D01*
X202656000Y-67947000D02*
X204662000Y-67947000D01*
X198706000Y-67907000D02*
X200696000Y-67907000D01*
X202656000Y-67907000D02*
X204646000Y-67907000D01*
X198722000Y-67867000D02*
X200696000Y-67867000D01*
X202656000Y-67867000D02*
X204630000Y-67867000D01*
X198739000Y-67827000D02*
X200696000Y-67827000D01*
X202656000Y-67827000D02*
X204613000Y-67827000D01*
X198757000Y-67787000D02*
X200696000Y-67787000D01*
X202656000Y-67787000D02*
X204595000Y-67787000D01*
X198775000Y-67747000D02*
X200696000Y-67747000D01*
X202656000Y-67747000D02*
X204577000Y-67747000D01*
X198794000Y-67707000D02*
X200696000Y-67707000D01*
X202656000Y-67707000D02*
X204558000Y-67707000D01*
X198813000Y-67667000D02*
X200696000Y-67667000D01*
X202656000Y-67667000D02*
X204539000Y-67667000D01*
X198833000Y-67627000D02*
X200696000Y-67627000D01*
X202656000Y-67627000D02*
X204519000Y-67627000D01*
X198854000Y-67587000D02*
X200696000Y-67587000D01*
X202656000Y-67587000D02*
X204498000Y-67587000D01*
X198876000Y-67547000D02*
X200696000Y-67547000D01*
X202656000Y-67547000D02*
X204476000Y-67547000D01*
X198898000Y-67507000D02*
X200696000Y-67507000D01*
X202656000Y-67507000D02*
X204454000Y-67507000D01*
X198921000Y-67467000D02*
X200696000Y-67467000D01*
X202656000Y-67467000D02*
X204431000Y-67467000D01*
X198945000Y-67427000D02*
X200696000Y-67427000D01*
X202656000Y-67427000D02*
X204407000Y-67427000D01*
X198970000Y-67387000D02*
X200696000Y-67387000D01*
X202656000Y-67387000D02*
X204382000Y-67387000D01*
X198995000Y-67347000D02*
X200696000Y-67347000D01*
X202656000Y-67347000D02*
X204357000Y-67347000D01*
X199022000Y-67307000D02*
X200696000Y-67307000D01*
X202656000Y-67307000D02*
X204330000Y-67307000D01*
X199049000Y-67267000D02*
X200696000Y-67267000D01*
X202656000Y-67267000D02*
X204303000Y-67267000D01*
X199077000Y-67227000D02*
X200696000Y-67227000D01*
X202656000Y-67227000D02*
X204275000Y-67227000D01*
X199106000Y-67187000D02*
X200696000Y-67187000D01*
X202656000Y-67187000D02*
X204246000Y-67187000D01*
X199136000Y-67147000D02*
X200696000Y-67147000D01*
X202656000Y-67147000D02*
X204216000Y-67147000D01*
X199166000Y-67107000D02*
X200696000Y-67107000D01*
X202656000Y-67107000D02*
X204186000Y-67107000D01*
X199198000Y-67067000D02*
X200696000Y-67067000D01*
X202656000Y-67067000D02*
X204154000Y-67067000D01*
X199231000Y-67027000D02*
X200696000Y-67027000D01*
X202656000Y-67027000D02*
X204121000Y-67027000D01*
X199265000Y-66987000D02*
X200696000Y-66987000D01*
X202656000Y-66987000D02*
X204087000Y-66987000D01*
X199301000Y-66947000D02*
X200696000Y-66947000D01*
X202656000Y-66947000D02*
X204051000Y-66947000D01*
X199337000Y-66907000D02*
X200696000Y-66907000D01*
X202656000Y-66907000D02*
X204015000Y-66907000D01*
X199375000Y-66867000D02*
X203977000Y-66867000D01*
X199414000Y-66827000D02*
X203938000Y-66827000D01*
X199454000Y-66787000D02*
X203898000Y-66787000D01*
X199496000Y-66747000D02*
X203856000Y-66747000D01*
X199539000Y-66707000D02*
X203813000Y-66707000D01*
X199584000Y-66667000D02*
X203768000Y-66667000D01*
X199631000Y-66627000D02*
X203721000Y-66627000D01*
X199679000Y-66587000D02*
X203673000Y-66587000D01*
X199730000Y-66547000D02*
X203622000Y-66547000D01*
X199782000Y-66507000D02*
X203570000Y-66507000D01*
X199837000Y-66467000D02*
X203515000Y-66467000D01*
X199895000Y-66427000D02*
X203457000Y-66427000D01*
X199955000Y-66387000D02*
X203397000Y-66387000D01*
X200018000Y-66347000D02*
X203334000Y-66347000D01*
X200085000Y-66307000D02*
X203267000Y-66307000D01*
X200156000Y-66267000D02*
X203196000Y-66267000D01*
X200231000Y-66227000D02*
X203121000Y-66227000D01*
X200312000Y-66187000D02*
X203040000Y-66187000D01*
X200398000Y-66147000D02*
X202954000Y-66147000D01*
X200492000Y-66107000D02*
X202860000Y-66107000D01*
X200595000Y-66067000D02*
X202757000Y-66067000D01*
X200710000Y-66027000D02*
X202642000Y-66027000D01*
X200842000Y-65987000D02*
X202510000Y-65987000D01*
X201000000Y-65947000D02*
X202352000Y-65947000D01*
X201208000Y-65907000D02*
X202144000Y-65907000D01*
X201676000Y-72558000D02*
X201676000Y-71358000D01*
X201026000Y-71958000D02*
X202326000Y-71958000D01*
G04 #@! TO.C,C2*
X207050000Y-82236000D02*
X207050000Y-87356000D01*
X204430000Y-82236000D02*
X204430000Y-87356000D01*
X207050000Y-82236000D02*
X206736000Y-82236000D01*
X204744000Y-82236000D02*
X204430000Y-82236000D01*
X207050000Y-87356000D02*
X206736000Y-87356000D01*
X204744000Y-87356000D02*
X204430000Y-87356000D01*
G04 #@! TO.C,C3*
X213126000Y-94722000D02*
X212812000Y-94722000D01*
X215432000Y-94722000D02*
X215118000Y-94722000D01*
X213126000Y-89602000D02*
X212812000Y-89602000D01*
X215432000Y-89602000D02*
X215118000Y-89602000D01*
X212812000Y-89602000D02*
X212812000Y-94722000D01*
X215432000Y-89602000D02*
X215432000Y-94722000D01*
G04 #@! TO.C,C4*
X204430000Y-79562000D02*
X204430000Y-74442000D01*
X207050000Y-79562000D02*
X207050000Y-74442000D01*
X204430000Y-79562000D02*
X204744000Y-79562000D01*
X206736000Y-79562000D02*
X207050000Y-79562000D01*
X204430000Y-74442000D02*
X204744000Y-74442000D01*
X206736000Y-74442000D02*
X207050000Y-74442000D01*
G04 #@! TO.C,C5*
X221455563Y-76821264D02*
G75*
G03X231253357Y-76818000I4898437J1383264D01*
G01*
X221455563Y-74054736D02*
G75*
G02X231253357Y-74058000I4898437J-1383264D01*
G01*
X221455563Y-74054736D02*
G75*
G03X221454643Y-76818000I4898437J-1383264D01*
G01*
X226354000Y-80488000D02*
X226354000Y-70388000D01*
X226314000Y-80488000D02*
X226314000Y-70388000D01*
X226274000Y-80488000D02*
X226274000Y-70388000D01*
X226234000Y-80487000D02*
X226234000Y-70389000D01*
X226194000Y-80486000D02*
X226194000Y-70390000D01*
X226154000Y-80485000D02*
X226154000Y-70391000D01*
X226114000Y-80483000D02*
X226114000Y-70393000D01*
X226074000Y-80481000D02*
X226074000Y-70395000D01*
X226034000Y-80478000D02*
X226034000Y-70398000D01*
X225994000Y-80476000D02*
X225994000Y-70400000D01*
X225954000Y-80473000D02*
X225954000Y-70403000D01*
X225914000Y-80469000D02*
X225914000Y-70407000D01*
X225874000Y-80466000D02*
X225874000Y-70410000D01*
X225834000Y-80462000D02*
X225834000Y-70414000D01*
X225794000Y-80458000D02*
X225794000Y-70418000D01*
X225754000Y-80453000D02*
X225754000Y-70423000D01*
X225714000Y-80448000D02*
X225714000Y-70428000D01*
X225674000Y-80443000D02*
X225674000Y-70433000D01*
X225633000Y-80437000D02*
X225633000Y-70439000D01*
X225593000Y-80431000D02*
X225593000Y-70445000D01*
X225553000Y-80425000D02*
X225553000Y-70451000D01*
X225513000Y-80419000D02*
X225513000Y-70457000D01*
X225473000Y-80412000D02*
X225473000Y-70464000D01*
X225433000Y-80405000D02*
X225433000Y-70471000D01*
X225393000Y-80397000D02*
X225393000Y-70479000D01*
X225353000Y-80389000D02*
X225353000Y-70487000D01*
X225313000Y-80381000D02*
X225313000Y-70495000D01*
X225273000Y-80373000D02*
X225273000Y-70503000D01*
X225233000Y-80364000D02*
X225233000Y-70512000D01*
X225193000Y-80355000D02*
X225193000Y-70521000D01*
X225153000Y-80345000D02*
X225153000Y-70531000D01*
X225113000Y-80335000D02*
X225113000Y-70541000D01*
X225073000Y-80325000D02*
X225073000Y-70551000D01*
X225033000Y-80314000D02*
X225033000Y-76619000D01*
X225033000Y-74257000D02*
X225033000Y-70562000D01*
X224993000Y-80303000D02*
X224993000Y-76619000D01*
X224993000Y-74257000D02*
X224993000Y-70573000D01*
X224953000Y-80292000D02*
X224953000Y-76619000D01*
X224953000Y-74257000D02*
X224953000Y-70584000D01*
X224913000Y-80281000D02*
X224913000Y-76619000D01*
X224913000Y-74257000D02*
X224913000Y-70595000D01*
X224873000Y-80269000D02*
X224873000Y-76619000D01*
X224873000Y-74257000D02*
X224873000Y-70607000D01*
X224833000Y-80256000D02*
X224833000Y-76619000D01*
X224833000Y-74257000D02*
X224833000Y-70620000D01*
X224793000Y-80244000D02*
X224793000Y-76619000D01*
X224793000Y-74257000D02*
X224793000Y-70632000D01*
X224753000Y-80230000D02*
X224753000Y-76619000D01*
X224753000Y-74257000D02*
X224753000Y-70646000D01*
X224713000Y-80217000D02*
X224713000Y-76619000D01*
X224713000Y-74257000D02*
X224713000Y-70659000D01*
X224673000Y-80203000D02*
X224673000Y-76619000D01*
X224673000Y-74257000D02*
X224673000Y-70673000D01*
X224633000Y-80189000D02*
X224633000Y-76619000D01*
X224633000Y-74257000D02*
X224633000Y-70687000D01*
X224593000Y-80175000D02*
X224593000Y-76619000D01*
X224593000Y-74257000D02*
X224593000Y-70701000D01*
X224553000Y-80160000D02*
X224553000Y-76619000D01*
X224553000Y-74257000D02*
X224553000Y-70716000D01*
X224513000Y-80144000D02*
X224513000Y-76619000D01*
X224513000Y-74257000D02*
X224513000Y-70732000D01*
X224473000Y-80129000D02*
X224473000Y-76619000D01*
X224473000Y-74257000D02*
X224473000Y-70747000D01*
X224433000Y-80112000D02*
X224433000Y-76619000D01*
X224433000Y-74257000D02*
X224433000Y-70764000D01*
X224393000Y-80096000D02*
X224393000Y-76619000D01*
X224393000Y-74257000D02*
X224393000Y-70780000D01*
X224353000Y-80079000D02*
X224353000Y-76619000D01*
X224353000Y-74257000D02*
X224353000Y-70797000D01*
X224313000Y-80062000D02*
X224313000Y-76619000D01*
X224313000Y-74257000D02*
X224313000Y-70814000D01*
X224273000Y-80044000D02*
X224273000Y-76619000D01*
X224273000Y-74257000D02*
X224273000Y-70832000D01*
X224233000Y-80026000D02*
X224233000Y-76619000D01*
X224233000Y-74257000D02*
X224233000Y-70850000D01*
X224193000Y-80007000D02*
X224193000Y-76619000D01*
X224193000Y-74257000D02*
X224193000Y-70869000D01*
X224153000Y-79988000D02*
X224153000Y-76619000D01*
X224153000Y-74257000D02*
X224153000Y-70888000D01*
X224113000Y-79969000D02*
X224113000Y-76619000D01*
X224113000Y-74257000D02*
X224113000Y-70907000D01*
X224073000Y-79949000D02*
X224073000Y-76619000D01*
X224073000Y-74257000D02*
X224073000Y-70927000D01*
X224033000Y-79929000D02*
X224033000Y-76619000D01*
X224033000Y-74257000D02*
X224033000Y-70947000D01*
X223993000Y-79908000D02*
X223993000Y-76619000D01*
X223993000Y-74257000D02*
X223993000Y-70968000D01*
X223953000Y-79887000D02*
X223953000Y-76619000D01*
X223953000Y-74257000D02*
X223953000Y-70989000D01*
X223913000Y-79866000D02*
X223913000Y-76619000D01*
X223913000Y-74257000D02*
X223913000Y-71010000D01*
X223873000Y-79843000D02*
X223873000Y-76619000D01*
X223873000Y-74257000D02*
X223873000Y-71033000D01*
X223833000Y-79821000D02*
X223833000Y-76619000D01*
X223833000Y-74257000D02*
X223833000Y-71055000D01*
X223793000Y-79798000D02*
X223793000Y-76619000D01*
X223793000Y-74257000D02*
X223793000Y-71078000D01*
X223753000Y-79774000D02*
X223753000Y-76619000D01*
X223753000Y-74257000D02*
X223753000Y-71102000D01*
X223713000Y-79750000D02*
X223713000Y-76619000D01*
X223713000Y-74257000D02*
X223713000Y-71126000D01*
X223673000Y-79726000D02*
X223673000Y-76619000D01*
X223673000Y-74257000D02*
X223673000Y-71150000D01*
X223633000Y-79701000D02*
X223633000Y-76619000D01*
X223633000Y-74257000D02*
X223633000Y-71175000D01*
X223593000Y-79675000D02*
X223593000Y-76619000D01*
X223593000Y-74257000D02*
X223593000Y-71201000D01*
X223553000Y-79649000D02*
X223553000Y-76619000D01*
X223553000Y-74257000D02*
X223553000Y-71227000D01*
X223513000Y-79623000D02*
X223513000Y-76619000D01*
X223513000Y-74257000D02*
X223513000Y-71253000D01*
X223473000Y-79595000D02*
X223473000Y-76619000D01*
X223473000Y-74257000D02*
X223473000Y-71281000D01*
X223433000Y-79568000D02*
X223433000Y-76619000D01*
X223433000Y-74257000D02*
X223433000Y-71308000D01*
X223393000Y-79539000D02*
X223393000Y-76619000D01*
X223393000Y-74257000D02*
X223393000Y-71337000D01*
X223353000Y-79510000D02*
X223353000Y-76619000D01*
X223353000Y-74257000D02*
X223353000Y-71366000D01*
X223313000Y-79481000D02*
X223313000Y-76619000D01*
X223313000Y-74257000D02*
X223313000Y-71395000D01*
X223273000Y-79451000D02*
X223273000Y-76619000D01*
X223273000Y-74257000D02*
X223273000Y-71425000D01*
X223233000Y-79420000D02*
X223233000Y-76619000D01*
X223233000Y-74257000D02*
X223233000Y-71456000D01*
X223193000Y-79389000D02*
X223193000Y-76619000D01*
X223193000Y-74257000D02*
X223193000Y-71487000D01*
X223153000Y-79357000D02*
X223153000Y-76619000D01*
X223153000Y-74257000D02*
X223153000Y-71519000D01*
X223113000Y-79324000D02*
X223113000Y-76619000D01*
X223113000Y-74257000D02*
X223113000Y-71552000D01*
X223073000Y-79291000D02*
X223073000Y-76619000D01*
X223073000Y-74257000D02*
X223073000Y-71585000D01*
X223033000Y-79257000D02*
X223033000Y-76619000D01*
X223033000Y-74257000D02*
X223033000Y-71619000D01*
X222993000Y-79222000D02*
X222993000Y-76619000D01*
X222993000Y-74257000D02*
X222993000Y-71654000D01*
X222953000Y-79186000D02*
X222953000Y-76619000D01*
X222953000Y-74257000D02*
X222953000Y-71690000D01*
X222913000Y-79150000D02*
X222913000Y-76619000D01*
X222913000Y-74257000D02*
X222913000Y-71726000D01*
X222873000Y-79113000D02*
X222873000Y-76619000D01*
X222873000Y-74257000D02*
X222873000Y-71763000D01*
X222833000Y-79075000D02*
X222833000Y-76619000D01*
X222833000Y-74257000D02*
X222833000Y-71801000D01*
X222793000Y-79036000D02*
X222793000Y-76619000D01*
X222793000Y-74257000D02*
X222793000Y-71840000D01*
X222753000Y-78997000D02*
X222753000Y-76619000D01*
X222753000Y-74257000D02*
X222753000Y-71879000D01*
X222713000Y-78956000D02*
X222713000Y-76619000D01*
X222713000Y-74257000D02*
X222713000Y-71920000D01*
X222673000Y-78915000D02*
X222673000Y-71961000D01*
X222633000Y-78873000D02*
X222633000Y-72003000D01*
X222593000Y-78829000D02*
X222593000Y-72047000D01*
X222553000Y-78785000D02*
X222553000Y-72091000D01*
X222513000Y-78740000D02*
X222513000Y-72136000D01*
X222473000Y-78693000D02*
X222473000Y-72183000D01*
X222433000Y-78645000D02*
X222433000Y-72231000D01*
X222393000Y-78596000D02*
X222393000Y-72280000D01*
X222353000Y-78546000D02*
X222353000Y-72330000D01*
X222313000Y-78495000D02*
X222313000Y-72381000D01*
X222273000Y-78442000D02*
X222273000Y-72434000D01*
X222233000Y-78387000D02*
X222233000Y-72489000D01*
X222193000Y-78332000D02*
X222193000Y-72544000D01*
X222153000Y-78274000D02*
X222153000Y-72602000D01*
X222113000Y-78215000D02*
X222113000Y-72661000D01*
X222073000Y-78153000D02*
X222073000Y-72723000D01*
X222033000Y-78090000D02*
X222033000Y-72786000D01*
X221993000Y-78025000D02*
X221993000Y-72851000D01*
X221953000Y-77957000D02*
X221953000Y-72919000D01*
X221913000Y-77887000D02*
X221913000Y-72989000D01*
X221873000Y-77815000D02*
X221873000Y-73061000D01*
X221833000Y-77739000D02*
X221833000Y-73137000D01*
X221793000Y-77660000D02*
X221793000Y-73216000D01*
X221753000Y-77578000D02*
X221753000Y-73298000D01*
X221713000Y-77491000D02*
X221713000Y-73385000D01*
X221673000Y-77400000D02*
X221673000Y-73476000D01*
X221633000Y-77304000D02*
X221633000Y-73572000D01*
X221593000Y-77201000D02*
X221593000Y-73675000D01*
X221553000Y-77092000D02*
X221553000Y-73784000D01*
X221513000Y-76974000D02*
X221513000Y-73902000D01*
X221473000Y-76845000D02*
X221473000Y-74031000D01*
X221433000Y-76703000D02*
X221433000Y-74173000D01*
X221393000Y-76542000D02*
X221393000Y-74334000D01*
X221353000Y-76351000D02*
X221353000Y-74525000D01*
X221313000Y-76110000D02*
X221313000Y-74766000D01*
X221273000Y-75717000D02*
X221273000Y-75159000D01*
X231554000Y-75438000D02*
X230054000Y-75438000D01*
X230804000Y-76188000D02*
X230804000Y-74688000D01*
G04 #@! TO.C,D1*
X231752000Y-93892000D02*
X229512000Y-93892000D01*
X229512000Y-93892000D02*
X229512000Y-98132000D01*
X229512000Y-98132000D02*
X231752000Y-98132000D01*
X231752000Y-98132000D02*
X231752000Y-93892000D01*
X230632000Y-93242000D02*
X230632000Y-93892000D01*
X230632000Y-98782000D02*
X230632000Y-98132000D01*
X231752000Y-94612000D02*
X229512000Y-94612000D01*
X231752000Y-94732000D02*
X229512000Y-94732000D01*
X231752000Y-94492000D02*
X229512000Y-94492000D01*
G04 #@! TO.C,D2*
X230776000Y-86952000D02*
X230776000Y-86472000D01*
X230776000Y-86472000D02*
X238616000Y-86472000D01*
X238616000Y-86472000D02*
X238616000Y-86952000D01*
X230776000Y-89832000D02*
X230776000Y-90312000D01*
X230776000Y-90312000D02*
X238616000Y-90312000D01*
X238616000Y-90312000D02*
X238616000Y-89832000D01*
X232036000Y-86472000D02*
X232036000Y-90312000D01*
X232156000Y-86472000D02*
X232156000Y-90312000D01*
X231916000Y-86472000D02*
X231916000Y-90312000D01*
G04 #@! TO.C,Q1*
X235182000Y-96592000D02*
X238782000Y-96592000D01*
X234657816Y-95864795D02*
G75*
G03X235182000Y-96592000I2324184J1122795D01*
G01*
X234614801Y-93638158D02*
G75*
G02X235842000Y-92392000I2367199J-1103842D01*
G01*
X239337457Y-93643629D02*
G75*
G03X238092000Y-92392000I-2355457J-1098371D01*
G01*
X239306184Y-95864795D02*
G75*
G02X238782000Y-96592000I-2324184J1122795D01*
G01*
G04 #@! TO.C,Q2*
X228814000Y-81058000D02*
X239054000Y-81058000D01*
X228814000Y-85699000D02*
X239054000Y-85699000D01*
X228814000Y-81058000D02*
X228814000Y-85699000D01*
X239054000Y-81058000D02*
X239054000Y-85699000D01*
X228814000Y-82568000D02*
X239054000Y-82568000D01*
X232084000Y-81058000D02*
X232084000Y-82568000D01*
X235785000Y-81058000D02*
X235785000Y-82568000D01*
G04 #@! TO.C,R2*
X210606000Y-86106000D02*
G75*
G03X210606000Y-86106000I-1310000J0D01*
G01*
X209296000Y-84796000D02*
X209296000Y-84666000D01*
G04 #@! TO.C,R4*
X215606000Y-74676000D02*
X215476000Y-74676000D01*
X218226000Y-74676000D02*
G75*
G03X218226000Y-74676000I-1310000J0D01*
G01*
G04 #@! TO.C,R5*
X223814000Y-67564000D02*
X223944000Y-67564000D01*
X223814000Y-67564000D02*
G75*
G03X223814000Y-67564000I-1310000J0D01*
G01*
G04 #@! TO.C,R7*
X210606000Y-68072000D02*
G75*
G03X210606000Y-68072000I-1310000J0D01*
G01*
X207986000Y-68072000D02*
X207856000Y-68072000D01*
G04 #@! TO.C,SW1*
X214450000Y-101138000D02*
X214450000Y-100908000D01*
X214970000Y-104808000D02*
X207250000Y-104808000D01*
X207250000Y-104808000D02*
X207250000Y-100908000D01*
X214970000Y-97798000D02*
X214450000Y-97798000D01*
X214970000Y-104808000D02*
X214970000Y-100908000D01*
X207770000Y-101138000D02*
X207770000Y-100908000D01*
X214450000Y-98308000D02*
X214450000Y-97798000D01*
X214970000Y-98308000D02*
X214970000Y-97798000D01*
X208310000Y-101138000D02*
X207770000Y-101138000D01*
X207770000Y-98308000D02*
X207770000Y-97798000D01*
X207770000Y-97798000D02*
X207250000Y-97798000D01*
X207250000Y-98308000D02*
X207250000Y-97798000D01*
X214450000Y-101138000D02*
X213910000Y-101138000D01*
X212810000Y-101138000D02*
X209410000Y-101138000D01*
G04 #@! TO.C,SW2*
X225764000Y-101138000D02*
X222364000Y-101138000D01*
X227404000Y-101138000D02*
X226864000Y-101138000D01*
X220204000Y-98308000D02*
X220204000Y-97798000D01*
X220724000Y-97798000D02*
X220204000Y-97798000D01*
X220724000Y-98308000D02*
X220724000Y-97798000D01*
X221264000Y-101138000D02*
X220724000Y-101138000D01*
X227924000Y-98308000D02*
X227924000Y-97798000D01*
X227404000Y-98308000D02*
X227404000Y-97798000D01*
X220724000Y-101138000D02*
X220724000Y-100908000D01*
X227924000Y-104808000D02*
X227924000Y-100908000D01*
X227924000Y-97798000D02*
X227404000Y-97798000D01*
X220204000Y-104808000D02*
X220204000Y-100908000D01*
X227924000Y-104808000D02*
X220204000Y-104808000D01*
X227404000Y-101138000D02*
X227404000Y-100908000D01*
G04 #@! TO.C,SW3*
X240485000Y-101138000D02*
X240485000Y-100908000D01*
X241005000Y-104808000D02*
X233285000Y-104808000D01*
X233285000Y-104808000D02*
X233285000Y-100908000D01*
X241005000Y-97798000D02*
X240485000Y-97798000D01*
X241005000Y-104808000D02*
X241005000Y-100908000D01*
X233805000Y-101138000D02*
X233805000Y-100908000D01*
X240485000Y-98308000D02*
X240485000Y-97798000D01*
X241005000Y-98308000D02*
X241005000Y-97798000D01*
X234345000Y-101138000D02*
X233805000Y-101138000D01*
X233805000Y-98308000D02*
X233805000Y-97798000D01*
X233805000Y-97798000D02*
X233285000Y-97798000D01*
X233285000Y-98308000D02*
X233285000Y-97798000D01*
X240485000Y-101138000D02*
X239945000Y-101138000D01*
X238845000Y-101138000D02*
X235445000Y-101138000D01*
G04 #@! TO.C,U3*
X214900000Y-87436000D02*
G75*
G02X216900000Y-87436000I1000000J0D01*
G01*
X216900000Y-87436000D02*
X218550000Y-87436000D01*
X218550000Y-87436000D02*
X218550000Y-77156000D01*
X218550000Y-77156000D02*
X213250000Y-77156000D01*
X213250000Y-77156000D02*
X213250000Y-87436000D01*
X213250000Y-87436000D02*
X214900000Y-87436000D01*
D11*
G04 #@! TO.C,R6*
X218692000Y-72588000D02*
X212092000Y-72588000D01*
X212092000Y-72588000D02*
X212092000Y-65588000D01*
X212092000Y-65588000D02*
X218692000Y-65588000D01*
X218692000Y-65588000D02*
X218692000Y-72588000D01*
D10*
G04 #@! TO.C,RN1*
X188552000Y-92834000D02*
X188552000Y-95634000D01*
X188552000Y-95634000D02*
X206672000Y-95634000D01*
X206672000Y-95634000D02*
X206672000Y-92834000D01*
X206672000Y-92834000D02*
X188552000Y-92834000D01*
X191262000Y-92834000D02*
X191262000Y-95634000D01*
G04 #@! TO.C,J3*
X192345000Y-90230000D02*
X192345000Y-87630000D01*
X192345000Y-90230000D02*
X202625000Y-90230000D01*
X202625000Y-90230000D02*
X202625000Y-85030000D01*
X194945000Y-85030000D02*
X202625000Y-85030000D01*
X194945000Y-87630000D02*
X194945000Y-85030000D01*
X192345000Y-87630000D02*
X194945000Y-87630000D01*
X192345000Y-85030000D02*
X193675000Y-85030000D01*
X192345000Y-86360000D02*
X192345000Y-85030000D01*
D11*
G04 #@! TO.C,J4*
X180499000Y-71579000D02*
X190499000Y-71579000D01*
X180499000Y-65079000D02*
X180499000Y-74879000D01*
X190499000Y-65079000D02*
X180499000Y-65079000D01*
X190499000Y-74879000D02*
X190499000Y-65079000D01*
X180499000Y-74879000D02*
X190499000Y-74879000D01*
D10*
G04 #@! TO.C,J5*
X167961000Y-85030000D02*
X170561000Y-85030000D01*
X167961000Y-85030000D02*
X167961000Y-90230000D01*
X167961000Y-90230000D02*
X173161000Y-90230000D01*
X173161000Y-87630000D02*
X173161000Y-90230000D01*
X170561000Y-87630000D02*
X173161000Y-87630000D01*
X170561000Y-85030000D02*
X170561000Y-87630000D01*
X173161000Y-85030000D02*
X173161000Y-86360000D01*
X171831000Y-85030000D02*
X173161000Y-85030000D01*
D11*
G04 #@! TO.C,J1*
X168434000Y-71579000D02*
X178434000Y-71579000D01*
X168434000Y-65079000D02*
X168434000Y-74879000D01*
X178434000Y-65079000D02*
X168434000Y-65079000D01*
X178434000Y-74879000D02*
X178434000Y-65079000D01*
X168434000Y-74879000D02*
X178434000Y-74879000D01*
D10*
G04 #@! TO.C,R3*
X218278000Y-93254000D02*
X218278000Y-92924000D01*
X218278000Y-92924000D02*
X224698000Y-92924000D01*
X224698000Y-92924000D02*
X224698000Y-93254000D01*
X218278000Y-95214000D02*
X218278000Y-95544000D01*
X218278000Y-95544000D02*
X224698000Y-95544000D01*
X224698000Y-95544000D02*
X224698000Y-95214000D01*
G04 #@! TO.C,U2*
X181864000Y-85478000D02*
X181864000Y-88018000D01*
X179324000Y-85478000D02*
X179324000Y-88018000D01*
X176784000Y-85478000D02*
X176784000Y-88018000D01*
X184444000Y-102548000D02*
X184444000Y-103748000D01*
X184444000Y-100148000D02*
X184444000Y-101348000D01*
X184444000Y-97748000D02*
X184444000Y-98948000D01*
X174204000Y-102548000D02*
X174204000Y-103748000D01*
X174204000Y-100148000D02*
X174204000Y-101348000D01*
X174204000Y-97748000D02*
X174204000Y-98948000D01*
X183804000Y-103908000D02*
X184444000Y-103908000D01*
X181404000Y-103908000D02*
X182604000Y-103908000D01*
X179004000Y-103908000D02*
X180204000Y-103908000D01*
X176603000Y-103908000D02*
X177804000Y-103908000D01*
X174204000Y-103908000D02*
X175404000Y-103908000D01*
X184444000Y-88018000D02*
X184444000Y-97508000D01*
X174204000Y-88018000D02*
X174204000Y-97508000D01*
X174204000Y-97508000D02*
X184444000Y-97508000D01*
X174204000Y-88018000D02*
X184444000Y-88018000D01*
G04 #@! TO.C,J6*
X158770000Y-65326000D02*
X162620000Y-65326000D01*
X162620000Y-65326000D02*
X162620000Y-77126000D01*
X162620000Y-77126000D02*
X161420000Y-77126000D01*
X161420000Y-77126000D02*
X161420000Y-72626000D01*
X161420000Y-72626000D02*
X158770000Y-72626000D01*
X158770000Y-65326000D02*
X154920000Y-65326000D01*
X154920000Y-65326000D02*
X154920000Y-77126000D01*
X154920000Y-77126000D02*
X156120000Y-77126000D01*
X156120000Y-77126000D02*
X156120000Y-72626000D01*
X156120000Y-72626000D02*
X158770000Y-72626000D01*
X160020000Y-76176000D02*
X160320000Y-76776000D01*
X160320000Y-76776000D02*
X159720000Y-76776000D01*
X159720000Y-76776000D02*
X160020000Y-76176000D01*
G04 #@! TO.C,R1*
X210149000Y-73879000D02*
X210479000Y-73879000D01*
X210479000Y-73879000D02*
X210479000Y-80299000D01*
X210479000Y-80299000D02*
X210149000Y-80299000D01*
X208189000Y-73879000D02*
X207859000Y-73879000D01*
X207859000Y-73879000D02*
X207859000Y-80299000D01*
X207859000Y-80299000D02*
X208189000Y-80299000D01*
G04 #@! TO.C,R7*
D11*
X186777333Y-58594380D02*
X186444000Y-58118190D01*
X186205904Y-58594380D02*
X186205904Y-57594380D01*
X186586857Y-57594380D01*
X186682095Y-57642000D01*
X186729714Y-57689619D01*
X186777333Y-57784857D01*
X186777333Y-57927714D01*
X186729714Y-58022952D01*
X186682095Y-58070571D01*
X186586857Y-58118190D01*
X186205904Y-58118190D01*
X187110666Y-57594380D02*
X187777333Y-57594380D01*
X187348761Y-58594380D01*
G04 #@! TO.C,J4*
X209216666Y-52284380D02*
X209216666Y-52998666D01*
X209169047Y-53141523D01*
X209073809Y-53236761D01*
X208930952Y-53284380D01*
X208835714Y-53284380D01*
X210121428Y-52617714D02*
X210121428Y-53284380D01*
X209883333Y-52236761D02*
X209645238Y-52951047D01*
X210264285Y-52951047D01*
G04 #@! TO.C,J6*
X235866666Y-49800380D02*
X235866666Y-50514666D01*
X235819047Y-50657523D01*
X235723809Y-50752761D01*
X235580952Y-50800380D01*
X235485714Y-50800380D01*
X236771428Y-49800380D02*
X236580952Y-49800380D01*
X236485714Y-49848000D01*
X236438095Y-49895619D01*
X236342857Y-50038476D01*
X236295238Y-50228952D01*
X236295238Y-50609904D01*
X236342857Y-50705142D01*
X236390476Y-50752761D01*
X236485714Y-50800380D01*
X236676190Y-50800380D01*
X236771428Y-50752761D01*
X236819047Y-50705142D01*
X236866666Y-50609904D01*
X236866666Y-50371809D01*
X236819047Y-50276571D01*
X236771428Y-50228952D01*
X236676190Y-50181333D01*
X236485714Y-50181333D01*
X236390476Y-50228952D01*
X236342857Y-50276571D01*
X236295238Y-50371809D01*
G04 #@! TO.C,R3*
X173315333Y-37052380D02*
X172982000Y-36576190D01*
X172743904Y-37052380D02*
X172743904Y-36052380D01*
X173124857Y-36052380D01*
X173220095Y-36100000D01*
X173267714Y-36147619D01*
X173315333Y-36242857D01*
X173315333Y-36385714D01*
X173267714Y-36480952D01*
X173220095Y-36528571D01*
X173124857Y-36576190D01*
X172743904Y-36576190D01*
X173648666Y-36052380D02*
X174267714Y-36052380D01*
X173934380Y-36433333D01*
X174077238Y-36433333D01*
X174172476Y-36480952D01*
X174220095Y-36528571D01*
X174267714Y-36623809D01*
X174267714Y-36861904D01*
X174220095Y-36957142D01*
X174172476Y-37004761D01*
X174077238Y-37052380D01*
X173791523Y-37052380D01*
X173696285Y-37004761D01*
X173648666Y-36957142D01*
G04 #@! TO.C,U2*
X209002380Y-26161904D02*
X209811904Y-26161904D01*
X209907142Y-26114285D01*
X209954761Y-26066666D01*
X210002380Y-25971428D01*
X210002380Y-25780952D01*
X209954761Y-25685714D01*
X209907142Y-25638095D01*
X209811904Y-25590476D01*
X209002380Y-25590476D01*
X209097619Y-25161904D02*
X209050000Y-25114285D01*
X209002380Y-25019047D01*
X209002380Y-24780952D01*
X209050000Y-24685714D01*
X209097619Y-24638095D01*
X209192857Y-24590476D01*
X209288095Y-24590476D01*
X209430952Y-24638095D01*
X210002380Y-25209523D01*
X210002380Y-24590476D01*
G04 #@! TO.C,J5*
X224075666Y-44386380D02*
X224075666Y-45100666D01*
X224028047Y-45243523D01*
X223932809Y-45338761D01*
X223789952Y-45386380D01*
X223694714Y-45386380D01*
X225028047Y-44386380D02*
X224551857Y-44386380D01*
X224504238Y-44862571D01*
X224551857Y-44814952D01*
X224647095Y-44767333D01*
X224885190Y-44767333D01*
X224980428Y-44814952D01*
X225028047Y-44862571D01*
X225075666Y-44957809D01*
X225075666Y-45195904D01*
X225028047Y-45291142D01*
X224980428Y-45338761D01*
X224885190Y-45386380D01*
X224647095Y-45386380D01*
X224551857Y-45338761D01*
X224504238Y-45291142D01*
G04 #@! TO.C,J3*
X203517380Y-41227333D02*
X204231666Y-41227333D01*
X204374523Y-41274952D01*
X204469761Y-41370190D01*
X204517380Y-41513047D01*
X204517380Y-41608285D01*
X203517380Y-40846380D02*
X203517380Y-40227333D01*
X203898333Y-40560666D01*
X203898333Y-40417809D01*
X203945952Y-40322571D01*
X203993571Y-40274952D01*
X204088809Y-40227333D01*
X204326904Y-40227333D01*
X204422142Y-40274952D01*
X204469761Y-40322571D01*
X204517380Y-40417809D01*
X204517380Y-40703523D01*
X204469761Y-40798761D01*
X204422142Y-40846380D01*
G04 #@! TO.C,R6*
X175061619Y-57237333D02*
X175537809Y-56904000D01*
X175061619Y-56665904D02*
X176061619Y-56665904D01*
X176061619Y-57046857D01*
X176014000Y-57142095D01*
X175966380Y-57189714D01*
X175871142Y-57237333D01*
X175728285Y-57237333D01*
X175633047Y-57189714D01*
X175585428Y-57142095D01*
X175537809Y-57046857D01*
X175537809Y-56665904D01*
X176061619Y-58094476D02*
X176061619Y-57904000D01*
X176014000Y-57808761D01*
X175966380Y-57761142D01*
X175823523Y-57665904D01*
X175633047Y-57618285D01*
X175252095Y-57618285D01*
X175156857Y-57665904D01*
X175109238Y-57713523D01*
X175061619Y-57808761D01*
X175061619Y-57999238D01*
X175109238Y-58094476D01*
X175156857Y-58142095D01*
X175252095Y-58189714D01*
X175490190Y-58189714D01*
X175585428Y-58142095D01*
X175633047Y-58094476D01*
X175680666Y-57999238D01*
X175680666Y-57808761D01*
X175633047Y-57713523D01*
X175585428Y-57665904D01*
X175490190Y-57618285D01*
G04 #@! TO.C,RN1*
X207970380Y-34980476D02*
X207494190Y-35313809D01*
X207970380Y-35551904D02*
X206970380Y-35551904D01*
X206970380Y-35170952D01*
X207018000Y-35075714D01*
X207065619Y-35028095D01*
X207160857Y-34980476D01*
X207303714Y-34980476D01*
X207398952Y-35028095D01*
X207446571Y-35075714D01*
X207494190Y-35170952D01*
X207494190Y-35551904D01*
X207970380Y-34551904D02*
X206970380Y-34551904D01*
X207970380Y-33980476D01*
X206970380Y-33980476D01*
X207970380Y-32980476D02*
X207970380Y-33551904D01*
X207970380Y-33266190D02*
X206970380Y-33266190D01*
X207113238Y-33361428D01*
X207208476Y-33456666D01*
X207256095Y-33551904D01*
G04 #@! TO.C,U3*
X178308095Y-39540380D02*
X178308095Y-40349904D01*
X178355714Y-40445142D01*
X178403333Y-40492761D01*
X178498571Y-40540380D01*
X178689047Y-40540380D01*
X178784285Y-40492761D01*
X178831904Y-40445142D01*
X178879523Y-40349904D01*
X178879523Y-39540380D01*
X179260476Y-39540380D02*
X179879523Y-39540380D01*
X179546190Y-39921333D01*
X179689047Y-39921333D01*
X179784285Y-39968952D01*
X179831904Y-40016571D01*
X179879523Y-40111809D01*
X179879523Y-40349904D01*
X179831904Y-40445142D01*
X179784285Y-40492761D01*
X179689047Y-40540380D01*
X179403333Y-40540380D01*
X179308095Y-40492761D01*
X179260476Y-40445142D01*
G04 #@! TO.C,SW2*
X169572666Y-28500761D02*
X169715523Y-28548380D01*
X169953619Y-28548380D01*
X170048857Y-28500761D01*
X170096476Y-28453142D01*
X170144095Y-28357904D01*
X170144095Y-28262666D01*
X170096476Y-28167428D01*
X170048857Y-28119809D01*
X169953619Y-28072190D01*
X169763142Y-28024571D01*
X169667904Y-27976952D01*
X169620285Y-27929333D01*
X169572666Y-27834095D01*
X169572666Y-27738857D01*
X169620285Y-27643619D01*
X169667904Y-27596000D01*
X169763142Y-27548380D01*
X170001238Y-27548380D01*
X170144095Y-27596000D01*
X170477428Y-27548380D02*
X170715523Y-28548380D01*
X170906000Y-27834095D01*
X171096476Y-28548380D01*
X171334571Y-27548380D01*
X171667904Y-27643619D02*
X171715523Y-27596000D01*
X171810761Y-27548380D01*
X172048857Y-27548380D01*
X172144095Y-27596000D01*
X172191714Y-27643619D01*
X172239333Y-27738857D01*
X172239333Y-27834095D01*
X172191714Y-27976952D01*
X171620285Y-28548380D01*
X172239333Y-28548380D01*
G04 #@! TO.C,SW1*
X182526666Y-28500761D02*
X182669523Y-28548380D01*
X182907619Y-28548380D01*
X183002857Y-28500761D01*
X183050476Y-28453142D01*
X183098095Y-28357904D01*
X183098095Y-28262666D01*
X183050476Y-28167428D01*
X183002857Y-28119809D01*
X182907619Y-28072190D01*
X182717142Y-28024571D01*
X182621904Y-27976952D01*
X182574285Y-27929333D01*
X182526666Y-27834095D01*
X182526666Y-27738857D01*
X182574285Y-27643619D01*
X182621904Y-27596000D01*
X182717142Y-27548380D01*
X182955238Y-27548380D01*
X183098095Y-27596000D01*
X183431428Y-27548380D02*
X183669523Y-28548380D01*
X183860000Y-27834095D01*
X184050476Y-28548380D01*
X184288571Y-27548380D01*
X185193333Y-28548380D02*
X184621904Y-28548380D01*
X184907619Y-28548380D02*
X184907619Y-27548380D01*
X184812380Y-27691238D01*
X184717142Y-27786476D01*
X184621904Y-27834095D01*
G04 #@! TO.C,R1*
X184094380Y-54014666D02*
X183618190Y-54348000D01*
X184094380Y-54586095D02*
X183094380Y-54586095D01*
X183094380Y-54205142D01*
X183142000Y-54109904D01*
X183189619Y-54062285D01*
X183284857Y-54014666D01*
X183427714Y-54014666D01*
X183522952Y-54062285D01*
X183570571Y-54109904D01*
X183618190Y-54205142D01*
X183618190Y-54586095D01*
X184094380Y-53062285D02*
X184094380Y-53633714D01*
X184094380Y-53348000D02*
X183094380Y-53348000D01*
X183237238Y-53443238D01*
X183332476Y-53538476D01*
X183380095Y-53633714D01*
G04 #@! TO.C,SW3*
X156491666Y-28500761D02*
X156634523Y-28548380D01*
X156872619Y-28548380D01*
X156967857Y-28500761D01*
X157015476Y-28453142D01*
X157063095Y-28357904D01*
X157063095Y-28262666D01*
X157015476Y-28167428D01*
X156967857Y-28119809D01*
X156872619Y-28072190D01*
X156682142Y-28024571D01*
X156586904Y-27976952D01*
X156539285Y-27929333D01*
X156491666Y-27834095D01*
X156491666Y-27738857D01*
X156539285Y-27643619D01*
X156586904Y-27596000D01*
X156682142Y-27548380D01*
X156920238Y-27548380D01*
X157063095Y-27596000D01*
X157396428Y-27548380D02*
X157634523Y-28548380D01*
X157825000Y-27834095D01*
X158015476Y-28548380D01*
X158253571Y-27548380D01*
X158539285Y-27548380D02*
X159158333Y-27548380D01*
X158825000Y-27929333D01*
X158967857Y-27929333D01*
X159063095Y-27976952D01*
X159110714Y-28024571D01*
X159158333Y-28119809D01*
X159158333Y-28357904D01*
X159110714Y-28453142D01*
X159063095Y-28500761D01*
X158967857Y-28548380D01*
X158682142Y-28548380D01*
X158586904Y-28500761D01*
X158539285Y-28453142D01*
G04 #@! TO.C,J1*
X221154666Y-52284380D02*
X221154666Y-52998666D01*
X221107047Y-53141523D01*
X221011809Y-53236761D01*
X220868952Y-53284380D01*
X220773714Y-53284380D01*
X222154666Y-53284380D02*
X221583238Y-53284380D01*
X221868952Y-53284380D02*
X221868952Y-52284380D01*
X221773714Y-52427238D01*
X221678476Y-52522476D01*
X221583238Y-52570095D01*
G04 #@! TO.C,C1*
X198111142Y-59582666D02*
X198158761Y-59630285D01*
X198206380Y-59773142D01*
X198206380Y-59868380D01*
X198158761Y-60011238D01*
X198063523Y-60106476D01*
X197968285Y-60154095D01*
X197777809Y-60201714D01*
X197634952Y-60201714D01*
X197444476Y-60154095D01*
X197349238Y-60106476D01*
X197254000Y-60011238D01*
X197206380Y-59868380D01*
X197206380Y-59773142D01*
X197254000Y-59630285D01*
X197301619Y-59582666D01*
X198206380Y-58630285D02*
X198206380Y-59201714D01*
X198206380Y-58916000D02*
X197206380Y-58916000D01*
X197349238Y-59011238D01*
X197444476Y-59106476D01*
X197492095Y-59201714D01*
G04 #@! TO.C,U1*
X226528380Y-26161904D02*
X227337904Y-26161904D01*
X227433142Y-26114285D01*
X227480761Y-26066666D01*
X227528380Y-25971428D01*
X227528380Y-25780952D01*
X227480761Y-25685714D01*
X227433142Y-25638095D01*
X227337904Y-25590476D01*
X226528380Y-25590476D01*
X227528380Y-24590476D02*
X227528380Y-25161904D01*
X227528380Y-24876190D02*
X226528380Y-24876190D01*
X226671238Y-24971428D01*
X226766476Y-25066666D01*
X226814095Y-25161904D01*
G04 #@! TO.C,Q2*
X160940761Y-49013619D02*
X160845523Y-48966000D01*
X160750285Y-48870761D01*
X160607428Y-48727904D01*
X160512190Y-48680285D01*
X160416952Y-48680285D01*
X160464571Y-48918380D02*
X160369333Y-48870761D01*
X160274095Y-48775523D01*
X160226476Y-48585047D01*
X160226476Y-48251714D01*
X160274095Y-48061238D01*
X160369333Y-47966000D01*
X160464571Y-47918380D01*
X160655047Y-47918380D01*
X160750285Y-47966000D01*
X160845523Y-48061238D01*
X160893142Y-48251714D01*
X160893142Y-48585047D01*
X160845523Y-48775523D01*
X160750285Y-48870761D01*
X160655047Y-48918380D01*
X160464571Y-48918380D01*
X161274095Y-48013619D02*
X161321714Y-47966000D01*
X161416952Y-47918380D01*
X161655047Y-47918380D01*
X161750285Y-47966000D01*
X161797904Y-48013619D01*
X161845523Y-48108857D01*
X161845523Y-48204095D01*
X161797904Y-48346952D01*
X161226476Y-48918380D01*
X161845523Y-48918380D01*
G04 #@! TO.C,R5*
X167473333Y-61412380D02*
X167140000Y-60936190D01*
X166901904Y-61412380D02*
X166901904Y-60412380D01*
X167282857Y-60412380D01*
X167378095Y-60460000D01*
X167425714Y-60507619D01*
X167473333Y-60602857D01*
X167473333Y-60745714D01*
X167425714Y-60840952D01*
X167378095Y-60888571D01*
X167282857Y-60936190D01*
X166901904Y-60936190D01*
X168378095Y-60412380D02*
X167901904Y-60412380D01*
X167854285Y-60888571D01*
X167901904Y-60840952D01*
X167997142Y-60793333D01*
X168235238Y-60793333D01*
X168330476Y-60840952D01*
X168378095Y-60888571D01*
X168425714Y-60983809D01*
X168425714Y-61221904D01*
X168378095Y-61317142D01*
X168330476Y-61364761D01*
X168235238Y-61412380D01*
X167997142Y-61412380D01*
X167901904Y-61364761D01*
X167854285Y-61317142D01*
G04 #@! TO.C,D2*
X153360380Y-39854095D02*
X152360380Y-39854095D01*
X152360380Y-39616000D01*
X152408000Y-39473142D01*
X152503238Y-39377904D01*
X152598476Y-39330285D01*
X152788952Y-39282666D01*
X152931809Y-39282666D01*
X153122285Y-39330285D01*
X153217523Y-39377904D01*
X153312761Y-39473142D01*
X153360380Y-39616000D01*
X153360380Y-39854095D01*
X152455619Y-38901714D02*
X152408000Y-38854095D01*
X152360380Y-38758857D01*
X152360380Y-38520761D01*
X152408000Y-38425523D01*
X152455619Y-38377904D01*
X152550857Y-38330285D01*
X152646095Y-38330285D01*
X152788952Y-38377904D01*
X153360380Y-38949333D01*
X153360380Y-38330285D01*
X166616095Y-42616380D02*
X166616095Y-41616380D01*
X167187523Y-42616380D02*
X166758952Y-42044952D01*
X167187523Y-41616380D02*
X166616095Y-42187809D01*
G04 #@! TO.C,C3*
X183237142Y-36488666D02*
X183284761Y-36536285D01*
X183332380Y-36679142D01*
X183332380Y-36774380D01*
X183284761Y-36917238D01*
X183189523Y-37012476D01*
X183094285Y-37060095D01*
X182903809Y-37107714D01*
X182760952Y-37107714D01*
X182570476Y-37060095D01*
X182475238Y-37012476D01*
X182380000Y-36917238D01*
X182332380Y-36774380D01*
X182332380Y-36679142D01*
X182380000Y-36536285D01*
X182427619Y-36488666D01*
X182332380Y-36155333D02*
X182332380Y-35536285D01*
X182713333Y-35869619D01*
X182713333Y-35726761D01*
X182760952Y-35631523D01*
X182808571Y-35583904D01*
X182903809Y-35536285D01*
X183141904Y-35536285D01*
X183237142Y-35583904D01*
X183284761Y-35631523D01*
X183332380Y-35726761D01*
X183332380Y-36012476D01*
X183284761Y-36107714D01*
X183237142Y-36155333D01*
G04 #@! TO.C,J2*
X170100666Y-44386380D02*
X170100666Y-45100666D01*
X170053047Y-45243523D01*
X169957809Y-45338761D01*
X169814952Y-45386380D01*
X169719714Y-45386380D01*
X170529238Y-44481619D02*
X170576857Y-44434000D01*
X170672095Y-44386380D01*
X170910190Y-44386380D01*
X171005428Y-44434000D01*
X171053047Y-44481619D01*
X171100666Y-44576857D01*
X171100666Y-44672095D01*
X171053047Y-44814952D01*
X170481619Y-45386380D01*
X171100666Y-45386380D01*
G04 #@! TO.C,D1*
X166822380Y-33250095D02*
X165822380Y-33250095D01*
X165822380Y-33012000D01*
X165870000Y-32869142D01*
X165965238Y-32773904D01*
X166060476Y-32726285D01*
X166250952Y-32678666D01*
X166393809Y-32678666D01*
X166584285Y-32726285D01*
X166679523Y-32773904D01*
X166774761Y-32869142D01*
X166822380Y-33012000D01*
X166822380Y-33250095D01*
X166822380Y-31726285D02*
X166822380Y-32297714D01*
X166822380Y-32012000D02*
X165822380Y-32012000D01*
X165965238Y-32107238D01*
X166060476Y-32202476D01*
X166108095Y-32297714D01*
X162990380Y-36583904D02*
X161990380Y-36583904D01*
X162990380Y-36012476D02*
X162418952Y-36441047D01*
X161990380Y-36012476D02*
X162561809Y-36583904D01*
G04 #@! TO.C,R2*
X185507333Y-40584380D02*
X185174000Y-40108190D01*
X184935904Y-40584380D02*
X184935904Y-39584380D01*
X185316857Y-39584380D01*
X185412095Y-39632000D01*
X185459714Y-39679619D01*
X185507333Y-39774857D01*
X185507333Y-39917714D01*
X185459714Y-40012952D01*
X185412095Y-40060571D01*
X185316857Y-40108190D01*
X184935904Y-40108190D01*
X185888285Y-39679619D02*
X185935904Y-39632000D01*
X186031142Y-39584380D01*
X186269238Y-39584380D01*
X186364476Y-39632000D01*
X186412095Y-39679619D01*
X186459714Y-39774857D01*
X186459714Y-39870095D01*
X186412095Y-40012952D01*
X185840666Y-40584380D01*
X186459714Y-40584380D01*
G04 #@! TO.C,Q1*
X155741619Y-36417238D02*
X155694000Y-36512476D01*
X155598761Y-36607714D01*
X155455904Y-36750571D01*
X155408285Y-36845809D01*
X155408285Y-36941047D01*
X155646380Y-36893428D02*
X155598761Y-36988666D01*
X155503523Y-37083904D01*
X155313047Y-37131523D01*
X154979714Y-37131523D01*
X154789238Y-37083904D01*
X154694000Y-36988666D01*
X154646380Y-36893428D01*
X154646380Y-36702952D01*
X154694000Y-36607714D01*
X154789238Y-36512476D01*
X154979714Y-36464857D01*
X155313047Y-36464857D01*
X155503523Y-36512476D01*
X155598761Y-36607714D01*
X155646380Y-36702952D01*
X155646380Y-36893428D01*
X155646380Y-35512476D02*
X155646380Y-36083904D01*
X155646380Y-35798190D02*
X154646380Y-35798190D01*
X154789238Y-35893428D01*
X154884476Y-35988666D01*
X154932095Y-36083904D01*
G04 #@! TO.C,L1*
X149947333Y-49982380D02*
X149471142Y-49982380D01*
X149471142Y-48982380D01*
X150804476Y-49982380D02*
X150233047Y-49982380D01*
X150518761Y-49982380D02*
X150518761Y-48982380D01*
X150423523Y-49125238D01*
X150328285Y-49220476D01*
X150233047Y-49268095D01*
G04 #@! TO.C,C5*
X168449333Y-47133142D02*
X168401714Y-47180761D01*
X168258857Y-47228380D01*
X168163619Y-47228380D01*
X168020761Y-47180761D01*
X167925523Y-47085523D01*
X167877904Y-46990285D01*
X167830285Y-46799809D01*
X167830285Y-46656952D01*
X167877904Y-46466476D01*
X167925523Y-46371238D01*
X168020761Y-46276000D01*
X168163619Y-46228380D01*
X168258857Y-46228380D01*
X168401714Y-46276000D01*
X168449333Y-46323619D01*
X169354095Y-46228380D02*
X168877904Y-46228380D01*
X168830285Y-46704571D01*
X168877904Y-46656952D01*
X168973142Y-46609333D01*
X169211238Y-46609333D01*
X169306476Y-46656952D01*
X169354095Y-46704571D01*
X169401714Y-46799809D01*
X169401714Y-47037904D01*
X169354095Y-47133142D01*
X169306476Y-47180761D01*
X169211238Y-47228380D01*
X168973142Y-47228380D01*
X168877904Y-47180761D01*
X168830285Y-47133142D01*
G04 #@! TO.C,R4*
X175966380Y-54014666D02*
X175490190Y-54348000D01*
X175966380Y-54586095D02*
X174966380Y-54586095D01*
X174966380Y-54205142D01*
X175014000Y-54109904D01*
X175061619Y-54062285D01*
X175156857Y-54014666D01*
X175299714Y-54014666D01*
X175394952Y-54062285D01*
X175442571Y-54109904D01*
X175490190Y-54205142D01*
X175490190Y-54586095D01*
X175299714Y-53157523D02*
X175966380Y-53157523D01*
X174918761Y-53395619D02*
X175633047Y-53633714D01*
X175633047Y-53014666D01*
G04 #@! TO.C,C4*
X191873142Y-51728666D02*
X191920761Y-51776285D01*
X191968380Y-51919142D01*
X191968380Y-52014380D01*
X191920761Y-52157238D01*
X191825523Y-52252476D01*
X191730285Y-52300095D01*
X191539809Y-52347714D01*
X191396952Y-52347714D01*
X191206476Y-52300095D01*
X191111238Y-52252476D01*
X191016000Y-52157238D01*
X190968380Y-52014380D01*
X190968380Y-51919142D01*
X191016000Y-51776285D01*
X191063619Y-51728666D01*
X191301714Y-50871523D02*
X191968380Y-50871523D01*
X190920761Y-51109619D02*
X191635047Y-51347714D01*
X191635047Y-50728666D01*
G04 #@! TO.C,C2*
X191619142Y-44870666D02*
X191666761Y-44918285D01*
X191714380Y-45061142D01*
X191714380Y-45156380D01*
X191666761Y-45299238D01*
X191571523Y-45394476D01*
X191476285Y-45442095D01*
X191285809Y-45489714D01*
X191142952Y-45489714D01*
X190952476Y-45442095D01*
X190857238Y-45394476D01*
X190762000Y-45299238D01*
X190714380Y-45156380D01*
X190714380Y-45061142D01*
X190762000Y-44918285D01*
X190809619Y-44870666D01*
X190809619Y-44489714D02*
X190762000Y-44442095D01*
X190714380Y-44346857D01*
X190714380Y-44108761D01*
X190762000Y-44013523D01*
X190809619Y-43965904D01*
X190904857Y-43918285D01*
X191000095Y-43918285D01*
X191142952Y-43965904D01*
X191714380Y-44537333D01*
X191714380Y-43918285D01*
G04 #@! TO.C,U1*
X167346380Y-103885904D02*
X168155904Y-103885904D01*
X168251142Y-103838285D01*
X168298761Y-103790666D01*
X168346380Y-103695428D01*
X168346380Y-103504952D01*
X168298761Y-103409714D01*
X168251142Y-103362095D01*
X168155904Y-103314476D01*
X167346380Y-103314476D01*
X168346380Y-102314476D02*
X168346380Y-102885904D01*
X168346380Y-102600190D02*
X167346380Y-102600190D01*
X167489238Y-102695428D01*
X167584476Y-102790666D01*
X167632095Y-102885904D01*
G04 #@! TO.C,L1*
X244689333Y-79446380D02*
X244213142Y-79446380D01*
X244213142Y-78446380D01*
X245546476Y-79446380D02*
X244975047Y-79446380D01*
X245260761Y-79446380D02*
X245260761Y-78446380D01*
X245165523Y-78589238D01*
X245070285Y-78684476D01*
X244975047Y-78732095D01*
G04 #@! TO.C,J2*
X224202666Y-83042380D02*
X224202666Y-83756666D01*
X224155047Y-83899523D01*
X224059809Y-83994761D01*
X223916952Y-84042380D01*
X223821714Y-84042380D01*
X224631238Y-83137619D02*
X224678857Y-83090000D01*
X224774095Y-83042380D01*
X225012190Y-83042380D01*
X225107428Y-83090000D01*
X225155047Y-83137619D01*
X225202666Y-83232857D01*
X225202666Y-83328095D01*
X225155047Y-83470952D01*
X224583619Y-84042380D01*
X225202666Y-84042380D01*
G04 #@! TO.C,C1*
X197573142Y-69274666D02*
X197620761Y-69322285D01*
X197668380Y-69465142D01*
X197668380Y-69560380D01*
X197620761Y-69703238D01*
X197525523Y-69798476D01*
X197430285Y-69846095D01*
X197239809Y-69893714D01*
X197096952Y-69893714D01*
X196906476Y-69846095D01*
X196811238Y-69798476D01*
X196716000Y-69703238D01*
X196668380Y-69560380D01*
X196668380Y-69465142D01*
X196716000Y-69322285D01*
X196763619Y-69274666D01*
X197668380Y-68322285D02*
X197668380Y-68893714D01*
X197668380Y-68608000D02*
X196668380Y-68608000D01*
X196811238Y-68703238D01*
X196906476Y-68798476D01*
X196954095Y-68893714D01*
G04 #@! TO.C,C2*
X204065142Y-83986666D02*
X204112761Y-84034285D01*
X204160380Y-84177142D01*
X204160380Y-84272380D01*
X204112761Y-84415238D01*
X204017523Y-84510476D01*
X203922285Y-84558095D01*
X203731809Y-84605714D01*
X203588952Y-84605714D01*
X203398476Y-84558095D01*
X203303238Y-84510476D01*
X203208000Y-84415238D01*
X203160380Y-84272380D01*
X203160380Y-84177142D01*
X203208000Y-84034285D01*
X203255619Y-83986666D01*
X203255619Y-83605714D02*
X203208000Y-83558095D01*
X203160380Y-83462857D01*
X203160380Y-83224761D01*
X203208000Y-83129523D01*
X203255619Y-83081904D01*
X203350857Y-83034285D01*
X203446095Y-83034285D01*
X203588952Y-83081904D01*
X204160380Y-83653333D01*
X204160380Y-83034285D01*
G04 #@! TO.C,C3*
X212447142Y-92368666D02*
X212494761Y-92416285D01*
X212542380Y-92559142D01*
X212542380Y-92654380D01*
X212494761Y-92797238D01*
X212399523Y-92892476D01*
X212304285Y-92940095D01*
X212113809Y-92987714D01*
X211970952Y-92987714D01*
X211780476Y-92940095D01*
X211685238Y-92892476D01*
X211590000Y-92797238D01*
X211542380Y-92654380D01*
X211542380Y-92559142D01*
X211590000Y-92416285D01*
X211637619Y-92368666D01*
X211542380Y-92035333D02*
X211542380Y-91416285D01*
X211923333Y-91749619D01*
X211923333Y-91606761D01*
X211970952Y-91511523D01*
X212018571Y-91463904D01*
X212113809Y-91416285D01*
X212351904Y-91416285D01*
X212447142Y-91463904D01*
X212494761Y-91511523D01*
X212542380Y-91606761D01*
X212542380Y-91892476D01*
X212494761Y-91987714D01*
X212447142Y-92035333D01*
G04 #@! TO.C,C4*
X203811142Y-77128666D02*
X203858761Y-77176285D01*
X203906380Y-77319142D01*
X203906380Y-77414380D01*
X203858761Y-77557238D01*
X203763523Y-77652476D01*
X203668285Y-77700095D01*
X203477809Y-77747714D01*
X203334952Y-77747714D01*
X203144476Y-77700095D01*
X203049238Y-77652476D01*
X202954000Y-77557238D01*
X202906380Y-77414380D01*
X202906380Y-77319142D01*
X202954000Y-77176285D01*
X203001619Y-77128666D01*
X203239714Y-76271523D02*
X203906380Y-76271523D01*
X202858761Y-76509619D02*
X203573047Y-76747714D01*
X203573047Y-76128666D01*
G04 #@! TO.C,C5*
X226187333Y-82105142D02*
X226139714Y-82152761D01*
X225996857Y-82200380D01*
X225901619Y-82200380D01*
X225758761Y-82152761D01*
X225663523Y-82057523D01*
X225615904Y-81962285D01*
X225568285Y-81771809D01*
X225568285Y-81628952D01*
X225615904Y-81438476D01*
X225663523Y-81343238D01*
X225758761Y-81248000D01*
X225901619Y-81200380D01*
X225996857Y-81200380D01*
X226139714Y-81248000D01*
X226187333Y-81295619D01*
X227092095Y-81200380D02*
X226615904Y-81200380D01*
X226568285Y-81676571D01*
X226615904Y-81628952D01*
X226711142Y-81581333D01*
X226949238Y-81581333D01*
X227044476Y-81628952D01*
X227092095Y-81676571D01*
X227139714Y-81771809D01*
X227139714Y-82009904D01*
X227092095Y-82105142D01*
X227044476Y-82152761D01*
X226949238Y-82200380D01*
X226711142Y-82200380D01*
X226615904Y-82152761D01*
X226568285Y-82105142D01*
G04 #@! TO.C,D1*
X229052380Y-96750095D02*
X228052380Y-96750095D01*
X228052380Y-96512000D01*
X228100000Y-96369142D01*
X228195238Y-96273904D01*
X228290476Y-96226285D01*
X228480952Y-96178666D01*
X228623809Y-96178666D01*
X228814285Y-96226285D01*
X228909523Y-96273904D01*
X229004761Y-96369142D01*
X229052380Y-96512000D01*
X229052380Y-96750095D01*
X229052380Y-95226285D02*
X229052380Y-95797714D01*
X229052380Y-95512000D02*
X228052380Y-95512000D01*
X228195238Y-95607238D01*
X228290476Y-95702476D01*
X228338095Y-95797714D01*
X232884380Y-92463904D02*
X231884380Y-92463904D01*
X232884380Y-91892476D02*
X232312952Y-92321047D01*
X231884380Y-91892476D02*
X232455809Y-92463904D01*
G04 #@! TO.C,D2*
X242514380Y-90146095D02*
X241514380Y-90146095D01*
X241514380Y-89908000D01*
X241562000Y-89765142D01*
X241657238Y-89669904D01*
X241752476Y-89622285D01*
X241942952Y-89574666D01*
X242085809Y-89574666D01*
X242276285Y-89622285D01*
X242371523Y-89669904D01*
X242466761Y-89765142D01*
X242514380Y-89908000D01*
X242514380Y-90146095D01*
X241609619Y-89193714D02*
X241562000Y-89146095D01*
X241514380Y-89050857D01*
X241514380Y-88812761D01*
X241562000Y-88717523D01*
X241609619Y-88669904D01*
X241704857Y-88622285D01*
X241800095Y-88622285D01*
X241942952Y-88669904D01*
X242514380Y-89241333D01*
X242514380Y-88622285D01*
X227830095Y-86812380D02*
X227830095Y-85812380D01*
X228401523Y-86812380D02*
X227972952Y-86240952D01*
X228401523Y-85812380D02*
X227830095Y-86383809D01*
G04 #@! TO.C,Q1*
X240323619Y-92297238D02*
X240276000Y-92392476D01*
X240180761Y-92487714D01*
X240037904Y-92630571D01*
X239990285Y-92725809D01*
X239990285Y-92821047D01*
X240228380Y-92773428D02*
X240180761Y-92868666D01*
X240085523Y-92963904D01*
X239895047Y-93011523D01*
X239561714Y-93011523D01*
X239371238Y-92963904D01*
X239276000Y-92868666D01*
X239228380Y-92773428D01*
X239228380Y-92582952D01*
X239276000Y-92487714D01*
X239371238Y-92392476D01*
X239561714Y-92344857D01*
X239895047Y-92344857D01*
X240085523Y-92392476D01*
X240180761Y-92487714D01*
X240228380Y-92582952D01*
X240228380Y-92773428D01*
X240228380Y-91392476D02*
X240228380Y-91963904D01*
X240228380Y-91678190D02*
X239228380Y-91678190D01*
X239371238Y-91773428D01*
X239466476Y-91868666D01*
X239514095Y-91963904D01*
G04 #@! TO.C,Q2*
X233838761Y-80605619D02*
X233743523Y-80558000D01*
X233648285Y-80462761D01*
X233505428Y-80319904D01*
X233410190Y-80272285D01*
X233314952Y-80272285D01*
X233362571Y-80510380D02*
X233267333Y-80462761D01*
X233172095Y-80367523D01*
X233124476Y-80177047D01*
X233124476Y-79843714D01*
X233172095Y-79653238D01*
X233267333Y-79558000D01*
X233362571Y-79510380D01*
X233553047Y-79510380D01*
X233648285Y-79558000D01*
X233743523Y-79653238D01*
X233791142Y-79843714D01*
X233791142Y-80177047D01*
X233743523Y-80367523D01*
X233648285Y-80462761D01*
X233553047Y-80510380D01*
X233362571Y-80510380D01*
X234172095Y-79605619D02*
X234219714Y-79558000D01*
X234314952Y-79510380D01*
X234553047Y-79510380D01*
X234648285Y-79558000D01*
X234695904Y-79605619D01*
X234743523Y-79700857D01*
X234743523Y-79796095D01*
X234695904Y-79938952D01*
X234124476Y-80510380D01*
X234743523Y-80510380D01*
G04 #@! TO.C,R2*
X209129333Y-88844380D02*
X208796000Y-88368190D01*
X208557904Y-88844380D02*
X208557904Y-87844380D01*
X208938857Y-87844380D01*
X209034095Y-87892000D01*
X209081714Y-87939619D01*
X209129333Y-88034857D01*
X209129333Y-88177714D01*
X209081714Y-88272952D01*
X209034095Y-88320571D01*
X208938857Y-88368190D01*
X208557904Y-88368190D01*
X209510285Y-87939619D02*
X209557904Y-87892000D01*
X209653142Y-87844380D01*
X209891238Y-87844380D01*
X209986476Y-87892000D01*
X210034095Y-87939619D01*
X210081714Y-88034857D01*
X210081714Y-88130095D01*
X210034095Y-88272952D01*
X209462666Y-88844380D01*
X210081714Y-88844380D01*
G04 #@! TO.C,R4*
X219908380Y-74842666D02*
X219432190Y-75176000D01*
X219908380Y-75414095D02*
X218908380Y-75414095D01*
X218908380Y-75033142D01*
X218956000Y-74937904D01*
X219003619Y-74890285D01*
X219098857Y-74842666D01*
X219241714Y-74842666D01*
X219336952Y-74890285D01*
X219384571Y-74937904D01*
X219432190Y-75033142D01*
X219432190Y-75414095D01*
X219241714Y-73985523D02*
X219908380Y-73985523D01*
X218860761Y-74223619D02*
X219575047Y-74461714D01*
X219575047Y-73842666D01*
G04 #@! TO.C,R5*
X227163333Y-68016380D02*
X226830000Y-67540190D01*
X226591904Y-68016380D02*
X226591904Y-67016380D01*
X226972857Y-67016380D01*
X227068095Y-67064000D01*
X227115714Y-67111619D01*
X227163333Y-67206857D01*
X227163333Y-67349714D01*
X227115714Y-67444952D01*
X227068095Y-67492571D01*
X226972857Y-67540190D01*
X226591904Y-67540190D01*
X228068095Y-67016380D02*
X227591904Y-67016380D01*
X227544285Y-67492571D01*
X227591904Y-67444952D01*
X227687142Y-67397333D01*
X227925238Y-67397333D01*
X228020476Y-67444952D01*
X228068095Y-67492571D01*
X228115714Y-67587809D01*
X228115714Y-67825904D01*
X228068095Y-67921142D01*
X228020476Y-67968761D01*
X227925238Y-68016380D01*
X227687142Y-68016380D01*
X227591904Y-67968761D01*
X227544285Y-67921142D01*
G04 #@! TO.C,R7*
X207859333Y-70834380D02*
X207526000Y-70358190D01*
X207287904Y-70834380D02*
X207287904Y-69834380D01*
X207668857Y-69834380D01*
X207764095Y-69882000D01*
X207811714Y-69929619D01*
X207859333Y-70024857D01*
X207859333Y-70167714D01*
X207811714Y-70262952D01*
X207764095Y-70310571D01*
X207668857Y-70358190D01*
X207287904Y-70358190D01*
X208192666Y-69834380D02*
X208859333Y-69834380D01*
X208430761Y-70834380D01*
G04 #@! TO.C,SW1*
X209776666Y-100832761D02*
X209919523Y-100880380D01*
X210157619Y-100880380D01*
X210252857Y-100832761D01*
X210300476Y-100785142D01*
X210348095Y-100689904D01*
X210348095Y-100594666D01*
X210300476Y-100499428D01*
X210252857Y-100451809D01*
X210157619Y-100404190D01*
X209967142Y-100356571D01*
X209871904Y-100308952D01*
X209824285Y-100261333D01*
X209776666Y-100166095D01*
X209776666Y-100070857D01*
X209824285Y-99975619D01*
X209871904Y-99928000D01*
X209967142Y-99880380D01*
X210205238Y-99880380D01*
X210348095Y-99928000D01*
X210681428Y-99880380D02*
X210919523Y-100880380D01*
X211110000Y-100166095D01*
X211300476Y-100880380D01*
X211538571Y-99880380D01*
X212443333Y-100880380D02*
X211871904Y-100880380D01*
X212157619Y-100880380D02*
X212157619Y-99880380D01*
X212062380Y-100023238D01*
X211967142Y-100118476D01*
X211871904Y-100166095D01*
G04 #@! TO.C,SW2*
X222730666Y-100832761D02*
X222873523Y-100880380D01*
X223111619Y-100880380D01*
X223206857Y-100832761D01*
X223254476Y-100785142D01*
X223302095Y-100689904D01*
X223302095Y-100594666D01*
X223254476Y-100499428D01*
X223206857Y-100451809D01*
X223111619Y-100404190D01*
X222921142Y-100356571D01*
X222825904Y-100308952D01*
X222778285Y-100261333D01*
X222730666Y-100166095D01*
X222730666Y-100070857D01*
X222778285Y-99975619D01*
X222825904Y-99928000D01*
X222921142Y-99880380D01*
X223159238Y-99880380D01*
X223302095Y-99928000D01*
X223635428Y-99880380D02*
X223873523Y-100880380D01*
X224064000Y-100166095D01*
X224254476Y-100880380D01*
X224492571Y-99880380D01*
X224825904Y-99975619D02*
X224873523Y-99928000D01*
X224968761Y-99880380D01*
X225206857Y-99880380D01*
X225302095Y-99928000D01*
X225349714Y-99975619D01*
X225397333Y-100070857D01*
X225397333Y-100166095D01*
X225349714Y-100308952D01*
X224778285Y-100880380D01*
X225397333Y-100880380D01*
G04 #@! TO.C,SW3*
X235811666Y-100832761D02*
X235954523Y-100880380D01*
X236192619Y-100880380D01*
X236287857Y-100832761D01*
X236335476Y-100785142D01*
X236383095Y-100689904D01*
X236383095Y-100594666D01*
X236335476Y-100499428D01*
X236287857Y-100451809D01*
X236192619Y-100404190D01*
X236002142Y-100356571D01*
X235906904Y-100308952D01*
X235859285Y-100261333D01*
X235811666Y-100166095D01*
X235811666Y-100070857D01*
X235859285Y-99975619D01*
X235906904Y-99928000D01*
X236002142Y-99880380D01*
X236240238Y-99880380D01*
X236383095Y-99928000D01*
X236716428Y-99880380D02*
X236954523Y-100880380D01*
X237145000Y-100166095D01*
X237335476Y-100880380D01*
X237573571Y-99880380D01*
X237859285Y-99880380D02*
X238478333Y-99880380D01*
X238145000Y-100261333D01*
X238287857Y-100261333D01*
X238383095Y-100308952D01*
X238430714Y-100356571D01*
X238478333Y-100451809D01*
X238478333Y-100689904D01*
X238430714Y-100785142D01*
X238383095Y-100832761D01*
X238287857Y-100880380D01*
X238002142Y-100880380D01*
X237906904Y-100832761D01*
X237859285Y-100785142D01*
G04 #@! TO.C,U3*
X215138095Y-87888380D02*
X215138095Y-88697904D01*
X215185714Y-88793142D01*
X215233333Y-88840761D01*
X215328571Y-88888380D01*
X215519047Y-88888380D01*
X215614285Y-88840761D01*
X215661904Y-88793142D01*
X215709523Y-88697904D01*
X215709523Y-87888380D01*
X216090476Y-87888380D02*
X216709523Y-87888380D01*
X216376190Y-88269333D01*
X216519047Y-88269333D01*
X216614285Y-88316952D01*
X216661904Y-88364571D01*
X216709523Y-88459809D01*
X216709523Y-88697904D01*
X216661904Y-88793142D01*
X216614285Y-88840761D01*
X216519047Y-88888380D01*
X216233333Y-88888380D01*
X216138095Y-88840761D01*
X216090476Y-88793142D01*
G04 #@! TO.C,R6*
X219908380Y-71286666D02*
X219432190Y-71620000D01*
X219908380Y-71858095D02*
X218908380Y-71858095D01*
X218908380Y-71477142D01*
X218956000Y-71381904D01*
X219003619Y-71334285D01*
X219098857Y-71286666D01*
X219241714Y-71286666D01*
X219336952Y-71334285D01*
X219384571Y-71381904D01*
X219432190Y-71477142D01*
X219432190Y-71858095D01*
X218908380Y-70429523D02*
X218908380Y-70620000D01*
X218956000Y-70715238D01*
X219003619Y-70762857D01*
X219146476Y-70858095D01*
X219336952Y-70905714D01*
X219717904Y-70905714D01*
X219813142Y-70858095D01*
X219860761Y-70810476D01*
X219908380Y-70715238D01*
X219908380Y-70524761D01*
X219860761Y-70429523D01*
X219813142Y-70381904D01*
X219717904Y-70334285D01*
X219479809Y-70334285D01*
X219384571Y-70381904D01*
X219336952Y-70429523D01*
X219289333Y-70524761D01*
X219289333Y-70715238D01*
X219336952Y-70810476D01*
X219384571Y-70858095D01*
X219479809Y-70905714D01*
G04 #@! TO.C,RN1*
X187904380Y-94924476D02*
X187428190Y-95257809D01*
X187904380Y-95495904D02*
X186904380Y-95495904D01*
X186904380Y-95114952D01*
X186952000Y-95019714D01*
X186999619Y-94972095D01*
X187094857Y-94924476D01*
X187237714Y-94924476D01*
X187332952Y-94972095D01*
X187380571Y-95019714D01*
X187428190Y-95114952D01*
X187428190Y-95495904D01*
X187904380Y-94495904D02*
X186904380Y-94495904D01*
X187904380Y-93924476D01*
X186904380Y-93924476D01*
X187904380Y-92924476D02*
X187904380Y-93495904D01*
X187904380Y-93210190D02*
X186904380Y-93210190D01*
X187047238Y-93305428D01*
X187142476Y-93400666D01*
X187190095Y-93495904D01*
G04 #@! TO.C,J3*
X190357380Y-87963333D02*
X191071666Y-87963333D01*
X191214523Y-88010952D01*
X191309761Y-88106190D01*
X191357380Y-88249047D01*
X191357380Y-88344285D01*
X190357380Y-87582380D02*
X190357380Y-86963333D01*
X190738333Y-87296666D01*
X190738333Y-87153809D01*
X190785952Y-87058571D01*
X190833571Y-87010952D01*
X190928809Y-86963333D01*
X191166904Y-86963333D01*
X191262142Y-87010952D01*
X191309761Y-87058571D01*
X191357380Y-87153809D01*
X191357380Y-87439523D01*
X191309761Y-87534761D01*
X191262142Y-87582380D01*
G04 #@! TO.C,J4*
X185086666Y-75144380D02*
X185086666Y-75858666D01*
X185039047Y-76001523D01*
X184943809Y-76096761D01*
X184800952Y-76144380D01*
X184705714Y-76144380D01*
X185991428Y-75477714D02*
X185991428Y-76144380D01*
X185753333Y-75096761D02*
X185515238Y-75811047D01*
X186134285Y-75811047D01*
G04 #@! TO.C,J5*
X170227666Y-83042380D02*
X170227666Y-83756666D01*
X170180047Y-83899523D01*
X170084809Y-83994761D01*
X169941952Y-84042380D01*
X169846714Y-84042380D01*
X171180047Y-83042380D02*
X170703857Y-83042380D01*
X170656238Y-83518571D01*
X170703857Y-83470952D01*
X170799095Y-83423333D01*
X171037190Y-83423333D01*
X171132428Y-83470952D01*
X171180047Y-83518571D01*
X171227666Y-83613809D01*
X171227666Y-83851904D01*
X171180047Y-83947142D01*
X171132428Y-83994761D01*
X171037190Y-84042380D01*
X170799095Y-84042380D01*
X170703857Y-83994761D01*
X170656238Y-83947142D01*
G04 #@! TO.C,J1*
X173148666Y-75144380D02*
X173148666Y-75858666D01*
X173101047Y-76001523D01*
X173005809Y-76096761D01*
X172862952Y-76144380D01*
X172767714Y-76144380D01*
X174148666Y-76144380D02*
X173577238Y-76144380D01*
X173862952Y-76144380D02*
X173862952Y-75144380D01*
X173767714Y-75287238D01*
X173672476Y-75382476D01*
X173577238Y-75430095D01*
G04 #@! TO.C,R3*
X221321333Y-92376380D02*
X220988000Y-91900190D01*
X220749904Y-92376380D02*
X220749904Y-91376380D01*
X221130857Y-91376380D01*
X221226095Y-91424000D01*
X221273714Y-91471619D01*
X221321333Y-91566857D01*
X221321333Y-91709714D01*
X221273714Y-91804952D01*
X221226095Y-91852571D01*
X221130857Y-91900190D01*
X220749904Y-91900190D01*
X221654666Y-91376380D02*
X222273714Y-91376380D01*
X221940380Y-91757333D01*
X222083238Y-91757333D01*
X222178476Y-91804952D01*
X222226095Y-91852571D01*
X222273714Y-91947809D01*
X222273714Y-92185904D01*
X222226095Y-92281142D01*
X222178476Y-92328761D01*
X222083238Y-92376380D01*
X221797523Y-92376380D01*
X221702285Y-92328761D01*
X221654666Y-92281142D01*
G04 #@! TO.C,U2*
X184872380Y-103885904D02*
X185681904Y-103885904D01*
X185777142Y-103838285D01*
X185824761Y-103790666D01*
X185872380Y-103695428D01*
X185872380Y-103504952D01*
X185824761Y-103409714D01*
X185777142Y-103362095D01*
X185681904Y-103314476D01*
X184872380Y-103314476D01*
X184967619Y-102885904D02*
X184920000Y-102838285D01*
X184872380Y-102743047D01*
X184872380Y-102504952D01*
X184920000Y-102409714D01*
X184967619Y-102362095D01*
X185062857Y-102314476D01*
X185158095Y-102314476D01*
X185300952Y-102362095D01*
X185872380Y-102933523D01*
X185872380Y-102314476D01*
G04 #@! TO.C,J6*
X158436666Y-77628380D02*
X158436666Y-78342666D01*
X158389047Y-78485523D01*
X158293809Y-78580761D01*
X158150952Y-78628380D01*
X158055714Y-78628380D01*
X159341428Y-77628380D02*
X159150952Y-77628380D01*
X159055714Y-77676000D01*
X159008095Y-77723619D01*
X158912857Y-77866476D01*
X158865238Y-78056952D01*
X158865238Y-78437904D01*
X158912857Y-78533142D01*
X158960476Y-78580761D01*
X159055714Y-78628380D01*
X159246190Y-78628380D01*
X159341428Y-78580761D01*
X159389047Y-78533142D01*
X159436666Y-78437904D01*
X159436666Y-78199809D01*
X159389047Y-78104571D01*
X159341428Y-78056952D01*
X159246190Y-78009333D01*
X159055714Y-78009333D01*
X158960476Y-78056952D01*
X158912857Y-78104571D01*
X158865238Y-78199809D01*
G04 #@! TO.C,R1*
X211780380Y-74842666D02*
X211304190Y-75176000D01*
X211780380Y-75414095D02*
X210780380Y-75414095D01*
X210780380Y-75033142D01*
X210828000Y-74937904D01*
X210875619Y-74890285D01*
X210970857Y-74842666D01*
X211113714Y-74842666D01*
X211208952Y-74890285D01*
X211256571Y-74937904D01*
X211304190Y-75033142D01*
X211304190Y-75414095D01*
X211780380Y-73890285D02*
X211780380Y-74461714D01*
X211780380Y-74176000D02*
X210780380Y-74176000D01*
X210923238Y-74271238D01*
X211018476Y-74366476D01*
X211066095Y-74461714D01*
G04 #@! TD*
%LPC*%
D12*
X242735571Y-61677857D02*
X241235571Y-61677857D01*
X241235571Y-61106428D01*
X241307000Y-60963571D01*
X241378428Y-60892142D01*
X241521285Y-60820714D01*
X241735571Y-60820714D01*
X241878428Y-60892142D01*
X241949857Y-60963571D01*
X242021285Y-61106428D01*
X242021285Y-61677857D01*
X242735571Y-59963571D02*
X242664142Y-60106428D01*
X242592714Y-60177857D01*
X242449857Y-60249285D01*
X242021285Y-60249285D01*
X241878428Y-60177857D01*
X241807000Y-60106428D01*
X241735571Y-59963571D01*
X241735571Y-59749285D01*
X241807000Y-59606428D01*
X241878428Y-59535000D01*
X242021285Y-59463571D01*
X242449857Y-59463571D01*
X242592714Y-59535000D01*
X242664142Y-59606428D01*
X242735571Y-59749285D01*
X242735571Y-59963571D01*
X241735571Y-58963571D02*
X242735571Y-58677857D01*
X242021285Y-58392142D01*
X242735571Y-58106428D01*
X241735571Y-57820714D01*
X242664142Y-56677857D02*
X242735571Y-56820714D01*
X242735571Y-57106428D01*
X242664142Y-57249285D01*
X242521285Y-57320714D01*
X241949857Y-57320714D01*
X241807000Y-57249285D01*
X241735571Y-57106428D01*
X241735571Y-56820714D01*
X241807000Y-56677857D01*
X241949857Y-56606428D01*
X242092714Y-56606428D01*
X242235571Y-57320714D01*
X242735571Y-55963571D02*
X241735571Y-55963571D01*
X242021285Y-55963571D02*
X241878428Y-55892142D01*
X241807000Y-55820714D01*
X241735571Y-55677857D01*
X241735571Y-55535000D01*
X242664142Y-55106428D02*
X242735571Y-54892142D01*
X242735571Y-54535000D01*
X242664142Y-54392142D01*
X242592714Y-54320714D01*
X242449857Y-54249285D01*
X242307000Y-54249285D01*
X242164142Y-54320714D01*
X242092714Y-54392142D01*
X242021285Y-54535000D01*
X241949857Y-54820714D01*
X241878428Y-54963571D01*
X241807000Y-55035000D01*
X241664142Y-55106428D01*
X241521285Y-55106428D01*
X241378428Y-55035000D01*
X241307000Y-54963571D01*
X241235571Y-54820714D01*
X241235571Y-54463571D01*
X241307000Y-54249285D01*
X241735571Y-52963571D02*
X242735571Y-52963571D01*
X241735571Y-53606428D02*
X242521285Y-53606428D01*
X242664142Y-53535000D01*
X242735571Y-53392142D01*
X242735571Y-53177857D01*
X242664142Y-53035000D01*
X242592714Y-52963571D01*
X241735571Y-52249285D02*
X243235571Y-52249285D01*
X241807000Y-52249285D02*
X241735571Y-52106428D01*
X241735571Y-51820714D01*
X241807000Y-51677857D01*
X241878428Y-51606428D01*
X242021285Y-51535000D01*
X242449857Y-51535000D01*
X242592714Y-51606428D01*
X242664142Y-51677857D01*
X242735571Y-51820714D01*
X242735571Y-52106428D01*
X242664142Y-52249285D01*
X241735571Y-50892142D02*
X243235571Y-50892142D01*
X241807000Y-50892142D02*
X241735571Y-50749285D01*
X241735571Y-50463571D01*
X241807000Y-50320714D01*
X241878428Y-50249285D01*
X242021285Y-50177857D01*
X242449857Y-50177857D01*
X242592714Y-50249285D01*
X242664142Y-50320714D01*
X242735571Y-50463571D01*
X242735571Y-50749285D01*
X242664142Y-50892142D01*
X242735571Y-49320714D02*
X242664142Y-49463571D01*
X242521285Y-49535000D01*
X241235571Y-49535000D01*
X241735571Y-48892142D02*
X242735571Y-48535000D01*
X241735571Y-48177857D02*
X242735571Y-48535000D01*
X243092714Y-48677857D01*
X243164142Y-48749285D01*
X243235571Y-48892142D01*
X243785571Y-61892142D02*
X245285571Y-61392142D01*
X243785571Y-60892142D01*
X243785571Y-60106428D02*
X243785571Y-59963571D01*
X243857000Y-59820714D01*
X243928428Y-59749285D01*
X244071285Y-59677857D01*
X244357000Y-59606428D01*
X244714142Y-59606428D01*
X244999857Y-59677857D01*
X245142714Y-59749285D01*
X245214142Y-59820714D01*
X245285571Y-59963571D01*
X245285571Y-60106428D01*
X245214142Y-60249285D01*
X245142714Y-60320714D01*
X244999857Y-60392142D01*
X244714142Y-60463571D01*
X244357000Y-60463571D01*
X244071285Y-60392142D01*
X243928428Y-60320714D01*
X243857000Y-60249285D01*
X243785571Y-60106428D01*
X245142714Y-58963571D02*
X245214142Y-58892142D01*
X245285571Y-58963571D01*
X245214142Y-59035000D01*
X245142714Y-58963571D01*
X245285571Y-58963571D01*
X245285571Y-57463571D02*
X245285571Y-58320714D01*
X245285571Y-57892142D02*
X243785571Y-57892142D01*
X243999857Y-58035000D01*
X244142714Y-58177857D01*
X244214142Y-58320714D01*
X241949857Y-32102857D02*
X241949857Y-32602857D01*
X242735571Y-32602857D02*
X241235571Y-32602857D01*
X241235571Y-31888571D01*
X242735571Y-30674285D02*
X241949857Y-30674285D01*
X241807000Y-30745714D01*
X241735571Y-30888571D01*
X241735571Y-31174285D01*
X241807000Y-31317142D01*
X242664142Y-30674285D02*
X242735571Y-30817142D01*
X242735571Y-31174285D01*
X242664142Y-31317142D01*
X242521285Y-31388571D01*
X242378428Y-31388571D01*
X242235571Y-31317142D01*
X242164142Y-31174285D01*
X242164142Y-30817142D01*
X242092714Y-30674285D01*
X242735571Y-29960000D02*
X241235571Y-29960000D01*
X241807000Y-29960000D02*
X241735571Y-29817142D01*
X241735571Y-29531428D01*
X241807000Y-29388571D01*
X241878428Y-29317142D01*
X242021285Y-29245714D01*
X242449857Y-29245714D01*
X242592714Y-29317142D01*
X242664142Y-29388571D01*
X242735571Y-29531428D01*
X242735571Y-29817142D01*
X242664142Y-29960000D01*
X242735571Y-28388571D02*
X242664142Y-28531428D01*
X242521285Y-28602857D01*
X241235571Y-28602857D01*
X242735571Y-27174285D02*
X241949857Y-27174285D01*
X241807000Y-27245714D01*
X241735571Y-27388571D01*
X241735571Y-27674285D01*
X241807000Y-27817142D01*
X242664142Y-27174285D02*
X242735571Y-27317142D01*
X242735571Y-27674285D01*
X242664142Y-27817142D01*
X242521285Y-27888571D01*
X242378428Y-27888571D01*
X242235571Y-27817142D01*
X242164142Y-27674285D01*
X242164142Y-27317142D01*
X242092714Y-27174285D01*
X242735571Y-26460000D02*
X241235571Y-26460000D01*
X241807000Y-26460000D02*
X241735571Y-26317142D01*
X241735571Y-26031428D01*
X241807000Y-25888571D01*
X241878428Y-25817142D01*
X242021285Y-25745714D01*
X242449857Y-25745714D01*
X242592714Y-25817142D01*
X242664142Y-25888571D01*
X242735571Y-26031428D01*
X242735571Y-26317142D01*
X242664142Y-26460000D01*
X245285571Y-32674285D02*
X243785571Y-32674285D01*
X245285571Y-31817142D02*
X244428428Y-32460000D01*
X243785571Y-31817142D02*
X244642714Y-32674285D01*
X245285571Y-30531428D02*
X244499857Y-30531428D01*
X244357000Y-30602857D01*
X244285571Y-30745714D01*
X244285571Y-31031428D01*
X244357000Y-31174285D01*
X245214142Y-30531428D02*
X245285571Y-30674285D01*
X245285571Y-31031428D01*
X245214142Y-31174285D01*
X245071285Y-31245714D01*
X244928428Y-31245714D01*
X244785571Y-31174285D01*
X244714142Y-31031428D01*
X244714142Y-30674285D01*
X244642714Y-30531428D01*
X244285571Y-29817142D02*
X245285571Y-29817142D01*
X244428428Y-29817142D02*
X244357000Y-29745714D01*
X244285571Y-29602857D01*
X244285571Y-29388571D01*
X244357000Y-29245714D01*
X244499857Y-29174285D01*
X245285571Y-29174285D01*
X244285571Y-28460000D02*
X245285571Y-28460000D01*
X244428428Y-28460000D02*
X244357000Y-28388571D01*
X244285571Y-28245714D01*
X244285571Y-28031428D01*
X244357000Y-27888571D01*
X244499857Y-27817142D01*
X245285571Y-27817142D01*
X245285571Y-26460000D02*
X244499857Y-26460000D01*
X244357000Y-26531428D01*
X244285571Y-26674285D01*
X244285571Y-26960000D01*
X244357000Y-27102857D01*
X245214142Y-26460000D02*
X245285571Y-26602857D01*
X245285571Y-26960000D01*
X245214142Y-27102857D01*
X245071285Y-27174285D01*
X244928428Y-27174285D01*
X244785571Y-27102857D01*
X244714142Y-26960000D01*
X244714142Y-26602857D01*
X244642714Y-26460000D01*
X245285571Y-25745714D02*
X244285571Y-25745714D01*
X243785571Y-25745714D02*
X243857000Y-25817142D01*
X243928428Y-25745714D01*
X243857000Y-25674285D01*
X243785571Y-25745714D01*
X243928428Y-25745714D01*
X152234428Y-66846142D02*
X153734428Y-66846142D01*
X153734428Y-67417571D01*
X153663000Y-67560428D01*
X153591571Y-67631857D01*
X153448714Y-67703285D01*
X153234428Y-67703285D01*
X153091571Y-67631857D01*
X153020142Y-67560428D01*
X152948714Y-67417571D01*
X152948714Y-66846142D01*
X152234428Y-68560428D02*
X152305857Y-68417571D01*
X152377285Y-68346142D01*
X152520142Y-68274714D01*
X152948714Y-68274714D01*
X153091571Y-68346142D01*
X153163000Y-68417571D01*
X153234428Y-68560428D01*
X153234428Y-68774714D01*
X153163000Y-68917571D01*
X153091571Y-68989000D01*
X152948714Y-69060428D01*
X152520142Y-69060428D01*
X152377285Y-68989000D01*
X152305857Y-68917571D01*
X152234428Y-68774714D01*
X152234428Y-68560428D01*
X153234428Y-69560428D02*
X152234428Y-69846142D01*
X152948714Y-70131857D01*
X152234428Y-70417571D01*
X153234428Y-70703285D01*
X152305857Y-71846142D02*
X152234428Y-71703285D01*
X152234428Y-71417571D01*
X152305857Y-71274714D01*
X152448714Y-71203285D01*
X153020142Y-71203285D01*
X153163000Y-71274714D01*
X153234428Y-71417571D01*
X153234428Y-71703285D01*
X153163000Y-71846142D01*
X153020142Y-71917571D01*
X152877285Y-71917571D01*
X152734428Y-71203285D01*
X152234428Y-72560428D02*
X153234428Y-72560428D01*
X152948714Y-72560428D02*
X153091571Y-72631857D01*
X153163000Y-72703285D01*
X153234428Y-72846142D01*
X153234428Y-72989000D01*
X152305857Y-73417571D02*
X152234428Y-73631857D01*
X152234428Y-73989000D01*
X152305857Y-74131857D01*
X152377285Y-74203285D01*
X152520142Y-74274714D01*
X152663000Y-74274714D01*
X152805857Y-74203285D01*
X152877285Y-74131857D01*
X152948714Y-73989000D01*
X153020142Y-73703285D01*
X153091571Y-73560428D01*
X153163000Y-73489000D01*
X153305857Y-73417571D01*
X153448714Y-73417571D01*
X153591571Y-73489000D01*
X153663000Y-73560428D01*
X153734428Y-73703285D01*
X153734428Y-74060428D01*
X153663000Y-74274714D01*
X153234428Y-75560428D02*
X152234428Y-75560428D01*
X153234428Y-74917571D02*
X152448714Y-74917571D01*
X152305857Y-74989000D01*
X152234428Y-75131857D01*
X152234428Y-75346142D01*
X152305857Y-75489000D01*
X152377285Y-75560428D01*
X153234428Y-76274714D02*
X151734428Y-76274714D01*
X153163000Y-76274714D02*
X153234428Y-76417571D01*
X153234428Y-76703285D01*
X153163000Y-76846142D01*
X153091571Y-76917571D01*
X152948714Y-76989000D01*
X152520142Y-76989000D01*
X152377285Y-76917571D01*
X152305857Y-76846142D01*
X152234428Y-76703285D01*
X152234428Y-76417571D01*
X152305857Y-76274714D01*
X153234428Y-77631857D02*
X151734428Y-77631857D01*
X153163000Y-77631857D02*
X153234428Y-77774714D01*
X153234428Y-78060428D01*
X153163000Y-78203285D01*
X153091571Y-78274714D01*
X152948714Y-78346142D01*
X152520142Y-78346142D01*
X152377285Y-78274714D01*
X152305857Y-78203285D01*
X152234428Y-78060428D01*
X152234428Y-77774714D01*
X152305857Y-77631857D01*
X152234428Y-79203285D02*
X152305857Y-79060428D01*
X152448714Y-78989000D01*
X153734428Y-78989000D01*
X153234428Y-79631857D02*
X152234428Y-79989000D01*
X153234428Y-80346142D02*
X152234428Y-79989000D01*
X151877285Y-79846142D01*
X151805857Y-79774714D01*
X151734428Y-79631857D01*
X151184428Y-66631857D02*
X149684428Y-67131857D01*
X151184428Y-67631857D01*
X151184428Y-68417571D02*
X151184428Y-68560428D01*
X151113000Y-68703285D01*
X151041571Y-68774714D01*
X150898714Y-68846142D01*
X150613000Y-68917571D01*
X150255857Y-68917571D01*
X149970142Y-68846142D01*
X149827285Y-68774714D01*
X149755857Y-68703285D01*
X149684428Y-68560428D01*
X149684428Y-68417571D01*
X149755857Y-68274714D01*
X149827285Y-68203285D01*
X149970142Y-68131857D01*
X150255857Y-68060428D01*
X150613000Y-68060428D01*
X150898714Y-68131857D01*
X151041571Y-68203285D01*
X151113000Y-68274714D01*
X151184428Y-68417571D01*
X149827285Y-69560428D02*
X149755857Y-69631857D01*
X149684428Y-69560428D01*
X149755857Y-69489000D01*
X149827285Y-69560428D01*
X149684428Y-69560428D01*
X149684428Y-71060428D02*
X149684428Y-70203285D01*
X149684428Y-70631857D02*
X151184428Y-70631857D01*
X150970142Y-70489000D01*
X150827285Y-70346142D01*
X150755857Y-70203285D01*
X153020142Y-96421142D02*
X153020142Y-95921142D01*
X152234428Y-95921142D02*
X153734428Y-95921142D01*
X153734428Y-96635428D01*
X152234428Y-97849714D02*
X153020142Y-97849714D01*
X153163000Y-97778285D01*
X153234428Y-97635428D01*
X153234428Y-97349714D01*
X153163000Y-97206857D01*
X152305857Y-97849714D02*
X152234428Y-97706857D01*
X152234428Y-97349714D01*
X152305857Y-97206857D01*
X152448714Y-97135428D01*
X152591571Y-97135428D01*
X152734428Y-97206857D01*
X152805857Y-97349714D01*
X152805857Y-97706857D01*
X152877285Y-97849714D01*
X152234428Y-98564000D02*
X153734428Y-98564000D01*
X153163000Y-98564000D02*
X153234428Y-98706857D01*
X153234428Y-98992571D01*
X153163000Y-99135428D01*
X153091571Y-99206857D01*
X152948714Y-99278285D01*
X152520142Y-99278285D01*
X152377285Y-99206857D01*
X152305857Y-99135428D01*
X152234428Y-98992571D01*
X152234428Y-98706857D01*
X152305857Y-98564000D01*
X152234428Y-100135428D02*
X152305857Y-99992571D01*
X152448714Y-99921142D01*
X153734428Y-99921142D01*
X152234428Y-101349714D02*
X153020142Y-101349714D01*
X153163000Y-101278285D01*
X153234428Y-101135428D01*
X153234428Y-100849714D01*
X153163000Y-100706857D01*
X152305857Y-101349714D02*
X152234428Y-101206857D01*
X152234428Y-100849714D01*
X152305857Y-100706857D01*
X152448714Y-100635428D01*
X152591571Y-100635428D01*
X152734428Y-100706857D01*
X152805857Y-100849714D01*
X152805857Y-101206857D01*
X152877285Y-101349714D01*
X152234428Y-102064000D02*
X153734428Y-102064000D01*
X153163000Y-102064000D02*
X153234428Y-102206857D01*
X153234428Y-102492571D01*
X153163000Y-102635428D01*
X153091571Y-102706857D01*
X152948714Y-102778285D01*
X152520142Y-102778285D01*
X152377285Y-102706857D01*
X152305857Y-102635428D01*
X152234428Y-102492571D01*
X152234428Y-102206857D01*
X152305857Y-102064000D01*
X149684428Y-95849714D02*
X151184428Y-95849714D01*
X149684428Y-96706857D02*
X150541571Y-96064000D01*
X151184428Y-96706857D02*
X150327285Y-95849714D01*
X149684428Y-97992571D02*
X150470142Y-97992571D01*
X150613000Y-97921142D01*
X150684428Y-97778285D01*
X150684428Y-97492571D01*
X150613000Y-97349714D01*
X149755857Y-97992571D02*
X149684428Y-97849714D01*
X149684428Y-97492571D01*
X149755857Y-97349714D01*
X149898714Y-97278285D01*
X150041571Y-97278285D01*
X150184428Y-97349714D01*
X150255857Y-97492571D01*
X150255857Y-97849714D01*
X150327285Y-97992571D01*
X150684428Y-98706857D02*
X149684428Y-98706857D01*
X150541571Y-98706857D02*
X150613000Y-98778285D01*
X150684428Y-98921142D01*
X150684428Y-99135428D01*
X150613000Y-99278285D01*
X150470142Y-99349714D01*
X149684428Y-99349714D01*
X150684428Y-100064000D02*
X149684428Y-100064000D01*
X150541571Y-100064000D02*
X150613000Y-100135428D01*
X150684428Y-100278285D01*
X150684428Y-100492571D01*
X150613000Y-100635428D01*
X150470142Y-100706857D01*
X149684428Y-100706857D01*
X149684428Y-102064000D02*
X150470142Y-102064000D01*
X150613000Y-101992571D01*
X150684428Y-101849714D01*
X150684428Y-101564000D01*
X150613000Y-101421142D01*
X149755857Y-102064000D02*
X149684428Y-101921142D01*
X149684428Y-101564000D01*
X149755857Y-101421142D01*
X149898714Y-101349714D01*
X150041571Y-101349714D01*
X150184428Y-101421142D01*
X150255857Y-101564000D01*
X150255857Y-101921142D01*
X150327285Y-102064000D01*
X149684428Y-102778285D02*
X150684428Y-102778285D01*
X151184428Y-102778285D02*
X151113000Y-102706857D01*
X151041571Y-102778285D01*
X151113000Y-102849714D01*
X151184428Y-102778285D01*
X151041571Y-102778285D01*
D13*
G04 #@! TO.C,G\002A\002A\002A*
G36*
X154284497Y-93031139D02*
X154272606Y-93127617D01*
X154199260Y-93437240D01*
X154082527Y-93740724D01*
X153927622Y-94028266D01*
X153739760Y-94290060D01*
X153543573Y-94498562D01*
X153462271Y-94570523D01*
X153376014Y-94641512D01*
X153293692Y-94704887D01*
X153224196Y-94754008D01*
X153176417Y-94782235D01*
X153159755Y-94785245D01*
X153144608Y-94760149D01*
X153113800Y-94707153D01*
X153098713Y-94680898D01*
X153043910Y-94585228D01*
X153570124Y-93673529D01*
X153682479Y-93478187D01*
X153786631Y-93295790D01*
X153879973Y-93131001D01*
X153959898Y-92988485D01*
X154023799Y-92872903D01*
X154069069Y-92788920D01*
X154093101Y-92741199D01*
X154096339Y-92732315D01*
X154084384Y-92701003D01*
X154051541Y-92635127D01*
X154002340Y-92543296D01*
X153941312Y-92434117D01*
X153917101Y-92391842D01*
X153839146Y-92260144D01*
X153781391Y-92170995D01*
X153742049Y-92121929D01*
X153719336Y-92110477D01*
X153715737Y-92113638D01*
X153657314Y-92205991D01*
X153619559Y-92285979D01*
X153598604Y-92369069D01*
X153590584Y-92470729D01*
X153591633Y-92606428D01*
X153591726Y-92609803D01*
X153583867Y-92847499D01*
X153545222Y-93049762D01*
X153474571Y-93221606D01*
X153422504Y-93303762D01*
X153310405Y-93425437D01*
X153187990Y-93500971D01*
X153060441Y-93531863D01*
X152932936Y-93519616D01*
X152810656Y-93465730D01*
X152698779Y-93371706D01*
X152602486Y-93239044D01*
X152526957Y-93069246D01*
X152518054Y-93041692D01*
X152481066Y-92864770D01*
X152468908Y-92668028D01*
X152481535Y-92472489D01*
X152518901Y-92299179D01*
X152519704Y-92296687D01*
X152589092Y-92135399D01*
X152681000Y-92000923D01*
X152789310Y-91898639D01*
X152907905Y-91833925D01*
X153030668Y-91812160D01*
X153067667Y-91814847D01*
X153162774Y-91827603D01*
X153374536Y-91455409D01*
X153209392Y-91165115D01*
X153044248Y-90874822D01*
X153098707Y-90784176D01*
X153134107Y-90725866D01*
X153157371Y-90688680D01*
X153160831Y-90683603D01*
X153186821Y-90688082D01*
X153241606Y-90720902D01*
X153317410Y-90776161D01*
X153406459Y-90847956D01*
X153500979Y-90930385D01*
X153566937Y-90991928D01*
X153795729Y-91246397D01*
X153986851Y-91531468D01*
X154136618Y-91840933D01*
X154222851Y-92097041D01*
X154255310Y-92252684D01*
X154278520Y-92440813D01*
X154291665Y-92644530D01*
X154293929Y-92846938D01*
X154284497Y-93031139D01*
X154284497Y-93031139D01*
G37*
X154284497Y-93031139D02*
X154272606Y-93127617D01*
X154199260Y-93437240D01*
X154082527Y-93740724D01*
X153927622Y-94028266D01*
X153739760Y-94290060D01*
X153543573Y-94498562D01*
X153462271Y-94570523D01*
X153376014Y-94641512D01*
X153293692Y-94704887D01*
X153224196Y-94754008D01*
X153176417Y-94782235D01*
X153159755Y-94785245D01*
X153144608Y-94760149D01*
X153113800Y-94707153D01*
X153098713Y-94680898D01*
X153043910Y-94585228D01*
X153570124Y-93673529D01*
X153682479Y-93478187D01*
X153786631Y-93295790D01*
X153879973Y-93131001D01*
X153959898Y-92988485D01*
X154023799Y-92872903D01*
X154069069Y-92788920D01*
X154093101Y-92741199D01*
X154096339Y-92732315D01*
X154084384Y-92701003D01*
X154051541Y-92635127D01*
X154002340Y-92543296D01*
X153941312Y-92434117D01*
X153917101Y-92391842D01*
X153839146Y-92260144D01*
X153781391Y-92170995D01*
X153742049Y-92121929D01*
X153719336Y-92110477D01*
X153715737Y-92113638D01*
X153657314Y-92205991D01*
X153619559Y-92285979D01*
X153598604Y-92369069D01*
X153590584Y-92470729D01*
X153591633Y-92606428D01*
X153591726Y-92609803D01*
X153583867Y-92847499D01*
X153545222Y-93049762D01*
X153474571Y-93221606D01*
X153422504Y-93303762D01*
X153310405Y-93425437D01*
X153187990Y-93500971D01*
X153060441Y-93531863D01*
X152932936Y-93519616D01*
X152810656Y-93465730D01*
X152698779Y-93371706D01*
X152602486Y-93239044D01*
X152526957Y-93069246D01*
X152518054Y-93041692D01*
X152481066Y-92864770D01*
X152468908Y-92668028D01*
X152481535Y-92472489D01*
X152518901Y-92299179D01*
X152519704Y-92296687D01*
X152589092Y-92135399D01*
X152681000Y-92000923D01*
X152789310Y-91898639D01*
X152907905Y-91833925D01*
X153030668Y-91812160D01*
X153067667Y-91814847D01*
X153162774Y-91827603D01*
X153374536Y-91455409D01*
X153209392Y-91165115D01*
X153044248Y-90874822D01*
X153098707Y-90784176D01*
X153134107Y-90725866D01*
X153157371Y-90688680D01*
X153160831Y-90683603D01*
X153186821Y-90688082D01*
X153241606Y-90720902D01*
X153317410Y-90776161D01*
X153406459Y-90847956D01*
X153500979Y-90930385D01*
X153566937Y-90991928D01*
X153795729Y-91246397D01*
X153986851Y-91531468D01*
X154136618Y-91840933D01*
X154222851Y-92097041D01*
X154255310Y-92252684D01*
X154278520Y-92440813D01*
X154291665Y-92644530D01*
X154293929Y-92846938D01*
X154284497Y-93031139D01*
G36*
X152998556Y-94893986D02*
X152956279Y-94919958D01*
X152876675Y-94954781D01*
X152770880Y-94994608D01*
X152650029Y-95035592D01*
X152525259Y-95073885D01*
X152407705Y-95105641D01*
X152343222Y-95120382D01*
X152130485Y-95150606D01*
X151893100Y-95161244D01*
X151649817Y-95152811D01*
X151419387Y-95125824D01*
X151253991Y-95090433D01*
X150926175Y-94975980D01*
X150623014Y-94819876D01*
X150347495Y-94625639D01*
X150102604Y-94396788D01*
X149891328Y-94136842D01*
X149716652Y-93849319D01*
X149581563Y-93537738D01*
X149489047Y-93205618D01*
X149451641Y-92966756D01*
X149434680Y-92810198D01*
X149678391Y-92810198D01*
X150212684Y-93737022D01*
X150746976Y-94663847D01*
X151495346Y-94663847D01*
X151417632Y-94532338D01*
X151373237Y-94458050D01*
X151337646Y-94399992D01*
X151321629Y-94375249D01*
X151291854Y-94353067D01*
X151228587Y-94316392D01*
X151143709Y-94271971D01*
X151113246Y-94256891D01*
X150941852Y-94156157D01*
X150797698Y-94037561D01*
X150682594Y-93906510D01*
X150598349Y-93768408D01*
X150546776Y-93628662D01*
X150529682Y-93492677D01*
X150548880Y-93365858D01*
X150606180Y-93253609D01*
X150703391Y-93161338D01*
X150738945Y-93139290D01*
X150891040Y-93081466D01*
X151062357Y-93064009D01*
X151245294Y-93084974D01*
X151432246Y-93142417D01*
X151615610Y-93234394D01*
X151787782Y-93358961D01*
X151860506Y-93426050D01*
X151981371Y-93560652D01*
X152060707Y-93686240D01*
X152103199Y-93813137D01*
X152113535Y-93951665D01*
X152112232Y-93980444D01*
X152100734Y-94082654D01*
X152078174Y-94151472D01*
X152045120Y-94197428D01*
X151987592Y-94258664D01*
X152096354Y-94460904D01*
X152205116Y-94663143D01*
X152547001Y-94663495D01*
X152888885Y-94663847D01*
X152952176Y-94770306D01*
X152985519Y-94834780D01*
X153000468Y-94881330D01*
X152998556Y-94893986D01*
X152998556Y-94893986D01*
G37*
X152998556Y-94893986D02*
X152956279Y-94919958D01*
X152876675Y-94954781D01*
X152770880Y-94994608D01*
X152650029Y-95035592D01*
X152525259Y-95073885D01*
X152407705Y-95105641D01*
X152343222Y-95120382D01*
X152130485Y-95150606D01*
X151893100Y-95161244D01*
X151649817Y-95152811D01*
X151419387Y-95125824D01*
X151253991Y-95090433D01*
X150926175Y-94975980D01*
X150623014Y-94819876D01*
X150347495Y-94625639D01*
X150102604Y-94396788D01*
X149891328Y-94136842D01*
X149716652Y-93849319D01*
X149581563Y-93537738D01*
X149489047Y-93205618D01*
X149451641Y-92966756D01*
X149434680Y-92810198D01*
X149678391Y-92810198D01*
X150212684Y-93737022D01*
X150746976Y-94663847D01*
X151495346Y-94663847D01*
X151417632Y-94532338D01*
X151373237Y-94458050D01*
X151337646Y-94399992D01*
X151321629Y-94375249D01*
X151291854Y-94353067D01*
X151228587Y-94316392D01*
X151143709Y-94271971D01*
X151113246Y-94256891D01*
X150941852Y-94156157D01*
X150797698Y-94037561D01*
X150682594Y-93906510D01*
X150598349Y-93768408D01*
X150546776Y-93628662D01*
X150529682Y-93492677D01*
X150548880Y-93365858D01*
X150606180Y-93253609D01*
X150703391Y-93161338D01*
X150738945Y-93139290D01*
X150891040Y-93081466D01*
X151062357Y-93064009D01*
X151245294Y-93084974D01*
X151432246Y-93142417D01*
X151615610Y-93234394D01*
X151787782Y-93358961D01*
X151860506Y-93426050D01*
X151981371Y-93560652D01*
X152060707Y-93686240D01*
X152103199Y-93813137D01*
X152113535Y-93951665D01*
X152112232Y-93980444D01*
X152100734Y-94082654D01*
X152078174Y-94151472D01*
X152045120Y-94197428D01*
X151987592Y-94258664D01*
X152096354Y-94460904D01*
X152205116Y-94663143D01*
X152547001Y-94663495D01*
X152888885Y-94663847D01*
X152952176Y-94770306D01*
X152985519Y-94834780D01*
X153000468Y-94881330D01*
X152998556Y-94893986D01*
G36*
X152982148Y-90626326D02*
X152952260Y-90679982D01*
X152942028Y-90696837D01*
X152889886Y-90781204D01*
X151802284Y-90781204D01*
X151574561Y-90781621D01*
X151363275Y-90782815D01*
X151173481Y-90784698D01*
X151010232Y-90787182D01*
X150878582Y-90790180D01*
X150783584Y-90793603D01*
X150730293Y-90797364D01*
X150720423Y-90799991D01*
X150713593Y-90835094D01*
X150686999Y-90889172D01*
X150650380Y-90947204D01*
X150613471Y-90994167D01*
X150586009Y-91015040D01*
X150581525Y-91014283D01*
X150568763Y-91015543D01*
X150574014Y-91027009D01*
X150571416Y-91057900D01*
X150551080Y-91113128D01*
X150520217Y-91178635D01*
X150486035Y-91240365D01*
X150455746Y-91284258D01*
X150436559Y-91296256D01*
X150436122Y-91295872D01*
X150425652Y-91307533D01*
X150420206Y-91339741D01*
X150420090Y-91364944D01*
X150430910Y-91380375D01*
X150461738Y-91387638D01*
X150521643Y-91388339D01*
X150619696Y-91384083D01*
X150659072Y-91382018D01*
X150689633Y-91380037D01*
X150689633Y-92259113D01*
X150669015Y-92268278D01*
X150672933Y-92275812D01*
X150702661Y-92278810D01*
X150706333Y-92275812D01*
X150702894Y-92260921D01*
X150689633Y-92259113D01*
X150689633Y-91380037D01*
X150727207Y-91377601D01*
X150727207Y-92209014D01*
X150714682Y-92221539D01*
X150727207Y-92234064D01*
X150739732Y-92221539D01*
X150727207Y-92209014D01*
X150727207Y-91377601D01*
X150776332Y-91374416D01*
X150858547Y-91363832D01*
X150920764Y-91346390D01*
X150978029Y-91318216D01*
X151027799Y-91287042D01*
X151027799Y-91332288D01*
X151015274Y-91344813D01*
X151027799Y-91357338D01*
X151040323Y-91344813D01*
X151027799Y-91332288D01*
X151027799Y-91287042D01*
X151178095Y-91206630D01*
X151178095Y-92359310D01*
X151165570Y-92371835D01*
X151178095Y-92384359D01*
X151190619Y-92371835D01*
X151178095Y-92359310D01*
X151178095Y-91206630D01*
X151203648Y-91192958D01*
X151378489Y-91136749D01*
X151378489Y-92234064D01*
X151365964Y-92246588D01*
X151378489Y-92259113D01*
X151391014Y-92246588D01*
X151378489Y-92234064D01*
X151378489Y-91136749D01*
X151383962Y-91134989D01*
X151561206Y-91113148D01*
X151727850Y-91127447D01*
X151876359Y-91177899D01*
X151999201Y-91264515D01*
X152004722Y-91270245D01*
X152004722Y-91282190D01*
X151992197Y-91294714D01*
X152004722Y-91307239D01*
X152017246Y-91294714D01*
X152004722Y-91282190D01*
X152004722Y-91270245D01*
X152019334Y-91285411D01*
X152054820Y-91328532D01*
X152054820Y-91607831D01*
X152042296Y-91620355D01*
X152054820Y-91632880D01*
X152067345Y-91620355D01*
X152054820Y-91607831D01*
X152054820Y-91328532D01*
X152058871Y-91333455D01*
X152082372Y-91379465D01*
X152094177Y-91438908D01*
X152098630Y-91527253D01*
X152099281Y-91570257D01*
X152091636Y-91652960D01*
X152070314Y-91738670D01*
X152040335Y-91815562D01*
X152006717Y-91871812D01*
X151974479Y-91895596D01*
X151962317Y-91892912D01*
X151946156Y-91890968D01*
X151951879Y-91903982D01*
X151947255Y-91940406D01*
X151909415Y-91995955D01*
X151847364Y-92062783D01*
X151770104Y-92133044D01*
X151686638Y-92198892D01*
X151605969Y-92252479D01*
X151537101Y-92285960D01*
X151505370Y-92293122D01*
X151464247Y-92302008D01*
X151456927Y-92314516D01*
X151445489Y-92334704D01*
X151395436Y-92355948D01*
X151318136Y-92375922D01*
X151224958Y-92392303D01*
X151127271Y-92402767D01*
X151036444Y-92404990D01*
X151018514Y-92404142D01*
X150899936Y-92388553D01*
X150794764Y-92360100D01*
X150712938Y-92322944D01*
X150664398Y-92281244D01*
X150655493Y-92252195D01*
X150649065Y-92222279D01*
X150638420Y-92222228D01*
X150610623Y-92214127D01*
X150581952Y-92183560D01*
X150563011Y-92161713D01*
X150536399Y-92147481D01*
X150492642Y-92139600D01*
X150422266Y-92136808D01*
X150315796Y-92137842D01*
X150249965Y-92139305D01*
X149953939Y-92146391D01*
X149902210Y-92238596D01*
X149862114Y-92310171D01*
X149810009Y-92403319D01*
X149765581Y-92482827D01*
X149680681Y-92634853D01*
X149558924Y-92634853D01*
X149489385Y-92633701D01*
X149446925Y-92630764D01*
X149440460Y-92628590D01*
X149444806Y-92602500D01*
X149453007Y-92540227D01*
X149463062Y-92457144D01*
X149482056Y-92331190D01*
X149509273Y-92198599D01*
X149542096Y-92067693D01*
X149577910Y-91946795D01*
X149614099Y-91844227D01*
X149625037Y-91819768D01*
X149625037Y-92509606D01*
X149612513Y-92522131D01*
X149625037Y-92534655D01*
X149637562Y-92522131D01*
X149625037Y-92509606D01*
X149625037Y-91819768D01*
X149648047Y-91768313D01*
X149650087Y-91765443D01*
X149650087Y-91983570D01*
X149637562Y-91996095D01*
X149650087Y-92008620D01*
X149662611Y-91996095D01*
X149650087Y-91983570D01*
X149650087Y-91765443D01*
X149675136Y-91730194D01*
X149675136Y-91783176D01*
X149662611Y-91795701D01*
X149675136Y-91808225D01*
X149687661Y-91795701D01*
X149675136Y-91783176D01*
X149675136Y-91730194D01*
X149677138Y-91727376D01*
X149693442Y-91724126D01*
X149708583Y-91725088D01*
X149703032Y-91712634D01*
X149703949Y-91674026D01*
X149725235Y-91617366D01*
X149725235Y-92409409D01*
X149712710Y-92421933D01*
X149725235Y-92434458D01*
X149737759Y-92421933D01*
X149725235Y-92409409D01*
X149725235Y-91617366D01*
X149728874Y-91607679D01*
X149771437Y-91523686D01*
X149825270Y-91432138D01*
X149839587Y-91410442D01*
X149839587Y-92215156D01*
X149837956Y-92218582D01*
X149850481Y-92234817D01*
X149850481Y-92284162D01*
X149837956Y-92296687D01*
X149850481Y-92309212D01*
X149863006Y-92296687D01*
X149850481Y-92284162D01*
X149850481Y-92234817D01*
X149855591Y-92241442D01*
X149863006Y-92246588D01*
X149886424Y-92252971D01*
X149888055Y-92249545D01*
X149870421Y-92226685D01*
X149863006Y-92221539D01*
X149839587Y-92215156D01*
X149839587Y-91410442D01*
X149884004Y-91343130D01*
X149900580Y-91321022D01*
X149900580Y-91482584D01*
X149888055Y-91495109D01*
X149900580Y-91507634D01*
X149913104Y-91495109D01*
X149900580Y-91482584D01*
X149900580Y-91321022D01*
X149941268Y-91266753D01*
X149990694Y-91213099D01*
X150025914Y-91192263D01*
X150030946Y-91193016D01*
X150053759Y-91192848D01*
X150051136Y-91182413D01*
X150051687Y-91146663D01*
X150075067Y-91100108D01*
X150108689Y-91060698D01*
X150126024Y-91052766D01*
X150126024Y-91156943D01*
X150113499Y-91169468D01*
X150126024Y-91181993D01*
X150138548Y-91169468D01*
X150126024Y-91156943D01*
X150126024Y-91052766D01*
X150139968Y-91046384D01*
X150145158Y-91048307D01*
X150159409Y-91048374D01*
X150154145Y-91036668D01*
X150160905Y-91005591D01*
X150201171Y-90967765D01*
X150201171Y-90981598D01*
X150188647Y-90994123D01*
X150201171Y-91006647D01*
X150213696Y-90994123D01*
X150201171Y-90981598D01*
X150201171Y-90967765D01*
X150201701Y-90967267D01*
X150206636Y-90963998D01*
X150266012Y-90920033D01*
X150326418Y-90869027D01*
X150326418Y-90956549D01*
X150313893Y-90969073D01*
X150326418Y-90981598D01*
X150338943Y-90969073D01*
X150326418Y-90956549D01*
X150326418Y-90869027D01*
X150338887Y-90858498D01*
X150375853Y-90824595D01*
X150415722Y-90791418D01*
X150415722Y-91213183D01*
X150414091Y-91216610D01*
X150431725Y-91239469D01*
X150439140Y-91244616D01*
X150462558Y-91250999D01*
X150464189Y-91247573D01*
X150446555Y-91224713D01*
X150439140Y-91219567D01*
X150415722Y-91213183D01*
X150415722Y-90791418D01*
X150436340Y-90774260D01*
X150476714Y-90750742D01*
X150476714Y-91056746D01*
X150464189Y-91069271D01*
X150476714Y-91081795D01*
X150476714Y-91156943D01*
X150464189Y-91169468D01*
X150476714Y-91181993D01*
X150489239Y-91169468D01*
X150476714Y-91156943D01*
X150476714Y-91081795D01*
X150489239Y-91069271D01*
X150476714Y-91056746D01*
X150476714Y-90750742D01*
X150486230Y-90745198D01*
X150507062Y-90742197D01*
X150531967Y-90737624D01*
X150532774Y-90726003D01*
X150551163Y-90701733D01*
X150576911Y-90683946D01*
X150576911Y-90756154D01*
X150564386Y-90768679D01*
X150576911Y-90781204D01*
X150589436Y-90768679D01*
X150576911Y-90756154D01*
X150576911Y-90683946D01*
X150606755Y-90663328D01*
X150690322Y-90615460D01*
X150702158Y-90609369D01*
X150702158Y-90706056D01*
X150689633Y-90718580D01*
X150702158Y-90731105D01*
X150714682Y-90718580D01*
X150702158Y-90706056D01*
X150702158Y-90609369D01*
X150792632Y-90562805D01*
X150904457Y-90510035D01*
X151016567Y-90461824D01*
X151119731Y-90422845D01*
X151153045Y-90411929D01*
X151274064Y-90378157D01*
X151407881Y-90346483D01*
X151501284Y-90328130D01*
X151595483Y-90317225D01*
X151713884Y-90310944D01*
X151845684Y-90308982D01*
X151980078Y-90311037D01*
X152106260Y-90316806D01*
X152213428Y-90325985D01*
X152290776Y-90338271D01*
X152325423Y-90351266D01*
X152361207Y-90368951D01*
X152374104Y-90365897D01*
X152407237Y-90363289D01*
X152474663Y-90377433D01*
X152565455Y-90404255D01*
X152668684Y-90439683D01*
X152756201Y-90473071D01*
X152756201Y-90505661D01*
X152743676Y-90518186D01*
X152756201Y-90530711D01*
X152768726Y-90518186D01*
X152756201Y-90505661D01*
X152756201Y-90473071D01*
X152773424Y-90479642D01*
X152806300Y-90493581D01*
X152806300Y-90630908D01*
X152793775Y-90643432D01*
X152806300Y-90655957D01*
X152818824Y-90643432D01*
X152806300Y-90630908D01*
X152806300Y-90493581D01*
X152831349Y-90504201D01*
X152831349Y-90706056D01*
X152818824Y-90718580D01*
X152831349Y-90731105D01*
X152843874Y-90718580D01*
X152831349Y-90706056D01*
X152831349Y-90504201D01*
X152868745Y-90520057D01*
X152881448Y-90526291D01*
X152881448Y-90681006D01*
X152868923Y-90693531D01*
X152881448Y-90706056D01*
X152893972Y-90693531D01*
X152881448Y-90681006D01*
X152881448Y-90526291D01*
X152931546Y-90550879D01*
X152931546Y-90630908D01*
X152919022Y-90643432D01*
X152931546Y-90655957D01*
X152944071Y-90643432D01*
X152931546Y-90630908D01*
X152931546Y-90550879D01*
X152943720Y-90556855D01*
X152987422Y-90585962D01*
X152994169Y-90597061D01*
X152982148Y-90626326D01*
X152982148Y-90626326D01*
G37*
X152982148Y-90626326D02*
X152952260Y-90679982D01*
X152942028Y-90696837D01*
X152889886Y-90781204D01*
X151802284Y-90781204D01*
X151574561Y-90781621D01*
X151363275Y-90782815D01*
X151173481Y-90784698D01*
X151010232Y-90787182D01*
X150878582Y-90790180D01*
X150783584Y-90793603D01*
X150730293Y-90797364D01*
X150720423Y-90799991D01*
X150713593Y-90835094D01*
X150686999Y-90889172D01*
X150650380Y-90947204D01*
X150613471Y-90994167D01*
X150586009Y-91015040D01*
X150581525Y-91014283D01*
X150568763Y-91015543D01*
X150574014Y-91027009D01*
X150571416Y-91057900D01*
X150551080Y-91113128D01*
X150520217Y-91178635D01*
X150486035Y-91240365D01*
X150455746Y-91284258D01*
X150436559Y-91296256D01*
X150436122Y-91295872D01*
X150425652Y-91307533D01*
X150420206Y-91339741D01*
X150420090Y-91364944D01*
X150430910Y-91380375D01*
X150461738Y-91387638D01*
X150521643Y-91388339D01*
X150619696Y-91384083D01*
X150659072Y-91382018D01*
X150689633Y-91380037D01*
X150689633Y-92259113D01*
X150669015Y-92268278D01*
X150672933Y-92275812D01*
X150702661Y-92278810D01*
X150706333Y-92275812D01*
X150702894Y-92260921D01*
X150689633Y-92259113D01*
X150689633Y-91380037D01*
X150727207Y-91377601D01*
X150727207Y-92209014D01*
X150714682Y-92221539D01*
X150727207Y-92234064D01*
X150739732Y-92221539D01*
X150727207Y-92209014D01*
X150727207Y-91377601D01*
X150776332Y-91374416D01*
X150858547Y-91363832D01*
X150920764Y-91346390D01*
X150978029Y-91318216D01*
X151027799Y-91287042D01*
X151027799Y-91332288D01*
X151015274Y-91344813D01*
X151027799Y-91357338D01*
X151040323Y-91344813D01*
X151027799Y-91332288D01*
X151027799Y-91287042D01*
X151178095Y-91206630D01*
X151178095Y-92359310D01*
X151165570Y-92371835D01*
X151178095Y-92384359D01*
X151190619Y-92371835D01*
X151178095Y-92359310D01*
X151178095Y-91206630D01*
X151203648Y-91192958D01*
X151378489Y-91136749D01*
X151378489Y-92234064D01*
X151365964Y-92246588D01*
X151378489Y-92259113D01*
X151391014Y-92246588D01*
X151378489Y-92234064D01*
X151378489Y-91136749D01*
X151383962Y-91134989D01*
X151561206Y-91113148D01*
X151727850Y-91127447D01*
X151876359Y-91177899D01*
X151999201Y-91264515D01*
X152004722Y-91270245D01*
X152004722Y-91282190D01*
X151992197Y-91294714D01*
X152004722Y-91307239D01*
X152017246Y-91294714D01*
X152004722Y-91282190D01*
X152004722Y-91270245D01*
X152019334Y-91285411D01*
X152054820Y-91328532D01*
X152054820Y-91607831D01*
X152042296Y-91620355D01*
X152054820Y-91632880D01*
X152067345Y-91620355D01*
X152054820Y-91607831D01*
X152054820Y-91328532D01*
X152058871Y-91333455D01*
X152082372Y-91379465D01*
X152094177Y-91438908D01*
X152098630Y-91527253D01*
X152099281Y-91570257D01*
X152091636Y-91652960D01*
X152070314Y-91738670D01*
X152040335Y-91815562D01*
X152006717Y-91871812D01*
X151974479Y-91895596D01*
X151962317Y-91892912D01*
X151946156Y-91890968D01*
X151951879Y-91903982D01*
X151947255Y-91940406D01*
X151909415Y-91995955D01*
X151847364Y-92062783D01*
X151770104Y-92133044D01*
X151686638Y-92198892D01*
X151605969Y-92252479D01*
X151537101Y-92285960D01*
X151505370Y-92293122D01*
X151464247Y-92302008D01*
X151456927Y-92314516D01*
X151445489Y-92334704D01*
X151395436Y-92355948D01*
X151318136Y-92375922D01*
X151224958Y-92392303D01*
X151127271Y-92402767D01*
X151036444Y-92404990D01*
X151018514Y-92404142D01*
X150899936Y-92388553D01*
X150794764Y-92360100D01*
X150712938Y-92322944D01*
X150664398Y-92281244D01*
X150655493Y-92252195D01*
X150649065Y-92222279D01*
X150638420Y-92222228D01*
X150610623Y-92214127D01*
X150581952Y-92183560D01*
X150563011Y-92161713D01*
X150536399Y-92147481D01*
X150492642Y-92139600D01*
X150422266Y-92136808D01*
X150315796Y-92137842D01*
X150249965Y-92139305D01*
X149953939Y-92146391D01*
X149902210Y-92238596D01*
X149862114Y-92310171D01*
X149810009Y-92403319D01*
X149765581Y-92482827D01*
X149680681Y-92634853D01*
X149558924Y-92634853D01*
X149489385Y-92633701D01*
X149446925Y-92630764D01*
X149440460Y-92628590D01*
X149444806Y-92602500D01*
X149453007Y-92540227D01*
X149463062Y-92457144D01*
X149482056Y-92331190D01*
X149509273Y-92198599D01*
X149542096Y-92067693D01*
X149577910Y-91946795D01*
X149614099Y-91844227D01*
X149625037Y-91819768D01*
X149625037Y-92509606D01*
X149612513Y-92522131D01*
X149625037Y-92534655D01*
X149637562Y-92522131D01*
X149625037Y-92509606D01*
X149625037Y-91819768D01*
X149648047Y-91768313D01*
X149650087Y-91765443D01*
X149650087Y-91983570D01*
X149637562Y-91996095D01*
X149650087Y-92008620D01*
X149662611Y-91996095D01*
X149650087Y-91983570D01*
X149650087Y-91765443D01*
X149675136Y-91730194D01*
X149675136Y-91783176D01*
X149662611Y-91795701D01*
X149675136Y-91808225D01*
X149687661Y-91795701D01*
X149675136Y-91783176D01*
X149675136Y-91730194D01*
X149677138Y-91727376D01*
X149693442Y-91724126D01*
X149708583Y-91725088D01*
X149703032Y-91712634D01*
X149703949Y-91674026D01*
X149725235Y-91617366D01*
X149725235Y-92409409D01*
X149712710Y-92421933D01*
X149725235Y-92434458D01*
X149737759Y-92421933D01*
X149725235Y-92409409D01*
X149725235Y-91617366D01*
X149728874Y-91607679D01*
X149771437Y-91523686D01*
X149825270Y-91432138D01*
X149839587Y-91410442D01*
X149839587Y-92215156D01*
X149837956Y-92218582D01*
X149850481Y-92234817D01*
X149850481Y-92284162D01*
X149837956Y-92296687D01*
X149850481Y-92309212D01*
X149863006Y-92296687D01*
X149850481Y-92284162D01*
X149850481Y-92234817D01*
X149855591Y-92241442D01*
X149863006Y-92246588D01*
X149886424Y-92252971D01*
X149888055Y-92249545D01*
X149870421Y-92226685D01*
X149863006Y-92221539D01*
X149839587Y-92215156D01*
X149839587Y-91410442D01*
X149884004Y-91343130D01*
X149900580Y-91321022D01*
X149900580Y-91482584D01*
X149888055Y-91495109D01*
X149900580Y-91507634D01*
X149913104Y-91495109D01*
X149900580Y-91482584D01*
X149900580Y-91321022D01*
X149941268Y-91266753D01*
X149990694Y-91213099D01*
X150025914Y-91192263D01*
X150030946Y-91193016D01*
X150053759Y-91192848D01*
X150051136Y-91182413D01*
X150051687Y-91146663D01*
X150075067Y-91100108D01*
X150108689Y-91060698D01*
X150126024Y-91052766D01*
X150126024Y-91156943D01*
X150113499Y-91169468D01*
X150126024Y-91181993D01*
X150138548Y-91169468D01*
X150126024Y-91156943D01*
X150126024Y-91052766D01*
X150139968Y-91046384D01*
X150145158Y-91048307D01*
X150159409Y-91048374D01*
X150154145Y-91036668D01*
X150160905Y-91005591D01*
X150201171Y-90967765D01*
X150201171Y-90981598D01*
X150188647Y-90994123D01*
X150201171Y-91006647D01*
X150213696Y-90994123D01*
X150201171Y-90981598D01*
X150201171Y-90967765D01*
X150201701Y-90967267D01*
X150206636Y-90963998D01*
X150266012Y-90920033D01*
X150326418Y-90869027D01*
X150326418Y-90956549D01*
X150313893Y-90969073D01*
X150326418Y-90981598D01*
X150338943Y-90969073D01*
X150326418Y-90956549D01*
X150326418Y-90869027D01*
X150338887Y-90858498D01*
X150375853Y-90824595D01*
X150415722Y-90791418D01*
X150415722Y-91213183D01*
X150414091Y-91216610D01*
X150431725Y-91239469D01*
X150439140Y-91244616D01*
X150462558Y-91250999D01*
X150464189Y-91247573D01*
X150446555Y-91224713D01*
X150439140Y-91219567D01*
X150415722Y-91213183D01*
X150415722Y-90791418D01*
X150436340Y-90774260D01*
X150476714Y-90750742D01*
X150476714Y-91056746D01*
X150464189Y-91069271D01*
X150476714Y-91081795D01*
X150476714Y-91156943D01*
X150464189Y-91169468D01*
X150476714Y-91181993D01*
X150489239Y-91169468D01*
X150476714Y-91156943D01*
X150476714Y-91081795D01*
X150489239Y-91069271D01*
X150476714Y-91056746D01*
X150476714Y-90750742D01*
X150486230Y-90745198D01*
X150507062Y-90742197D01*
X150531967Y-90737624D01*
X150532774Y-90726003D01*
X150551163Y-90701733D01*
X150576911Y-90683946D01*
X150576911Y-90756154D01*
X150564386Y-90768679D01*
X150576911Y-90781204D01*
X150589436Y-90768679D01*
X150576911Y-90756154D01*
X150576911Y-90683946D01*
X150606755Y-90663328D01*
X150690322Y-90615460D01*
X150702158Y-90609369D01*
X150702158Y-90706056D01*
X150689633Y-90718580D01*
X150702158Y-90731105D01*
X150714682Y-90718580D01*
X150702158Y-90706056D01*
X150702158Y-90609369D01*
X150792632Y-90562805D01*
X150904457Y-90510035D01*
X151016567Y-90461824D01*
X151119731Y-90422845D01*
X151153045Y-90411929D01*
X151274064Y-90378157D01*
X151407881Y-90346483D01*
X151501284Y-90328130D01*
X151595483Y-90317225D01*
X151713884Y-90310944D01*
X151845684Y-90308982D01*
X151980078Y-90311037D01*
X152106260Y-90316806D01*
X152213428Y-90325985D01*
X152290776Y-90338271D01*
X152325423Y-90351266D01*
X152361207Y-90368951D01*
X152374104Y-90365897D01*
X152407237Y-90363289D01*
X152474663Y-90377433D01*
X152565455Y-90404255D01*
X152668684Y-90439683D01*
X152756201Y-90473071D01*
X152756201Y-90505661D01*
X152743676Y-90518186D01*
X152756201Y-90530711D01*
X152768726Y-90518186D01*
X152756201Y-90505661D01*
X152756201Y-90473071D01*
X152773424Y-90479642D01*
X152806300Y-90493581D01*
X152806300Y-90630908D01*
X152793775Y-90643432D01*
X152806300Y-90655957D01*
X152818824Y-90643432D01*
X152806300Y-90630908D01*
X152806300Y-90493581D01*
X152831349Y-90504201D01*
X152831349Y-90706056D01*
X152818824Y-90718580D01*
X152831349Y-90731105D01*
X152843874Y-90718580D01*
X152831349Y-90706056D01*
X152831349Y-90504201D01*
X152868745Y-90520057D01*
X152881448Y-90526291D01*
X152881448Y-90681006D01*
X152868923Y-90693531D01*
X152881448Y-90706056D01*
X152893972Y-90693531D01*
X152881448Y-90681006D01*
X152881448Y-90526291D01*
X152931546Y-90550879D01*
X152931546Y-90630908D01*
X152919022Y-90643432D01*
X152931546Y-90655957D01*
X152944071Y-90643432D01*
X152931546Y-90630908D01*
X152931546Y-90550879D01*
X152943720Y-90556855D01*
X152987422Y-90585962D01*
X152994169Y-90597061D01*
X152982148Y-90626326D01*
G04 #@! TD*
D14*
G04 #@! TO.C,R7*
X188214000Y-60452000D03*
D15*
X185674000Y-60452000D03*
G04 #@! TD*
D16*
G04 #@! TO.C,J4*
X206471000Y-55245000D03*
X208471000Y-55245000D03*
X210471000Y-55245000D03*
X212471000Y-55245000D03*
G04 #@! TD*
D17*
G04 #@! TO.C,J6*
X237450000Y-53848000D03*
D18*
X234950000Y-53848000D03*
G04 #@! TD*
D14*
G04 #@! TO.C,R3*
X169672000Y-34290000D03*
D15*
X177292000Y-34290000D03*
G04 #@! TD*
D19*
G04 #@! TO.C,U2*
X215646000Y-27536000D03*
D20*
X218186000Y-44196000D03*
D21*
X215646000Y-44196000D03*
X213106000Y-44196000D03*
G04 #@! TD*
D22*
G04 #@! TO.C,J5*
X225679000Y-39624000D03*
X223139000Y-39624000D03*
X225679000Y-42164000D03*
D23*
X223139000Y-42164000D03*
G04 #@! TD*
D22*
G04 #@! TO.C,J3*
X193675000Y-39624000D03*
X193675000Y-42164000D03*
X196215000Y-39624000D03*
X196215000Y-42164000D03*
X198755000Y-39624000D03*
X198755000Y-42164000D03*
X201295000Y-39624000D03*
D23*
X201295000Y-42164000D03*
G04 #@! TD*
D16*
G04 #@! TO.C,R6*
X177038000Y-59436000D03*
X182118000Y-59436000D03*
X179578000Y-61976000D03*
G04 #@! TD*
D14*
G04 #@! TO.C,RN1*
X189738000Y-34290000D03*
X192278000Y-34290000D03*
X194818000Y-34290000D03*
X197358000Y-34290000D03*
X199898000Y-34290000D03*
X202438000Y-34290000D03*
D24*
X204978000Y-34290000D03*
G04 #@! TD*
D14*
G04 #@! TO.C,U3*
X182880000Y-42418000D03*
X175260000Y-50038000D03*
X182880000Y-44958000D03*
X175260000Y-47498000D03*
X182880000Y-47498000D03*
X175260000Y-44958000D03*
X182880000Y-50038000D03*
D24*
X175260000Y-42418000D03*
G04 #@! TD*
D25*
G04 #@! TO.C,SW2*
X174416000Y-28906000D03*
D17*
X173156000Y-26416000D03*
X168656000Y-26416000D03*
D25*
X167406000Y-28906000D03*
G04 #@! TD*
G04 #@! TO.C,SW1*
X180360000Y-28906000D03*
D17*
X181610000Y-26416000D03*
X186110000Y-26416000D03*
D25*
X187370000Y-28906000D03*
G04 #@! TD*
D14*
G04 #@! TO.C,R1*
X185801000Y-47625000D03*
D15*
X185801000Y-55245000D03*
G04 #@! TD*
D25*
G04 #@! TO.C,SW3*
X154325000Y-28906000D03*
D17*
X155575000Y-26416000D03*
X160075000Y-26416000D03*
D25*
X161335000Y-28906000D03*
G04 #@! TD*
D16*
G04 #@! TO.C,J1*
X218536000Y-55245000D03*
X220536000Y-55245000D03*
X222536000Y-55245000D03*
X224536000Y-55245000D03*
G04 #@! TD*
D15*
G04 #@! TO.C,C1*
X193294000Y-60666000D03*
D24*
X193294000Y-58166000D03*
G04 #@! TD*
D21*
G04 #@! TO.C,U1*
X230632000Y-44196000D03*
X233172000Y-44196000D03*
D20*
X235712000Y-44196000D03*
D19*
X233172000Y-27536000D03*
G04 #@! TD*
D21*
G04 #@! TO.C,Q2*
X158496000Y-44196000D03*
X161036000Y-44196000D03*
D20*
X163576000Y-44196000D03*
G04 #@! TD*
D15*
G04 #@! TO.C,R5*
X172466000Y-60960000D03*
D14*
X169926000Y-60960000D03*
G04 #@! TD*
D26*
G04 #@! TO.C,D2*
X155194000Y-40132000D03*
D27*
X165354000Y-40132000D03*
G04 #@! TD*
D15*
G04 #@! TO.C,C3*
X180848000Y-38862000D03*
X180848000Y-33862000D03*
G04 #@! TD*
D22*
G04 #@! TO.C,J2*
X171704000Y-39624000D03*
X169164000Y-39624000D03*
X171704000Y-42164000D03*
D23*
X169164000Y-42164000D03*
G04 #@! TD*
D14*
G04 #@! TO.C,D1*
X164338000Y-28702000D03*
D24*
X164338000Y-36322000D03*
G04 #@! TD*
D14*
G04 #@! TO.C,R2*
X185674000Y-44958000D03*
D15*
X185674000Y-42418000D03*
G04 #@! TD*
D28*
G04 #@! TO.C,Q1*
X160528000Y-33782000D03*
D29*
X155448000Y-33782000D03*
X157988000Y-36322000D03*
G04 #@! TD*
D30*
G04 #@! TO.C,L1*
X152456000Y-55880000D03*
X159456000Y-55880000D03*
G04 #@! TD*
D31*
G04 #@! TO.C,C5*
X171116000Y-53086000D03*
D32*
X166116000Y-53086000D03*
G04 #@! TD*
D15*
G04 #@! TO.C,R4*
X178054000Y-53848000D03*
D14*
X180594000Y-53848000D03*
G04 #@! TD*
D15*
G04 #@! TO.C,C4*
X189230000Y-54022000D03*
X189230000Y-49022000D03*
G04 #@! TD*
G04 #@! TO.C,C2*
X189230000Y-41228000D03*
X189230000Y-46228000D03*
G04 #@! TD*
D19*
G04 #@! TO.C,U1*
X161798000Y-100988000D03*
D20*
X159258000Y-84328000D03*
D21*
X161798000Y-84328000D03*
X164338000Y-84328000D03*
G04 #@! TD*
D30*
G04 #@! TO.C,L1*
X235514000Y-72644000D03*
X242514000Y-72644000D03*
G04 #@! TD*
D23*
G04 #@! TO.C,J2*
X225806000Y-86360000D03*
D22*
X223266000Y-86360000D03*
X225806000Y-88900000D03*
X223266000Y-88900000D03*
G04 #@! TD*
D24*
G04 #@! TO.C,C1*
X201676000Y-70358000D03*
D15*
X201676000Y-67858000D03*
G04 #@! TD*
G04 #@! TO.C,C2*
X205740000Y-82296000D03*
X205740000Y-87296000D03*
G04 #@! TD*
G04 #@! TO.C,C3*
X214122000Y-94662000D03*
X214122000Y-89662000D03*
G04 #@! TD*
G04 #@! TO.C,C4*
X205740000Y-79502000D03*
X205740000Y-74502000D03*
G04 #@! TD*
D32*
G04 #@! TO.C,C5*
X228854000Y-75438000D03*
D31*
X223854000Y-75438000D03*
G04 #@! TD*
D24*
G04 #@! TO.C,D1*
X230632000Y-92202000D03*
D14*
X230632000Y-99822000D03*
G04 #@! TD*
D27*
G04 #@! TO.C,D2*
X229616000Y-88392000D03*
D26*
X239776000Y-88392000D03*
G04 #@! TD*
D29*
G04 #@! TO.C,Q1*
X236982000Y-92202000D03*
X239522000Y-94742000D03*
D28*
X234442000Y-94742000D03*
G04 #@! TD*
D20*
G04 #@! TO.C,Q2*
X231394000Y-84328000D03*
D21*
X233934000Y-84328000D03*
X236474000Y-84328000D03*
G04 #@! TD*
D15*
G04 #@! TO.C,R2*
X209296000Y-86106000D03*
D14*
X209296000Y-83566000D03*
G04 #@! TD*
G04 #@! TO.C,R4*
X214376000Y-74676000D03*
D15*
X216916000Y-74676000D03*
G04 #@! TD*
D14*
G04 #@! TO.C,R5*
X225044000Y-67564000D03*
D15*
X222504000Y-67564000D03*
G04 #@! TD*
G04 #@! TO.C,R7*
X209296000Y-68072000D03*
D14*
X206756000Y-68072000D03*
G04 #@! TD*
D25*
G04 #@! TO.C,SW1*
X207600000Y-99618000D03*
D17*
X208860000Y-102108000D03*
X213360000Y-102108000D03*
D25*
X214610000Y-99618000D03*
G04 #@! TD*
G04 #@! TO.C,SW2*
X227564000Y-99618000D03*
D17*
X226314000Y-102108000D03*
X221814000Y-102108000D03*
D25*
X220554000Y-99618000D03*
G04 #@! TD*
G04 #@! TO.C,SW3*
X233635000Y-99618000D03*
D17*
X234895000Y-102108000D03*
X239395000Y-102108000D03*
D25*
X240645000Y-99618000D03*
G04 #@! TD*
D24*
G04 #@! TO.C,U3*
X219710000Y-86106000D03*
D14*
X212090000Y-78486000D03*
X219710000Y-83566000D03*
X212090000Y-81026000D03*
X219710000Y-81026000D03*
X212090000Y-83566000D03*
X219710000Y-78486000D03*
X212090000Y-86106000D03*
G04 #@! TD*
D16*
G04 #@! TO.C,R6*
X215392000Y-66548000D03*
X212852000Y-69088000D03*
X217932000Y-69088000D03*
G04 #@! TD*
D24*
G04 #@! TO.C,RN1*
X189992000Y-94234000D03*
D14*
X192532000Y-94234000D03*
X195072000Y-94234000D03*
X197612000Y-94234000D03*
X200152000Y-94234000D03*
X202692000Y-94234000D03*
X205232000Y-94234000D03*
G04 #@! TD*
D23*
G04 #@! TO.C,J3*
X193675000Y-86360000D03*
D22*
X193675000Y-88900000D03*
X196215000Y-86360000D03*
X196215000Y-88900000D03*
X198755000Y-86360000D03*
X198755000Y-88900000D03*
X201295000Y-86360000D03*
X201295000Y-88900000D03*
G04 #@! TD*
D16*
G04 #@! TO.C,J4*
X182499000Y-73279000D03*
X184499000Y-73279000D03*
X186499000Y-73279000D03*
X188499000Y-73279000D03*
G04 #@! TD*
D23*
G04 #@! TO.C,J5*
X171831000Y-86360000D03*
D22*
X169291000Y-86360000D03*
X171831000Y-88900000D03*
X169291000Y-88900000D03*
G04 #@! TD*
D16*
G04 #@! TO.C,J1*
X170434000Y-73279000D03*
X172434000Y-73279000D03*
X174434000Y-73279000D03*
X176434000Y-73279000D03*
G04 #@! TD*
D15*
G04 #@! TO.C,R3*
X217678000Y-94234000D03*
D14*
X225298000Y-94234000D03*
G04 #@! TD*
D21*
G04 #@! TO.C,U2*
X181864000Y-84328000D03*
X179324000Y-84328000D03*
D20*
X176784000Y-84328000D03*
D19*
X179324000Y-100988000D03*
G04 #@! TD*
D18*
G04 #@! TO.C,J6*
X160020000Y-74676000D03*
D17*
X157520000Y-74676000D03*
G04 #@! TD*
D15*
G04 #@! TO.C,R1*
X209169000Y-73279000D03*
D14*
X209169000Y-80899000D03*
G04 #@! TD*
M02*
