G04 #@! TF.GenerationSoftware,KiCad,Pcbnew,(5.0.1)-4*
G04 #@! TF.CreationDate,2018-12-21T14:04:30+09:00*
G04 #@! TF.ProjectId,Nixie_Module_PowerSupply_panelized,4E697869655F4D6F64756C655F506F77,rev?*
G04 #@! TF.SameCoordinates,Original*
G04 #@! TF.FileFunction,Legend,Bot*
G04 #@! TF.FilePolarity,Positive*
%FSLAX46Y46*%
G04 Gerber Fmt 4.6, Leading zero omitted, Abs format (unit mm)*
G04 Created by KiCad (PCBNEW (5.0.1)-4) date 21/12/2018 14:04:30*
%MOMM*%
%LPD*%
G01*
G04 APERTURE LIST*
%ADD10C,0.300000*%
%ADD11O,2.000000X2.000000*%
%ADD12C,2.000000*%
%ADD13C,1.924000*%
%ADD14C,2.150000*%
%ADD15R,2.150000X2.150000*%
%ADD16O,3.900000X3.900000*%
%ADD17R,2.305000X2.400000*%
%ADD18O,2.305000X2.400000*%
%ADD19O,2.100000X2.100000*%
%ADD20R,2.100000X2.100000*%
%ADD21R,2.000000X2.000000*%
%ADD22C,2.500000*%
%ADD23O,2.800000X2.800000*%
%ADD24R,2.800000X2.800000*%
%ADD25R,1.900000X1.900000*%
%ADD26C,1.900000*%
%ADD27C,2.800000*%
%ADD28C,2.400000*%
%ADD29R,2.400000X2.400000*%
G04 APERTURE END LIST*
D10*
X260228476Y-61611142D02*
X252609428Y-64468285D01*
X260228476Y-67325428D01*
X263561809Y-58277809D02*
X266895142Y-68277809D01*
X270228476Y-58277809D01*
X273561809Y-64468285D02*
X281180857Y-64468285D01*
X291657047Y-67325428D02*
X291180857Y-67801619D01*
X289752285Y-68277809D01*
X288799904Y-68277809D01*
X287371333Y-67801619D01*
X286418952Y-66849238D01*
X285942761Y-65896857D01*
X285466571Y-63992095D01*
X285466571Y-62563523D01*
X285942761Y-60658761D01*
X286418952Y-59706380D01*
X287371333Y-58754000D01*
X288799904Y-58277809D01*
X289752285Y-58277809D01*
X291180857Y-58754000D01*
X291657047Y-59230190D01*
X295942761Y-58277809D02*
X295942761Y-66373047D01*
X296418952Y-67325428D01*
X296895142Y-67801619D01*
X297847523Y-68277809D01*
X299752285Y-68277809D01*
X300704666Y-67801619D01*
X301180857Y-67325428D01*
X301657047Y-66373047D01*
X301657047Y-58277809D01*
X304990380Y-58277809D02*
X310704666Y-58277809D01*
X307847523Y-68277809D02*
X307847523Y-58277809D01*
X321657047Y-68277809D02*
X321657047Y-58277809D01*
X321657047Y-63039714D02*
X327371333Y-63039714D01*
X327371333Y-68277809D02*
X327371333Y-58277809D01*
X332133238Y-63039714D02*
X335466571Y-63039714D01*
X336895142Y-68277809D02*
X332133238Y-68277809D01*
X332133238Y-58277809D01*
X336895142Y-58277809D01*
X346895142Y-68277809D02*
X343561809Y-63515904D01*
X341180857Y-68277809D02*
X341180857Y-58277809D01*
X344990380Y-58277809D01*
X345942761Y-58754000D01*
X346418952Y-59230190D01*
X346895142Y-60182571D01*
X346895142Y-61611142D01*
X346418952Y-62563523D01*
X345942761Y-63039714D01*
X344990380Y-63515904D01*
X341180857Y-63515904D01*
X351180857Y-63039714D02*
X354514190Y-63039714D01*
X355942761Y-68277809D02*
X351180857Y-68277809D01*
X351180857Y-58277809D01*
X355942761Y-58277809D01*
%LPC*%
D11*
G04 #@! TO.C,R7*
X188214000Y-60452000D03*
D12*
X185674000Y-60452000D03*
G04 #@! TD*
D13*
G04 #@! TO.C,J4*
X206471000Y-55245000D03*
X208471000Y-55245000D03*
X210471000Y-55245000D03*
X212471000Y-55245000D03*
G04 #@! TD*
D14*
G04 #@! TO.C,J6*
X237450000Y-53848000D03*
D15*
X234950000Y-53848000D03*
G04 #@! TD*
D11*
G04 #@! TO.C,R3*
X169672000Y-34290000D03*
D12*
X177292000Y-34290000D03*
G04 #@! TD*
D16*
G04 #@! TO.C,U2*
X215646000Y-27536000D03*
D17*
X218186000Y-44196000D03*
D18*
X215646000Y-44196000D03*
X213106000Y-44196000D03*
G04 #@! TD*
D19*
G04 #@! TO.C,J5*
X225679000Y-39624000D03*
X223139000Y-39624000D03*
X225679000Y-42164000D03*
D20*
X223139000Y-42164000D03*
G04 #@! TD*
D19*
G04 #@! TO.C,J3*
X193675000Y-39624000D03*
X193675000Y-42164000D03*
X196215000Y-39624000D03*
X196215000Y-42164000D03*
X198755000Y-39624000D03*
X198755000Y-42164000D03*
X201295000Y-39624000D03*
D20*
X201295000Y-42164000D03*
G04 #@! TD*
D13*
G04 #@! TO.C,R6*
X177038000Y-59436000D03*
X182118000Y-59436000D03*
X179578000Y-61976000D03*
G04 #@! TD*
D11*
G04 #@! TO.C,RN1*
X189738000Y-34290000D03*
X192278000Y-34290000D03*
X194818000Y-34290000D03*
X197358000Y-34290000D03*
X199898000Y-34290000D03*
X202438000Y-34290000D03*
D21*
X204978000Y-34290000D03*
G04 #@! TD*
D11*
G04 #@! TO.C,U3*
X182880000Y-42418000D03*
X175260000Y-50038000D03*
X182880000Y-44958000D03*
X175260000Y-47498000D03*
X182880000Y-47498000D03*
X175260000Y-44958000D03*
X182880000Y-50038000D03*
D21*
X175260000Y-42418000D03*
G04 #@! TD*
D22*
G04 #@! TO.C,SW2*
X174416000Y-28906000D03*
D14*
X173156000Y-26416000D03*
X168656000Y-26416000D03*
D22*
X167406000Y-28906000D03*
G04 #@! TD*
G04 #@! TO.C,SW1*
X180360000Y-28906000D03*
D14*
X181610000Y-26416000D03*
X186110000Y-26416000D03*
D22*
X187370000Y-28906000D03*
G04 #@! TD*
D11*
G04 #@! TO.C,R1*
X185801000Y-47625000D03*
D12*
X185801000Y-55245000D03*
G04 #@! TD*
D22*
G04 #@! TO.C,SW3*
X154325000Y-28906000D03*
D14*
X155575000Y-26416000D03*
X160075000Y-26416000D03*
D22*
X161335000Y-28906000D03*
G04 #@! TD*
D13*
G04 #@! TO.C,J1*
X218536000Y-55245000D03*
X220536000Y-55245000D03*
X222536000Y-55245000D03*
X224536000Y-55245000D03*
G04 #@! TD*
D12*
G04 #@! TO.C,C1*
X193294000Y-60666000D03*
D21*
X193294000Y-58166000D03*
G04 #@! TD*
D18*
G04 #@! TO.C,U1*
X230632000Y-44196000D03*
X233172000Y-44196000D03*
D17*
X235712000Y-44196000D03*
D16*
X233172000Y-27536000D03*
G04 #@! TD*
D18*
G04 #@! TO.C,Q2*
X158496000Y-44196000D03*
X161036000Y-44196000D03*
D17*
X163576000Y-44196000D03*
G04 #@! TD*
D12*
G04 #@! TO.C,R5*
X172466000Y-60960000D03*
D11*
X169926000Y-60960000D03*
G04 #@! TD*
D23*
G04 #@! TO.C,D2*
X155194000Y-40132000D03*
D24*
X165354000Y-40132000D03*
G04 #@! TD*
D12*
G04 #@! TO.C,C3*
X180848000Y-38862000D03*
X180848000Y-33862000D03*
G04 #@! TD*
D19*
G04 #@! TO.C,J2*
X171704000Y-39624000D03*
X169164000Y-39624000D03*
X171704000Y-42164000D03*
D20*
X169164000Y-42164000D03*
G04 #@! TD*
D11*
G04 #@! TO.C,D1*
X164338000Y-28702000D03*
D21*
X164338000Y-36322000D03*
G04 #@! TD*
D11*
G04 #@! TO.C,R2*
X185674000Y-44958000D03*
D12*
X185674000Y-42418000D03*
G04 #@! TD*
D25*
G04 #@! TO.C,Q1*
X160528000Y-33782000D03*
D26*
X155448000Y-33782000D03*
X157988000Y-36322000D03*
G04 #@! TD*
D27*
G04 #@! TO.C,L1*
X152456000Y-55880000D03*
X159456000Y-55880000D03*
G04 #@! TD*
D28*
G04 #@! TO.C,C5*
X171116000Y-53086000D03*
D29*
X166116000Y-53086000D03*
G04 #@! TD*
D12*
G04 #@! TO.C,R4*
X178054000Y-53848000D03*
D11*
X180594000Y-53848000D03*
G04 #@! TD*
D12*
G04 #@! TO.C,C4*
X189230000Y-54022000D03*
X189230000Y-49022000D03*
G04 #@! TD*
G04 #@! TO.C,C2*
X189230000Y-41228000D03*
X189230000Y-46228000D03*
G04 #@! TD*
D16*
G04 #@! TO.C,U1*
X161798000Y-100988000D03*
D17*
X159258000Y-84328000D03*
D18*
X161798000Y-84328000D03*
X164338000Y-84328000D03*
G04 #@! TD*
D27*
G04 #@! TO.C,L1*
X235514000Y-72644000D03*
X242514000Y-72644000D03*
G04 #@! TD*
D20*
G04 #@! TO.C,J2*
X225806000Y-86360000D03*
D19*
X223266000Y-86360000D03*
X225806000Y-88900000D03*
X223266000Y-88900000D03*
G04 #@! TD*
D21*
G04 #@! TO.C,C1*
X201676000Y-70358000D03*
D12*
X201676000Y-67858000D03*
G04 #@! TD*
G04 #@! TO.C,C2*
X205740000Y-82296000D03*
X205740000Y-87296000D03*
G04 #@! TD*
G04 #@! TO.C,C3*
X214122000Y-94662000D03*
X214122000Y-89662000D03*
G04 #@! TD*
G04 #@! TO.C,C4*
X205740000Y-79502000D03*
X205740000Y-74502000D03*
G04 #@! TD*
D29*
G04 #@! TO.C,C5*
X228854000Y-75438000D03*
D28*
X223854000Y-75438000D03*
G04 #@! TD*
D21*
G04 #@! TO.C,D1*
X230632000Y-92202000D03*
D11*
X230632000Y-99822000D03*
G04 #@! TD*
D24*
G04 #@! TO.C,D2*
X229616000Y-88392000D03*
D23*
X239776000Y-88392000D03*
G04 #@! TD*
D26*
G04 #@! TO.C,Q1*
X236982000Y-92202000D03*
X239522000Y-94742000D03*
D25*
X234442000Y-94742000D03*
G04 #@! TD*
D17*
G04 #@! TO.C,Q2*
X231394000Y-84328000D03*
D18*
X233934000Y-84328000D03*
X236474000Y-84328000D03*
G04 #@! TD*
D12*
G04 #@! TO.C,R2*
X209296000Y-86106000D03*
D11*
X209296000Y-83566000D03*
G04 #@! TD*
G04 #@! TO.C,R4*
X214376000Y-74676000D03*
D12*
X216916000Y-74676000D03*
G04 #@! TD*
D11*
G04 #@! TO.C,R5*
X225044000Y-67564000D03*
D12*
X222504000Y-67564000D03*
G04 #@! TD*
G04 #@! TO.C,R7*
X209296000Y-68072000D03*
D11*
X206756000Y-68072000D03*
G04 #@! TD*
D22*
G04 #@! TO.C,SW1*
X207600000Y-99618000D03*
D14*
X208860000Y-102108000D03*
X213360000Y-102108000D03*
D22*
X214610000Y-99618000D03*
G04 #@! TD*
G04 #@! TO.C,SW2*
X227564000Y-99618000D03*
D14*
X226314000Y-102108000D03*
X221814000Y-102108000D03*
D22*
X220554000Y-99618000D03*
G04 #@! TD*
G04 #@! TO.C,SW3*
X233635000Y-99618000D03*
D14*
X234895000Y-102108000D03*
X239395000Y-102108000D03*
D22*
X240645000Y-99618000D03*
G04 #@! TD*
D21*
G04 #@! TO.C,U3*
X219710000Y-86106000D03*
D11*
X212090000Y-78486000D03*
X219710000Y-83566000D03*
X212090000Y-81026000D03*
X219710000Y-81026000D03*
X212090000Y-83566000D03*
X219710000Y-78486000D03*
X212090000Y-86106000D03*
G04 #@! TD*
D13*
G04 #@! TO.C,R6*
X215392000Y-66548000D03*
X212852000Y-69088000D03*
X217932000Y-69088000D03*
G04 #@! TD*
D21*
G04 #@! TO.C,RN1*
X189992000Y-94234000D03*
D11*
X192532000Y-94234000D03*
X195072000Y-94234000D03*
X197612000Y-94234000D03*
X200152000Y-94234000D03*
X202692000Y-94234000D03*
X205232000Y-94234000D03*
G04 #@! TD*
D20*
G04 #@! TO.C,J3*
X193675000Y-86360000D03*
D19*
X193675000Y-88900000D03*
X196215000Y-86360000D03*
X196215000Y-88900000D03*
X198755000Y-86360000D03*
X198755000Y-88900000D03*
X201295000Y-86360000D03*
X201295000Y-88900000D03*
G04 #@! TD*
D13*
G04 #@! TO.C,J4*
X182499000Y-73279000D03*
X184499000Y-73279000D03*
X186499000Y-73279000D03*
X188499000Y-73279000D03*
G04 #@! TD*
D20*
G04 #@! TO.C,J5*
X171831000Y-86360000D03*
D19*
X169291000Y-86360000D03*
X171831000Y-88900000D03*
X169291000Y-88900000D03*
G04 #@! TD*
D13*
G04 #@! TO.C,J1*
X170434000Y-73279000D03*
X172434000Y-73279000D03*
X174434000Y-73279000D03*
X176434000Y-73279000D03*
G04 #@! TD*
D12*
G04 #@! TO.C,R3*
X217678000Y-94234000D03*
D11*
X225298000Y-94234000D03*
G04 #@! TD*
D18*
G04 #@! TO.C,U2*
X181864000Y-84328000D03*
X179324000Y-84328000D03*
D17*
X176784000Y-84328000D03*
D16*
X179324000Y-100988000D03*
G04 #@! TD*
D15*
G04 #@! TO.C,J6*
X160020000Y-74676000D03*
D14*
X157520000Y-74676000D03*
G04 #@! TD*
D12*
G04 #@! TO.C,R1*
X209169000Y-73279000D03*
D11*
X209169000Y-80899000D03*
G04 #@! TD*
M02*
